  0
SECTION
  2
HEADER
  9
$ACADVER
  1
AC1015
  9
$ACADMAINTVER
 70
     6
  9
$DWGCODEPAGE
  3
ANSI_936
  9
$INSBASE
 10
0.0
 20
0.0
 30
0.0
  9
$EXTMIN
 10
0.0
 20
0.0
 30
0.0
  9
$EXTMAX
 10
420.0
 20
297.0
 30
0.0
  9
$LIMMIN
 10
0.0
 20
0.0
  9
$LIMMAX
 10
420.0
 20
297.0
  9
$ORTHOMODE
 70
     0
  9
$REGENMODE
 70
     1
  9
$FILLMODE
 70
     1
  9
$QTEXTMODE
 70
     0
  9
$MIRRTEXT
 70
     1
  9
$LTSCALE
 40
1.0
  9
$ATTMODE
 70
     1
  9
$TEXTSIZE
 40
3.5
  9
$TRACEWID
 40
1.0
  9
$TEXTSTYLE
  7
Standard
  9
$CLAYER
  8
0
  9
$CELTYPE
  6
ByLayer
  9
$CECOLOR
 62
   256
  9
$CELTSCALE
 40
1.0
  9
$DISPSILH
 70
     0
  9
$DIMSCALE
 40
1.0
  9
$DIMASZ
 40
4.08
  9
$DIMEXO
 40
0.0
  9
$DIMDLI
 40
3.75
  9
$DIMRND
 40
0.0
  9
$DIMDLE
 40
0.0
  9
$DIMEXE
 40
2.0
  9
$DIMTP
 40
0.0
  9
$DIMTM
 40
0.0
  9
$DIMTXT
 40
3.5
  9
$DIMCEN
 40
2.5
  9
$DIMTSZ
 40
0.0
  9
$DIMTOL
 70
     0
  9
$DIMLIM
 70
     0
  9
$DIMTIH
 70
     1
  9
$DIMTOH
 70
     1
  9
$DIMSE1
 70
     0
  9
$DIMSE2
 70
     0
  9
$DIMTAD
 70
     1
  9
$DIMZIN
 70
     0
  9
$DIMBLK
  1

  9
$DIMASO
 70
     1
  9
$DIMSHO
 70
     1
  9
$DIMPOST
  1

  9
$DIMAPOST
  1

  9
$DIMALT
 70
     0
  9
$DIMALTD
 70
     3
  9
$DIMALTF
 40
0.0393700787
  9
$DIMLFAC
 40
1.0
  9
$DIMTOFL
 70
     1
  9
$DIMTVP
 40
0.0
  9
$DIMTIX
 70
     0
  9
$DIMSOXD
 70
     0
  9
$DIMSAH
 70
     0
  9
$DIMBLK1
  1

  9
$DIMBLK2
  1

  9
$DIMSTYLE
  2
ISO-25
  9
$DIMCLRD
 70
     0
  9
$DIMCLRE
 70
     0
  9
$DIMCLRT
 70
     0
  9
$DIMTFAC
 40
1.0
  9
$DIMGAP
 40
1.524
  9
$DIMJUST
 70
     0
  9
$DIMSD1
 70
     0
  9
$DIMSD2
 70
     0
  9
$DIMTOLJ
 70
     0
  9
$DIMTZIN
 70
     0
  9
$DIMALTZ
 70
     0
  9
$DIMALTTZ
 70
     0
  9
$DIMUPT
 70
     0
  9
$DIMDEC
 70
     2
  9
$DIMTDEC
 70
     2
  9
$DIMALTU
 70
     2
  9
$DIMALTTD
 70
     3
  9
$DIMTXSTY
  7
Standard
  9
$DIMAUNIT
 70
     0
  9
$DIMADEC
 70
     2
  9
$DIMALTRND
 40
0.0
  9
$DIMAZIN
 70
     0
  9
$DIMDSEP
 70
    44
  9
$DIMATFIT
 70
     3
  9
$DIMFRAC
 70
     0
  9
$DIMLDRBLK
  1

  9
$DIMLUNIT
 70
     2
  9
$DIMLWD
 70
    -2
  9
$DIMLWE
 70
    -2
  9
$DIMTMOVE
 70
     0
  9
$LUNITS
 70
     2
  9
$LUPREC
 70
     2
  9
$SKETCHINC
 40
1.0
  9
$FILLETRAD
 40
10.0
  9
$AUNITS
 70
     0
  9
$AUPREC
 70
     2
  9
$MENU
  1
.
  9
$ELEVATION
 40
0.0
  9
$PELEVATION
 40
0.0
  9
$THICKNESS
 40
0.0
  9
$LIMCHECK
 70
     0
  9
$CHAMFERA
 40
0.0
  9
$CHAMFERB
 40
0.0
  9
$CHAMFERC
 40
0.0
  9
$CHAMFERD
 40
0.0
  9
$SKPOLY
 70
     0
  9
$TDCREATE
 40
2460602.870223391
  9
$TDUCREATE
 40
2460602.536890058
  9
$TDUPDATE
 40
2460602.870223808
  9
$TDUUPDATE
 40
2460602.536890475
  9
$TDINDWG
 40
0.0000000116
  9
$TDUSRTIMER
 40
0.0000000116
  9
$USRTIMER
 70
     1
  9
$ANGBASE
 50
0.0
  9
$ANGDIR
 70
     0
  9
$PDMODE
 70
     0
  9
$PDSIZE
 40
-1.0
  9
$PLINEWID
 40
0.0
  9
$SPLFRAME
 70
     0
  9
$SPLINETYPE
 70
     6
  9
$SPLINESEGS
 70
     8
  9
$HANDSEED
  5
238
  9
$SURFTAB1
 70
     6
  9
$SURFTAB2
 70
     6
  9
$SURFTYPE
 70
     6
  9
$SURFU
 70
     6
  9
$SURFV
 70
     6
  9
$UCSBASE
  2

  9
$UCSNAME
  2

  9
$UCSORG
 10
0.0
 20
0.0
 30
0.0
  9
$UCSXDIR
 10
1.0
 20
0.0
 30
0.0
  9
$UCSYDIR
 10
0.0
 20
1.0
 30
0.0
  9
$UCSORTHOREF
  2

  9
$UCSORTHOVIEW
 70
     0
  9
$UCSORGTOP
 10
0.0
 20
0.0
 30
0.0
  9
$UCSORGBOTTOM
 10
0.0
 20
0.0
 30
0.0
  9
$UCSORGLEFT
 10
0.0
 20
0.0
 30
0.0
  9
$UCSORGRIGHT
 10
0.0
 20
0.0
 30
0.0
  9
$UCSORGFRONT
 10
0.0
 20
0.0
 30
0.0
  9
$UCSORGBACK
 10
0.0
 20
0.0
 30
0.0
  9
$PUCSBASE
  2

  9
$PUCSNAME
  2

  9
$PUCSORG
 10
0.0
 20
0.0
 30
0.0
  9
$PUCSXDIR
 10
1.0
 20
0.0
 30
0.0
  9
$PUCSYDIR
 10
0.0
 20
1.0
 30
0.0
  9
$PUCSORTHOREF
  2

  9
$PUCSORTHOVIEW
 70
     0
  9
$PUCSORGTOP
 10
0.0
 20
0.0
 30
0.0
  9
$PUCSORGBOTTOM
 10
0.0
 20
0.0
 30
0.0
  9
$PUCSORGLEFT
 10
0.0
 20
0.0
 30
0.0
  9
$PUCSORGRIGHT
 10
0.0
 20
0.0
 30
0.0
  9
$PUCSORGFRONT
 10
0.0
 20
0.0
 30
0.0
  9
$PUCSORGBACK
 10
0.0
 20
0.0
 30
0.0
  9
$USERI1
 70
     0
  9
$USERI2
 70
     0
  9
$USERI3
 70
     0
  9
$USERI4
 70
     0
  9
$USERI5
 70
     0
  9
$USERR1
 40
0.0
  9
$USERR2
 40
0.0
  9
$USERR3
 40
0.0
  9
$USERR4
 40
0.0
  9
$USERR5
 40
0.0
  9
$WORLDVIEW
 70
     1
  9
$SHADEDGE
 70
     3
  9
$SHADEDIF
 70
    70
  9
$TILEMODE
 70
     1
  9
$MAXACTVP
 70
    64
  9
$PINSBASE
 10
0.0
 20
0.0
 30
0.0
  9
$PLIMCHECK
 70
     0
  9
$PEXTMIN
 10
1.0000000000E+20
 20
1.0000000000E+20
 30
1.0000000000E+20
  9
$PEXTMAX
 10
-1.0000000000E+20
 20
-1.0000000000E+20
 30
-1.0000000000E+20
  9
$PLIMMIN
 10
0.0
 20
0.0
  9
$PLIMMAX
 10
420.0
 20
297.0
  9
$UNITMODE
 70
     0
  9
$VISRETAIN
 70
     1
  9
$PLINEGEN
 70
     0
  9
$PSLTSCALE
 70
     1
  9
$TREEDEPTH
 70
  3020
  9
$CMLSTYLE
  2
Standard
  9
$CMLJUST
 70
     0
  9
$CMLSCALE
 40
20.0
  9
$PROXYGRAPHICS
 70
     1
  9
$MEASUREMENT
 70
     1
  9
$CELWEIGHT
370
    -1
  9
$ENDCAPS
280
     0
  9
$JOINSTYLE
280
     0
  9
$LWDISPLAY
290
     1
  9
$INSUNITS
 70
     4
  9
$HYPERLINKBASE
  1

  9
$STYLESHEET
  1

  9
$XEDIT
290
     1
  9
$CEPSNTYPE
380
     0
  9
$PSTYLEMODE
290
     1
  9
$FINGERPRINTGUID
  2
{8e0158d3-ec2e-4fa4-a138-0e9f7540dba5}
  9
$VERSIONGUID
  2
{FAEB1C32-E019-11D5-929B-00C0DF256EC4}
  9
$EXTNAMES
290
     1
  9
$PSVPSCALE
 40
0.0
  9
$OLESTARTUP
290
     0
  0
ENDSEC
  0
SECTION
  2
CLASSES
  0
CLASS
  1
ACDBDICTIONARYWDFLT
  2
AcDbDictionaryWithDefault
  3
ObjectDBX Classes
 90
        0
280
     0
281
     0
  0
CLASS
  1
VISUALSTYLE
  2
AcDbVisualStyle
  3
ObjectDBX Classes
 90
     4095
280
     0
281
     0
  0
CLASS
  1
MATERIAL
  2
AcDbMaterial
  3
ObjectDBX Classes
 90
     1153
280
     0
281
     0
  0
CLASS
  1
SCALE
  2
AcDbScale
  3
ObjectDBX Classes
 90
     1153
280
     0
281
     0
  0
CLASS
  1
TABLESTYLE
  2
AcDbTableStyle
  3
ObjectDBX Classes
 90
     4095
280
     0
281
     0
  0
CLASS
  1
MLEADERSTYLE
  2
AcDbMLeaderStyle
  3
ACDB_MLEADERSTYLE_CLASS
 90
     4095
280
     0
281
     0
  0
CLASS
  1
SUN
  2
AcDbSun
  3
SCENEOE
 90
     1153
280
     0
281
     0
  0
CLASS
  1
ACDBPLACEHOLDER
  2
AcDbPlaceHolder
  3
ObjectDBX Classes
 90
        0
280
     0
281
     0
  0
CLASS
  1
LAYOUT
  2
AcDbLayout
  3
ObjectDBX Classes
 90
        0
280
     0
281
     0
  0
ENDSEC
  0
SECTION
  2
TABLES
  0
TABLE
  2
VPORT
  5
8
330
0
100
AcDbSymbolTable
 70
     1
  0
VPORT
  5
29
330
8
100
AcDbSymbolTableRecord
100
AcDbViewportTableRecord
  2
*Active
 70
     0
 10
0.0
 20
0.0
 11
1.0
 21
1.0
 12
210.0
 22
148.5
 13
0.0
 23
0.0
 14
10.0
 24
10.0
 15
10.0
 25
10.0
 16
0.0
 26
0.0
 36
1.0
 17
0.0
 27
0.0
 37
0.0
 40
297.0
 41
1.4141414141
 42
50.0
 43
0.0
 44
0.0
 50
0.0
 51
0.0
 71
     0
 72
  2000
 73
     1
 74
     3
 75
     0
 76
     0
 77
     0
 78
     0
281
     0
 65
     1
110
0.0
120
0.0
130
0.0
111
1.0
121
0.0
131
0.0
112
0.0
122
1.0
132
0.0
 79
     0
146
0.0
  0
ENDTAB
  0
TABLE
  2
LTYPE
  5
5
330
0
100
AcDbSymbolTable
 70
     6
  0
LTYPE
  5
14
330
5
100
AcDbSymbolTableRecord
100
AcDbLinetypeTableRecord
  2
ByBlock
 70
     0
  3

 72
    65
 73
     0
 40
0.0
  0
LTYPE
  5
15
330
5
100
AcDbSymbolTableRecord
100
AcDbLinetypeTableRecord
  2
ByLayer
 70
     0
  3

 72
    65
 73
     0
 40
0.0
  0
LTYPE
  5
16
330
5
100
AcDbSymbolTableRecord
100
AcDbLinetypeTableRecord
  2
Continuous
 70
     0
  3
Solid line
 72
    65
 73
     0
 40
0.0
  0
LTYPE
  5
6E
330
5
100
AcDbSymbolTableRecord
100
AcDbLinetypeTableRecord
  2
HIDDEN
 70
     0
  3
Hidden __ __ __ __ __ __ __ __ __ __ __ __ __ __
 72
    65
 73
     2
 40
1.905
 49
1.27
 74
     0
 49
-0.635
 74
     0
  0
LTYPE
  5
6F
330
5
100
AcDbSymbolTableRecord
100
AcDbLinetypeTableRecord
  2
PHANTOM
 70
     0
  3
Phantom ______  __  __  ______  __  __  ______
 72
    65
 73
     6
 40
12.7
 49
6.35
 74
     0
 49
-1.27
 74
     0
 49
1.27
 74
     0
 49
-1.27
 74
     0
 49
1.27
 74
     0
 49
-1.27
 74
     0
  0
LTYPE
  5
70
330
5
100
AcDbSymbolTableRecord
100
AcDbLinetypeTableRecord
  2
CENTER
 70
     0
  3
Center ____ _ ____ _ ____ _ ____ _ ____ _ ____
 72
    65
 73
     4
 40
10.16
 49
6.35
 74
     0
 49
-1.27
 74
     0
 49
1.27
 74
     0
 49
-1.27
 74
     0
  0
LTYPE
  5
71
330
5
100
AcDbSymbolTableRecord
100
AcDbLinetypeTableRecord
  2
CENTERX2
 70
     0
  3
Center (2x) ________  __  ________  __  _____
 72
    65
 73
     4
 40
20.32
 49
12.7
 74
     0
 49
-2.54
 74
     0
 49
2.54
 74
     0
 49
-2.54
 74
     0
  0
LTYPE
  5
72
330
5
100
AcDbSymbolTableRecord
100
AcDbLinetypeTableRecord
  2
DOT2
 70
     0
  3
Dot (.5x) ........................................
 72
    65
 73
     2
 40
0.635
 49
0.0
 74
     0
 49
-0.635
 74
     0
  0
ENDTAB
  0
TABLE
  2
LAYER
  5
2
330
0
100
AcDbSymbolTable
 70
    14
  0
LAYER
  5
10
330
2
100
AcDbSymbolTableRecord
100
AcDbLayerTableRecord
  2
0
 70
     0
 62
     7
  6
Continuous
370
    -3
390
F
  0
LAYER
  5
73
330
2
100
AcDbSymbolTableRecord
100
AcDbLayerTableRecord
  2
SLD-0
 70
     0
 62
     7
  6
Continuous
370
    -3
390
F
  0
LAYER
  5
74
330
2
100
AcDbSymbolTableRecord
100
AcDbLayerTableRecord
  2
5
 70
     0
 62
     7
  6
Continuous
370
    -3
390
F
  0
LAYER
  5
75
330
2
100
AcDbSymbolTableRecord
100
AcDbLayerTableRecord
  2
9
 70
     0
 62
     7
  6
Continuous
370
    -3
390
F
  0
LAYER
  5
76
330
2
100
AcDbSymbolTableRecord
100
AcDbLayerTableRecord
  2
10
 70
     0
 62
     7
  6
Continuous
370
    -3
390
F
  0
LAYER
  5
77
330
2
100
AcDbSymbolTableRecord
100
AcDbLayerTableRecord
  2
轮廓实线层
 70
     0
 62
     7
  6
Continuous
370
    50
390
F
  0
LAYER
  5
78
330
2
100
AcDbSymbolTableRecord
100
AcDbLayerTableRecord
  2
细线层
 70
     0
 62
     4
  6
Continuous
370
    25
390
F
  0
LAYER
  5
79
330
2
100
AcDbSymbolTableRecord
100
AcDbLayerTableRecord
  2
中心线层
 70
     0
 62
     1
  6
CENTERX2
370
    25
390
F
  0
LAYER
  5
7A
330
2
100
AcDbSymbolTableRecord
100
AcDbLayerTableRecord
  2
虚线层
 70
     0
 62
     6
  6
HIDDEN
370
    25
390
F
  0
LAYER
  5
7B
330
2
100
AcDbSymbolTableRecord
100
AcDbLayerTableRecord
  2
剖面线层
 70
     0
 62
     2
  6
Continuous
370
    25
390
F
  0
LAYER
  5
7C
330
2
100
AcDbSymbolTableRecord
100
AcDbLayerTableRecord
  2
文字层
 70
     0
 62
     3
  6
Continuous
370
    25
390
F
  0
LAYER
  5
7D
330
2
100
AcDbSymbolTableRecord
100
AcDbLayerTableRecord
  2
标注层
 70
     0
 62
     4
  6
Continuous
370
    25
390
F
  0
LAYER
  5
7E
330
2
100
AcDbSymbolTableRecord
100
AcDbLayerTableRecord
  2
符号标注层
 70
     0
 62
    31
  6
Continuous
370
    25
390
F
  0
LAYER
  5
7F
330
2
100
AcDbSymbolTableRecord
100
AcDbLayerTableRecord
  2
双点划线层
 70
     0
 62
     6
  6
PHANTOM
370
    25
390
F
  0
ENDTAB
  0
TABLE
  2
STYLE
  5
3
330
0
100
AcDbSymbolTable
 70
     1
  0
STYLE
  5
11
330
3
100
AcDbSymbolTableRecord
100
AcDbTextStyleTableRecord
  2
Standard
 70
     0
 40
0.0
 41
1.0
 50
0.0
 71
     0
 42
3.5
  3
txt
  4

  0
ENDTAB
  0
TABLE
  2
VIEW
  5
6
330
0
100
AcDbSymbolTable
 70
     0
  0
ENDTAB
  0
TABLE
  2
UCS
  5
7
330
0
100
AcDbSymbolTable
 70
     0
  0
ENDTAB
  0
TABLE
  2
APPID
  5
9
330
0
100
AcDbSymbolTable
 70
     1
  0
APPID
  5
12
330
9
100
AcDbSymbolTableRecord
100
AcDbRegAppTableRecord
  2
ACAD
 70
     0
  0
ENDTAB
  0
TABLE
  2
DIMSTYLE
  5
A
330
0
100
AcDbSymbolTable
 70
     1
100
AcDbDimStyleTable
  0
DIMSTYLE
105
27
330
A
100
AcDbSymbolTableRecord
100
AcDbDimStyleTableRecord
  2
ISO-25
 70
     0
 41
2.5
 42
0.625
 43
3.75
 44
1.25
 73
     0
 74
     0
 77
     1
 78
     8
140
2.5
141
2.5
143
0.0393700787
147
0.625
171
     3
172
     1
178
     0
271
     2
272
     2
274
     3
278
    44
283
     0
284
     8
340
11
  0
ENDTAB
  0
TABLE
  2
BLOCK_RECORD
  5
1
330
0
100
AcDbSymbolTable
 70
     1
  0
BLOCK_RECORD
  5
1F
330
1
100
AcDbSymbolTableRecord
100
AcDbBlockTableRecord
  2
*Model_Space
340
22
  0
BLOCK_RECORD
  5
1B
330
1
100
AcDbSymbolTableRecord
100
AcDbBlockTableRecord
  2
*Paper_Space
340
1E
  0
BLOCK_RECORD
  5
23
330
1
100
AcDbSymbolTableRecord
100
AcDbBlockTableRecord
  2
*Paper_Space0
340
26
  0
ENDTAB
  0
ENDSEC
  0
SECTION
  2
BLOCKS
  0
BLOCK
  5
20
330
1F
100
AcDbEntity
  8
0
100
AcDbBlockBegin
  2
*Model_Space
 70
     0
 10
0.0
 20
0.0
 30
0.0
  3
*Model_Space
  1

  0
ENDBLK
  5
21
330
1F
100
AcDbEntity
  8
0
100
AcDbBlockEnd
  0
BLOCK
  5
1C
330
1B
100
AcDbEntity
 67
     1
  8
0
100
AcDbBlockBegin
  2
*Paper_Space
 70
     0
 10
0.0
 20
0.0
 30
0.0
  3
*Paper_Space
  1

  0
ENDBLK
  5
1D
330
1B
100
AcDbEntity
 67
     1
  8
0
100
AcDbBlockEnd
  0
BLOCK
  5
24
330
23
100
AcDbEntity
  8
0
100
AcDbBlockBegin
  2
*Paper_Space0
 70
     0
 10
0.0
 20
0.0
 30
0.0
  3
*Paper_Space0
  1

  0
ENDBLK
  5
25
330
23
100
AcDbEntity
  8
0
100
AcDbBlockEnd
  0
ENDSEC
  0
SECTION
  2
ENTITIES
  0
LINE
  5
80
330
1F
100
AcDbEntity
  8
0
  6
Continuous
 62
     7
370
    25
100
AcDbLine
 10
95.4449438366
 20
154.9643999377
 30
0.0
 11
94.6260108095
 21
152.7143999377
 31
0.0
  0
LINE
  5
81
330
1F
100
AcDbEntity
  8
0
  6
Continuous
 62
     7
370
    25
100
AcDbLine
 10
96.2877996948
 20
154.9643999377
 30
0.0
 11
95.4449438366
 21
154.9643999377
 31
0.0
  0
LINE
  5
82
330
1F
100
AcDbEntity
  8
0
  6
Continuous
 62
     7
370
    25
100
AcDbLine
 10
98.7649438366
 20
154.9643999377
 30
0.0
 11
97.9460108095
 21
152.7143999377
 31
0.0
  0
LINE
  5
83
330
1F
100
AcDbEntity
  8
0
  6
Continuous
 62
     7
370
    25
100
AcDbLine
 10
99.6077996948
 20
154.9643999377
 30
0.0
 11
98.7649438366
 21
154.9643999377
 31
0.0
  0
LINE
  5
84
330
1F
100
AcDbEntity
  8
0
  6
Continuous
 62
     7
370
    25
100
AcDbLine
 10
100.4267327219
 20
152.7143999377
 30
0.0
 11
99.6077996948
 21
154.9643999377
 31
0.0
  0
LINE
  5
85
330
1F
100
AcDbEntity
  8
0
  6
Continuous
 62
     7
370
    25
100
AcDbLine
 10
101.2660108095
 20
152.7143999377
 30
0.0
 11
100.4267327219
 21
152.7143999377
 31
0.0
  0
LINE
  5
86
330
1F
100
AcDbEntity
  8
0
  6
Continuous
 62
     7
370
    25
100
AcDbLine
 10
102.0849438366
 20
154.9643999377
 30
0.0
 11
101.2660108095
 21
152.7143999377
 31
0.0
  0
LINE
  5
87
330
1F
100
AcDbEntity
  8
0
  6
Continuous
 62
     7
370
    25
100
AcDbLine
 10
102.9277996948
 20
154.9643999377
 30
0.0
 11
102.0849438366
 21
154.9643999377
 31
0.0
  0
LINE
  5
88
330
1F
100
AcDbEntity
  8
0
  6
Continuous
 62
     7
370
    25
100
AcDbLine
 10
103.7467327219
 20
152.7143999377
 30
0.0
 11
102.9277996948
 21
154.9643999377
 31
0.0
  0
LINE
  5
89
330
1F
100
AcDbEntity
  8
0
  6
Continuous
 62
     7
370
    25
100
AcDbLine
 10
104.5860108095
 20
152.7143999377
 30
0.0
 11
103.7467327219
 21
152.7143999377
 31
0.0
  0
LINE
  5
8A
330
1F
100
AcDbEntity
  8
0
  6
Continuous
 62
     7
370
    25
100
AcDbLine
 10
105.4049438366
 20
154.9643999377
 30
0.0
 11
104.5860108095
 21
152.7143999377
 31
0.0
  0
LINE
  5
8B
330
1F
100
AcDbEntity
  8
0
  6
Continuous
 62
     7
370
    25
100
AcDbLine
 10
106.2477996948
 20
154.9643999377
 30
0.0
 11
105.4049438366
 21
154.9643999377
 31
0.0
  0
LINE
  5
8C
330
1F
100
AcDbEntity
  8
0
  6
Continuous
 62
     7
370
    25
100
AcDbLine
 10
107.0667327219
 20
152.7143999377
 30
0.0
 11
106.2477996948
 21
154.9643999377
 31
0.0
  0
LINE
  5
8D
330
1F
100
AcDbEntity
  8
0
  6
Continuous
 62
     7
370
    25
100
AcDbLine
 10
107.9060108095
 20
152.7143999377
 30
0.0
 11
107.0667327219
 21
152.7143999377
 31
0.0
  0
LINE
  5
8E
330
1F
100
AcDbEntity
  8
0
  6
Continuous
 62
     7
370
    25
100
AcDbLine
 10
108.7249438366
 20
154.9643999377
 30
0.0
 11
107.9060108095
 21
152.7143999377
 31
0.0
  0
LINE
  5
8F
330
1F
100
AcDbEntity
  8
0
  6
Continuous
 62
     7
370
    25
100
AcDbLine
 10
109.5677996948
 20
154.9643999377
 30
0.0
 11
108.7249438366
 21
154.9643999377
 31
0.0
  0
LINE
  5
90
330
1F
100
AcDbEntity
  8
0
  6
Continuous
 62
     7
370
    25
100
AcDbLine
 10
110.3867327219
 20
152.7143999377
 30
0.0
 11
109.5677996948
 21
154.9643999377
 31
0.0
  0
LINE
  5
91
330
1F
100
AcDbEntity
  8
0
  6
Continuous
 62
     7
370
    25
100
AcDbLine
 10
111.2260108095
 20
152.7143999377
 30
0.0
 11
110.3867327219
 21
152.7143999377
 31
0.0
  0
LINE
  5
92
330
1F
100
AcDbEntity
  8
0
  6
Continuous
 62
     7
370
    25
100
AcDbLine
 10
112.0449438366
 20
154.9643999377
 30
0.0
 11
111.2260108095
 21
152.7143999377
 31
0.0
  0
LINE
  5
93
330
1F
100
AcDbEntity
  8
0
  6
Continuous
 62
     7
370
    25
100
AcDbLine
 10
112.8877996948
 20
154.9643999377
 30
0.0
 11
112.0449438366
 21
154.9643999377
 31
0.0
  0
LINE
  5
94
330
1F
100
AcDbEntity
  8
0
  6
Continuous
 62
     7
370
    25
100
AcDbLine
 10
113.7067327219
 20
152.7143999377
 30
0.0
 11
112.8877996948
 21
154.9643999377
 31
0.0
  0
LINE
  5
95
330
1F
100
AcDbEntity
  8
0
  6
Continuous
 62
     7
370
    25
100
AcDbLine
 10
114.5460108095
 20
152.7143999377
 30
0.0
 11
113.7067327219
 21
152.7143999377
 31
0.0
  0
LINE
  5
96
330
1F
100
AcDbEntity
  8
0
  6
Continuous
 62
     7
370
    25
100
AcDbLine
 10
115.3649438366
 20
154.9643999377
 30
0.0
 11
114.5460108095
 21
152.7143999377
 31
0.0
  0
LINE
  5
97
330
1F
100
AcDbEntity
  8
0
  6
Continuous
 62
     7
370
    25
100
AcDbLine
 10
116.2077996948
 20
154.9643999377
 30
0.0
 11
115.3649438366
 21
154.9643999377
 31
0.0
  0
LINE
  5
98
330
1F
100
AcDbEntity
  8
0
  6
Continuous
 62
     7
370
    25
100
AcDbLine
 10
117.0267327219
 20
152.7143999377
 30
0.0
 11
116.2077996948
 21
154.9643999377
 31
0.0
  0
LINE
  5
99
330
1F
100
AcDbEntity
  8
0
  6
Continuous
 62
     7
370
    25
100
AcDbLine
 10
117.8660108095
 20
152.7143999377
 30
0.0
 11
117.0267327219
 21
152.7143999377
 31
0.0
  0
LINE
  5
9A
330
1F
100
AcDbEntity
  8
0
  6
Continuous
 62
     7
370
    25
100
AcDbLine
 10
118.6849438366
 20
154.9643999377
 30
0.0
 11
117.8660108095
 21
152.7143999377
 31
0.0
  0
LINE
  5
9B
330
1F
100
AcDbEntity
  8
0
  6
Continuous
 62
     7
370
    25
100
AcDbLine
 10
119.5277996948
 20
154.9643999377
 30
0.0
 11
118.6849438366
 21
154.9643999377
 31
0.0
  0
LINE
  5
9C
330
1F
100
AcDbEntity
  8
0
  6
Continuous
 62
     7
370
    25
100
AcDbLine
 10
120.3467327219
 20
152.7143999377
 30
0.0
 11
119.5277996948
 21
154.9643999377
 31
0.0
  0
LINE
  5
9D
330
1F
100
AcDbEntity
  8
0
  6
Continuous
 62
     7
370
    25
100
AcDbLine
 10
121.1860108095
 20
152.7143999377
 30
0.0
 11
120.3467327219
 21
152.7143999377
 31
0.0
  0
LINE
  5
9E
330
1F
100
AcDbEntity
  8
0
  6
Continuous
 62
     7
370
    25
100
AcDbLine
 10
122.0049438366
 20
154.9643999377
 30
0.0
 11
121.1860108095
 21
152.7143999377
 31
0.0
  0
LINE
  5
9F
330
1F
100
AcDbEntity
  8
0
  6
Continuous
 62
     7
370
    25
100
AcDbLine
 10
122.8477996948
 20
154.9643999377
 30
0.0
 11
122.0049438366
 21
154.9643999377
 31
0.0
  0
LINE
  5
A0
330
1F
100
AcDbEntity
  8
0
  6
Continuous
 62
     7
370
    25
100
AcDbLine
 10
123.6667327219
 20
152.7143999377
 30
0.0
 11
122.8477996948
 21
154.9643999377
 31
0.0
  0
LINE
  5
A1
330
1F
100
AcDbEntity
  8
0
  6
Continuous
 62
     7
370
    25
100
AcDbLine
 10
124.5060108095
 20
152.7143999377
 30
0.0
 11
123.6667327219
 21
152.7143999377
 31
0.0
  0
LINE
  5
A2
330
1F
100
AcDbEntity
  8
0
  6
Continuous
 62
     7
370
    25
100
AcDbLine
 10
125.3249438366
 20
154.9643999377
 30
0.0
 11
124.5060108095
 21
152.7143999377
 31
0.0
  0
LINE
  5
A3
330
1F
100
AcDbEntity
  8
0
  6
Continuous
 62
     7
370
    25
100
AcDbLine
 10
126.1677996948
 20
154.9643999377
 30
0.0
 11
125.3249438366
 21
154.9643999377
 31
0.0
  0
LINE
  5
A4
330
1F
100
AcDbEntity
  8
0
  6
Continuous
 62
     7
370
    25
100
AcDbLine
 10
126.9867327219
 20
152.7143999377
 30
0.0
 11
126.1677996948
 21
154.9643999377
 31
0.0
  0
LINE
  5
A5
330
1F
100
AcDbEntity
  8
0
  6
Continuous
 62
     7
370
    25
100
AcDbLine
 10
127.8260108095
 20
152.7143999377
 30
0.0
 11
126.9867327219
 21
152.7143999377
 31
0.0
  0
LINE
  5
A6
330
1F
100
AcDbEntity
  8
0
  6
Continuous
 62
     7
370
    25
100
AcDbLine
 10
128.6449438366
 20
154.9643999377
 30
0.0
 11
127.8260108095
 21
152.7143999377
 31
0.0
  0
LINE
  5
A7
330
1F
100
AcDbEntity
  8
0
  6
Continuous
 62
     7
370
    25
100
AcDbLine
 10
129.4877996948
 20
154.9643999377
 30
0.0
 11
128.6449438366
 21
154.9643999377
 31
0.0
  0
LINE
  5
A8
330
1F
100
AcDbEntity
  8
0
  6
Continuous
 62
     7
370
    25
100
AcDbLine
 10
130.3067327219
 20
152.7143999377
 30
0.0
 11
129.4877996948
 21
154.9643999377
 31
0.0
  0
LINE
  5
A9
330
1F
100
AcDbEntity
  8
0
  6
Continuous
 62
     7
370
    25
100
AcDbLine
 10
131.1460108095
 20
152.7143999377
 30
0.0
 11
130.3067327219
 21
152.7143999377
 31
0.0
  0
LINE
  5
AA
330
1F
100
AcDbEntity
  8
0
  6
Continuous
 62
     7
370
    25
100
AcDbLine
 10
131.9649438366
 20
154.9643999377
 30
0.0
 11
131.1460108095
 21
152.7143999377
 31
0.0
  0
LINE
  5
AB
330
1F
100
AcDbEntity
  8
0
  6
Continuous
 62
     7
370
    25
100
AcDbLine
 10
132.8077996948
 20
154.9643999377
 30
0.0
 11
131.9649438366
 21
154.9643999377
 31
0.0
  0
LINE
  5
AC
330
1F
100
AcDbEntity
  8
0
  6
Continuous
 62
     7
370
    25
100
AcDbLine
 10
133.6267327219
 20
152.7143999377
 30
0.0
 11
132.8077996948
 21
154.9643999377
 31
0.0
  0
LINE
  5
AD
330
1F
100
AcDbEntity
  8
0
  6
Continuous
 62
     7
370
    25
100
AcDbLine
 10
134.4660108095
 20
152.7143999377
 30
0.0
 11
133.6267327219
 21
152.7143999377
 31
0.0
  0
LINE
  5
AE
330
1F
100
AcDbEntity
  8
0
  6
Continuous
 62
     7
370
    25
100
AcDbLine
 10
135.2849438366
 20
154.9643999377
 30
0.0
 11
134.4660108095
 21
152.7143999377
 31
0.0
  0
LINE
  5
AF
330
1F
100
AcDbEntity
  8
0
  6
Continuous
 62
     7
370
    25
100
AcDbLine
 10
136.1277996948
 20
154.9643999377
 30
0.0
 11
135.2849438366
 21
154.9643999377
 31
0.0
  0
LINE
  5
B0
330
1F
100
AcDbEntity
  8
0
  6
Continuous
 62
     7
370
    25
100
AcDbLine
 10
136.9467327219
 20
152.7143999377
 30
0.0
 11
136.1277996948
 21
154.9643999377
 31
0.0
  0
LINE
  5
B1
330
1F
100
AcDbEntity
  8
0
  6
Continuous
 62
     7
370
    25
100
AcDbLine
 10
137.7860108095
 20
152.7143999377
 30
0.0
 11
136.9467327219
 21
152.7143999377
 31
0.0
  0
LINE
  5
B2
330
1F
100
AcDbEntity
  8
0
  6
Continuous
 62
     7
370
    25
100
AcDbLine
 10
138.6049438366
 20
154.9643999377
 30
0.0
 11
137.7860108095
 21
152.7143999377
 31
0.0
  0
LINE
  5
B3
330
1F
100
AcDbEntity
  8
0
  6
Continuous
 62
     7
370
    25
100
AcDbLine
 10
139.4477996948
 20
154.9643999377
 30
0.0
 11
138.6049438366
 21
154.9643999377
 31
0.0
  0
LINE
  5
B4
330
1F
100
AcDbEntity
  8
0
  6
Continuous
 62
     7
370
    25
100
AcDbLine
 10
140.2667327219
 20
152.7143999377
 30
0.0
 11
139.4477996948
 21
154.9643999377
 31
0.0
  0
LINE
  5
B5
330
1F
100
AcDbEntity
  8
0
  6
Continuous
 62
     7
370
    25
100
AcDbLine
 10
141.1060108095
 20
152.7143999377
 30
0.0
 11
140.2667327219
 21
152.7143999377
 31
0.0
  0
LINE
  5
B6
330
1F
100
AcDbEntity
  8
0
  6
Continuous
 62
     7
370
    25
100
AcDbLine
 10
141.9249438366
 20
154.9643999377
 30
0.0
 11
141.1060108095
 21
152.7143999377
 31
0.0
  0
LINE
  5
B7
330
1F
100
AcDbEntity
  8
0
  6
Continuous
 62
     7
370
    25
100
AcDbLine
 10
142.7677996948
 20
154.9643999377
 30
0.0
 11
141.9249438366
 21
154.9643999377
 31
0.0
  0
LINE
  5
B8
330
1F
100
AcDbEntity
  8
0
  6
Continuous
 62
     7
370
    25
100
AcDbLine
 10
143.5867327219
 20
152.7143999377
 30
0.0
 11
142.7677996948
 21
154.9643999377
 31
0.0
  0
LINE
  5
B9
330
1F
100
AcDbEntity
  8
0
  6
Continuous
 62
     7
370
    25
100
AcDbLine
 10
144.4260108095
 20
152.7143999377
 30
0.0
 11
143.5867327219
 21
152.7143999377
 31
0.0
  0
LINE
  5
BA
330
1F
100
AcDbEntity
  8
0
  6
Continuous
 62
     7
370
    25
100
AcDbLine
 10
145.2449438366
 20
154.9643999377
 30
0.0
 11
144.4260108095
 21
152.7143999377
 31
0.0
  0
LINE
  5
BB
330
1F
100
AcDbEntity
  8
0
  6
Continuous
 62
     7
370
    25
100
AcDbLine
 10
146.0877996948
 20
154.9643999377
 30
0.0
 11
145.2449438366
 21
154.9643999377
 31
0.0
  0
LINE
  5
BC
330
1F
100
AcDbEntity
  8
0
  6
Continuous
 62
     7
370
    25
100
AcDbLine
 10
146.9067327219
 20
152.7143999377
 30
0.0
 11
146.0877996948
 21
154.9643999377
 31
0.0
  0
LINE
  5
BD
330
1F
100
AcDbEntity
  8
0
  6
Continuous
 62
     7
370
    25
100
AcDbLine
 10
147.7460108095
 20
152.7143999377
 30
0.0
 11
146.9067327219
 21
152.7143999377
 31
0.0
  0
LINE
  5
BE
330
1F
100
AcDbEntity
  8
0
  6
Continuous
 62
     7
370
    25
100
AcDbLine
 10
148.5649438366
 20
154.9643999377
 30
0.0
 11
147.7460108095
 21
152.7143999377
 31
0.0
  0
LINE
  5
BF
330
1F
100
AcDbEntity
  8
0
  6
Continuous
 62
     7
370
    25
100
AcDbLine
 10
149.4077996948
 20
154.9643999377
 30
0.0
 11
148.5649438366
 21
154.9643999377
 31
0.0
  0
LINE
  5
C0
330
1F
100
AcDbEntity
  8
0
  6
Continuous
 62
     7
370
    25
100
AcDbLine
 10
150.2267327219
 20
152.7143999377
 30
0.0
 11
149.4077996948
 21
154.9643999377
 31
0.0
  0
LINE
  5
C1
330
1F
100
AcDbEntity
  8
0
  6
Continuous
 62
     7
370
    25
100
AcDbLine
 10
151.0660108095
 20
152.7143999377
 30
0.0
 11
150.2267327219
 21
152.7143999377
 31
0.0
  0
LINE
  5
C2
330
1F
100
AcDbEntity
  8
0
  6
Continuous
 62
     7
370
    25
100
AcDbLine
 10
151.8849438366
 20
154.9643999377
 30
0.0
 11
151.0660108095
 21
152.7143999377
 31
0.0
  0
LINE
  5
C3
330
1F
100
AcDbEntity
  8
0
  6
Continuous
 62
     7
370
    25
100
AcDbLine
 10
152.7277996948
 20
154.9643999377
 30
0.0
 11
151.8849438366
 21
154.9643999377
 31
0.0
  0
LINE
  5
C4
330
1F
100
AcDbEntity
  8
0
  6
Continuous
 62
     7
370
    25
100
AcDbLine
 10
153.5467327219
 20
152.7143999377
 30
0.0
 11
152.7277996948
 21
154.9643999377
 31
0.0
  0
LINE
  5
C5
330
1F
100
AcDbEntity
  8
0
  6
Continuous
 62
     7
370
    25
100
AcDbLine
 10
154.3860108095
 20
152.7143999377
 30
0.0
 11
153.5467327219
 21
152.7143999377
 31
0.0
  0
LINE
  5
C6
330
1F
100
AcDbEntity
  8
0
  6
Continuous
 62
     7
370
    25
100
AcDbLine
 10
155.2049438366
 20
154.9643999377
 30
0.0
 11
154.3860108095
 21
152.7143999377
 31
0.0
  0
LINE
  5
C7
330
1F
100
AcDbEntity
  8
0
  6
Continuous
 62
     7
370
    25
100
AcDbLine
 10
156.0477996948
 20
154.9643999377
 30
0.0
 11
155.2049438366
 21
154.9643999377
 31
0.0
  0
LINE
  5
C8
330
1F
100
AcDbEntity
  8
0
  6
Continuous
 62
     7
370
    25
100
AcDbLine
 10
156.8667327219
 20
152.7143999377
 30
0.0
 11
156.0477996948
 21
154.9643999377
 31
0.0
  0
LINE
  5
C9
330
1F
100
AcDbEntity
  8
0
  6
Continuous
 62
     7
370
    25
100
AcDbLine
 10
157.7060108095
 20
152.7143999377
 30
0.0
 11
156.8667327219
 21
152.7143999377
 31
0.0
  0
LINE
  5
CA
330
1F
100
AcDbEntity
  8
0
  6
Continuous
 62
     7
370
    25
100
AcDbLine
 10
158.5249438366
 20
154.9643999377
 30
0.0
 11
157.7060108095
 21
152.7143999377
 31
0.0
  0
LINE
  5
CB
330
1F
100
AcDbEntity
  8
0
  6
Continuous
 62
     7
370
    25
100
AcDbLine
 10
159.3677996948
 20
154.9643999377
 30
0.0
 11
158.5249438366
 21
154.9643999377
 31
0.0
  0
LINE
  5
CC
330
1F
100
AcDbEntity
  8
0
  6
Continuous
 62
     7
370
    25
100
AcDbLine
 10
160.1867327219
 20
152.7143999377
 30
0.0
 11
159.3677996948
 21
154.9643999377
 31
0.0
  0
LINE
  5
CD
330
1F
100
AcDbEntity
  8
0
  6
Continuous
 62
     7
370
    25
100
AcDbLine
 10
161.0260108095
 20
152.7143999377
 30
0.0
 11
160.1867327219
 21
152.7143999377
 31
0.0
  0
LINE
  5
CE
330
1F
100
AcDbEntity
  8
0
  6
Continuous
 62
     7
370
    25
100
AcDbLine
 10
161.8449438366
 20
154.9643999377
 30
0.0
 11
161.0260108095
 21
152.7143999377
 31
0.0
  0
LINE
  5
CF
330
1F
100
AcDbEntity
  8
0
  6
Continuous
 62
     7
370
    25
100
AcDbLine
 10
162.6877996948
 20
154.9643999377
 30
0.0
 11
161.8449438366
 21
154.9643999377
 31
0.0
  0
LINE
  5
D0
330
1F
100
AcDbEntity
  8
0
  6
Continuous
 62
     7
370
    25
100
AcDbLine
 10
163.5067327219
 20
152.7143999377
 30
0.0
 11
162.6877996948
 21
154.9643999377
 31
0.0
  0
LINE
  5
D1
330
1F
100
AcDbEntity
  8
0
  6
Continuous
 62
     7
370
    25
100
AcDbLine
 10
164.3460108095
 20
152.7143999377
 30
0.0
 11
163.5067327219
 21
152.7143999377
 31
0.0
  0
LINE
  5
D2
330
1F
100
AcDbEntity
  8
0
  6
Continuous
 62
     7
370
    25
100
AcDbLine
 10
165.1649438366
 20
154.9643999377
 30
0.0
 11
164.3460108095
 21
152.7143999377
 31
0.0
  0
LINE
  5
D3
330
1F
100
AcDbEntity
  8
0
  6
Continuous
 62
     7
370
    25
100
AcDbLine
 10
166.0077996948
 20
154.9643999377
 30
0.0
 11
165.1649438366
 21
154.9643999377
 31
0.0
  0
LINE
  5
D4
330
1F
100
AcDbEntity
  8
0
  6
Continuous
 62
     7
370
    25
100
AcDbLine
 10
166.8267327219
 20
152.7143999377
 30
0.0
 11
166.0077996948
 21
154.9643999377
 31
0.0
  0
LINE
  5
D5
330
1F
100
AcDbEntity
  8
0
  6
Continuous
 62
     7
370
    25
100
AcDbLine
 10
167.6660108095
 20
152.7143999377
 30
0.0
 11
166.8267327219
 21
152.7143999377
 31
0.0
  0
LINE
  5
D6
330
1F
100
AcDbEntity
  8
0
  6
Continuous
 62
     7
370
    25
100
AcDbLine
 10
168.4849438366
 20
154.9643999377
 30
0.0
 11
167.6660108095
 21
152.7143999377
 31
0.0
  0
LINE
  5
D7
330
1F
100
AcDbEntity
  8
0
  6
Continuous
 62
     7
370
    25
100
AcDbLine
 10
169.3277996948
 20
154.9643999377
 30
0.0
 11
168.4849438366
 21
154.9643999377
 31
0.0
  0
LINE
  5
D8
330
1F
100
AcDbEntity
  8
0
  6
Continuous
 62
     7
370
    25
100
AcDbLine
 10
170.1467327219
 20
152.7143999377
 30
0.0
 11
169.3277996948
 21
154.9643999377
 31
0.0
  0
LINE
  5
D9
330
1F
100
AcDbEntity
  8
0
  6
Continuous
 62
     7
370
    25
100
AcDbLine
 10
170.9860108095
 20
152.7143999377
 30
0.0
 11
170.1467327219
 21
152.7143999377
 31
0.0
  0
LINE
  5
DA
330
1F
100
AcDbEntity
  8
0
  6
Continuous
 62
     7
370
    25
100
AcDbLine
 10
171.8049438366
 20
154.9643999377
 30
0.0
 11
170.9860108095
 21
152.7143999377
 31
0.0
  0
LINE
  5
DB
330
1F
100
AcDbEntity
  8
0
  6
Continuous
 62
     7
370
    25
100
AcDbLine
 10
172.6477996948
 20
154.9643999377
 30
0.0
 11
171.8049438366
 21
154.9643999377
 31
0.0
  0
LINE
  5
DC
330
1F
100
AcDbEntity
  8
0
  6
Continuous
 62
     7
370
    25
100
AcDbLine
 10
173.4667327219
 20
152.7143999377
 30
0.0
 11
172.6477996948
 21
154.9643999377
 31
0.0
  0
LINE
  5
DD
330
1F
100
AcDbEntity
  8
0
  6
Continuous
 62
     7
370
    25
100
AcDbLine
 10
174.3060108095
 20
152.7143999377
 30
0.0
 11
173.4667327219
 21
152.7143999377
 31
0.0
  0
LINE
  5
DE
330
1F
100
AcDbEntity
  8
0
  6
Continuous
 62
     7
370
    25
100
AcDbLine
 10
175.1249438366
 20
154.9643999377
 30
0.0
 11
174.3060108095
 21
152.7143999377
 31
0.0
  0
LINE
  5
DF
330
1F
100
AcDbEntity
  8
0
  6
Continuous
 62
     7
370
    25
100
AcDbLine
 10
175.9677996948
 20
154.9643999377
 30
0.0
 11
175.1249438366
 21
154.9643999377
 31
0.0
  0
LINE
  5
E0
330
1F
100
AcDbEntity
  8
0
  6
Continuous
 62
     7
370
    25
100
AcDbLine
 10
176.7867327219
 20
152.7143999377
 30
0.0
 11
175.9677996948
 21
154.9643999377
 31
0.0
  0
LINE
  5
E1
330
1F
100
AcDbEntity
  8
0
  6
Continuous
 62
     7
370
    25
100
AcDbLine
 10
177.6260108095
 20
152.7143999377
 30
0.0
 11
176.7867327219
 21
152.7143999377
 31
0.0
  0
LINE
  5
E2
330
1F
100
AcDbEntity
  8
0
  6
Continuous
 62
     7
370
    25
100
AcDbLine
 10
178.4449438366
 20
154.9643999377
 30
0.0
 11
177.6260108095
 21
152.7143999377
 31
0.0
  0
LINE
  5
E3
330
1F
100
AcDbEntity
  8
0
  6
Continuous
 62
     7
370
    25
100
AcDbLine
 10
179.2877996948
 20
154.9643999377
 30
0.0
 11
178.4449438366
 21
154.9643999377
 31
0.0
  0
LINE
  5
E4
330
1F
100
AcDbEntity
  8
0
  6
Continuous
 62
     7
370
    25
100
AcDbLine
 10
180.1067327219
 20
152.7143999377
 30
0.0
 11
179.2877996948
 21
154.9643999377
 31
0.0
  0
LINE
  5
E5
330
1F
100
AcDbEntity
  8
0
  6
Continuous
 62
     7
370
    25
100
AcDbLine
 10
180.9460108095
 20
152.7143999377
 30
0.0
 11
180.1067327219
 21
152.7143999377
 31
0.0
  0
LINE
  5
E6
330
1F
100
AcDbEntity
  8
0
  6
Continuous
 62
     7
370
    25
100
AcDbLine
 10
181.7649438366
 20
154.9643999377
 30
0.0
 11
180.9460108095
 21
152.7143999377
 31
0.0
  0
LINE
  5
E7
330
1F
100
AcDbEntity
  8
0
  6
Continuous
 62
     7
370
    25
100
AcDbLine
 10
182.6077996948
 20
154.9643999377
 30
0.0
 11
181.7649438366
 21
154.9643999377
 31
0.0
  0
LINE
  5
E8
330
1F
100
AcDbEntity
  8
0
  6
Continuous
 62
     7
370
    25
100
AcDbLine
 10
183.4267327219
 20
152.7143999377
 30
0.0
 11
182.6077996948
 21
154.9643999377
 31
0.0
  0
LINE
  5
E9
330
1F
100
AcDbEntity
  8
0
  6
Continuous
 62
     7
370
    25
100
AcDbLine
 10
184.2660108095
 20
152.7143999377
 30
0.0
 11
183.4267327219
 21
152.7143999377
 31
0.0
  0
LINE
  5
EA
330
1F
100
AcDbEntity
  8
0
  6
Continuous
 62
     7
370
    25
100
AcDbLine
 10
185.0849438366
 20
154.9643999377
 30
0.0
 11
184.2660108095
 21
152.7143999377
 31
0.0
  0
LINE
  5
EB
330
1F
100
AcDbEntity
  8
0
  6
Continuous
 62
     7
370
    25
100
AcDbLine
 10
185.9277996948
 20
154.9643999377
 30
0.0
 11
185.0849438366
 21
154.9643999377
 31
0.0
  0
LINE
  5
EC
330
1F
100
AcDbEntity
  8
0
  6
Continuous
 62
     7
370
    25
100
AcDbLine
 10
186.7467327219
 20
152.7143999377
 30
0.0
 11
185.9277996948
 21
154.9643999377
 31
0.0
  0
LINE
  5
ED
330
1F
100
AcDbEntity
  8
0
  6
Continuous
 62
     7
370
    25
100
AcDbLine
 10
187.5860108095
 20
152.7143999377
 30
0.0
 11
186.7467327219
 21
152.7143999377
 31
0.0
  0
LINE
  5
EE
330
1F
100
AcDbEntity
  8
0
  6
Continuous
 62
     7
370
    25
100
AcDbLine
 10
188.4049438366
 20
154.9643999377
 30
0.0
 11
187.5860108095
 21
152.7143999377
 31
0.0
  0
LINE
  5
EF
330
1F
100
AcDbEntity
  8
0
  6
Continuous
 62
     7
370
    25
100
AcDbLine
 10
189.2477996948
 20
154.9643999377
 30
0.0
 11
188.4049438366
 21
154.9643999377
 31
0.0
  0
LINE
  5
F0
330
1F
100
AcDbEntity
  8
0
  6
Continuous
 62
     7
370
    25
100
AcDbLine
 10
190.0667327219
 20
152.7143999377
 30
0.0
 11
189.2477996948
 21
154.9643999377
 31
0.0
  0
LINE
  5
F1
330
1F
100
AcDbEntity
  8
0
  6
Continuous
 62
     7
370
    25
100
AcDbLine
 10
190.9060108095
 20
152.7143999377
 30
0.0
 11
190.0667327219
 21
152.7143999377
 31
0.0
  0
LINE
  5
F2
330
1F
100
AcDbEntity
  8
0
  6
Continuous
 62
     7
370
    25
100
AcDbLine
 10
191.7249438366
 20
154.9643999377
 30
0.0
 11
190.9060108095
 21
152.7143999377
 31
0.0
  0
LINE
  5
F3
330
1F
100
AcDbEntity
  8
0
  6
Continuous
 62
     7
370
    25
100
AcDbLine
 10
192.5677996948
 20
154.9643999377
 30
0.0
 11
191.7249438366
 21
154.9643999377
 31
0.0
  0
LINE
  5
F4
330
1F
100
AcDbEntity
  8
0
  6
Continuous
 62
     7
370
    25
100
AcDbLine
 10
193.3867327219
 20
152.7143999377
 30
0.0
 11
192.5677996948
 21
154.9643999377
 31
0.0
  0
LINE
  5
F5
330
1F
100
AcDbEntity
  8
0
  6
Continuous
 62
     7
370
    25
100
AcDbLine
 10
194.2260108095
 20
152.7143999377
 30
0.0
 11
193.3867327219
 21
152.7143999377
 31
0.0
  0
LINE
  5
F6
330
1F
100
AcDbEntity
  8
0
  6
Continuous
 62
     7
370
    25
100
AcDbLine
 10
195.0449438366
 20
154.9643999377
 30
0.0
 11
194.2260108095
 21
152.7143999377
 31
0.0
  0
LINE
  5
F7
330
1F
100
AcDbEntity
  8
0
  6
Continuous
 62
     7
370
    25
100
AcDbLine
 10
195.8877996948
 20
154.9643999377
 30
0.0
 11
195.0449438366
 21
154.9643999377
 31
0.0
  0
LINE
  5
F8
330
1F
100
AcDbEntity
  8
0
  6
Continuous
 62
     7
370
    25
100
AcDbLine
 10
196.7067327219
 20
152.7143999377
 30
0.0
 11
195.8877996948
 21
154.9643999377
 31
0.0
  0
LINE
  5
F9
330
1F
100
AcDbEntity
  8
0
  6
Continuous
 62
     7
370
    25
100
AcDbLine
 10
197.5460108095
 20
152.7143999377
 30
0.0
 11
196.7067327219
 21
152.7143999377
 31
0.0
  0
LINE
  5
FA
330
1F
100
AcDbEntity
  8
0
  6
Continuous
 62
     7
370
    25
100
AcDbLine
 10
198.3649438366
 20
154.9643999377
 30
0.0
 11
197.5460108095
 21
152.7143999377
 31
0.0
  0
LINE
  5
FB
330
1F
100
AcDbEntity
  8
0
  6
Continuous
 62
     7
370
    25
100
AcDbLine
 10
199.2077996948
 20
154.9643999377
 30
0.0
 11
198.3649438366
 21
154.9643999377
 31
0.0
  0
LINE
  5
FC
330
1F
100
AcDbEntity
  8
0
  6
Continuous
 62
     7
370
    25
100
AcDbLine
 10
200.0267327219
 20
152.7143999377
 30
0.0
 11
199.2077996948
 21
154.9643999377
 31
0.0
  0
LINE
  5
FD
330
1F
100
AcDbEntity
  8
0
  6
Continuous
 62
     7
370
    25
100
AcDbLine
 10
200.8660108095
 20
152.7143999377
 30
0.0
 11
200.0267327219
 21
152.7143999377
 31
0.0
  0
LINE
  5
FE
330
1F
100
AcDbEntity
  8
0
  6
Continuous
 62
     7
370
    25
100
AcDbLine
 10
201.6849438366
 20
154.9643999377
 30
0.0
 11
200.8660108095
 21
152.7143999377
 31
0.0
  0
LINE
  5
FF
330
1F
100
AcDbEntity
  8
0
  6
Continuous
 62
     7
370
    25
100
AcDbLine
 10
202.5277996948
 20
154.9643999377
 30
0.0
 11
201.6849438366
 21
154.9643999377
 31
0.0
  0
LINE
  5
100
330
1F
100
AcDbEntity
  8
0
  6
Continuous
 62
     7
370
    25
100
AcDbLine
 10
203.3467327219
 20
152.7143999377
 30
0.0
 11
202.5277996948
 21
154.9643999377
 31
0.0
  0
LINE
  5
101
330
1F
100
AcDbEntity
  8
0
  6
Continuous
 62
     7
370
    25
100
AcDbLine
 10
204.1860108095
 20
152.7143999377
 30
0.0
 11
203.3467327219
 21
152.7143999377
 31
0.0
  0
LINE
  5
102
330
1F
100
AcDbEntity
  8
0
  6
Continuous
 62
     7
370
    25
100
AcDbLine
 10
205.0049438366
 20
154.9643999377
 30
0.0
 11
204.1860108095
 21
152.7143999377
 31
0.0
  0
LINE
  5
103
330
1F
100
AcDbEntity
  8
0
  6
Continuous
 62
     7
370
    25
100
AcDbLine
 10
205.8477996948
 20
154.9643999377
 30
0.0
 11
205.0049438366
 21
154.9643999377
 31
0.0
  0
LINE
  5
104
330
1F
100
AcDbEntity
  8
0
  6
Continuous
 62
     7
370
    25
100
AcDbLine
 10
206.6667327219
 20
152.7143999377
 30
0.0
 11
205.8477996948
 21
154.9643999377
 31
0.0
  0
LINE
  5
105
330
1F
100
AcDbEntity
  8
0
  6
Continuous
 62
     7
370
    25
100
AcDbLine
 10
207.5060108095
 20
152.7143999377
 30
0.0
 11
206.6667327219
 21
152.7143999377
 31
0.0
  0
LINE
  5
106
330
1F
100
AcDbEntity
  8
0
  6
Continuous
 62
     7
370
    25
100
AcDbLine
 10
208.3249438366
 20
154.9643999377
 30
0.0
 11
207.5060108095
 21
152.7143999377
 31
0.0
  0
LINE
  5
107
330
1F
100
AcDbEntity
  8
0
  6
Continuous
 62
     7
370
    25
100
AcDbLine
 10
209.1677996948
 20
154.9643999377
 30
0.0
 11
208.3249438366
 21
154.9643999377
 31
0.0
  0
LINE
  5
108
330
1F
100
AcDbEntity
  8
0
  6
Continuous
 62
     7
370
    25
100
AcDbLine
 10
209.9867327219
 20
152.7143999377
 30
0.0
 11
209.1677996948
 21
154.9643999377
 31
0.0
  0
LINE
  5
109
330
1F
100
AcDbEntity
  8
0
  6
Continuous
 62
     7
370
    25
100
AcDbLine
 10
210.8260108095
 20
152.7143999377
 30
0.0
 11
209.9867327219
 21
152.7143999377
 31
0.0
  0
LINE
  5
10A
330
1F
100
AcDbEntity
  8
0
  6
Continuous
 62
     7
370
    25
100
AcDbLine
 10
211.6449438366
 20
154.9643999377
 30
0.0
 11
210.8260108095
 21
152.7143999377
 31
0.0
  0
LINE
  5
10B
330
1F
100
AcDbEntity
  8
0
  6
Continuous
 62
     7
370
    25
100
AcDbLine
 10
212.4877996948
 20
154.9643999377
 30
0.0
 11
211.6449438366
 21
154.9643999377
 31
0.0
  0
LINE
  5
10C
330
1F
100
AcDbEntity
  8
0
  6
Continuous
 62
     7
370
    25
100
AcDbLine
 10
213.3067327219
 20
152.7143999377
 30
0.0
 11
212.4877996948
 21
154.9643999377
 31
0.0
  0
LINE
  5
10D
330
1F
100
AcDbEntity
  8
0
  6
Continuous
 62
     7
370
    25
100
AcDbLine
 10
214.1460108095
 20
152.7143999377
 30
0.0
 11
213.3067327219
 21
152.7143999377
 31
0.0
  0
LINE
  5
10E
330
1F
100
AcDbEntity
  8
0
  6
Continuous
 62
     7
370
    25
100
AcDbLine
 10
214.9649438366
 20
154.9643999377
 30
0.0
 11
214.1460108095
 21
152.7143999377
 31
0.0
  0
LINE
  5
10F
330
1F
100
AcDbEntity
  8
0
  6
Continuous
 62
     7
370
    25
100
AcDbLine
 10
215.8077996948
 20
154.9643999377
 30
0.0
 11
214.9649438366
 21
154.9643999377
 31
0.0
  0
LINE
  5
110
330
1F
100
AcDbEntity
  8
0
  6
Continuous
 62
     7
370
    25
100
AcDbLine
 10
216.6267327219
 20
152.7143999377
 30
0.0
 11
215.8077996948
 21
154.9643999377
 31
0.0
  0
LINE
  5
111
330
1F
100
AcDbEntity
  8
0
  6
Continuous
 62
     7
370
    25
100
AcDbLine
 10
217.4660108095
 20
152.7143999377
 30
0.0
 11
216.6267327219
 21
152.7143999377
 31
0.0
  0
LINE
  5
112
330
1F
100
AcDbEntity
  8
0
  6
Continuous
 62
     7
370
    25
100
AcDbLine
 10
218.2849438366
 20
154.9643999377
 30
0.0
 11
217.4660108095
 21
152.7143999377
 31
0.0
  0
LINE
  5
113
330
1F
100
AcDbEntity
  8
0
  6
Continuous
 62
     7
370
    25
100
AcDbLine
 10
219.1277996948
 20
154.9643999377
 30
0.0
 11
218.2849438366
 21
154.9643999377
 31
0.0
  0
LINE
  5
114
330
1F
100
AcDbEntity
  8
0
  6
Continuous
 62
     7
370
    25
100
AcDbLine
 10
219.9467327219
 20
152.7143999377
 30
0.0
 11
219.1277996948
 21
154.9643999377
 31
0.0
  0
LINE
  5
115
330
1F
100
AcDbEntity
  8
0
  6
Continuous
 62
     7
370
    25
100
AcDbLine
 10
220.7860108095
 20
152.7143999377
 30
0.0
 11
219.9467327219
 21
152.7143999377
 31
0.0
  0
LINE
  5
116
330
1F
100
AcDbEntity
  8
0
  6
Continuous
 62
     7
370
    25
100
AcDbLine
 10
221.6049438366
 20
154.9643999377
 30
0.0
 11
220.7860108095
 21
152.7143999377
 31
0.0
  0
LINE
  5
117
330
1F
100
AcDbEntity
  8
0
  6
Continuous
 62
     7
370
    25
100
AcDbLine
 10
222.4477996948
 20
154.9643999377
 30
0.0
 11
221.6049438366
 21
154.9643999377
 31
0.0
  0
LINE
  5
118
330
1F
100
AcDbEntity
  8
0
  6
Continuous
 62
     7
370
    25
100
AcDbLine
 10
223.2667327219
 20
152.7143999377
 30
0.0
 11
222.4477996948
 21
154.9643999377
 31
0.0
  0
LINE
  5
119
330
1F
100
AcDbEntity
  8
0
  6
Continuous
 62
     7
370
    25
100
AcDbLine
 10
224.1060108095
 20
152.7143999377
 30
0.0
 11
223.2667327219
 21
152.7143999377
 31
0.0
  0
LINE
  5
11A
330
1F
100
AcDbEntity
  8
0
  6
Continuous
 62
     7
370
    25
100
AcDbLine
 10
224.9249438366
 20
154.9643999377
 30
0.0
 11
224.1060108095
 21
152.7143999377
 31
0.0
  0
LINE
  5
11B
330
1F
100
AcDbEntity
  8
0
  6
Continuous
 62
     7
370
    25
100
AcDbLine
 10
225.7677996948
 20
154.9643999377
 30
0.0
 11
224.9249438366
 21
154.9643999377
 31
0.0
  0
LINE
  5
11C
330
1F
100
AcDbEntity
  8
0
  6
Continuous
 62
     7
370
    25
100
AcDbLine
 10
226.5867327219
 20
152.7143999377
 30
0.0
 11
225.7677996948
 21
154.9643999377
 31
0.0
  0
LINE
  5
11D
330
1F
100
AcDbEntity
  8
0
  6
Continuous
 62
     7
370
    25
100
AcDbLine
 10
227.4260108095
 20
152.7143999377
 30
0.0
 11
226.5867327219
 21
152.7143999377
 31
0.0
  0
LINE
  5
11E
330
1F
100
AcDbEntity
  8
0
  6
Continuous
 62
     7
370
    25
100
AcDbLine
 10
228.2449438366
 20
154.9643999377
 30
0.0
 11
227.4260108095
 21
152.7143999377
 31
0.0
  0
LINE
  5
11F
330
1F
100
AcDbEntity
  8
0
  6
Continuous
 62
     7
370
    25
100
AcDbLine
 10
229.0877996948
 20
154.9643999377
 30
0.0
 11
228.2449438366
 21
154.9643999377
 31
0.0
  0
LINE
  5
120
330
1F
100
AcDbEntity
  8
0
  6
Continuous
 62
     7
370
    25
100
AcDbLine
 10
229.9067327219
 20
152.7143999377
 30
0.0
 11
229.0877996948
 21
154.9643999377
 31
0.0
  0
LINE
  5
121
330
1F
100
AcDbEntity
  8
0
  6
Continuous
 62
     7
370
    25
100
AcDbLine
 10
230.7460108095
 20
152.7143999377
 30
0.0
 11
229.9067327219
 21
152.7143999377
 31
0.0
  0
LINE
  5
122
330
1F
100
AcDbEntity
  8
0
  6
Continuous
 62
     7
370
    25
100
AcDbLine
 10
231.5649438366
 20
154.9643999377
 30
0.0
 11
230.7460108095
 21
152.7143999377
 31
0.0
  0
LINE
  5
123
330
1F
100
AcDbEntity
  8
0
  6
Continuous
 62
     7
370
    25
100
AcDbLine
 10
232.4077996948
 20
154.9643999377
 30
0.0
 11
231.5649438366
 21
154.9643999377
 31
0.0
  0
LINE
  5
124
330
1F
100
AcDbEntity
  8
0
  6
Continuous
 62
     7
370
    25
100
AcDbLine
 10
233.2267327219
 20
152.7143999377
 30
0.0
 11
232.4077996948
 21
154.9643999377
 31
0.0
  0
LINE
  5
125
330
1F
100
AcDbEntity
  8
0
  6
Continuous
 62
     7
370
    25
100
AcDbLine
 10
234.0660108095
 20
152.7143999377
 30
0.0
 11
233.2267327219
 21
152.7143999377
 31
0.0
  0
LINE
  5
126
330
1F
100
AcDbEntity
  8
0
  6
Continuous
 62
     7
370
    25
100
AcDbLine
 10
234.8849438366
 20
154.9643999377
 30
0.0
 11
234.0660108095
 21
152.7143999377
 31
0.0
  0
LINE
  5
127
330
1F
100
AcDbEntity
  8
0
  6
Continuous
 62
     7
370
    25
100
AcDbLine
 10
235.7277996948
 20
154.9643999377
 30
0.0
 11
234.8849438366
 21
154.9643999377
 31
0.0
  0
LINE
  5
128
330
1F
100
AcDbEntity
  8
0
  6
Continuous
 62
     7
370
    25
100
AcDbLine
 10
236.5467327219
 20
152.7143999377
 30
0.0
 11
235.7277996948
 21
154.9643999377
 31
0.0
  0
LINE
  5
129
330
1F
100
AcDbEntity
  8
0
  6
Continuous
 62
     7
370
    25
100
AcDbLine
 10
237.3860108095
 20
152.7143999377
 30
0.0
 11
236.5467327219
 21
152.7143999377
 31
0.0
  0
LINE
  5
12A
330
1F
100
AcDbEntity
  8
0
  6
Continuous
 62
     7
370
    25
100
AcDbLine
 10
238.2049438366
 20
154.9643999377
 30
0.0
 11
237.3860108095
 21
152.7143999377
 31
0.0
  0
LINE
  5
12B
330
1F
100
AcDbEntity
  8
0
  6
Continuous
 62
     7
370
    25
100
AcDbLine
 10
239.0477996948
 20
154.9643999377
 30
0.0
 11
238.2049438366
 21
154.9643999377
 31
0.0
  0
LINE
  5
12C
330
1F
100
AcDbEntity
  8
0
  6
Continuous
 62
     7
370
    25
100
AcDbLine
 10
239.8667327219
 20
152.7143999377
 30
0.0
 11
239.0477996948
 21
154.9643999377
 31
0.0
  0
LINE
  5
12D
330
1F
100
AcDbEntity
  8
0
  6
Continuous
 62
     7
370
    25
100
AcDbLine
 10
240.7060108095
 20
152.7143999377
 30
0.0
 11
239.8667327219
 21
152.7143999377
 31
0.0
  0
LINE
  5
12E
330
1F
100
AcDbEntity
  8
0
  6
Continuous
 62
     7
370
    25
100
AcDbLine
 10
241.5249438366
 20
154.9643999377
 30
0.0
 11
240.7060108095
 21
152.7143999377
 31
0.0
  0
LINE
  5
12F
330
1F
100
AcDbEntity
  8
0
  6
Continuous
 62
     7
370
    25
100
AcDbLine
 10
242.3677996948
 20
154.9643999377
 30
0.0
 11
241.5249438366
 21
154.9643999377
 31
0.0
  0
LINE
  5
130
330
1F
100
AcDbEntity
  8
0
  6
Continuous
 62
     7
370
    25
100
AcDbLine
 10
243.1867327219
 20
152.7143999377
 30
0.0
 11
242.3677996948
 21
154.9643999377
 31
0.0
  0
LINE
  5
131
330
1F
100
AcDbEntity
  8
0
  6
Continuous
 62
     7
370
    25
100
AcDbLine
 10
244.0260108095
 20
152.7143999377
 30
0.0
 11
243.1867327219
 21
152.7143999377
 31
0.0
  0
LINE
  5
132
330
1F
100
AcDbEntity
  8
0
  6
Continuous
 62
     7
370
    25
100
AcDbLine
 10
244.8449438366
 20
154.9643999377
 30
0.0
 11
244.0260108095
 21
152.7143999377
 31
0.0
  0
LINE
  5
133
330
1F
100
AcDbEntity
  8
0
  6
Continuous
 62
     7
370
    25
100
AcDbLine
 10
245.6877996948
 20
154.9643999377
 30
0.0
 11
244.8449438366
 21
154.9643999377
 31
0.0
  0
LINE
  5
134
330
1F
100
AcDbEntity
  8
0
  6
Continuous
 62
     7
370
    25
100
AcDbLine
 10
246.5067327219
 20
152.7143999377
 30
0.0
 11
245.6877996948
 21
154.9643999377
 31
0.0
  0
LINE
  5
135
330
1F
100
AcDbEntity
  8
0
  6
Continuous
 62
     7
370
    25
100
AcDbLine
 10
247.3460108095
 20
152.7143999377
 30
0.0
 11
246.5067327219
 21
152.7143999377
 31
0.0
  0
LINE
  5
136
330
1F
100
AcDbEntity
  8
0
  6
Continuous
 62
     7
370
    25
100
AcDbLine
 10
248.1649438366
 20
154.9643999377
 30
0.0
 11
247.3460108095
 21
152.7143999377
 31
0.0
  0
LINE
  5
137
330
1F
100
AcDbEntity
  8
0
  6
Continuous
 62
     7
370
    25
100
AcDbLine
 10
249.0077996948
 20
154.9643999377
 30
0.0
 11
248.1649438366
 21
154.9643999377
 31
0.0
  0
LINE
  5
138
330
1F
100
AcDbEntity
  8
0
  6
Continuous
 62
     7
370
    25
100
AcDbLine
 10
249.8267327219
 20
152.7143999377
 30
0.0
 11
249.0077996948
 21
154.9643999377
 31
0.0
  0
LINE
  5
139
330
1F
100
AcDbEntity
  8
0
  6
Continuous
 62
     7
370
    25
100
AcDbLine
 10
250.6660108095
 20
152.7143999377
 30
0.0
 11
249.8267327219
 21
152.7143999377
 31
0.0
  0
LINE
  5
13A
330
1F
100
AcDbEntity
  8
0
  6
Continuous
 62
     7
370
    25
100
AcDbLine
 10
251.4849438366
 20
154.9643999377
 30
0.0
 11
250.6660108095
 21
152.7143999377
 31
0.0
  0
LINE
  5
13B
330
1F
100
AcDbEntity
  8
0
  6
Continuous
 62
     7
370
    25
100
AcDbLine
 10
252.3277996948
 20
154.9643999377
 30
0.0
 11
251.4849438366
 21
154.9643999377
 31
0.0
  0
LINE
  5
13C
330
1F
100
AcDbEntity
  8
0
  6
Continuous
 62
     7
370
    25
100
AcDbLine
 10
253.1467327219
 20
152.7143999377
 30
0.0
 11
252.3277996948
 21
154.9643999377
 31
0.0
  0
LINE
  5
13D
330
1F
100
AcDbEntity
  8
0
  6
Continuous
 62
     7
370
    25
100
AcDbLine
 10
253.9860108095
 20
152.7143999377
 30
0.0
 11
253.1467327219
 21
152.7143999377
 31
0.0
  0
LINE
  5
13E
330
1F
100
AcDbEntity
  8
0
  6
Continuous
 62
     7
370
    25
100
AcDbLine
 10
254.8049438366
 20
154.9643999377
 30
0.0
 11
253.9860108095
 21
152.7143999377
 31
0.0
  0
LINE
  5
13F
330
1F
100
AcDbEntity
  8
0
  6
Continuous
 62
     7
370
    25
100
AcDbLine
 10
255.6477996948
 20
154.9643999377
 30
0.0
 11
254.8049438366
 21
154.9643999377
 31
0.0
  0
LINE
  5
140
330
1F
100
AcDbEntity
  8
0
  6
Continuous
 62
     7
370
    25
100
AcDbLine
 10
256.4667327219
 20
152.7143999377
 30
0.0
 11
255.6477996948
 21
154.9643999377
 31
0.0
  0
LINE
  5
141
330
1F
100
AcDbEntity
  8
0
  6
Continuous
 62
     7
370
    25
100
AcDbLine
 10
257.3060108095
 20
152.7143999377
 30
0.0
 11
256.4667327219
 21
152.7143999377
 31
0.0
  0
LINE
  5
142
330
1F
100
AcDbEntity
  8
0
  6
Continuous
 62
     7
370
    25
100
AcDbLine
 10
258.1249438366
 20
154.9643999377
 30
0.0
 11
257.3060108095
 21
152.7143999377
 31
0.0
  0
LINE
  5
143
330
1F
100
AcDbEntity
  8
0
  6
Continuous
 62
     7
370
    25
100
AcDbLine
 10
258.9677996948
 20
154.9643999377
 30
0.0
 11
258.1249438366
 21
154.9643999377
 31
0.0
  0
LINE
  5
144
330
1F
100
AcDbEntity
  8
0
  6
Continuous
 62
     7
370
    25
100
AcDbLine
 10
259.7867327219
 20
152.7143999377
 30
0.0
 11
258.9677996948
 21
154.9643999377
 31
0.0
  0
LINE
  5
145
330
1F
100
AcDbEntity
  8
0
  6
Continuous
 62
     7
370
    25
100
AcDbLine
 10
260.6260108095
 20
152.7143999377
 30
0.0
 11
259.7867327219
 21
152.7143999377
 31
0.0
  0
LINE
  5
146
330
1F
100
AcDbEntity
  8
0
  6
Continuous
 62
     7
370
    25
100
AcDbLine
 10
261.4449438366
 20
154.9643999377
 30
0.0
 11
260.6260108095
 21
152.7143999377
 31
0.0
  0
LINE
  5
147
330
1F
100
AcDbEntity
  8
0
  6
Continuous
 62
     7
370
    25
100
AcDbLine
 10
262.2877996948
 20
154.9643999377
 30
0.0
 11
261.4449438366
 21
154.9643999377
 31
0.0
  0
LINE
  5
148
330
1F
100
AcDbEntity
  8
0
  6
Continuous
 62
     7
370
    25
100
AcDbLine
 10
263.1067327219
 20
152.7143999377
 30
0.0
 11
262.2877996948
 21
154.9643999377
 31
0.0
  0
LINE
  5
149
330
1F
100
AcDbEntity
  8
0
  6
Continuous
 62
     7
370
    25
100
AcDbLine
 10
263.9460108095
 20
152.7143999377
 30
0.0
 11
263.1067327219
 21
152.7143999377
 31
0.0
  0
LINE
  5
14A
330
1F
100
AcDbEntity
  8
0
  6
Continuous
 62
     7
370
    25
100
AcDbLine
 10
264.7649438366
 20
154.9643999377
 30
0.0
 11
263.9460108095
 21
152.7143999377
 31
0.0
  0
LINE
  5
14B
330
1F
100
AcDbEntity
  8
0
  6
Continuous
 62
     7
370
    25
100
AcDbLine
 10
265.6077996948
 20
154.9643999377
 30
0.0
 11
264.7649438366
 21
154.9643999377
 31
0.0
  0
LINE
  5
14C
330
1F
100
AcDbEntity
  8
0
  6
Continuous
 62
     7
370
    25
100
AcDbLine
 10
266.4267327219
 20
152.7143999377
 30
0.0
 11
265.6077996948
 21
154.9643999377
 31
0.0
  0
LINE
  5
14D
330
1F
100
AcDbEntity
  8
0
  6
Continuous
 62
     7
370
    25
100
AcDbLine
 10
267.2660108095
 20
152.7143999377
 30
0.0
 11
266.4267327219
 21
152.7143999377
 31
0.0
  0
LINE
  5
14E
330
1F
100
AcDbEntity
  8
0
  6
Continuous
 62
     7
370
    25
100
AcDbLine
 10
268.0849438366
 20
154.9643999377
 30
0.0
 11
267.2660108095
 21
152.7143999377
 31
0.0
  0
LINE
  5
14F
330
1F
100
AcDbEntity
  8
0
  6
Continuous
 62
     7
370
    25
100
AcDbLine
 10
268.9277996948
 20
154.9643999377
 30
0.0
 11
268.0849438366
 21
154.9643999377
 31
0.0
  0
LINE
  5
150
330
1F
100
AcDbEntity
  8
0
  6
Continuous
 62
     7
370
    25
100
AcDbLine
 10
269.7467327219
 20
152.7143999377
 30
0.0
 11
268.9277996948
 21
154.9643999377
 31
0.0
  0
LINE
  5
151
330
1F
100
AcDbEntity
  8
0
  6
Continuous
 62
     7
370
    25
100
AcDbLine
 10
270.5860108095
 20
152.7143999377
 30
0.0
 11
269.7467327219
 21
152.7143999377
 31
0.0
  0
LINE
  5
152
330
1F
100
AcDbEntity
  8
0
  6
Continuous
 62
     7
370
    25
100
AcDbLine
 10
271.4049438366
 20
154.9643999377
 30
0.0
 11
270.5860108095
 21
152.7143999377
 31
0.0
  0
LINE
  5
153
330
1F
100
AcDbEntity
  8
0
  6
Continuous
 62
     7
370
    25
100
AcDbLine
 10
272.2477996948
 20
154.9643999377
 30
0.0
 11
271.4049438366
 21
154.9643999377
 31
0.0
  0
LINE
  5
154
330
1F
100
AcDbEntity
  8
0
  6
Continuous
 62
     7
370
    25
100
AcDbLine
 10
273.0667327219
 20
152.7143999377
 30
0.0
 11
272.2477996948
 21
154.9643999377
 31
0.0
  0
LINE
  5
155
330
1F
100
AcDbEntity
  8
0
  6
Continuous
 62
     7
370
    25
100
AcDbLine
 10
273.9060108095
 20
152.7143999377
 30
0.0
 11
273.0667327219
 21
152.7143999377
 31
0.0
  0
LINE
  5
156
330
1F
100
AcDbEntity
  8
0
  6
Continuous
 62
     7
370
    25
100
AcDbLine
 10
274.7249438366
 20
154.9643999377
 30
0.0
 11
273.9060108095
 21
152.7143999377
 31
0.0
  0
LINE
  5
157
330
1F
100
AcDbEntity
  8
0
  6
Continuous
 62
     7
370
    25
100
AcDbLine
 10
275.5677996948
 20
154.9643999377
 30
0.0
 11
274.7249438366
 21
154.9643999377
 31
0.0
  0
LINE
  5
158
330
1F
100
AcDbEntity
  8
0
  6
Continuous
 62
     7
370
    25
100
AcDbLine
 10
276.3867327219
 20
152.7143999377
 30
0.0
 11
275.5677996948
 21
154.9643999377
 31
0.0
  0
LINE
  5
159
330
1F
100
AcDbEntity
  8
0
  6
Continuous
 62
     7
370
    25
100
AcDbLine
 10
277.2260108095
 20
152.7143999377
 30
0.0
 11
276.3867327219
 21
152.7143999377
 31
0.0
  0
LINE
  5
15A
330
1F
100
AcDbEntity
  8
0
  6
Continuous
 62
     7
370
    25
100
AcDbLine
 10
278.0449438366
 20
154.9643999377
 30
0.0
 11
277.2260108095
 21
152.7143999377
 31
0.0
  0
LINE
  5
15B
330
1F
100
AcDbEntity
  8
0
  6
Continuous
 62
     7
370
    25
100
AcDbLine
 10
278.8877996948
 20
154.9643999377
 30
0.0
 11
278.0449438366
 21
154.9643999377
 31
0.0
  0
LINE
  5
15C
330
1F
100
AcDbEntity
  8
0
  6
Continuous
 62
     7
370
    25
100
AcDbLine
 10
279.7067327219
 20
152.7143999377
 30
0.0
 11
278.8877996948
 21
154.9643999377
 31
0.0
  0
LINE
  5
15D
330
1F
100
AcDbEntity
  8
0
  6
Continuous
 62
     7
370
    25
100
AcDbLine
 10
280.5460108095
 20
152.7143999377
 30
0.0
 11
279.7067327219
 21
152.7143999377
 31
0.0
  0
LINE
  5
15E
330
1F
100
AcDbEntity
  8
0
  6
Continuous
 62
     7
370
    25
100
AcDbLine
 10
281.3649438366
 20
154.9643999377
 30
0.0
 11
280.5460108095
 21
152.7143999377
 31
0.0
  0
LINE
  5
15F
330
1F
100
AcDbEntity
  8
0
  6
Continuous
 62
     7
370
    25
100
AcDbLine
 10
282.2077996948
 20
154.9643999377
 30
0.0
 11
281.3649438366
 21
154.9643999377
 31
0.0
  0
LINE
  5
160
330
1F
100
AcDbEntity
  8
0
  6
Continuous
 62
     7
370
    25
100
AcDbLine
 10
283.0267327219
 20
152.7143999377
 30
0.0
 11
282.2077996948
 21
154.9643999377
 31
0.0
  0
LINE
  5
161
330
1F
100
AcDbEntity
  8
0
  6
Continuous
 62
     7
370
    25
100
AcDbLine
 10
283.8660108095
 20
152.7143999377
 30
0.0
 11
283.0267327219
 21
152.7143999377
 31
0.0
  0
LINE
  5
162
330
1F
100
AcDbEntity
  8
0
  6
Continuous
 62
     7
370
    25
100
AcDbLine
 10
284.6849438366
 20
154.9643999377
 30
0.0
 11
283.8660108095
 21
152.7143999377
 31
0.0
  0
LINE
  5
163
330
1F
100
AcDbEntity
  8
0
  6
Continuous
 62
     7
370
    25
100
AcDbLine
 10
285.5277996948
 20
154.9643999377
 30
0.0
 11
284.6849438366
 21
154.9643999377
 31
0.0
  0
LINE
  5
164
330
1F
100
AcDbEntity
  8
0
  6
Continuous
 62
     7
370
    25
100
AcDbLine
 10
286.3467327219
 20
152.7143999377
 30
0.0
 11
285.5277996948
 21
154.9643999377
 31
0.0
  0
LINE
  5
165
330
1F
100
AcDbEntity
  8
0
  6
Continuous
 62
     7
370
    25
100
AcDbLine
 10
287.1860108095
 20
152.7143999377
 30
0.0
 11
286.3467327219
 21
152.7143999377
 31
0.0
  0
LINE
  5
166
330
1F
100
AcDbEntity
  8
0
  6
Continuous
 62
     7
370
    25
100
AcDbLine
 10
288.0049438366
 20
154.9643999377
 30
0.0
 11
287.1860108095
 21
152.7143999377
 31
0.0
  0
LINE
  5
167
330
1F
100
AcDbEntity
  8
0
  6
Continuous
 62
     7
370
    25
100
AcDbLine
 10
288.8477996948
 20
154.9643999377
 30
0.0
 11
288.0049438366
 21
154.9643999377
 31
0.0
  0
LINE
  5
168
330
1F
100
AcDbEntity
  8
0
  6
Continuous
 62
     7
370
    25
100
AcDbLine
 10
289.6667327219
 20
152.7143999377
 30
0.0
 11
288.8477996948
 21
154.9643999377
 31
0.0
  0
LINE
  5
169
330
1F
100
AcDbEntity
  8
0
  6
Continuous
 62
     7
370
    25
100
AcDbLine
 10
290.5060108095
 20
152.7143999377
 30
0.0
 11
289.6667327219
 21
152.7143999377
 31
0.0
  0
LINE
  5
16A
330
1F
100
AcDbEntity
  8
0
  6
Continuous
 62
     7
370
    25
100
AcDbLine
 10
291.3249438366
 20
154.9643999377
 30
0.0
 11
290.5060108095
 21
152.7143999377
 31
0.0
  0
LINE
  5
16B
330
1F
100
AcDbEntity
  8
0
  6
Continuous
 62
     7
370
    25
100
AcDbLine
 10
292.1677996948
 20
154.9643999377
 30
0.0
 11
291.3249438366
 21
154.9643999377
 31
0.0
  0
LINE
  5
16C
330
1F
100
AcDbEntity
  8
0
  6
Continuous
 62
     7
370
    25
100
AcDbLine
 10
292.9867327219
 20
152.7143999377
 30
0.0
 11
292.1677996948
 21
154.9643999377
 31
0.0
  0
LINE
  5
16D
330
1F
100
AcDbEntity
  8
0
  6
Continuous
 62
     7
370
    25
100
AcDbLine
 10
294.6260108095
 20
152.7143999377
 30
0.0
 11
292.9867327219
 21
152.7143999377
 31
0.0
  0
LINE
  5
16E
330
1F
100
AcDbEntity
  8
0
  6
Continuous
 62
     7
370
    25
100
AcDbLine
 10
294.6260108095
 20
142.7143999377
 30
0.0
 11
294.6260108095
 21
152.7143999377
 31
0.0
  0
LINE
  5
16F
330
1F
100
AcDbEntity
  8
0
  6
Continuous
 62
     7
370
    25
100
AcDbLine
 10
134.6260108095
 20
142.7143999377
 30
0.0
 11
294.6260108095
 21
142.7143999377
 31
0.0
  0
LINE
  5
170
330
1F
100
AcDbEntity
  8
0
  6
Continuous
 62
     7
370
    25
100
AcDbLine
 10
134.6260108095
 20
136.7143999377
 30
0.0
 11
134.6260108095
 21
142.7143999377
 31
0.0
  0
LINE
  5
171
330
1F
100
AcDbEntity
  8
0
  6
Continuous
 62
     7
370
    25
100
AcDbLine
 10
94.6260108095
 20
136.7143999377
 30
0.0
 11
134.6260108095
 21
136.7143999377
 31
0.0
  0
LINE
  5
172
330
1F
100
AcDbEntity
  8
0
  6
Continuous
 62
     7
370
    25
100
AcDbLine
 10
94.6260108095
 20
152.7143999377
 30
0.0
 11
94.6260108095
 21
136.7143999377
 31
0.0
  0
CIRCLE
  5
173
330
1F
100
AcDbEntity
  8
0
  6
Continuous
 62
     7
370
    25
100
AcDbCircle
 10
274.6260108095
 20
147.2143999377
 30
0.0
 40
1.600000000000023
  0
CIRCLE
  5
174
330
1F
100
AcDbEntity
  8
0
  6
Continuous
 62
     7
370
    25
100
AcDbCircle
 10
254.6260108095
 20
147.2143999377
 30
0.0
 40
1.599999999999994
  0
CIRCLE
  5
175
330
1F
100
AcDbEntity
  8
0
  6
Continuous
 62
     7
370
    25
100
AcDbCircle
 10
234.6260108095
 20
147.2143999377
 30
0.0
 40
1.599999999999994
  0
CIRCLE
  5
176
330
1F
100
AcDbEntity
  8
0
  6
Continuous
 62
     7
370
    25
100
AcDbCircle
 10
214.6260108095
 20
147.2143999377
 30
0.0
 40
1.599999999999994
  0
CIRCLE
  5
177
330
1F
100
AcDbEntity
  8
0
  6
Continuous
 62
     7
370
    25
100
AcDbCircle
 10
194.6260108095
 20
147.2143999377
 30
0.0
 40
1.599999999999994
  0
CIRCLE
  5
178
330
1F
100
AcDbEntity
  8
0
  6
Continuous
 62
     7
370
    25
100
AcDbCircle
 10
174.6260108095
 20
147.2143999377
 30
0.0
 40
1.599999999999994
  0
CIRCLE
  5
179
330
1F
100
AcDbEntity
  8
0
  6
Continuous
 62
     7
370
    25
100
AcDbCircle
 10
154.6260108095
 20
147.2143999377
 30
0.0
 40
1.599999999999966
  0
CIRCLE
  5
17A
330
1F
100
AcDbEntity
  8
0
  6
Continuous
 62
     7
370
    25
100
AcDbCircle
 10
134.6260108095
 20
147.2143999377
 30
0.0
 40
1.599999999999994
  0
CIRCLE
  5
17B
330
1F
100
AcDbEntity
  8
0
  6
Continuous
 62
     7
370
    25
100
AcDbCircle
 10
114.6260108095
 20
147.2143999377
 30
0.0
 40
1.600000000000009
  0
CIRCLE
  5
17C
330
1F
100
AcDbEntity
  8
0
  6
Continuous
 62
     7
370
    25
100
AcDbCircle
 10
109.6260108095
 20
139.7143999377
 30
0.0
 40
1.549999999999997
  0
CIRCLE
  5
17D
330
1F
100
AcDbEntity
  8
0
  6
Continuous
 62
     7
370
    25
100
AcDbCircle
 10
129.6260108095
 20
139.7143999377
 30
0.0
 40
1.549999999999983
  0
LINE
  5
17E
330
1F
100
AcDbEntity
  8
0
  6
Continuous
 62
     7
370
    25
100
AcDbLine
 10
97.1067327219
 20
152.7143999377
 30
0.0
 11
96.2877996948
 21
154.9643999377
 31
0.0
  0
LINE
  5
17F
330
1F
100
AcDbEntity
  8
0
  6
Continuous
 62
     7
370
    25
100
AcDbLine
 10
97.9460108095
 20
152.7143999377
 30
0.0
 11
97.1067327219
 21
152.7143999377
 31
0.0
  0
CIRCLE
  5
180
330
1F
100
AcDbEntity
  8
0
  6
Continuous
 62
     7
370
    25
100
AcDbCircle
 10
179.5755378093
 20
76.6132793082
 30
0.0
 40
11.25
  0
CIRCLE
  5
181
330
1F
100
AcDbEntity
  8
0
  6
Continuous
 62
     7
370
    25
100
AcDbCircle
 10
168.0755378093
 20
88.1132793082
 30
0.0
 40
1.300000000000011
  0
CIRCLE
  5
182
330
1F
100
AcDbEntity
  8
0
  6
Continuous
 62
     7
370
    25
100
AcDbCircle
 10
191.0755378093
 20
88.1132793082
 30
0.0
 40
1.300000000000011
  0
CIRCLE
  5
183
330
1F
100
AcDbEntity
  8
0
  6
Continuous
 62
     7
370
    25
100
AcDbCircle
 10
168.0755378093
 20
65.1132793082
 30
0.0
 40
1.300000000000011
  0
CIRCLE
  5
184
330
1F
100
AcDbEntity
  8
0
  6
Continuous
 62
     7
370
    25
100
AcDbCircle
 10
191.0755378093
 20
65.1132793082
 30
0.0
 40
1.300000000000011
  0
LINE
  5
185
330
1F
100
AcDbEntity
  8
0
  6
Continuous
 62
     7
370
    25
100
AcDbLine
 10
164.5755378093
 20
110.6132793082
 30
0.0
 11
90.5755378093
 21
110.6132793082
 31
0.0
  0
LINE
  5
186
330
1F
100
AcDbEntity
  8
0
  6
Continuous
 62
     7
370
    25
100
AcDbLine
 10
164.5755378093
 20
91.6132793082
 30
0.0
 11
164.5755378093
 21
110.6132793082
 31
0.0
  0
LINE
  5
187
330
1F
100
AcDbEntity
  8
0
  6
Continuous
 62
     7
370
    25
100
AcDbLine
 10
194.5755378093
 20
61.6132793082
 30
0.0
 11
194.5755378093
 21
91.6132793082
 31
0.0
  0
CIRCLE
  5
188
330
1F
100
AcDbEntity
  8
0
  6
Continuous
 62
     7
370
    25
100
AcDbCircle
 10
162.0755378093
 20
81.6132793082
 30
0.0
 40
1.549999999999983
  0
CIRCLE
  5
189
330
1F
100
AcDbEntity
  8
0
  6
Continuous
 62
     7
370
    25
100
AcDbCircle
 10
93.0755378093
 20
71.6132793082
 30
0.0
 40
1.549999999999997
  0
CIRCLE
  5
18A
330
1F
100
AcDbEntity
  8
0
  6
Continuous
 62
     7
370
    25
100
AcDbCircle
 10
108.0755378093
 20
71.6132793082
 30
0.0
 40
1.550000000000011
  0
CIRCLE
  5
18B
330
1F
100
AcDbEntity
  8
0
  6
Continuous
 62
     7
370
    25
100
AcDbCircle
 10
139.5755378093
 20
86.6132793082
 30
0.0
 40
2.100000000000023
  0
CIRCLE
  5
18C
330
1F
100
AcDbEntity
  8
0
  6
Continuous
 62
     7
370
    25
100
AcDbCircle
 10
147.0755378093
 20
71.6132793082
 30
0.0
 40
1.55000000000004
  0
CIRCLE
  5
18D
330
1F
100
AcDbEntity
  8
0
  6
Continuous
 62
     7
370
    25
100
AcDbCircle
 10
147.0755378093
 20
81.6132793082
 30
0.0
 40
1.55000000000004
  0
CIRCLE
  5
18E
330
1F
100
AcDbEntity
  8
0
  6
Continuous
 62
     7
370
    25
100
AcDbCircle
 10
162.0755378093
 20
71.6132793082
 30
0.0
 40
1.549999999999983
  0
CIRCLE
  5
18F
330
1F
100
AcDbEntity
  8
0
  6
Continuous
 62
     7
370
    25
100
AcDbCircle
 10
93.0755378093
 20
81.6132793082
 30
0.0
 40
1.550000000000011
  0
CIRCLE
  5
190
330
1F
100
AcDbEntity
  8
0
  6
Continuous
 62
     7
370
    25
100
AcDbCircle
 10
115.5755378093
 20
66.6132793082
 30
0.0
 40
2.099999999999994
  0
CIRCLE
  5
191
330
1F
100
AcDbEntity
  8
0
  6
Continuous
 62
     7
370
    25
100
AcDbCircle
 10
139.5755378093
 20
66.6132793082
 30
0.0
 40
2.100000000000023
  0
CIRCLE
  5
192
330
1F
100
AcDbEntity
  8
0
  6
Continuous
 62
     7
370
    25
100
AcDbCircle
 10
115.5755378093
 20
86.6132793082
 30
0.0
 40
2.099999999999994
  0
CIRCLE
  5
193
330
1F
100
AcDbEntity
  8
0
  6
Continuous
 62
     7
370
    25
100
AcDbCircle
 10
106.0755378093
 20
108.1132793082
 30
0.0
 40
1.550000000000011
  0
CIRCLE
  5
194
330
1F
100
AcDbEntity
  8
0
  6
Continuous
 62
     7
370
    25
100
AcDbCircle
 10
154.5755378093
 20
93.1132793082
 30
0.0
 40
1.549999999999983
  0
CIRCLE
  5
195
330
1F
100
AcDbEntity
  8
0
  6
Continuous
 62
     7
370
    25
100
AcDbCircle
 10
144.5755378093
 20
93.1132793082
 30
0.0
 40
1.550000000000011
  0
CIRCLE
  5
196
330
1F
100
AcDbEntity
  8
0
  6
Continuous
 62
     7
370
    25
100
AcDbCircle
 10
144.5755378093
 20
108.1132793082
 30
0.0
 40
1.550000000000011
  0
CIRCLE
  5
197
330
1F
100
AcDbEntity
  8
0
  6
Continuous
 62
     7
370
    25
100
AcDbCircle
 10
106.0755378093
 20
93.1132793082
 30
0.0
 40
1.549999999999997
  0
CIRCLE
  5
198
330
1F
100
AcDbEntity
  8
0
  6
Continuous
 62
     7
370
    25
100
AcDbCircle
 10
116.0755378093
 20
108.1132793082
 30
0.0
 40
1.549999999999997
  0
CIRCLE
  5
199
330
1F
100
AcDbEntity
  8
0
  6
Continuous
 62
     7
370
    25
100
AcDbCircle
 10
116.0755378093
 20
93.1132793082
 30
0.0
 40
1.549999999999997
  0
CIRCLE
  5
19A
330
1F
100
AcDbEntity
  8
0
  6
Continuous
 62
     7
370
    25
100
AcDbCircle
 10
154.5755378093
 20
108.1132793082
 30
0.0
 40
1.549999999999983
  0
LINE
  5
19B
330
1F
100
AcDbEntity
  8
0
  6
Continuous
 62
     7
370
    25
100
AcDbLine
 10
90.5755378093
 20
61.6132793082
 30
0.0
 11
194.5755378093
 21
61.6132793082
 31
0.0
  0
LINE
  5
19C
330
1F
100
AcDbEntity
  8
0
  6
Continuous
 62
     7
370
    25
100
AcDbLine
 10
90.5755378093
 20
110.6132793082
 30
0.0
 11
90.5755378093
 21
61.6132793082
 31
0.0
  0
LINE
  5
19D
330
1F
100
AcDbEntity
  8
0
  6
Continuous
 62
     7
370
    25
100
AcDbLine
 10
194.5755378093
 20
91.6132793082
 30
0.0
 11
164.5755378093
 21
91.6132793082
 31
0.0
  0
CIRCLE
  5
19E
330
1F
100
AcDbEntity
  8
0
  6
Continuous
 62
     7
370
    25
100
AcDbCircle
 10
108.0755378093
 20
81.6132793082
 30
0.0
 40
1.549999999999997
  0
CIRCLE
  5
19F
330
1F
100
AcDbEntity
  8
0
  6
Continuous
 62
     7
370
    25
100
AcDbCircle
 10
198.272650958
 20
116.2348996689
 30
0.0
 40
2.550000000000011
  0
CIRCLE
  5
1A0
330
1F
100
AcDbEntity
  8
0
  6
Continuous
 62
     7
370
    25
100
AcDbCircle
 10
198.272650958
 20
124.2348996689
 30
0.0
 40
1.550000000000011
  0
CIRCLE
  5
1A1
330
1F
100
AcDbEntity
  8
0
  6
Continuous
 62
     7
370
    25
100
AcDbCircle
 10
190.272650958
 20
116.2348996689
 30
0.0
 40
1.550000000000011
  0
CIRCLE
  5
1A2
330
1F
100
AcDbEntity
  8
0
  6
Continuous
 62
     7
370
    25
100
AcDbCircle
 10
198.272650958
 20
108.2348996689
 30
0.0
 40
1.550000000000011
  0
CIRCLE
  5
1A3
330
1F
100
AcDbEntity
  8
0
  6
Continuous
 62
     7
370
    25
100
AcDbCircle
 10
206.272650958
 20
116.2348996689
 30
0.0
 40
1.549999999999983
  0
ARC
  5
1A4
330
1F
100
AcDbEntity
  8
0
  6
Continuous
 62
     7
370
    25
100
AcDbCircle
 10
198.272650958
 20
116.2348996689
 30
0.0
 40
15.75000000000001
100
AcDbArc
 50
354.2616478383
 51
355.1501168676
  0
SPLINE
  5
1A5
330
1F
100
AcDbEntity
  8
0
  6
Continuous
 62
     7
370
    25
100
AcDbSpline
210
0.0
220
0.0
230
1.0
 70
     8
 71
     3
 72
    13
 73
     9
 74
     0
 42
0.00000001
 43
0.00000001
 40
0.0
 40
0.0
 40
0.0
 40
0.0
 40
0.0617045146491012
 40
0.1129357567832255
 40
0.1591878121557367
 40
0.2959911847179579
 40
0.575093161675639
 40
0.9999999999999999
 40
0.9999999999999999
 40
0.9999999999999999
 40
0.9999999999999999
 10
213.9437255854867
 20
114.6601234877941
 30
0.0
 10
213.9559761462528
 20
114.6086397223419
 30
0.0
 10
213.9783979472994
 20
114.5144106688205
 30
0.0
 10
214.0495738372077
 20
114.3961947492237
 30
0.0
 10
214.1975998700275
 20
114.2577907868403
 30
0.0
 10
214.5845760902502
 20
114.1411787551415
 30
0.0
 10
215.2365809194642
 20
113.8471826487583
 30
0.0
 10
215.7320109019601
 20
113.5031526422402
 30
0.0
 10
216.0310292990367
 20
113.2955121991305
 30
0.0
  0
ARC
  5
1A6
330
1F
100
AcDbEntity
  8
0
  6
Continuous
 62
     7
370
    25
100
AcDbCircle
 10
198.272650958
 20
116.2348996689
 30
0.0
 40
18.0
100
AcDbArc
 50
348.2219812145
 51
350.6015481972
  0
SPLINE
  5
1A7
330
1F
100
AcDbEntity
  8
0
  6
Continuous
 62
     7
370
    25
100
AcDbSpline
210
0.0
220
0.0
230
1.0
 70
     8
 71
     3
 72
    13
 73
     9
 74
     0
 42
0.00000001
 43
0.00000001
 40
0.0
 40
0.0
 40
0.0
 40
0.0
 40
0.424906838323553
 40
0.7040088152816228
 40
0.8408121878440306
 40
0.8870642432166117
 40
0.9382954853508114
 40
0.9999999999999999
 40
0.9999999999999999
 40
0.9999999999999999
 40
0.9999999999999999
 10
215.893674827437
 20
112.5607306753215
 30
0.0
 10
215.5398400964465
 20
112.4751296324013
 30
0.0
 10
214.953587423383
 20
112.3333011575975
 30
0.0
 10
214.2394073833821
 20
112.2946892637097
 30
0.0
 10
213.8364376799563
 20
112.3257437171042
 30
0.0
 10
213.6484102371446
 20
112.250159036477
 30
0.0
 10
213.5393361806371
 20
112.1656376714424
 30
0.0
 10
213.4843890135305
 20
112.0858713845996
 30
0.0
 10
213.454367624608
 20
112.0422896160331
 30
0.0
  0
ARC
  5
1A8
330
1F
100
AcDbEntity
  8
0
  6
Continuous
 62
     7
370
    25
100
AcDbCircle
 10
198.272650958
 20
116.2348996689
 30
0.0
 40
15.75000000000001
100
AcDbArc
 50
343.6734125442
 51
344.5618815735
  0
SPLINE
  5
1A9
330
1F
100
AcDbEntity
  8
0
  6
Continuous
 62
     7
370
    25
100
AcDbSpline
210
0.0
220
0.0
230
1.0
 70
     8
 71
     3
 72
    13
 73
     9
 74
     0
 42
0.00000001
 43
0.00000001
 40
0.0
 40
0.0
 40
0.0
 40
0.0
 40
0.0617045146490984
 40
0.1129357567832197
 40
0.1591878121557306
 40
0.2959911847179549
 40
0.5750931616756335
 40
0.9999999999999999
 40
0.9999999999999999
 40
0.9999999999999999
 40
0.9999999999999999
 10
213.3875313960031
 20
111.8073846383883
 30
0.0
 10
213.3901132506151
 20
111.7545264472447
 30
0.0
 10
213.3948387347415
 20
111.6577818272934
 30
0.0
 10
213.4430806016432
 20
111.5285002229247
 30
0.0
 10
213.5631545486061
 20
111.3652531388571
 30
0.0
 10
213.9221143587062
 20
111.1795199547254
 30
0.0
 10
214.5089959238996
 20
110.7707241177567
 30
0.0
 10
214.9327749216578
 20
110.3415168554699
 30
0.0
 10
215.1885481309941
 20
110.0824673992055
 30
0.0
  0
ARC
  5
1AA
330
1F
100
AcDbEntity
  8
0
  6
Continuous
 62
     7
370
    25
100
AcDbCircle
 10
198.272650958
 20
116.2348996689
 30
0.0
 40
18.00000000000001
100
AcDbArc
 50
337.6337459204
 51
340.0133129031
  0
SPLINE
  5
1AB
330
1F
100
AcDbEntity
  8
0
  6
Continuous
 62
     7
370
    25
100
AcDbSpline
210
0.0
220
0.0
230
1.0
 70
     8
 71
     3
 72
    13
 73
     9
 74
     0
 42
0.00000001
 43
0.00000001
 40
0.0
 40
0.0
 40
0.0
 40
0.0
 40
0.4249068383235551
 40
0.7040088152816211
 40
0.8408121878440344
 40
0.8870642432166087
 40
0.9382954853508042
 40
1.0
 40
1.0
 40
1.0
 40
1.0
 10
214.9185166295899
 20
109.3854357450829
 30
0.0
 10
214.5549774569311
 20
109.3663091837937
 30
0.0
 10
213.952645935834
 20
109.3346192542865
 30
0.0
 10
213.2435312512983
 20
109.4278950392512
 30
0.0
 10
212.8531291136803
 20
109.5324662202627
 30
0.0
 10
212.6544145467745
 20
109.4927184644108
 30
0.0
 10
212.5316669232839
 20
109.4296785415228
 30
0.0
 10
212.4629983193689
 20
109.3613669427558
 30
0.0
 10
212.4254799726832
 20
109.3240436523571
 30
0.0
  0
ARC
  5
1AC
330
1F
100
AcDbEntity
  8
0
  6
Continuous
 62
     7
370
    25
100
AcDbCircle
 10
198.272650958
 20
116.2348996689
 30
0.0
 40
15.75000000000002
100
AcDbArc
 50
333.0851772501
 51
333.9736462793
  0
SPLINE
  5
1AD
330
1F
100
AcDbEntity
  8
0
  6
Continuous
 62
     7
370
    25
100
AcDbSpline
210
0.0
220
0.0
230
1.0
 70
     8
 71
     3
 72
    13
 73
     9
 74
     0
 42
0.00000001
 43
0.00000001
 40
0.0
 40
0.0
 40
0.0
 40
0.0
 40
0.0617045146490992
 40
0.1129357567832232
 40
0.1591878121557344
 40
0.2959911847179589
 40
0.5750931616756331
 40
1.0
 40
1.0
 40
1.0
 40
1.0
 10
212.3166180815054
 20
109.1054195031292
 30
0.0
 10
212.3094433080009
 20
109.052986908597
 30
0.0
 10
212.2963115545128
 20
108.9570212442162
 30
0.0
 10
212.3199765794904
 20
108.8210764850559
 30
0.0
 10
212.4080094663454
 20
108.638545462959
 30
0.0
 10
212.7267289205147
 20
108.3900160472174
 30
0.0
 10
213.2285016738718
 20
107.8803415315947
 30
0.0
 10
213.5661984013905
 20
107.3805731520789
 30
0.0
 10
213.7700163731087
 20
107.0789363011973
 30
0.0
  0
ARC
  5
1AE
330
1F
100
AcDbEntity
  8
0
  6
Continuous
 62
     7
370
    25
100
AcDbCircle
 10
198.272650958
 20
116.2348996689
 30
0.0
 40
18.00000000000001
100
AcDbArc
 50
327.0455106263
 51
329.425077609
  0
SPLINE
  5
1AF
330
1F
100
AcDbEntity
  8
0
  6
Continuous
 62
     7
370
    25
100
AcDbSpline
210
0.0
220
0.0
230
1.0
 70
     8
 71
     3
 72
    13
 73
     9
 74
     0
 42
0.00000001
 43
0.00000001
 40
0.0
 40
0.0
 40
0.0
 40
0.0
 40
0.424906838323556
 40
0.7040088152816266
 40
0.8408121878440367
 40
0.887064243216617
 40
0.9382954853508158
 40
1.0
 40
1.0
 40
1.0
 40
1.0
 10
213.3765034408132
 20
106.443391093745
 30
0.0
 10
213.0156397169939
 20
106.4913903461918
 30
0.0
 10
212.4177410253972
 20
106.5709181245226
 30
0.0
 10
211.7378397464188
 20
106.7929051933549
 30
0.0
 10
211.3732998511697
 20
106.9674320558331
 30
0.0
 10
211.170665146414
 20
106.9648747869101
 30
0.0
 10
211.0384239790387
 20
106.9254630551345
 30
0.0
 10
210.9583723652627
 20
106.8709324140087
 30
0.0
 10
210.9146347031119
 20
106.8411386016678
 30
0.0
  0
ARC
  5
1B0
330
1F
100
AcDbEntity
  8
0
  6
Continuous
 62
     7
370
    25
100
AcDbCircle
 10
198.272650958
 20
116.2348996689
 30
0.0
 40
15.75000000000002
100
AcDbArc
 50
322.496941956
 51
323.3854109852
  0
SPLINE
  5
1B1
330
1F
100
AcDbEntity
  8
0
  6
Continuous
 62
     7
370
    25
100
AcDbSpline
210
0.0
220
0.0
230
1.0
 70
     8
 71
     3
 72
    13
 73
     9
 74
     0
 42
0.00000001
 43
0.00000001
 40
0.0
 40
0.0
 40
0.0
 40
0.0
 40
0.0617045146490962
 40
0.1129357567832225
 40
0.1591878121557318
 40
0.295991184717956
 40
0.5750931616756301
 40
1.0
 40
1.0
 40
1.0
 40
1.0
 10
210.7674543104997
 20
106.6462402640481
 30
0.0
 10
210.7507672371853
 20
106.5960187952482
 30
0.0
 10
210.7202254321979
 20
106.50410008204
 30
0.0
 10
210.7185077312088
 20
106.3661216038138
 30
0.0
 10
210.7715017035781
 20
106.170522518723
 30
0.0
 10
211.0391271930664
 20
105.8676602425466
 30
0.0
 10
211.438703865282
 20
105.2744634026121
 30
0.0
 10
211.6788184655281
 20
104.7211529186256
 30
0.0
 10
211.823740423054
 20
104.3872005543101
 30
0.0
  0
ARC
  5
1B2
330
1F
100
AcDbEntity
  8
0
  6
Continuous
 62
     7
370
    25
100
AcDbCircle
 10
198.272650958
 20
116.2348996689
 30
0.0
 40
18.00000000000001
100
AcDbArc
 50
316.4572753322
 51
318.8368423149
  0
SPLINE
  5
1B3
330
1F
100
AcDbEntity
  8
0
  6
Continuous
 62
     7
370
    25
100
AcDbSpline
210
0.0
220
0.0
230
1.0
 70
     8
 71
     3
 72
    13
 73
     9
 74
     0
 42
0.00000001
 43
0.00000001
 40
0.0
 40
0.0
 40
0.0
 40
0.0
 40
0.4249068383235545
 40
0.7040088152816278
 40
0.8408121878440373
 40
0.8870642432166154
 40
0.9382954853508126
 40
1.0
 40
1.0
 40
1.0
 40
1.0
 10
211.3201466708097
 20
103.8347845233154
 30
0.0
 10
210.9742471771362
 20
103.9482750325248
 30
0.0
 10
210.4011420378818
 20
104.1363122955857
 30
0.0
 10
209.7736073870649
 20
104.4794511449006
 30
0.0
 10
209.4473437030998
 20
104.7179903858659
 30
0.0
 10
209.247689342331
 20
104.7527106885976
 30
0.0
 10
209.1104579454202
 20
104.738269267191
 30
0.0
 10
209.021749383479
 20
104.6993765592876
 30
0.0
 10
208.9732818394902
 20
104.6781268175502
 30
0.0
  0
ARC
  5
1B4
330
1F
100
AcDbEntity
  8
0
  6
Continuous
 62
     7
370
    25
100
AcDbCircle
 10
198.272650958
 20
116.2348996689
 30
0.0
 40
15.75000000000001
100
AcDbArc
 50
311.9087066618
 51
312.7971756911
  0
SPLINE
  5
1B5
330
1F
100
AcDbEntity
  8
0
  6
Continuous
 62
     7
370
    25
100
AcDbSpline
210
0.0
220
0.0
230
1.0
 70
     8
 71
     3
 72
    13
 73
     9
 74
     0
 42
0.00000001
 43
0.00000001
 40
0.0
 40
0.0
 40
0.0
 40
0.0
 40
0.0617045146490985
 40
0.1129357567832212
 40
0.1591878121557334
 40
0.2959911847179528
 40
0.5750931616756304
 40
1.0
 40
1.0
 40
1.0
 40
1.0
 10
208.7927949971906
 20
104.5135913206713
 30
0.0
 10
208.7671638823341
 20
104.4672912094897
 30
0.0
 10
208.7202520903853
 20
104.3825496289883
 30
0.0
 10
208.6932101576767
 20
104.247236123285
 30
0.0
 10
208.70936056939
 20
104.045229867448
 30
0.0
 10
208.9167784291349
 20
103.6983483424085
 30
0.0
 10
209.2005519158754
 20
103.0418297850852
 30
0.0
 10
209.3349075741235
 20
102.4538195215375
 30
0.0
 10
209.4159983740083
 20
102.098923991023
 30
0.0
  0
ARC
  5
1B6
330
1F
100
AcDbEntity
  8
0
  6
Continuous
 62
     7
370
    25
100
AcDbCircle
 10
198.272650958
 20
116.2348996689
 30
0.0
 40
18.00000000000002
100
AcDbArc
 50
305.8690400381
 51
308.2486070207
  0
SPLINE
  5
1B7
330
1F
100
AcDbEntity
  8
0
  6
Continuous
 62
     7
370
    25
100
AcDbSpline
210
0.0
220
0.0
230
1.0
 70
     8
 71
     3
 72
    13
 73
     9
 74
     0
 42
0.00000001
 43
0.00000001
 40
0.0
 40
0.0
 40
0.0
 40
0.0
 40
0.4249068383235581
 40
0.7040088152816284
 40
0.8408121878440313
 40
0.8870642432166143
 40
0.9382954853508119
 40
1.0
 40
1.0
 40
1.0
 40
1.0
 10
208.8194730830539
 20
101.6484490018714
 30
0.0
 10
208.5003170119225
 20
101.8235659846691
 30
0.0
 10
207.9715218331638
 20
102.1137093489924
 30
0.0
 10
207.4177237503971
 20
102.5663147968263
 30
0.0
 10
207.1408467961632
 20
102.8607432485238
 30
0.0
 10
206.9509717691784
 20
102.9315587646432
 30
0.0
 10
206.813423393363
 20
102.9425794388909
 30
0.0
 10
206.7190787469393
 20
102.9206491087309
 30
0.0
 10
206.6675318251926
 20
102.9086670720655
 30
0.0
  0
ARC
  5
1B8
330
1F
100
AcDbEntity
  8
0
  6
Continuous
 62
     7
370
    25
100
AcDbCircle
 10
198.272650958
 20
116.2348996689
 30
0.0
 40
15.75000000000001
100
AcDbArc
 50
301.3204713677
 51
302.208940397
  0
SPLINE
  5
1B9
330
1F
100
AcDbEntity
  8
0
  6
Continuous
 62
     7
370
    25
100
AcDbSpline
210
0.0
220
0.0
230
1.0
 70
     8
 71
     3
 72
    13
 73
     9
 74
     0
 42
0.00000001
 43
0.00000001
 40
0.0
 40
0.0
 40
0.0
 40
0.0
 40
0.0617045146490978
 40
0.1129357567832213
 40
0.1591878121557328
 40
0.2959911847179564
 40
0.5750931616756328
 40
0.9999999999999999
 40
0.9999999999999999
 40
0.9999999999999999
 40
0.9999999999999999
 10
206.45988479615
 20
102.7800974749353
 30
0.0
 10
206.4261824766266
 20
102.7392954161274
 30
0.0
 10
206.3644982225269
 20
102.6646167412202
 30
0.0
 10
206.3130529386837
 20
102.5365761471861
 30
0.0
 10
206.2918098068409
 20
102.3350418013655
 30
0.0
 10
206.4319566703985
 20
101.9559536617598
 30
0.0
 10
206.5902634059223
 20
101.2584703391099
 30
0.0
 10
206.6142848013723
 20
100.6557842802855
 30
0.0
 10
206.6287829936836
 20
100.2920311252136
 30
0.0
  0
ARC
  5
1BA
330
1F
100
AcDbEntity
  8
0
  6
Continuous
 62
     7
370
    25
100
AcDbCircle
 10
198.272650958
 20
116.2348996689
 30
0.0
 40
17.99999999999999
100
AcDbArc
 50
295.280804744
 51
297.6603717266
  0
SPLINE
  5
1BB
330
1F
100
AcDbEntity
  8
0
  6
Continuous
 62
     7
370
    25
100
AcDbSpline
210
0.0
220
0.0
230
1.0
 70
     8
 71
     3
 72
    13
 73
     9
 74
     0
 42
0.00000001
 43
0.00000001
 40
0.0
 40
0.0
 40
0.0
 40
0.0
 40
0.4249068383235546
 40
0.704008815281626
 40
0.8408121878440343
 40
0.8870642432166153
 40
0.9382954853508078
 40
1.0
 40
1.0
 40
1.0
 40
1.0
 10
205.9596401173493
 20
99.95883756337528
 30
0.0
 10
205.678095945977
 20
100.1896176209419
 30
0.0
 10
205.2116182133067
 20
100.5719866022441
 30
0.0
 10
204.750415628091
 20
101.1186457129113
 30
0.0
 10
204.5323541161878
 20
101.4589369675466
 30
0.0
 10
204.3587243893006
 20
101.5634361595862
 30
0.0
 10
204.2255430795479
 20
101.5995436336445
 30
0.0
 10
204.1287751424219
 20
101.595322492319
 30
0.0
 10
204.0759042115135
 20
101.5930161946133
 30
0.0
  0
ARC
  5
1BC
330
1F
100
AcDbEntity
  8
0
  6
Continuous
 62
     7
370
    25
100
AcDbCircle
 10
198.272650958
 20
116.2348996689
 30
0.0
 40
15.74999999999999
100
AcDbArc
 50
290.7322360736
 51
291.6207051029
  0
SPLINE
  5
1BD
330
1F
100
AcDbEntity
  8
0
  6
Continuous
 62
     7
370
    25
100
AcDbSpline
210
0.0
220
0.0
230
1.0
 70
     8
 71
     3
 72
    13
 73
     9
 74
     0
 42
0.00000001
 43
0.00000001
 40
0.0
 40
0.0
 40
0.0
 40
0.0
 40
0.0617045146490972
 40
0.1129357567832198
 40
0.159187812155736
 40
0.2959911847179582
 40
0.5750931616756317
 40
0.9999999999999999
 40
0.9999999999999999
 40
0.9999999999999999
 40
0.9999999999999999
 10
203.8481681662568
 20
101.5047907806597
 30
0.0
 10
203.8075423341366
 20
101.4708762394015
 30
0.0
 10
203.7331862011771
 20
101.4088035627955
 30
0.0
 10
203.659089473639
 20
101.2923961492925
 30
0.0
 10
203.6011762076164
 20
101.0981967239214
 30
0.0
 10
203.6692795416361
 20
100.6998113616777
 30
0.0
 10
203.6967285799327
 20
99.98511523171503
 30
0.0
 10
203.6095976927732
 20
99.38827712850487
 30
0.0
 10
203.5570095589605
 20
99.02805352629763
 30
0.0
  0
ARC
  5
1BE
330
1F
100
AcDbEntity
  8
0
  6
Continuous
 62
     7
370
    25
100
AcDbCircle
 10
198.272650958
 20
116.2348996689
 30
0.0
 40
17.99999999999999
100
AcDbArc
 50
284.6925694498
 51
287.0721364325
  0
SPLINE
  5
1BF
330
1F
100
AcDbEntity
  8
0
  6
Continuous
 62
     7
370
    25
100
AcDbSpline
210
0.0
220
0.0
230
1.0
 70
     8
 71
     3
 72
    13
 73
     9
 74
     0
 42
0.00000001
 43
0.00000001
 40
0.0
 40
0.0
 40
0.0
 40
0.0
 40
0.4249068383235521
 40
0.704008815281631
 40
0.8408121878440331
 40
0.8870642432166157
 40
0.9382954853508148
 40
1.0
 40
1.0
 40
1.0
 40
1.0
 10
202.8380359553514
 20
98.82348789889961
 30
0.0
 10
202.6036913328192
 20
99.10207209316485
 30
0.0
 10
202.2154163859451
 20
99.56364557438874
 30
0.0
 10
201.8625149991685
 20
100.1857425275209
 30
0.0
 10
201.7106947528476
 20
100.5603083745516
 30
0.0
 10
201.5592230781616
 20
100.6949326478593
 30
0.0
 10
201.4349441642418
 20
100.7548973250055
 30
0.0
 10
201.3390482524518
 20
100.7685291184195
 30
0.0
 10
201.2866537685223
 20
100.7759770978759
 30
0.0
  0
ARC
  5
1C0
330
1F
100
AcDbEntity
  8
0
  6
Continuous
 62
     7
370
    25
100
AcDbCircle
 10
198.272650958
 20
116.2348996689
 30
0.0
 40
15.75000000000001
100
AcDbArc
 50
280.1440007795
 51
281.0324698087
  0
SPLINE
  5
1C1
330
1F
100
AcDbEntity
  8
0
  6
Continuous
 62
     7
370
    25
100
AcDbSpline
210
0.0
220
0.0
230
1.0
 70
     8
 71
     3
 72
    13
 73
     9
 74
     0
 42
0.00000001
 43
0.00000001
 40
0.0
 40
0.0
 40
0.0
 40
0.0
 40
0.0617045146490982
 40
0.1129357567832217
 40
0.1591878121557315
 40
0.2959911847179609
 40
0.57509316167563
 40
1.0
 40
1.0
 40
1.0
 40
1.0
 10
201.0465839849335
 20
100.7311002777564
 30
0.0
 10
201.0004181042038
 20
100.7052281730745
 30
0.0
 10
200.9159222013122
 20
100.6578753053234
 30
0.0
 10
200.8216973052661
 20
100.5570651872031
 30
0.0
 10
200.729086071879
 20
100.3768139107961
 30
0.0
 10
200.7228266990015
 20
99.97269786161483
 30
0.0
 10
200.6184832959933
 20
99.26512704386187
 30
0.0
 10
200.4231672640845
 20
98.69446150204239
 30
0.0
 10
200.3052836299724
 20
98.35003443543236
 30
0.0
  0
ARC
  5
1C2
330
1F
100
AcDbEntity
  8
0
  6
Continuous
 62
     7
370
    25
100
AcDbCircle
 10
198.272650958
 20
116.2348996689
 30
0.0
 40
18.00000000000001
100
AcDbArc
 50
274.1043341557
 51
276.4839011384
  0
SPLINE
  5
1C3
330
1F
100
AcDbEntity
  8
0
  6
Continuous
 62
     7
370
    25
100
AcDbSpline
210
0.0
220
0.0
230
1.0
 70
     8
 71
     3
 72
    13
 73
     9
 74
     0
 42
0.00000001
 43
0.00000001
 40
0.0
 40
0.0
 40
0.0
 40
0.0
 40
0.4249068383235605
 40
0.7040088152816328
 40
0.840812187844041
 40
0.8870642432166155
 40
0.9382954853508105
 40
1.0
 40
1.0
 40
1.0
 40
1.0
 10
199.5609630828456
 20
98.28106297956613
 30
0.0
 10
199.3817983342084
 20
98.59796445991917
 30
0.0
 10
199.0849484107618
 20
99.12302410975809
 30
0.0
 10
198.8523658558924
 20
99.79937413973933
 30
0.0
 10
198.771956931554
 20
100.1954591884871
 30
0.0
 10
198.6478014952803
 20
100.3556240748995
 30
0.0
 10
198.5366571465509
 20
100.4374039299729
 30
0.0
 10
198.4448988803584
 20
100.4684244437514
 30
0.0
 10
198.3947650747178
 20
100.4853730683623
 30
0.0
  0
ARC
  5
1C4
330
1F
100
AcDbEntity
  8
0
  6
Continuous
 62
     7
370
    25
100
AcDbCircle
 10
198.272650958
 20
116.2348996689
 30
0.0
 40
15.75
100
AcDbArc
 50
269.5557654854
 51
270.4442345146
  0
SPLINE
  5
1C5
330
1F
100
AcDbEntity
  8
0
  6
Continuous
 62
     7
370
    25
100
AcDbSpline
210
0.0
220
0.0
230
1.0
 70
     8
 71
     3
 72
    13
 73
     9
 74
     0
 42
0.00000001
 43
0.00000001
 40
0.0
 40
0.0
 40
0.0
 40
0.0
 40
0.0617045146491023
 40
0.1129357567832243
 40
0.1591878121557328
 40
0.2959911847179611
 40
0.5750931616756352
 40
1.0
 40
1.0
 40
1.0
 40
1.0
 10
198.1505368413449
 20
100.4853730683623
 30
0.0
 10
198.1004030357042
 20
100.4684244437514
 30
0.0
 10
198.0086447695117
 20
100.4374039299729
 30
0.0
 10
197.8975004207823
 20
100.3556240748995
 30
0.0
 10
197.7733449845086
 20
100.1954591884871
 30
0.0
 10
197.6929360601702
 20
99.79937413973936
 30
0.0
 10
197.4603535053005
 20
99.12302410975698
 30
0.0
 10
197.1635035818533
 20
98.59796445991698
 30
0.0
 10
196.9843388332155
 20
98.28106297956288
 30
0.0
  0
ARC
  5
1C6
330
1F
100
AcDbEntity
  8
0
  6
Continuous
 62
     7
370
    25
100
AcDbCircle
 10
198.272650958
 20
116.2348996689
 30
0.0
 40
18.00000000000001
100
AcDbArc
 50
263.5160988616
 51
265.8956658443
  0
SPLINE
  5
1C7
330
1F
100
AcDbEntity
  8
0
  6
Continuous
 62
     7
370
    25
100
AcDbSpline
210
0.0
220
0.0
230
1.0
 70
     8
 71
     3
 72
    13
 73
     9
 74
     0
 42
0.00000001
 43
0.00000001
 40
0.0
 40
0.0
 40
0.0
 40
0.0
 40
0.424906838323557
 40
0.7040088152816308
 40
0.8408121878440346
 40
0.8870642432166155
 40
0.9382954853508123
 40
1.0
 40
1.0
 40
1.0
 40
1.0
 10
196.2400182860893
 20
98.35003443543589
 30
0.0
 10
196.1221346519775
 20
98.69446150204472
 30
0.0
 10
195.9268186200691
 20
99.26512704386306
 30
0.0
 10
195.822475217061
 20
99.9726978616148
 30
0.0
 10
195.8162158441837
 20
100.3768139107961
 30
0.0
 10
195.7236046107965
 20
100.5570651872031
 30
0.0
 10
195.6293797147505
 20
100.6578753053233
 30
0.0
 10
195.5448838118589
 20
100.7052281730745
 30
0.0
 10
195.4987179311292
 20
100.7311002777564
 30
0.0
  0
ARC
  5
1C8
330
1F
100
AcDbEntity
  8
0
  6
Continuous
 62
     7
370
    25
100
AcDbCircle
 10
198.272650958
 20
116.2348996689
 30
0.0
 40
15.75000000000001
100
AcDbArc
 50
258.9675301913
 51
259.8559992205
  0
SPLINE
  5
1C9
330
1F
100
AcDbEntity
  8
0
  6
Continuous
 62
     7
370
    25
100
AcDbSpline
210
0.0
220
0.0
230
1.0
 70
     8
 71
     3
 72
    13
 73
     9
 74
     0
 42
0.00000001
 43
0.00000001
 40
0.0
 40
0.0
 40
0.0
 40
0.0
 40
0.0617045146491011
 40
0.1129357567832244
 40
0.1591878121557368
 40
0.2959911847179597
 40
0.5750931616756313
 40
1.0
 40
1.0
 40
1.0
 40
1.0
 10
195.2586481475403
 20
100.7759770978759
 30
0.0
 10
195.2062536636109
 20
100.7685291184195
 30
0.0
 10
195.1103577518208
 20
100.7548973250055
 30
0.0
 10
194.986078837901
 20
100.6949326478593
 30
0.0
 10
194.834607163215
 20
100.5603083745516
 30
0.0
 10
194.6827869168942
 20
100.1857425275209
 30
0.0
 10
194.3298855301169
 20
99.56364557438779
 30
0.0
 10
193.941610583242
 20
99.10207209316285
 30
0.0
 10
193.7072659607091
 20
98.82348789889667
 30
0.0
  0
ARC
  5
1CA
330
1F
100
AcDbEntity
  8
0
  6
Continuous
 62
     7
370
    25
100
AcDbCircle
 10
198.272650958
 20
116.2348996689
 30
0.0
 40
18.0
100
AcDbArc
 50
252.9278635675
 51
255.3074305502
  0
SPLINE
  5
1CB
330
1F
100
AcDbEntity
  8
0
  6
Continuous
 62
     7
370
    25
100
AcDbSpline
210
0.0
220
0.0
230
1.0
 70
     8
 71
     3
 72
    13
 73
     9
 74
     0
 42
0.00000001
 43
0.00000001
 40
0.0
 40
0.0
 40
0.0
 40
0.0
 40
0.4249068383235495
 40
0.7040088152816267
 40
0.8408121878440385
 40
0.8870642432166156
 40
0.9382954853508112
 40
0.9999999999999999
 40
0.9999999999999999
 40
0.9999999999999999
 40
0.9999999999999999
 10
192.9882923571018
 20
99.02805352630126
 30
0.0
 10
192.9357042232893
 20
99.38827712850731
 30
0.0
 10
192.8485733361299
 20
99.98511523171626
 30
0.0
 10
192.8760223744265
 20
100.6998113616776
 30
0.0
 10
192.9441257084462
 20
101.0981967239214
 30
0.0
 10
192.8862124424236
 20
101.2923961492924
 30
0.0
 10
192.8121157148855
 20
101.4088035627954
 30
0.0
 10
192.7377595819261
 20
101.4708762394015
 30
0.0
 10
192.6971337498058
 20
101.5047907806597
 30
0.0
  0
ARC
  5
1CC
330
1F
100
AcDbEntity
  8
0
  6
Continuous
 62
     7
370
    25
100
AcDbCircle
 10
198.272650958
 20
116.2348996689
 30
0.0
 40
15.74999999999999
100
AcDbArc
 50
248.3792948971
 51
249.2677639264
  0
SPLINE
  5
1CD
330
1F
100
AcDbEntity
  8
0
  6
Continuous
 62
     7
370
    25
100
AcDbSpline
210
0.0
220
0.0
230
1.0
 70
     8
 71
     3
 72
    13
 73
     9
 74
     0
 42
0.00000001
 43
0.00000001
 40
0.0
 40
0.0
 40
0.0
 40
0.0
 40
0.0617045146490986
 40
0.1129357567832216
 40
0.1591878121557365
 40
0.2959911847179612
 40
0.5750931616756302
 40
1.0
 40
1.0
 40
1.0
 40
1.0
 10
192.4693977045491
 20
101.5930161946133
 30
0.0
 10
192.4165267736408
 20
101.595322492319
 30
0.0
 10
192.3197588365146
 20
101.5995436336445
 30
0.0
 10
192.186577526762
 20
101.5634361595861
 30
0.0
 10
192.0129477998748
 20
101.4589369675466
 30
0.0
 10
191.7948862879717
 20
101.1186457129113
 30
0.0
 10
191.3336837027551
 20
100.5719866022433
 30
0.0
 10
190.8672059700839
 20
100.1896176209403
 30
0.0
 10
190.5856617987107
 20
99.95883756337281
 30
0.0
  0
ARC
  5
1CE
330
1F
100
AcDbEntity
  8
0
  6
Continuous
 62
     7
370
    25
100
AcDbCircle
 10
198.272650958
 20
116.2348996689
 30
0.0
 40
18.00000000000001
100
AcDbArc
 50
242.3396282734
 51
244.719195256
  0
SPLINE
  5
1CF
330
1F
100
AcDbEntity
  8
0
  6
Continuous
 62
     7
370
    25
100
AcDbSpline
210
0.0
220
0.0
230
1.0
 70
     8
 71
     3
 72
    13
 73
     9
 74
     0
 42
0.00000001
 43
0.00000001
 40
0.0
 40
0.0
 40
0.0
 40
0.0
 40
0.4249068383235545
 40
0.704008815281628
 40
0.8408121878440341
 40
0.8870642432166169
 40
0.9382954853508133
 40
1.0
 40
1.0
 40
1.0
 40
1.0
 10
189.9165189223794
 20
100.2920311252172
 30
0.0
 10
189.9310171146907
 20
100.6557842802878
 30
0.0
 10
189.9550385101406
 20
101.2584703391111
 30
0.0
 10
190.1133452456641
 20
101.9559536617598
 30
0.0
 10
190.2534921092217
 20
102.3350418013655
 30
0.0
 10
190.2322489773789
 20
102.536576147186
 30
0.0
 10
190.1808036935358
 20
102.6646167412202
 30
0.0
 10
190.119119439436
 20
102.7392954161274
 30
0.0
 10
190.0854171199127
 20
102.7800974749353
 30
0.0
  0
ARC
  5
1D0
330
1F
100
AcDbEntity
  8
0
  6
Continuous
 62
     7
370
    25
100
AcDbCircle
 10
198.272650958
 20
116.2348996689
 30
0.0
 40
15.74999999999999
100
AcDbArc
 50
237.791059603
 51
238.6795286323
  0
SPLINE
  5
1D1
330
1F
100
AcDbEntity
  8
0
  6
Continuous
 62
     7
370
    25
100
AcDbSpline
210
0.0
220
0.0
230
1.0
 70
     8
 71
     3
 72
    13
 73
     9
 74
     0
 42
0.00000001
 43
0.00000001
 40
0.0
 40
0.0
 40
0.0
 40
0.0
 40
0.061704514649102
 40
0.1129357567832212
 40
0.159187812155738
 40
0.2959911847179571
 40
0.5750931616756296
 40
0.9999999999999999
 40
0.9999999999999999
 40
0.9999999999999999
 40
0.9999999999999999
 10
189.8777700908701
 20
102.9086670720655
 30
0.0
 10
189.8262231691234
 20
102.920649108731
 30
0.0
 10
189.7318785226996
 20
102.942579438891
 30
0.0
 10
189.5943301468843
 20
102.9315587646432
 30
0.0
 10
189.4044551198993
 20
102.8607432485238
 30
0.0
 10
189.1275781656657
 20
102.5663147968262
 30
0.0
 10
188.5737800828978
 20
102.1137093489917
 30
0.0
 10
188.0449849041381
 20
101.8235659846678
 30
0.0
 10
187.7258288330057
 20
101.6484490018694
 30
0.0
  0
ARC
  5
1D2
330
1F
100
AcDbEntity
  8
0
  6
Continuous
 62
     7
370
    25
100
AcDbCircle
 10
198.272650958
 20
116.2348996689
 30
0.0
 40
18.0
100
AcDbArc
 50
231.7513929793
 51
234.1309599619
  0
SPLINE
  5
1D3
330
1F
100
AcDbEntity
  8
0
  6
Continuous
 62
     7
370
    25
100
AcDbSpline
210
0.0
220
0.0
230
1.0
 70
     8
 71
     3
 72
    13
 73
     9
 74
     0
 42
0.00000001
 43
0.00000001
 40
0.0
 40
0.0
 40
0.0
 40
0.0
 40
0.4249068383235565
 40
0.7040088152816267
 40
0.8408121878440389
 40
0.8870642432166166
 40
0.9382954853508111
 40
1.0
 40
1.0
 40
1.0
 40
1.0
 10
187.1293035420554
 20
102.0989239910266
 30
0.0
 10
187.2103943419399
 20
102.4538195215398
 30
0.0
 10
187.3447500001876
 20
103.0418297850864
 30
0.0
 10
187.6285234869278
 20
103.6983483424085
 30
0.0
 10
187.8359413466725
 20
104.045229867448
 30
0.0
 10
187.852091758386
 20
104.247236123285
 30
0.0
 10
187.8250498256773
 20
104.3825496289882
 30
0.0
 10
187.7781380337286
 20
104.4672912094897
 30
0.0
 10
187.7525069188721
 20
104.5135913206713
 30
0.0
  0
ARC
  5
1D4
330
1F
100
AcDbEntity
  8
0
  6
Continuous
 62
     7
370
    25
100
AcDbCircle
 10
198.272650958
 20
116.2348996689
 30
0.0
 40
15.75000000000001
100
AcDbArc
 50
227.2028243089
 51
228.0912933382
  0
SPLINE
  5
1D5
330
1F
100
AcDbEntity
  8
0
  6
Continuous
 62
     7
370
    25
100
AcDbSpline
210
0.0
220
0.0
230
1.0
 70
     8
 71
     3
 72
    13
 73
     9
 74
     0
 42
0.00000001
 43
0.00000001
 40
0.0
 40
0.0
 40
0.0
 40
0.0
 40
0.0617045146490977
 40
0.1129357567832217
 40
0.1591878121557336
 40
0.2959911847179574
 40
0.5750931616756287
 40
1.0
 40
1.0
 40
1.0
 40
1.0
 10
187.5720200765724
 20
104.6781268175502
 30
0.0
 10
187.5235525325836
 20
104.6993765592876
 30
0.0
 10
187.4348439706425
 20
104.738269267191
 30
0.0
 10
187.2976125737317
 20
104.7527106885977
 30
0.0
 10
187.0979582129628
 20
104.7179903858659
 30
0.0
 10
186.7716945289978
 20
104.4794511449006
 30
0.0
 10
186.1441598781797
 20
104.1363122955852
 30
0.0
 10
185.5710547389241
 20
103.9482750325238
 30
0.0
 10
185.2251552452495
 20
103.834784523314
 30
0.0
  0
ARC
  5
1D6
330
1F
100
AcDbEntity
  8
0
  6
Continuous
 62
     7
370
    25
100
AcDbCircle
 10
198.272650958
 20
116.2348996689
 30
0.0
 40
18.00000000000001
100
AcDbArc
 50
221.1631576851
 51
223.5427246678
  0
SPLINE
  5
1D7
330
1F
100
AcDbEntity
  8
0
  6
Continuous
 62
     7
370
    25
100
AcDbSpline
210
0.0
220
0.0
230
1.0
 70
     8
 71
     3
 72
    13
 73
     9
 74
     0
 42
0.00000001
 43
0.00000001
 40
0.0
 40
0.0
 40
0.0
 40
0.0
 40
0.4249068383235569
 40
0.7040088152816268
 40
0.8408121878440346
 40
0.8870642432166139
 40
0.9382954853508133
 40
1.0
 40
1.0
 40
1.0
 40
1.0
 10
184.7215614930103
 20
104.3872005543134
 30
0.0
 10
184.8664834505357
 20
104.7211529186278
 30
0.0
 10
185.1065980507815
 20
105.2744634026132
 30
0.0
 10
185.506174722996
 20
105.8676602425465
 30
0.0
 10
185.7738002124847
 20
106.170522518723
 30
0.0
 10
185.8267941848538
 20
106.3661216038138
 30
0.0
 10
185.8250764838647
 20
106.50410008204
 30
0.0
 10
185.7945346788773
 20
106.5960187952482
 30
0.0
 10
185.7778476055629
 20
106.646240264048
 30
0.0
  0
ARC
  5
1D8
330
1F
100
AcDbEntity
  8
0
  6
Continuous
 62
     7
370
    25
100
AcDbCircle
 10
198.272650958
 20
116.2348996689
 30
0.0
 40
15.75000000000002
100
AcDbArc
 50
216.6145890148
 51
217.503058044
  0
SPLINE
  5
1D9
330
1F
100
AcDbEntity
  8
0
  6
Continuous
 62
     7
370
    25
100
AcDbSpline
210
0.0
220
0.0
230
1.0
 70
     8
 71
     3
 72
    13
 73
     9
 74
     0
 42
0.00000001
 43
0.00000001
 40
0.0
 40
0.0
 40
0.0
 40
0.0
 40
0.0617045146490972
 40
0.1129357567832229
 40
0.1591878121557321
 40
0.2959911847179557
 40
0.5750931616756338
 40
1.0
 40
1.0
 40
1.0
 40
1.0
 10
185.6306672129507
 20
106.8411386016678
 30
0.0
 10
185.5869295507999
 20
106.8709324140087
 30
0.0
 10
185.506877937024
 20
106.9254630551345
 30
0.0
 10
185.3746367696487
 20
106.9648747869101
 30
0.0
 10
185.1720020648929
 20
106.9674320558332
 30
0.0
 10
184.8074621696438
 20
106.7929051933548
 30
0.0
 10
184.1275608906643
 20
106.5709181245223
 30
0.0
 10
183.5296621990664
 20
106.4913903461912
 30
0.0
 10
183.1687984752459
 20
106.4433910937442
 30
0.0
  0
ARC
  5
1DA
330
1F
100
AcDbEntity
  8
0
  6
Continuous
 62
     7
370
    25
100
AcDbCircle
 10
198.272650958
 20
116.2348996689
 30
0.0
 40
17.99999999999998
100
AcDbArc
 50
210.574922391
 51
212.9544893737
  0
SPLINE
  5
1DB
330
1F
100
AcDbEntity
  8
0
  6
Continuous
 62
     7
370
    25
100
AcDbSpline
210
0.0
220
0.0
230
1.0
 70
     8
 71
     3
 72
    13
 73
     9
 74
     0
 42
0.00000001
 43
0.00000001
 40
0.0
 40
0.0
 40
0.0
 40
0.0
 40
0.4249068383235531
 40
0.7040088152816271
 40
0.840812187844036
 40
0.8870642432166108
 40
0.9382954853508082
 40
0.9999999999999999
 40
0.9999999999999999
 40
0.9999999999999999
 40
0.9999999999999999
 10
182.7752855429561
 20
107.0789363012002
 30
0.0
 10
182.9791035146736
 20
107.3805731520808
 30
0.0
 10
183.3168002421916
 20
107.8803415315956
 30
0.0
 10
183.818572995548
 20
108.3900160472173
 30
0.0
 10
184.1372924497172
 20
108.638545462959
 30
0.0
 10
184.2253253365723
 20
108.8210764850559
 30
0.0
 10
184.2489903615498
 20
108.9570212442162
 30
0.0
 10
184.2358586080617
 20
109.0529869085971
 30
0.0
 10
184.2286838345573
 20
109.1054195031292
 30
0.0
  0
ARC
  5
1DC
330
1F
100
AcDbEntity
  8
0
  6
Continuous
 62
     7
370
    25
100
AcDbCircle
 10
198.272650958
 20
116.2348996689
 30
0.0
 40
15.74999999999999
100
AcDbArc
 50
206.0263537207
 51
206.9148227499
  0
SPLINE
  5
1DD
330
1F
100
AcDbEntity
  8
0
  6
Continuous
 62
     7
370
    25
100
AcDbSpline
210
0.0
220
0.0
230
1.0
 70
     8
 71
     3
 72
    13
 73
     9
 74
     0
 42
0.00000001
 43
0.00000001
 40
0.0
 40
0.0
 40
0.0
 40
0.0
 40
0.0617045146490992
 40
0.1129357567832215
 40
0.1591878121557298
 40
0.2959911847179593
 40
0.5750931616756314
 40
0.9999999999999999
 40
0.9999999999999999
 40
0.9999999999999999
 40
0.9999999999999999
 10
184.1198219433794
 20
109.3240436523571
 30
0.0
 10
184.0823035966937
 20
109.3613669427559
 30
0.0
 10
184.0136349927787
 20
109.4296785415228
 30
0.0
 10
183.8908873692881
 20
109.4927184644108
 30
0.0
 10
183.6921728023823
 20
109.5324662202627
 30
0.0
 10
183.3017706647644
 20
109.4278950392512
 30
0.0
 10
182.5926559802274
 20
109.3346192542865
 30
0.0
 10
181.9903244591291
 20
109.3663091837937
 30
0.0
 10
181.6267852864691
 20
109.3854357450829
 30
0.0
  0
ARC
  5
1DE
330
1F
100
AcDbEntity
  8
0
  6
Continuous
 62
     7
370
    25
100
AcDbCircle
 10
198.272650958
 20
116.2348996689
 30
0.0
 40
17.99999999999999
100
AcDbArc
 50
199.9866870969
 51
202.3662540796
  0
SPLINE
  5
1DF
330
1F
100
AcDbEntity
  8
0
  6
Continuous
 62
     7
370
    25
100
AcDbSpline
210
0.0
220
0.0
230
1.0
 70
     8
 71
     3
 72
    13
 73
     9
 74
     0
 42
0.00000001
 43
0.00000001
 40
0.0
 40
0.0
 40
0.0
 40
0.0
 40
0.4249068383235531
 40
0.7040088152816278
 40
0.8408121878440373
 40
0.8870642432166127
 40
0.9382954853508086
 40
1.0
 40
1.0
 40
1.0
 40
1.0
 10
181.3567537850712
 20
110.0824673992079
 30
0.0
 10
181.6125269944066
 20
110.3415168554714
 30
0.0
 10
182.036305992164
 20
110.7707241177574
 30
0.0
 10
182.6231875573565
 20
111.1795199547254
 30
0.0
 10
182.9821473674565
 20
111.3652531388571
 30
0.0
 10
183.1022213144194
 20
111.5285002229247
 30
0.0
 10
183.1504631813212
 20
111.6577818272934
 30
0.0
 10
183.1551886654476
 20
111.7545264472446
 30
0.0
 10
183.1577705200595
 20
111.8073846383883
 30
0.0
  0
ARC
  5
1E0
330
1F
100
AcDbEntity
  8
0
  6
Continuous
 62
     7
370
    25
100
AcDbCircle
 10
198.272650958
 20
116.2348996689
 30
0.0
 40
15.74999999999999
100
AcDbArc
 50
195.4381184266
 51
196.3265874558
  0
SPLINE
  5
1E1
330
1F
100
AcDbEntity
  8
0
  6
Continuous
 62
     7
370
    25
100
AcDbSpline
210
0.0
220
0.0
230
1.0
 70
     8
 71
     3
 72
    13
 73
     9
 74
     0
 42
0.00000001
 43
0.00000001
 40
0.0
 40
0.0
 40
0.0
 40
0.0
 40
0.0617045146490974
 40
0.1129357567832198
 40
0.1591878121557371
 40
0.2959911847179605
 40
0.5750931616756328
 40
1.0
 40
1.0
 40
1.0
 40
1.0
 10
183.0909342914547
 20
112.0422896160331
 30
0.0
 10
183.0609129025321
 20
112.0858713845996
 30
0.0
 10
183.0059657354255
 20
112.1656376714424
 30
0.0
 10
182.8968916789181
 20
112.2501590364769
 30
0.0
 10
182.7088642361063
 20
112.3257437171043
 30
0.0
 10
182.3058945326805
 20
112.2946892637096
 30
0.0
 10
181.5917144926785
 20
112.3333011575977
 30
0.0
 10
181.0054618196138
 20
112.4751296324017
 30
0.0
 10
180.6516270886221
 20
112.5607306753222
 30
0.0
  0
ARC
  5
1E2
330
1F
100
AcDbEntity
  8
0
  6
Continuous
 62
     7
370
    25
100
AcDbCircle
 10
198.272650958
 20
116.2348996689
 30
0.0
 40
17.99999999999999
100
AcDbArc
 50
189.3984518028
 51
191.7780187854
  0
SPLINE
  5
1E3
330
1F
100
AcDbEntity
  8
0
  6
Continuous
 62
     7
370
    25
100
AcDbSpline
210
0.0
220
0.0
230
1.0
 70
     8
 71
     3
 72
    13
 73
     9
 74
     0
 42
0.00000001
 43
0.00000001
 40
0.0
 40
0.0
 40
0.0
 40
0.0
 40
0.4249068383235536
 40
0.7040088152816324
 40
0.8408121878440387
 40
0.8870642432166158
 40
0.938295485350813
 40
0.9999999999999999
 40
0.9999999999999999
 40
0.9999999999999999
 40
0.9999999999999999
 10
180.514272617029
 20
113.2955121991324
 30
0.0
 10
180.8132910141046
 20
113.5031526422414
 30
0.0
 10
181.3087209965996
 20
113.8471826487588
 30
0.0
 10
181.9607258258124
 20
114.1411787551415
 30
0.0
 10
182.3477020460351
 20
114.2577907868403
 30
0.0
 10
182.4957280788549
 20
114.3961947492237
 30
0.0
 10
182.5669039687632
 20
114.5144106688204
 30
0.0
 10
182.5893257698098
 20
114.6086397223419
 30
0.0
 10
182.6015763305759
 20
114.6601234877941
 30
0.0
  0
ARC
  5
1E4
330
1F
100
AcDbEntity
  8
0
  6
Continuous
 62
     7
370
    25
100
AcDbCircle
 10
198.272650958
 20
116.2348996689
 30
0.0
 40
15.75
100
AcDbArc
 50
184.8498831324
 51
185.7383521617
  0
SPLINE
  5
1E5
330
1F
100
AcDbEntity
  8
0
  6
Continuous
 62
     7
370
    25
100
AcDbSpline
210
0.0
220
0.0
230
1.0
 70
     8
 71
     3
 72
    13
 73
     9
 74
     0
 42
0.00000001
 43
0.00000001
 40
0.0
 40
0.0
 40
0.0
 40
0.0
 40
0.0617045146490983
 40
0.1129357567832205
 40
0.1591878121557317
 40
0.2959911847179553
 40
0.5750931616756301
 40
1.0
 40
1.0
 40
1.0
 40
1.0
 10
182.579041792148
 20
114.9033098865796
 30
0.0
 10
182.5575397033816
 20
114.9516660084557
 30
0.0
 10
182.5181851329574
 20
115.0401706381451
 30
0.0
 10
182.4264990296075
 20
115.1432951716123
 30
0.0
 10
182.2555617599408
 20
115.25214283137
 30
0.0
 10
181.8537471406483
 20
115.2956626277569
 30
0.0
 10
181.1588222898791
 20
115.4648473187613
 30
0.0
 10
180.6086125964966
 20
115.7119845402572
 30
0.0
 10
180.276531724559
 20
115.8611450239593
 30
0.0
  0
ARC
  5
1E6
330
1F
100
AcDbEntity
  8
0
  6
Continuous
 62
     7
370
    25
100
AcDbCircle
 10
198.272650958
 20
116.2348996689
 30
0.0
 40
17.99999999999999
100
AcDbArc
 50
178.8102165087
 51
181.1897834913
  0
SPLINE
  5
1E7
330
1F
100
AcDbEntity
  8
0
  6
Continuous
 62
     7
370
    25
100
AcDbSpline
210
0.0
220
0.0
230
1.0
 70
     8
 71
     3
 72
    13
 73
     9
 74
     0
 42
0.00000001
 43
0.00000001
 40
0.0
 40
0.0
 40
0.0
 40
0.0
 40
0.4249068383235581
 40
0.7040088152816314
 40
0.8408121878440398
 40
0.8870642432166171
 40
0.9382954853508161
 40
1.0
 40
1.0
 40
1.0
 40
1.0
 10
180.2765317245624
 20
116.6086543139347
 30
0.0
 10
180.6086125964989
 20
116.7578147976364
 30
0.0
 10
181.1588222898802
 20
117.0049520191318
 30
0.0
 10
181.8537471406482
 20
117.1741367101359
 30
0.0
 10
182.2555617599408
 20
117.2176565065227
 30
0.0
 10
182.4264990296074
 20
117.3265041662804
 30
0.0
 10
182.5181851329574
 20
117.4296286997476
 30
0.0
 10
182.5575397033816
 20
117.518133329437
 30
0.0
 10
182.579041792148
 20
117.5664894513131
 30
0.0
  0
ARC
  5
1E8
330
1F
100
AcDbEntity
  8
0
  6
Continuous
 62
     7
370
    25
100
AcDbCircle
 10
198.272650958
 20
116.2348996689
 30
0.0
 40
15.75
100
AcDbArc
 50
174.2616478383
 51
175.1501168676
  0
SPLINE
  5
1E9
330
1F
100
AcDbEntity
  8
0
  6
Continuous
 62
     7
370
    25
100
AcDbSpline
210
0.0
220
0.0
230
1.0
 70
     8
 71
     3
 72
    13
 73
     9
 74
     0
 42
0.00000001
 43
0.00000001
 40
0.0
 40
0.0
 40
0.0
 40
0.0
 40
0.061704514649185
 40
0.1129357567833837
 40
0.1591878121559604
 40
0.2959911847183756
 40
0.5750931616764451
 40
1.0
 40
1.0
 40
1.0
 40
1.0
 10
182.6015763305759
 20
117.8096758500986
 30
0.0
 10
182.5893257698098
 20
117.8611596155508
 30
0.0
 10
182.5669039687632
 20
117.9553886690723
 30
0.0
 10
182.4957280788549
 20
118.073604588669
 30
0.0
 10
182.3477020460352
 20
118.2120085510525
 30
0.0
 10
181.9607258258124
 20
118.3286205827512
 30
0.0
 10
181.3087209965996
 20
118.6226166891339
 30
0.0
 10
180.8132910141046
 20
118.9666466956513
 30
0.0
 10
180.514272617029
 20
119.1742871387603
 30
0.0
  0
ARC
  5
1EA
330
1F
100
AcDbEntity
  8
0
  6
Continuous
 62
     7
370
    25
100
AcDbCircle
 10
198.272650958
 20
116.2348996689
 30
0.0
 40
17.99999999999999
100
AcDbArc
 50
168.2219812146
 51
170.6015481972
  0
SPLINE
  5
1EB
330
1F
100
AcDbEntity
  8
0
  6
Continuous
 62
     7
370
    25
100
AcDbSpline
210
0.0
220
0.0
230
1.0
 70
     8
 71
     3
 72
    13
 73
     9
 74
     0
 42
0.00000001
 43
0.00000001
 40
0.0
 40
0.0
 40
0.0
 40
0.0
 40
0.4249068383243703
 40
0.7040088152820437
 40
0.8408121878442576
 40
0.8870642432167731
 40
0.9382954853508957
 40
1.0
 40
1.0
 40
1.0
 40
1.0
 10
180.6516270886221
 20
119.9090686625706
 30
0.0
 10
181.0054618196138
 20
119.994669705491
 30
0.0
 10
181.5917144926785
 20
120.136498180295
 30
0.0
 10
182.3058945326805
 20
120.1751100741831
 30
0.0
 10
182.7088642361063
 20
120.1440556207886
 30
0.0
 10
182.8968916789181
 20
120.2196403014157
 30
0.0
 10
183.0059657354255
 20
120.3041616664504
 30
0.0
 10
183.0609129025321
 20
120.3839279532932
 30
0.0
 10
183.0909342914547
 20
120.4275097218596
 30
0.0
  0
ARC
  5
1EC
330
1F
100
AcDbEntity
  8
0
  6
Continuous
 62
     7
370
    25
100
AcDbCircle
 10
198.272650958
 20
116.2348996689
 30
0.0
 40
15.74999999999999
100
AcDbArc
 50
163.6734125442
 51
164.5618815734
  0
SPLINE
  5
1ED
330
1F
100
AcDbEntity
  8
0
  6
Continuous
 62
     7
370
    25
100
AcDbSpline
210
0.0
220
0.0
230
1.0
 70
     8
 71
     3
 72
    13
 73
     9
 74
     0
 42
0.00000001
 43
0.00000001
 40
0.0
 40
0.0
 40
0.0
 40
0.0
 40
0.0617045146491854
 40
0.1129357567833794
 40
0.1591878121559622
 40
0.2959911847183762
 40
0.5750931616764507
 40
1.0
 40
1.0
 40
1.0
 40
1.0
 10
183.1577705200596
 20
120.6624146995044
 30
0.0
 10
183.1551886654476
 20
120.7152728906481
 30
0.0
 10
183.1504631813212
 20
120.8120175105992
 30
0.0
 10
183.1022213144194
 20
120.9412991149681
 30
0.0
 10
182.9821473674566
 20
121.1045461990355
 30
0.0
 10
182.6231875573564
 20
121.2902793831674
 30
0.0
 10
182.036305992164
 20
121.6990752201353
 30
0.0
 10
181.6125269944066
 20
122.1282824824213
 30
0.0
 10
181.3567537850712
 20
122.3873319386848
 30
0.0
  0
ARC
  5
1EE
330
1F
100
AcDbEntity
  8
0
  6
Continuous
 62
     7
370
    25
100
AcDbCircle
 10
198.272650958
 20
116.2348996689
 30
0.0
 40
17.99999999999999
100
AcDbArc
 50
157.6337459204
 51
160.0133129031
  0
SPLINE
  5
1EF
330
1F
100
AcDbEntity
  8
0
  6
Continuous
 62
     7
370
    25
100
AcDbSpline
210
0.0
220
0.0
230
1.0
 70
     8
 71
     3
 72
    13
 73
     9
 74
     0
 42
0.00000001
 43
0.00000001
 40
0.0
 40
0.0
 40
0.0
 40
0.0
 40
0.4249068383243696
 40
0.7040088152820478
 40
0.8408121878442615
 40
0.8870642432167753
 40
0.9382954853509003
 40
1.0
 40
1.0
 40
1.0
 40
1.0
 10
181.6267852864691
 20
123.0843635928098
 30
0.0
 10
181.9903244591292
 20
123.103490154099
 30
0.0
 10
182.5926559802274
 20
123.1351800836062
 30
0.0
 10
183.3017706647644
 20
123.0419042986416
 30
0.0
 10
183.6921728023823
 20
122.9373331176301
 30
0.0
 10
183.8908873692881
 20
122.9770808734819
 30
0.0
 10
184.0136349927787
 20
123.04012079637
 30
0.0
 10
184.0823035966937
 20
123.1084323951369
 30
0.0
 10
184.1198219433794
 20
123.1457556855356
 30
0.0
  0
ARC
  5
1F0
330
1F
100
AcDbEntity
  8
0
  6
Continuous
 62
     7
370
    25
100
AcDbCircle
 10
198.272650958
 20
116.2348996689
 30
0.0
 40
15.74999999999999
100
AcDbArc
 50
153.0851772501
 51
153.9736462793
  0
ARC
  5
1F1
330
1F
100
AcDbEntity
  8
0
  6
Continuous
 62
     7
370
    25
100
AcDbCircle
 10
198.272650958
 20
116.2348996689
 30
0.0
 40
18.0
100
AcDbArc
 50
147.0455106263
 51
149.425077609
  0
SPLINE
  5
1F2
330
1F
100
AcDbEntity
  8
0
  6
Continuous
 62
     7
370
    25
100
AcDbSpline
210
0.0
220
0.0
230
1.0
 70
     8
 71
     3
 72
    13
 73
     9
 74
     0
 42
0.00000001
 43
0.00000001
 40
0.0
 40
0.0
 40
0.0
 40
0.0
 40
0.4249068383243722
 40
0.704008815282048
 40
0.8408121878442636
 40
0.8870642432167782
 40
0.9382954853508989
 40
1.0
 40
1.0
 40
1.0
 40
1.0
 10
183.1687984752459
 20
126.0264082441485
 30
0.0
 10
183.5296621990664
 20
125.9784089917015
 30
0.0
 10
184.1275608906643
 20
125.8988812133704
 30
0.0
 10
184.8074621696437
 20
125.6768941445379
 30
0.0
 10
185.1720020648929
 20
125.5023672820596
 30
0.0
 10
185.3746367696486
 20
125.5049245509827
 30
0.0
 10
185.506877937024
 20
125.5443362827582
 30
0.0
 10
185.5869295508
 20
125.598866923884
 30
0.0
 10
185.6306672129507
 20
125.6286607362249
 30
0.0
  0
ARC
  5
1F3
330
1F
100
AcDbEntity
  8
0
  6
Continuous
 62
     7
370
    25
100
AcDbCircle
 10
198.272650958
 20
116.2348996689
 30
0.0
 40
15.75
100
AcDbArc
 50
142.496941956
 51
143.3854109852
  0
SPLINE
  5
1F4
330
1F
100
AcDbEntity
  8
0
  6
Continuous
 62
     7
370
    25
100
AcDbSpline
210
0.0
220
0.0
230
1.0
 70
     8
 71
     3
 72
    13
 73
     9
 74
     0
 42
0.00000001
 43
0.00000001
 40
0.0
 40
0.0
 40
0.0
 40
0.0
 40
0.0617045146491827
 40
0.1129357567833819
 40
0.1591878121559572
 40
0.2959911847183762
 40
0.5750931616764478
 40
0.9999999999999999
 40
0.9999999999999999
 40
0.9999999999999999
 40
0.9999999999999999
 10
185.7778476055629
 20
125.8235590738447
 30
0.0
 10
185.7945346788773
 20
125.8737805426446
 30
0.0
 10
185.8250764838648
 20
125.9656992558527
 30
0.0
 10
185.8267941848538
 20
126.103677734079
 30
0.0
 10
185.7738002124846
 20
126.2992768191697
 30
0.0
 10
185.5061747229961
 20
126.6021390953462
 30
0.0
 10
185.1065980507814
 20
127.1953359352796
 30
0.0
 10
184.8664834505357
 20
127.7486464192649
 30
0.0
 10
184.7215614930103
 20
128.0825987835794
 30
0.0
  0
ARC
  5
1F5
330
1F
100
AcDbEntity
  8
0
  6
Continuous
 62
     7
370
    25
100
AcDbCircle
 10
198.272650958
 20
116.2348996689
 30
0.0
 40
18.00000000000002
100
AcDbArc
 50
136.4572753322
 51
138.8368423149
  0
SPLINE
  5
1F6
330
1F
100
AcDbEntity
  8
0
  6
Continuous
 62
     7
370
    25
100
AcDbSpline
210
0.0
220
0.0
230
1.0
 70
     8
 71
     3
 72
    13
 73
     9
 74
     0
 42
0.00000001
 43
0.00000001
 40
0.0
 40
0.0
 40
0.0
 40
0.0
 40
0.4249068383243687
 40
0.704008815282045
 40
0.8408121878442585
 40
0.8870642432167702
 40
0.9382954853508941
 40
1.0
 40
1.0
 40
1.0
 40
1.0
 10
185.2251552452495
 20
128.6350148145787
 30
0.0
 10
185.5710547389241
 20
128.5215243053689
 30
0.0
 10
186.1441598781797
 20
128.3334870423076
 30
0.0
 10
186.7716945289978
 20
127.9903481929921
 30
0.0
 10
187.0979582129628
 20
127.7518089520268
 30
0.0
 10
187.2976125737317
 20
127.717088649295
 30
0.0
 10
187.4348439706424
 20
127.7315300707017
 30
0.0
 10
187.5235525325836
 20
127.7704227786051
 30
0.0
 10
187.5720200765725
 20
127.7916725203426
 30
0.0
  0
ARC
  5
1F7
330
1F
100
AcDbEntity
  8
0
  6
Continuous
 62
     7
370
    25
100
AcDbCircle
 10
198.272650958
 20
116.2348996689
 30
0.0
 40
15.75
100
AcDbArc
 50
131.9087066618
 51
132.7971756911
  0
ARC
  5
1F8
330
1F
100
AcDbEntity
  8
0
  6
Continuous
 62
     7
370
    25
100
AcDbCircle
 10
198.272650958
 20
116.2348996689
 30
0.0
 40
18.00000000000001
100
AcDbArc
 50
125.8690400381
 51
128.2486070207
  0
SPLINE
  5
1F9
330
1F
100
AcDbEntity
  8
0
  6
Continuous
 62
     7
370
    25
100
AcDbSpline
210
0.0
220
0.0
230
1.0
 70
     8
 71
     3
 72
    13
 73
     9
 74
     0
 42
0.00000001
 43
0.00000001
 40
0.0
 40
0.0
 40
0.0
 40
0.0
 40
0.4249068383243706
 40
0.7040088152820505
 40
0.8408121878442636
 40
0.8870642432167739
 40
0.9382954853508991
 40
1.0
 40
1.0
 40
1.0
 40
1.0
 10
187.7258288330057
 20
130.8213503360233
 30
0.0
 10
188.0449849041381
 20
130.6462333532249
 30
0.0
 10
188.5737800828978
 20
130.3560899889011
 30
0.0
 10
189.1275781656656
 20
129.9034845410665
 30
0.0
 10
189.4044551198994
 20
129.6090560893689
 30
0.0
 10
189.5943301468843
 20
129.5382405732495
 30
0.0
 10
189.7318785226997
 20
129.5272198990018
 30
0.0
 10
189.8262231691234
 20
129.5491502291618
 30
0.0
 10
189.8777700908701
 20
129.5611322658272
 30
0.0
  0
ARC
  5
1FA
330
1F
100
AcDbEntity
  8
0
  6
Continuous
 62
     7
370
    25
100
AcDbCircle
 10
198.272650958
 20
116.2348996689
 30
0.0
 40
15.74999999999999
100
AcDbArc
 50
121.3204713677
 51
122.208940397
  0
SPLINE
  5
1FB
330
1F
100
AcDbEntity
  8
0
  6
Continuous
 62
     7
370
    25
100
AcDbSpline
210
0.0
220
0.0
230
1.0
 70
     8
 71
     3
 72
    13
 73
     9
 74
     0
 42
0.00000001
 43
0.00000001
 40
0.0
 40
0.0
 40
0.0
 40
0.0
 40
0.0617045146491851
 40
0.1129357567833811
 40
0.1591878121559586
 40
0.2959911847183758
 40
0.5750931616764484
 40
1.0
 40
1.0
 40
1.0
 40
1.0
 10
190.0854171199127
 20
129.6897018629574
 30
0.0
 10
190.119119439436
 20
129.7305039217653
 30
0.0
 10
190.1808036935358
 20
129.8051825966725
 30
0.0
 10
190.2322489773789
 20
129.9332231907067
 30
0.0
 10
190.2534921092218
 20
130.1347575365272
 30
0.0
 10
190.1133452456641
 20
130.513845676133
 30
0.0
 10
189.9550385101406
 20
131.2113289987816
 30
0.0
 10
189.9310171146906
 20
131.8140150576049
 30
0.0
 10
189.9165189223794
 20
132.1777682126756
 30
0.0
  0
ARC
  5
1FC
330
1F
100
AcDbEntity
  8
0
  6
Continuous
 62
     7
370
    25
100
AcDbCircle
 10
198.272650958
 20
116.2348996689
 30
0.0
 40
17.99999999999999
100
AcDbArc
 50
115.280804744
 51
117.6603717266
  0
SPLINE
  5
1FD
330
1F
100
AcDbEntity
  8
0
  6
Continuous
 62
     7
370
    25
100
AcDbSpline
210
0.0
220
0.0
230
1.0
 70
     8
 71
     3
 72
    13
 73
     9
 74
     0
 42
0.00000001
 43
0.00000001
 40
0.0
 40
0.0
 40
0.0
 40
0.0
 40
0.4249068383243726
 40
0.704008815282047
 40
0.8408121878442608
 40
0.8870642432167759
 40
0.9382954853508955
 40
0.9999999999999999
 40
0.9999999999999999
 40
0.9999999999999999
 40
0.9999999999999999
 10
190.5856617987107
 20
132.5109617745199
 30
0.0
 10
190.8672059700839
 20
132.2801817169525
 30
0.0
 10
191.3336837027552
 20
131.8978127356495
 30
0.0
 10
191.7948862879716
 20
131.3511536249814
 30
0.0
 10
192.0129477998749
 20
131.0108623703462
 30
0.0
 10
192.186577526762
 20
130.9063631783066
 30
0.0
 10
192.3197588365147
 20
130.8702557042482
 30
0.0
 10
192.4165267736408
 20
130.8744768455738
 30
0.0
 10
192.4693977045491
 20
130.8767831432795
 30
0.0
  0
ARC
  5
1FE
330
1F
100
AcDbEntity
  8
0
  6
Continuous
 62
     7
370
    25
100
AcDbCircle
 10
198.272650958
 20
116.2348996689
 30
0.0
 40
15.75000000000002
100
AcDbArc
 50
110.7322360736
 51
111.6207051029
  0
SPLINE
  5
1FF
330
1F
100
AcDbEntity
  8
0
  6
Continuous
 62
     7
370
    25
100
AcDbSpline
210
0.0
220
0.0
230
1.0
 70
     8
 71
     3
 72
    13
 73
     9
 74
     0
 42
0.00000001
 43
0.00000001
 40
0.0
 40
0.0
 40
0.0
 40
0.0
 40
0.0617045146491849
 40
0.1129357567833803
 40
0.1591878121559607
 40
0.2959911847183771
 40
0.5750931616764474
 40
1.0
 40
1.0
 40
1.0
 40
1.0
 10
192.6971337498058
 20
130.965008557233
 30
0.0
 10
192.737759581926
 20
130.9989230984912
 30
0.0
 10
192.8121157148856
 20
131.0609957750972
 30
0.0
 10
192.8862124424236
 20
131.1774031886003
 30
0.0
 10
192.9441257084462
 20
131.3716026139712
 30
0.0
 10
192.8760223744266
 20
131.769987976215
 30
0.0
 10
192.8485733361299
 20
132.4846841061765
 30
0.0
 10
192.9357042232893
 20
133.0815222093854
 30
0.0
 10
192.9882923571018
 20
133.4417458115915
 30
0.0
  0
ARC
  5
200
330
1F
100
AcDbEntity
  8
0
  6
Continuous
 62
     7
370
    25
100
AcDbCircle
 10
198.272650958
 20
116.2348996689
 30
0.0
 40
18.0
100
AcDbArc
 50
104.6925694498
 51
107.0721364325
  0
SPLINE
  5
201
330
1F
100
AcDbEntity
  8
0
  6
Continuous
 62
     7
370
    25
100
AcDbSpline
210
0.0
220
0.0
230
1.0
 70
     8
 71
     3
 72
    13
 73
     9
 74
     0
 42
0.00000001
 43
0.00000001
 40
0.0
 40
0.0
 40
0.0
 40
0.0
 40
0.4249068383243715
 40
0.7040088152820495
 40
0.8408121878442589
 40
0.8870642432167716
 40
0.9382954853508975
 40
1.0
 40
1.0
 40
1.0
 40
1.0
 10
193.7072659607091
 20
133.6463114389961
 30
0.0
 10
193.941610583242
 20
133.3677272447299
 30
0.0
 10
194.3298855301169
 20
132.906153763505
 30
0.0
 10
194.6827869168942
 20
132.2840568103718
 30
0.0
 10
194.8346071632151
 20
131.9094909633411
 30
0.0
 10
194.986078837901
 20
131.7748666900335
 30
0.0
 10
195.1103577518208
 20
131.7149020128873
 30
0.0
 10
195.2062536636109
 20
131.7012702194732
 30
0.0
 10
195.2586481475403
 20
131.6938222400169
 30
0.0
  0
ARC
  5
202
330
1F
100
AcDbEntity
  8
0
  6
Continuous
 62
     7
370
    25
100
AcDbCircle
 10
198.272650958
 20
116.2348996689
 30
0.0
 40
15.75
100
AcDbArc
 50
100.1440007795
 51
101.0324698087
  0
SPLINE
  5
203
330
1F
100
AcDbEntity
  8
0
  6
Continuous
 62
     7
370
    25
100
AcDbSpline
210
0.0
220
0.0
230
1.0
 70
     8
 71
     3
 72
    13
 73
     9
 74
     0
 42
0.00000001
 43
0.00000001
 40
0.0
 40
0.0
 40
0.0
 40
0.0
 40
0.061704514649186
 40
0.1129357567833788
 40
0.1591878121559569
 40
0.2959911847183803
 40
0.5750931616764464
 40
1.0
 40
1.0
 40
1.0
 40
1.0
 10
195.4987179311292
 20
131.7386990601363
 30
0.0
 10
195.5448838118588
 20
131.7645711648182
 30
0.0
 10
195.6293797147505
 20
131.8119240325694
 30
0.0
 10
195.7236046107965
 20
131.9127341506897
 30
0.0
 10
195.8162158441837
 20
132.0929854270966
 30
0.0
 10
195.822475217061
 20
132.497101476278
 30
0.0
 10
195.9268186200691
 20
133.2046722940296
 30
0.0
 10
196.1221346519775
 20
133.775337835848
 30
0.0
 10
196.2400182860893
 20
134.1197649024569
 30
0.0
  0
ARC
  5
204
330
1F
100
AcDbEntity
  8
0
  6
Continuous
 62
     7
370
    25
100
AcDbCircle
 10
198.272650958
 20
116.2348996689
 30
0.0
 40
17.99999999999998
100
AcDbArc
 50
94.1043341557
 51
96.4839011384
  0
SPLINE
  5
205
330
1F
100
AcDbEntity
  8
0
  6
Continuous
 62
     7
370
    25
100
AcDbSpline
210
0.0
220
0.0
230
1.0
 70
     8
 71
     3
 72
    13
 73
     9
 74
     0
 42
0.00000001
 43
0.00000001
 40
0.0
 40
0.0
 40
0.0
 40
0.0
 40
0.4249068383243724
 40
0.7040088152820483
 40
0.840812187844262
 40
0.8870642432167708
 40
0.9382954853508931
 40
1.0
 40
1.0
 40
1.0
 40
1.0
 10
196.9843388332155
 20
134.1887363583298
 30
0.0
 10
197.1635035818533
 20
133.8718348779757
 30
0.0
 10
197.4603535053004
 20
133.3467752281357
 30
0.0
 10
197.6929360601703
 20
132.6704251981534
 30
0.0
 10
197.7733449845086
 20
132.2743401494056
 30
0.0
 10
197.8975004207823
 20
132.1141752629933
 30
0.0
 10
198.0086447695117
 20
132.0323954079198
 30
0.0
 10
198.1004030357042
 20
132.0013748941413
 30
0.0
 10
198.1505368413449
 20
131.9844262695305
 30
0.0
  0
ARC
  5
206
330
1F
100
AcDbEntity
  8
0
  6
Continuous
 62
     7
370
    25
100
AcDbCircle
 10
198.272650958
 20
116.2348996689
 30
0.0
 40
15.75000000000001
100
AcDbArc
 50
89.5557654854
 51
90.4442345146
  0
ARC
  5
207
330
1F
100
AcDbEntity
  8
0
  6
Continuous
 62
     7
370
    25
100
AcDbCircle
 10
198.272650958
 20
116.2348996689
 30
0.0
 40
18.0
100
AcDbArc
 50
83.5160988616
 51
85.8956658443
  0
SPLINE
  5
208
330
1F
100
AcDbEntity
  8
0
  6
Continuous
 62
     7
370
    25
100
AcDbSpline
210
0.0
220
0.0
230
1.0
 70
     8
 71
     3
 72
    13
 73
     9
 74
     0
 42
0.00000001
 43
0.00000001
 40
0.0
 40
0.0
 40
0.0
 40
0.0
 40
0.4249068383243724
 40
0.7040088152820483
 40
0.8408121878442569
 40
0.8870642432167718
 40
0.9382954853508957
 40
1.0
 40
1.0
 40
1.0
 40
1.0
 10
200.3052836299724
 20
134.1197649024604
 30
0.0
 10
200.4231672640845
 20
133.7753378358504
 30
0.0
 10
200.6184832959933
 20
133.2046722940308
 30
0.0
 10
200.7228266990016
 20
132.497101476278
 30
0.0
 10
200.729086071879
 20
132.0929854270966
 30
0.0
 10
200.8216973052661
 20
131.9127341506897
 30
0.0
 10
200.9159222013122
 20
131.8119240325694
 30
0.0
 10
201.0004181042038
 20
131.7645711648182
 30
0.0
 10
201.0465839849335
 20
131.7386990601363
 30
0.0
  0
ARC
  5
209
330
1F
100
AcDbEntity
  8
0
  6
Continuous
 62
     7
370
    25
100
AcDbCircle
 10
198.272650958
 20
116.2348996689
 30
0.0
 40
15.75000000000001
100
AcDbArc
 50
78.9675301913
 51
79.8559992205
  0
SPLINE
  5
20A
330
1F
100
AcDbEntity
  8
0
  6
Continuous
 62
     7
370
    25
100
AcDbSpline
210
0.0
220
0.0
230
1.0
 70
     8
 71
     3
 72
    13
 73
     9
 74
     0
 42
0.00000001
 43
0.00000001
 40
0.0
 40
0.0
 40
0.0
 40
0.0
 40
0.0617045146491839
 40
0.1129357567833804
 40
0.1591878121559588
 40
0.295991184718377
 40
0.5750931616764499
 40
0.9999999999999999
 40
0.9999999999999999
 40
0.9999999999999999
 40
0.9999999999999999
 10
201.2866537685223
 20
131.6938222400169
 30
0.0
 10
201.3390482524518
 20
131.7012702194732
 30
0.0
 10
201.4349441642418
 20
131.7149020128872
 30
0.0
 10
201.5592230781617
 20
131.7748666900334
 30
0.0
 10
201.7106947528476
 20
131.9094909633411
 30
0.0
 10
201.8625149991685
 20
132.2840568103719
 30
0.0
 10
202.2154163859451
 20
132.906153763504
 30
0.0
 10
202.6036913328192
 20
133.3677272447279
 30
0.0
 10
202.8380359553514
 20
133.6463114389931
 30
0.0
  0
ARC
  5
20B
330
1F
100
AcDbEntity
  8
0
  6
Continuous
 62
     7
370
    25
100
AcDbCircle
 10
198.272650958
 20
116.2348996689
 30
0.0
 40
18.00000000000001
100
AcDbArc
 50
72.9278635675
 51
75.3074305502
  0
SPLINE
  5
20C
330
1F
100
AcDbEntity
  8
0
  6
Continuous
 62
     7
370
    25
100
AcDbSpline
210
0.0
220
0.0
230
1.0
 70
     8
 71
     3
 72
    13
 73
     9
 74
     0
 42
0.00000001
 43
0.00000001
 40
0.0
 40
0.0
 40
0.0
 40
0.0
 40
0.4249068383243649
 40
0.7040088152820453
 40
0.8408121878442625
 40
0.8870642432167722
 40
0.938295485350895
 40
1.0
 40
1.0
 40
1.0
 40
1.0
 10
203.5570095589605
 20
133.4417458115951
 30
0.0
 10
203.6095976927732
 20
133.0815222093879
 30
0.0
 10
203.6967285799327
 20
132.4846841061776
 30
0.0
 10
203.6692795416362
 20
131.7699879762151
 30
0.0
 10
203.6011762076163
 20
131.3716026139713
 30
0.0
 10
203.659089473639
 20
131.1774031886003
 30
0.0
 10
203.7331862011771
 20
131.0609957750973
 30
0.0
 10
203.8075423341366
 20
130.9989230984912
 30
0.0
 10
203.8481681662568
 20
130.965008557233
 30
0.0
  0
ARC
  5
20D
330
1F
100
AcDbEntity
  8
0
  6
Continuous
 62
     7
370
    25
100
AcDbCircle
 10
198.272650958
 20
116.2348996689
 30
0.0
 40
15.75000000000002
100
AcDbArc
 50
68.3792948971
 51
69.2677639264
  0
SPLINE
  5
20E
330
1F
100
AcDbEntity
  8
0
  6
Continuous
 62
     7
370
    25
100
AcDbSpline
210
0.0
220
0.0
230
1.0
 70
     8
 71
     3
 72
    13
 73
     9
 74
     0
 42
0.00000001
 43
0.00000001
 40
0.0
 40
0.0
 40
0.0
 40
0.0
 40
0.0617045146491864
 40
0.1129357567833824
 40
0.1591878121559585
 40
0.295991184718378
 40
0.5750931616764479
 40
1.0
 40
1.0
 40
1.0
 40
1.0
 10
204.0759042115135
 20
130.8767831432794
 30
0.0
 10
204.1287751424219
 20
130.8744768455738
 30
0.0
 10
204.225543079548
 20
130.8702557042482
 30
0.0
 10
204.3587243893006
 20
130.9063631783065
 30
0.0
 10
204.5323541161877
 20
131.0108623703462
 30
0.0
 10
204.750415628091
 20
131.3511536249814
 30
0.0
 10
205.2116182133066
 20
131.8978127356486
 30
0.0
 10
205.678095945977
 20
132.2801817169508
 30
0.0
 10
205.9596401173493
 20
132.5109617745174
 30
0.0
  0
ARC
  5
20F
330
1F
100
AcDbEntity
  8
0
  6
Continuous
 62
     7
370
    25
100
AcDbCircle
 10
198.272650958
 20
116.2348996689
 30
0.0
 40
18.0
100
AcDbArc
 50
62.3396282734
 51
64.719195256
  0
SPLINE
  5
210
330
1F
100
AcDbEntity
  8
0
  6
Continuous
 62
     7
370
    25
100
AcDbSpline
210
0.0
220
0.0
230
1.0
 70
     8
 71
     3
 72
    13
 73
     9
 74
     0
 42
0.00000001
 43
0.00000001
 40
0.0
 40
0.0
 40
0.0
 40
0.0
 40
0.4249068383243693
 40
0.7040088152820473
 40
0.8408121878442596
 40
0.8870642432167768
 40
0.9382954853509007
 40
1.0
 40
1.0
 40
1.0
 40
1.0
 10
206.6287829936836
 20
132.1777682126792
 30
0.0
 10
206.6142848013723
 20
131.8140150576073
 30
0.0
 10
206.5902634059222
 20
131.2113289987828
 30
0.0
 10
206.4319566703985
 20
130.5138456761329
 30
0.0
 10
206.2918098068409
 20
130.1347575365272
 30
0.0
 10
206.3130529386837
 20
129.9332231907067
 30
0.0
 10
206.3644982225269
 20
129.8051825966725
 30
0.0
 10
206.4261824766266
 20
129.7305039217653
 30
0.0
 10
206.45988479615
 20
129.6897018629574
 30
0.0
  0
ARC
  5
211
330
1F
100
AcDbEntity
  8
0
  6
Continuous
 62
     7
370
    25
100
AcDbCircle
 10
198.272650958
 20
116.2348996689
 30
0.0
 40
15.75000000000001
100
AcDbArc
 50
57.791059603
 51
58.6795286323
  0
SPLINE
  5
212
330
1F
100
AcDbEntity
  8
0
  6
Continuous
 62
     7
370
    25
100
AcDbSpline
210
0.0
220
0.0
230
1.0
 70
     8
 71
     3
 72
    13
 73
     9
 74
     0
 42
0.00000001
 43
0.00000001
 40
0.0
 40
0.0
 40
0.0
 40
0.0
 40
0.0617045146491896
 40
0.1129357567833814
 40
0.1591878121559587
 40
0.295991184718376
 40
0.5750931616764478
 40
1.0
 40
1.0
 40
1.0
 40
1.0
 10
206.6675318251926
 20
129.5611322658272
 30
0.0
 10
206.7190787469393
 20
129.5491502291618
 30
0.0
 10
206.813423393363
 20
129.5272198990017
 30
0.0
 10
206.9509717691783
 20
129.5382405732495
 30
0.0
 10
207.1408467961633
 20
129.6090560893689
 30
0.0
 10
207.417723750397
 20
129.9034845410665
 30
0.0
 10
207.9715218331638
 20
130.3560899889004
 30
0.0
 10
208.5003170119225
 20
130.6462333532236
 30
0.0
 10
208.8194730830539
 20
130.8213503360213
 30
0.0
  0
ARC
  5
213
330
1F
100
AcDbEntity
  8
0
  6
Continuous
 62
     7
370
    25
100
AcDbCircle
 10
198.272650958
 20
116.2348996689
 30
0.0
 40
18.0
100
AcDbArc
 50
51.7513929793
 51
54.1309599619
  0
SPLINE
  5
214
330
1F
100
AcDbEntity
  8
0
  6
Continuous
 62
     7
370
    25
100
AcDbSpline
210
0.0
220
0.0
230
1.0
 70
     8
 71
     3
 72
    13
 73
     9
 74
     0
 42
0.00000001
 43
0.00000001
 40
0.0
 40
0.0
 40
0.0
 40
0.0
 40
0.4249068383243723
 40
0.7040088152820466
 40
0.8408121878442647
 40
0.8870642432167768
 40
0.9382954853508987
 40
1.0
 40
1.0
 40
1.0
 40
1.0
 10
209.4159983740083
 20
130.3708753468697
 30
0.0
 10
209.3349075741235
 20
130.0159798163553
 30
0.0
 10
209.2005519158755
 20
129.4279695528075
 30
0.0
 10
208.9167784291349
 20
128.7714509954842
 30
0.0
 10
208.7093605693901
 20
128.4245694704448
 30
0.0
 10
208.6932101576767
 20
128.2225632146077
 30
0.0
 10
208.7202520903853
 20
128.0872497089045
 30
0.0
 10
208.7671638823341
 20
128.002508128403
 30
0.0
 10
208.7927949971906
 20
127.9562080172214
 30
0.0
  0
ARC
  5
215
330
1F
100
AcDbEntity
  8
0
  6
Continuous
 62
     7
370
    25
100
AcDbCircle
 10
198.272650958
 20
116.2348996689
 30
0.0
 40
15.75000000000002
100
AcDbArc
 50
47.2028243089
 51
48.0912933382
  0
SPLINE
  5
216
330
1F
100
AcDbEntity
  8
0
  6
Continuous
 62
     7
370
    25
100
AcDbSpline
210
0.0
220
0.0
230
1.0
 70
     8
 71
     3
 72
    13
 73
     9
 74
     0
 42
0.00000001
 43
0.00000001
 40
0.0
 40
0.0
 40
0.0
 40
0.0
 40
0.0617045146491856
 40
0.1129357567833826
 40
0.1591878121559605
 40
0.2959911847183792
 40
0.5750931616764481
 40
1.0
 40
1.0
 40
1.0
 40
1.0
 10
208.9732818394902
 20
127.7916725203426
 30
0.0
 10
209.021749383479
 20
127.7704227786051
 30
0.0
 10
209.1104579454202
 20
127.7315300707017
 30
0.0
 10
209.2476893423309
 20
127.717088649295
 30
0.0
 10
209.4473437030998
 20
127.7518089520268
 30
0.0
 10
209.7736073870649
 20
127.9903481929922
 30
0.0
 10
210.4011420378818
 20
128.333487042307
 30
0.0
 10
210.9742471771362
 20
128.521524305368
 30
0.0
 10
211.3201466708097
 20
128.6350148145774
 30
0.0
  0
ARC
  5
217
330
1F
100
AcDbEntity
  8
0
  6
Continuous
 62
     7
370
    25
100
AcDbCircle
 10
198.272650958
 20
116.2348996689
 30
0.0
 40
18.00000000000001
100
AcDbArc
 50
41.1631576851
 51
43.5427246678
  0
SPLINE
  5
218
330
1F
100
AcDbEntity
  8
0
  6
Continuous
 62
     7
370
    25
100
AcDbSpline
210
0.0
220
0.0
230
1.0
 70
     8
 71
     3
 72
    13
 73
     9
 74
     0
 42
0.00000001
 43
0.00000001
 40
0.0
 40
0.0
 40
0.0
 40
0.0
 40
0.4249068383243718
 40
0.704008815282047
 40
0.8408121878442627
 40
0.8870642432167748
 40
0.9382954853509012
 40
1.0
 40
1.0
 40
1.0
 40
1.0
 10
211.823740423054
 20
128.0825987835826
 30
0.0
 10
211.6788184655281
 20
127.748646419267
 30
0.0
 10
211.4387038652819
 20
127.1953359352806
 30
0.0
 10
211.0391271930666
 20
126.6021390953462
 30
0.0
 10
210.771501703578
 20
126.2992768191697
 30
0.0
 10
210.7185077312089
 20
126.103677734079
 30
0.0
 10
210.7202254321979
 20
125.9656992558527
 30
0.0
 10
210.7507672371853
 20
125.8737805426446
 30
0.0
 10
210.7674543104997
 20
125.8235590738447
 30
0.0
  0
ARC
  5
219
330
1F
100
AcDbEntity
  8
0
  6
Continuous
 62
     7
370
    25
100
AcDbCircle
 10
198.272650958
 20
116.2348996689
 30
0.0
 40
15.75000000000002
100
AcDbArc
 50
36.6145890148
 51
37.503058044
  0
SPLINE
  5
21A
330
1F
100
AcDbEntity
  8
0
  6
Continuous
 62
     7
370
    25
100
AcDbSpline
210
0.0
220
0.0
230
1.0
 70
     8
 71
     3
 72
    13
 73
     9
 74
     0
 42
0.00000001
 43
0.00000001
 40
0.0
 40
0.0
 40
0.0
 40
0.0
 40
0.0617045146491865
 40
0.1129357567833758
 40
0.1591878121559558
 40
0.2959911847183784
 40
0.5750931616764468
 40
1.0
 40
1.0
 40
1.0
 40
1.0
 10
210.9146347031119
 20
125.6286607362249
 30
0.0
 10
210.9583723652626
 20
125.598866923884
 30
0.0
 10
211.0384239790386
 20
125.5443362827582
 30
0.0
 10
211.170665146414
 20
125.5049245509826
 30
0.0
 10
211.3732998511696
 20
125.5023672820596
 30
0.0
 10
211.7378397464189
 20
125.6768941445378
 30
0.0
 10
212.4177410253972
 20
125.8988812133702
 30
0.0
 10
213.0156397169939
 20
125.978408991701
 30
0.0
 10
213.3765034408132
 20
126.0264082441478
 30
0.0
  0
ARC
  5
21B
330
1F
100
AcDbEntity
  8
0
  6
Continuous
 62
     7
370
    25
100
AcDbCircle
 10
198.272650958
 20
116.2348996689
 30
0.0
 40
18.00000000000001
100
AcDbArc
 50
30.574922391
 51
32.9544893737
  0
SPLINE
  5
21C
330
1F
100
AcDbEntity
  8
0
  6
Continuous
 62
     7
370
    25
100
AcDbSpline
210
0.0
220
0.0
230
1.0
 70
     8
 71
     3
 72
    13
 73
     9
 74
     0
 42
0.00000001
 43
0.00000001
 40
0.0
 40
0.0
 40
0.0
 40
0.0
 40
0.4249068383243721
 40
0.7040088152820498
 40
0.8408121878442645
 40
0.8870642432167762
 40
0.9382954853509009
 40
1.0
 40
1.0
 40
1.0
 40
1.0
 10
213.7700163731087
 20
125.3908630366954
 30
0.0
 10
213.5661984013906
 20
125.0892261858138
 30
0.0
 10
213.2285016738718
 20
124.589457806298
 30
0.0
 10
212.7267289205147
 20
124.0797832906753
 30
0.0
 10
212.4080094663454
 20
123.8312538749338
 30
0.0
 10
212.3199765794904
 20
123.6487228528368
 30
0.0
 10
212.2963115545128
 20
123.5127780936765
 30
0.0
 10
212.3094433080009
 20
123.4168124292957
 30
0.0
 10
212.3166180815054
 20
123.3643798347635
 30
0.0
  0
ARC
  5
21D
330
1F
100
AcDbEntity
  8
0
  6
Continuous
 62
     7
370
    25
100
AcDbCircle
 10
198.272650958
 20
116.2348996689
 30
0.0
 40
15.75000000000002
100
AcDbArc
 50
26.0263537207
 51
26.9148227499
  0
SPLINE
  5
21E
330
1F
100
AcDbEntity
  8
0
  6
Continuous
 62
     7
370
    25
100
AcDbSpline
210
0.0
220
0.0
230
1.0
 70
     8
 71
     3
 72
    13
 73
     9
 74
     0
 42
0.00000001
 43
0.00000001
 40
0.0
 40
0.0
 40
0.0
 40
0.0
 40
0.0617045146491908
 40
0.1129357567833882
 40
0.1591878121559621
 40
0.2959911847183863
 40
0.5750931616764489
 40
1.0
 40
1.0
 40
1.0
 40
1.0
 10
212.4254799726832
 20
123.1457556855356
 30
0.0
 10
212.4629983193689
 20
123.1084323951369
 30
0.0
 10
212.5316669232839
 20
123.0401207963699
 30
0.0
 10
212.6544145467745
 20
122.9770808734819
 30
0.0
 10
212.8531291136804
 20
122.93733311763
 30
0.0
 10
213.2435312512981
 20
123.0419042986416
 30
0.0
 10
213.9526459358341
 20
123.1351800836061
 30
0.0
 10
214.5549774569311
 20
123.1034901540989
 30
0.0
 10
214.9185166295899
 20
123.0843635928098
 30
0.0
  0
ARC
  5
21F
330
1F
100
AcDbEntity
  8
0
  6
Continuous
 62
     7
370
    25
100
AcDbCircle
 10
198.272650958
 20
116.2348996689
 30
0.0
 40
18.00000000000001
100
AcDbArc
 50
19.9866870969
 51
22.3662540796
  0
SPLINE
  5
220
330
1F
100
AcDbEntity
  8
0
  6
Continuous
 62
     7
370
    25
100
AcDbSpline
210
0.0
220
0.0
230
1.0
 70
     8
 71
     3
 72
    13
 73
     9
 74
     0
 42
0.00000001
 43
0.00000001
 40
0.0
 40
0.0
 40
0.0
 40
0.0
 40
0.4249068383243682
 40
0.704008815282048
 40
0.8408121878442639
 40
0.8870642432167706
 40
0.9382954853508958
 40
1.0
 40
1.0
 40
1.0
 40
1.0
 10
215.1885481309941
 20
122.3873319386873
 30
0.0
 10
214.9327749216579
 20
122.1282824824228
 30
0.0
 10
214.5089959238996
 20
121.699075220136
 30
0.0
 10
213.9221143587062
 20
121.2902793831674
 30
0.0
 10
213.5631545486061
 20
121.1045461990356
 30
0.0
 10
213.4430806016432
 20
120.9412991149681
 30
0.0
 10
213.3948387347415
 20
120.8120175105993
 30
0.0
 10
213.3901132506151
 20
120.7152728906481
 30
0.0
 10
213.3875313960031
 20
120.6624146995044
 30
0.0
  0
ARC
  5
221
330
1F
100
AcDbEntity
  8
0
  6
Continuous
 62
     7
370
    25
100
AcDbCircle
 10
198.272650958
 20
116.2348996689
 30
0.0
 40
15.75000000000001
100
AcDbArc
 50
15.4381184266
 51
16.3265874558
  0
SPLINE
  5
222
330
1F
100
AcDbEntity
  8
0
  6
Continuous
 62
     7
370
    25
100
AcDbSpline
210
0.0
220
0.0
230
1.0
 70
     8
 71
     3
 72
    13
 73
     9
 74
     0
 42
0.00000001
 43
0.00000001
 40
0.0
 40
0.0
 40
0.0
 40
0.0
 40
0.0617045146491885
 40
0.1129357567833794
 40
0.1591878121559605
 40
0.2959911847183788
 40
0.5750931616764479
 40
1.0
 40
1.0
 40
1.0
 40
1.0
 10
213.454367624608
 20
120.4275097218596
 30
0.0
 10
213.4843890135305
 20
120.3839279532932
 30
0.0
 10
213.5393361806371
 20
120.3041616664504
 30
0.0
 10
213.6484102371447
 20
120.2196403014157
 30
0.0
 10
213.8364376799562
 20
120.1440556207885
 30
0.0
 10
214.2394073833821
 20
120.1751100741831
 30
0.0
 10
214.953587423383
 20
120.1364981802951
 30
0.0
 10
215.5398400964465
 20
119.9946697054914
 30
0.0
 10
215.893674827437
 20
119.9090686625712
 30
0.0
  0
ARC
  5
223
330
1F
100
AcDbEntity
  8
0
  6
Continuous
 62
     7
370
    25
100
AcDbCircle
 10
198.272650958
 20
116.2348996689
 30
0.0
 40
18.0
100
AcDbArc
 50
9.3984518028
 51
11.7780187855
  0
SPLINE
  5
224
330
1F
100
AcDbEntity
  8
0
  6
Continuous
 62
     7
370
    25
100
AcDbSpline
210
0.0
220
0.0
230
1.0
 70
     8
 71
     3
 72
    13
 73
     9
 74
     0
 42
0.00000001
 43
0.00000001
 40
0.0
 40
0.0
 40
0.0
 40
0.0
 40
0.4249068383243672
 40
0.7040088152820504
 40
0.8408121878442606
 40
0.8870642432167759
 40
0.9382954853509005
 40
1.0
 40
1.0
 40
1.0
 40
1.0
 10
216.0310292990367
 20
119.1742871387622
 30
0.0
 10
215.7320109019601
 20
118.9666466956525
 30
0.0
 10
215.2365809194642
 20
118.6226166891344
 30
0.0
 10
214.5845760902502
 20
118.3286205827512
 30
0.0
 10
214.1975998700275
 20
118.2120085510525
 30
0.0
 10
214.0495738372078
 20
118.073604588669
 30
0.0
 10
213.9783979472994
 20
117.9553886690723
 30
0.0
 10
213.9559761462528
 20
117.8611596155508
 30
0.0
 10
213.9437255854867
 20
117.8096758500987
 30
0.0
  0
ARC
  5
225
330
1F
100
AcDbEntity
  8
0
  6
Continuous
 62
     7
370
    25
100
AcDbCircle
 10
198.272650958
 20
116.2348996689
 30
0.0
 40
15.75000000000001
100
AcDbArc
 50
4.8498831324
 51
5.7383521617
  0
ARC
  5
226
330
1F
100
AcDbEntity
  8
0
  6
Continuous
 62
     7
370
    25
100
AcDbCircle
 10
198.272650958
 20
116.2348996689
 30
0.0
 40
18.00000000000001
100
AcDbArc
 50
358.8102165087
 51
1.1897834913
  0
SPLINE
  5
227
330
1F
100
AcDbEntity
  8
0
  6
Continuous
 62
     7
370
    25
100
AcDbSpline
210
0.0
220
0.0
230
1.0
 70
     8
 71
     3
 72
    13
 73
     9
 74
     0
 42
0.00000001
 43
0.00000001
 40
0.0
 40
0.0
 40
0.0
 40
0.0
 40
0.4249068383243674
 40
0.7040088152820438
 40
0.8408121878442577
 40
0.8870642432167739
 40
0.9382954853508965
 40
1.0
 40
1.0
 40
1.0
 40
1.0
 10
216.2687701915036
 20
115.8611450239593
 30
0.0
 10
215.9366893195661
 20
115.7119845402571
 30
0.0
 10
215.3864796261836
 20
115.4648473187613
 30
0.0
 10
214.6915547754143
 20
115.2956626277569
 30
0.0
 10
214.2897401561219
 20
115.25214283137
 30
0.0
 10
214.1188028864552
 20
115.1432951716123
 30
0.0
 10
214.0271167831052
 20
115.0401706381451
 30
0.0
 10
213.987762212681
 20
114.9516660084557
 30
0.0
 10
213.9662601239146
 20
114.9033098865796
 30
0.0
  0
SPLINE
  5
228
330
1F
100
AcDbEntity
  8
0
  6
Continuous
 62
     7
370
    25
100
AcDbSpline
210
0.0
220
0.0
230
1.0
 70
     8
 71
     3
 72
    13
 73
     9
 74
     0
 42
0.00000001
 43
0.00000001
 40
0.0
 40
0.0
 40
0.0
 40
0.0
 40
0.0617045146491866
 40
0.1129357567833836
 40
0.1591878121559558
 40
0.2959911847183751
 40
0.5750931616764504
 40
1.0
 40
1.0
 40
1.0
 40
1.0
 10
184.2286838345573
 20
123.3643798347635
 30
0.0
 10
184.2358586080618
 20
123.4168124292957
 30
0.0
 10
184.2489903615499
 20
123.5127780936765
 30
0.0
 10
184.2253253365723
 20
123.6487228528368
 30
0.0
 10
184.1372924497173
 20
123.8312538749338
 30
0.0
 10
183.8185729955479
 20
124.0797832906753
 30
0.0
 10
183.3168002421917
 20
124.5894578062972
 30
0.0
 10
182.9791035146736
 20
125.089226185812
 30
0.0
 10
182.7752855429561
 20
125.3908630366926
 30
0.0
  0
SPLINE
  5
229
330
1F
100
AcDbEntity
  8
0
  6
Continuous
 62
     7
370
    25
100
AcDbSpline
210
0.0
220
0.0
230
1.0
 70
     8
 71
     3
 72
    13
 73
     9
 74
     0
 42
0.00000001
 43
0.00000001
 40
0.0
 40
0.0
 40
0.0
 40
0.0
 40
0.0617045146491897
 40
0.1129357567833842
 40
0.1591878121559582
 40
0.2959911847183801
 40
0.5750931616764492
 40
1.0
 40
1.0
 40
1.0
 40
1.0
 10
198.3947650747178
 20
131.9844262695305
 30
0.0
 10
198.4448988803584
 20
132.0013748941413
 30
0.0
 10
198.5366571465509
 20
132.0323954079198
 30
0.0
 10
198.6478014952803
 20
132.1141752629933
 30
0.0
 10
198.7719569315541
 20
132.2743401494056
 30
0.0
 10
198.8523658558923
 20
132.6704251981535
 30
0.0
 10
199.0849484107618
 20
133.3467752281346
 30
0.0
 10
199.3817983342084
 20
133.8718348779735
 30
0.0
 10
199.5609630828456
 20
134.1887363583266
 30
0.0
  0
SPLINE
  5
22A
330
1F
100
AcDbEntity
  8
0
  6
Continuous
 62
     7
370
    25
100
AcDbSpline
210
0.0
220
0.0
230
1.0
 70
     8
 71
     3
 72
    13
 73
     9
 74
     0
 42
0.00000001
 43
0.00000001
 40
0.0
 40
0.0
 40
0.0
 40
0.0
 40
0.0617045146491861
 40
0.1129357567833815
 40
0.1591878121559594
 40
0.295991184718378
 40
0.5750931616764468
 40
0.9999999999999999
 40
0.9999999999999999
 40
0.9999999999999999
 40
0.9999999999999999
 10
187.7525069188721
 20
127.9562080172214
 30
0.0
 10
187.7781380337286
 20
128.002508128403
 30
0.0
 10
187.8250498256773
 20
128.0872497089045
 30
0.0
 10
187.852091758386
 20
128.2225632146077
 30
0.0
 10
187.8359413466725
 20
128.4245694704448
 30
0.0
 10
187.6285234869278
 20
128.7714509954842
 30
0.0
 10
187.3447500001876
 20
129.4279695528064
 30
0.0
 10
187.2103943419399
 20
130.015979816353
 30
0.0
 10
187.1293035420554
 20
130.3708753468662
 30
0.0
  0
SPLINE
  5
22B
330
1F
100
AcDbEntity
  8
0
  6
Continuous
 62
     7
370
    25
100
AcDbSpline
210
0.0
220
0.0
230
1.0
 70
     8
 71
     3
 72
    13
 73
     9
 74
     0
 42
0.00000001
 43
0.00000001
 40
0.0
 40
0.0
 40
0.0
 40
0.0
 40
0.0617045146491863
 40
0.1129357567833816
 40
0.1591878121559634
 40
0.295991184718382
 40
0.5750931616764444
 40
0.9999999999999999
 40
0.9999999999999999
 40
0.9999999999999999
 40
0.9999999999999999
 10
213.9662601239146
 20
117.5664894513131
 30
0.0
 10
213.987762212681
 20
117.518133329437
 30
0.0
 10
214.0271167831052
 20
117.4296286997476
 30
0.0
 10
214.1188028864552
 20
117.3265041662804
 30
0.0
 10
214.2897401561218
 20
117.2176565065228
 30
0.0
 10
214.6915547754143
 20
117.1741367101358
 30
0.0
 10
215.3864796261824
 20
117.0049520191317
 30
0.0
 10
215.9366893195638
 20
116.7578147976364
 30
0.0
 10
216.2687701915002
 20
116.6086543139347
 30
0.0
  0
CIRCLE
  5
22C
330
1F
100
AcDbEntity
  8
0
  6
Continuous
 62
     7
370
    25
100
AcDbCircle
 10
265.18191426
 20
66.6675230799
 30
0.0
 40
1.549999999999997
  0
CIRCLE
  5
22D
330
1F
100
AcDbEntity
  8
0
  6
Continuous
 62
     7
370
    25
100
AcDbCircle
 10
265.18191426
 20
92.6675230799
 30
0.0
 40
1.549999999999997
  0
CIRCLE
  5
22E
330
1F
100
AcDbEntity
  8
0
  6
Continuous
 62
     7
370
    25
100
AcDbCircle
 10
239.18191426
 20
92.6675230799
 30
0.0
 40
1.549999999999997
  0
CIRCLE
  5
22F
330
1F
100
AcDbEntity
  8
0
  6
Continuous
 62
     7
370
    25
100
AcDbCircle
 10
279.18191426
 20
83.6675230799
 30
0.0
 40
3.049999999999997
  0
CIRCLE
  5
230
330
1F
100
AcDbEntity
  8
0
  6
Continuous
 62
     7
370
    25
100
AcDbCircle
 10
225.18191426
 20
83.6675230799
 30
0.0
 40
3.049999999999997
  0
LINE
  5
231
330
1F
100
AcDbEntity
  8
0
  6
Continuous
 62
     7
370
    25
100
AcDbLine
 10
215.18191426
 20
62.1675230799
 30
0.0
 11
289.18191426
 21
62.1675230799
 31
0.0
  0
LINE
  5
232
330
1F
100
AcDbEntity
  8
0
  6
Continuous
 62
     7
370
    25
100
AcDbLine
 10
215.18191426
 20
97.1675230799
 30
0.0
 11
215.18191426
 21
62.1675230799
 31
0.0
  0
LINE
  5
233
330
1F
100
AcDbEntity
  8
0
  6
Continuous
 62
     7
370
    25
100
AcDbLine
 10
289.18191426
 20
97.1675230799
 30
0.0
 11
215.18191426
 21
97.1675230799
 31
0.0
  0
LINE
  5
234
330
1F
100
AcDbEntity
  8
0
  6
Continuous
 62
     7
370
    25
100
AcDbLine
 10
289.18191426
 20
62.1675230799
 30
0.0
 11
289.18191426
 21
97.1675230799
 31
0.0
  0
CIRCLE
  5
235
330
1F
100
AcDbEntity
  8
0
  6
Continuous
 62
     7
370
    25
100
AcDbCircle
 10
239.18191426
 20
66.6675230799
 30
0.0
 40
1.549999999999997
  0
CIRCLE
  5
236
330
1F
100
AcDbEntity
  8
0
  6
Continuous
 62
     7
370
    25
100
AcDbCircle
 10
252.18191426
 20
79.6675230799
 30
0.0
 40
11.50000000000001
  0
ENDSEC
  0
SECTION
  2
OBJECTS
  0
DICTIONARY
  5
C
330
0
100
AcDbDictionary
281
     1
  3
ACAD_GROUP
350
D
  3
ACAD_LAYOUT
350
1A
  3
ACAD_MLINESTYLE
350
17
  3
ACAD_PLOTSETTINGS
350
19
  3
ACAD_PLOTSTYLENAME
350
E
  3
ACAD_SCALELIST
350
47
  3
DWGPROPS
350
237
  0
DICTIONARY
  5
D
102
{ACAD_REACTORS
330
C
102
}
330
C
100
AcDbDictionary
281
     1
  0
DICTIONARY
  5
1A
102
{ACAD_REACTORS
330
C
102
}
330
C
100
AcDbDictionary
281
     1
  3
Layout1
350
1E
  3
Layout2
350
26
  3
Model
350
22
  0
DICTIONARY
  5
17
102
{ACAD_REACTORS
330
C
102
}
330
C
100
AcDbDictionary
281
     1
  3
Standard
350
18
  0
DICTIONARY
  5
19
102
{ACAD_REACTORS
330
C
102
}
330
C
100
AcDbDictionary
281
     1
  0
ACDBDICTIONARYWDFLT
  5
E
102
{ACAD_REACTORS
330
C
102
}
330
C
100
AcDbDictionary
281
     1
  3
Normal
350
F
100
AcDbDictionaryWithDefault
340
F
  0
DICTIONARY
  5
47
102
{ACAD_REACTORS
330
C
102
}
330
C
100
AcDbDictionary
281
     1
  3
A0
350
48
  3
A1
350
49
  3
A2
350
4A
  3
A3
350
4B
  3
A4
350
4C
  3
A5
350
4D
  3
A6
350
4E
  3
A7
350
4F
  3
A8
350
50
  3
A9
350
51
  3
B0
350
52
  3
B1
350
53
  3
B2
350
54
  3
B3
350
55
  3
B4
350
56
  3
B5
350
57
  3
B6
350
58
  3
B7
350
59
  3
B8
350
5A
  3
B9
350
5B
  3
C0
350
5C
  3
C1
350
5D
  3
C2
350
5E
  3
C3
350
5F
  3
C4
350
60
  3
C5
350
61
  3
C6
350
62
  3
C7
350
63
  3
C8
350
64
  3
C9
350
65
  3
D0
350
66
  3
D1
350
67
  3
D2
350
68
  0
XRECORD
  5
237
102
{ACAD_REACTORS
330
C
102
}
330
C
100
AcDbXrecord
280
     1
  1
DWGPROPS COOKIE
  2

  3

  4

  6

  7

  8
franz
  9

300
=
301
=
302
=
303
=
304
=
305
=
306
=
307
=
308
=
309
=
 40
0.0
 41
2460602.536890058
 42
2460602.536890475
  1

 90
        0
  0
LAYOUT
  5
1E
102
{ACAD_REACTORS
330
1A
102
}
330
1A
100
AcDbPlotSettings
  1

  2
none_device
  4

  6

 40
0.0
 41
0.0
 42
0.0
 43
0.0
 44
0.0
 45
0.0
 46
0.0
 47
0.0
 48
0.0
 49
0.0
140
0.0
141
0.0
142
1.0
143
1.0
 70
   688
 72
     1
 73
     0
 74
     5
  7

 75
    16
147
1.0
148
0.0
149
0.0
100
AcDbLayout
  1
Layout1
 70
     1
 71
     1
 10
0.0
 20
0.0
 11
420.0
 21
297.0
 12
0.0
 22
0.0
 32
0.0
 14
1.0000000000E+20
 24
1.0000000000E+20
 34
1.0000000000E+20
 15
-1.0000000000E+20
 25
-1.0000000000E+20
 35
-1.0000000000E+20
146
0.0
 13
0.0
 23
0.0
 33
0.0
 16
1.0
 26
0.0
 36
0.0
 17
0.0
 27
1.0
 37
0.0
 76
     0
330
1B
  0
LAYOUT
  5
26
102
{ACAD_REACTORS
330
1A
102
}
330
1A
100
AcDbPlotSettings
  1

  2
none_device
  4

  6

 40
0.0
 41
0.0
 42
0.0
 43
0.0
 44
0.0
 45
0.0
 46
0.0
 47
0.0
 48
0.0
 49
0.0
140
0.0
141
0.0
142
1.0
143
1.0
 70
   688
 72
     1
 73
     0
 74
     5
  7

 75
    16
147
1.0
148
0.0
149
0.0
100
AcDbLayout
  1
Layout2
 70
     1
 71
     2
 10
0.0
 20
0.0
 11
0.0
 21
0.0
 12
0.0
 22
0.0
 32
0.0
 14
0.0
 24
0.0
 34
0.0
 15
0.0
 25
0.0
 35
0.0
146
0.0
 13
0.0
 23
0.0
 33
0.0
 16
1.0
 26
0.0
 36
0.0
 17
0.0
 27
1.0
 37
0.0
 76
     0
330
23
  0
LAYOUT
  5
22
102
{ACAD_REACTORS
330
1A
102
}
330
1A
100
AcDbPlotSettings
  1

  2
none_device
  4
Letter_(8.50_x_11.00_Inches)
  6

 40
6.35
 41
6.35
 42
6.35000508
 43
6.35000508
 44
215.9
 45
279.4
 46
0.0
 47
0.0
 48
0.0
 49
0.0
140
0.0
141
0.0
142
1.0
143
1.0
 70
  1712
 72
     1
 73
     0
 74
     0
  7

 75
     0
147
1.0
148
0.0
149
0.0
100
AcDbLayout
  1
Model
 70
     1
 71
     0
 10
0.0
 20
0.0
 11
420.0
 21
297.0
 12
0.0
 22
0.0
 32
0.0
 14
0.0
 24
0.0
 34
0.0
 15
420.0
 25
297.0
 35
0.0
146
0.0
 13
0.0
 23
0.0
 33
0.0
 16
1.0
 26
0.0
 36
0.0
 17
0.0
 27
1.0
 37
0.0
 76
     0
330
1F
331
29
  0
MLINESTYLE
  5
18
102
{ACAD_REACTORS
330
17
102
}
330
17
100
AcDbMlineStyle
  2
Standard
 70
     0
  3

 62
   256
 51
90.0
 52
90.0
 71
     2
 49
0.5
 62
   256
  6
BYLAYER
 49
-0.5
 62
   256
  6
BYLAYER
  0
ACDBPLACEHOLDER
  5
F
102
{ACAD_REACTORS
330
E
102
}
330
E
  0
SCALE
  5
48
102
{ACAD_REACTORS
330
47
102
}
330
47
100
AcDbScale
 70
     0
300
1:1
140
1.0
141
1.0
290
     1
  0
SCALE
  5
49
102
{ACAD_REACTORS
330
47
102
}
330
47
100
AcDbScale
 70
     0
300
1:2
140
1.0
141
2.0
290
     0
  0
SCALE
  5
4A
102
{ACAD_REACTORS
330
47
102
}
330
47
100
AcDbScale
 70
     0
300
1:4
140
1.0
141
4.0
290
     0
  0
SCALE
  5
4B
102
{ACAD_REACTORS
330
47
102
}
330
47
100
AcDbScale
 70
     0
300
1:5
140
1.0
141
5.0
290
     0
  0
SCALE
  5
4C
102
{ACAD_REACTORS
330
47
102
}
330
47
100
AcDbScale
 70
     0
300
1:8
140
1.0
141
8.0
290
     0
  0
SCALE
  5
4D
102
{ACAD_REACTORS
330
47
102
}
330
47
100
AcDbScale
 70
     0
300
1:10
140
1.0
141
10.0
290
     0
  0
SCALE
  5
4E
102
{ACAD_REACTORS
330
47
102
}
330
47
100
AcDbScale
 70
     0
300
1:16
140
1.0
141
16.0
290
     0
  0
SCALE
  5
4F
102
{ACAD_REACTORS
330
47
102
}
330
47
100
AcDbScale
 70
     0
300
1:20
140
1.0
141
20.0
290
     0
  0
SCALE
  5
50
102
{ACAD_REACTORS
330
47
102
}
330
47
100
AcDbScale
 70
     0
300
1:30
140
1.0
141
30.0
290
     0
  0
SCALE
  5
51
102
{ACAD_REACTORS
330
47
102
}
330
47
100
AcDbScale
 70
     0
300
1:40
140
1.0
141
40.0
290
     0
  0
SCALE
  5
52
102
{ACAD_REACTORS
330
47
102
}
330
47
100
AcDbScale
 70
     0
300
1:50
140
1.0
141
50.0
290
     0
  0
SCALE
  5
53
102
{ACAD_REACTORS
330
47
102
}
330
47
100
AcDbScale
 70
     0
300
1:100
140
1.0
141
100.0
290
     0
  0
SCALE
  5
54
102
{ACAD_REACTORS
330
47
102
}
330
47
100
AcDbScale
 70
     0
300
2:1
140
2.0
141
1.0
290
     0
  0
SCALE
  5
55
102
{ACAD_REACTORS
330
47
102
}
330
47
100
AcDbScale
 70
     0
300
4:1
140
4.0
141
1.0
290
     0
  0
SCALE
  5
56
102
{ACAD_REACTORS
330
47
102
}
330
47
100
AcDbScale
 70
     0
300
8:1
140
8.0
141
1.0
290
     0
  0
SCALE
  5
57
102
{ACAD_REACTORS
330
47
102
}
330
47
100
AcDbScale
 70
     0
300
10:1
140
10.0
141
1.0
290
     0
  0
SCALE
  5
58
102
{ACAD_REACTORS
330
47
102
}
330
47
100
AcDbScale
 70
     0
300
100:1
140
100.0
141
1.0
290
     0
  0
SCALE
  5
59
102
{ACAD_REACTORS
330
47
102
}
330
47
100
AcDbScale
 70
     0
300
1/128" = 1'-0"
140
0.0078125
141
12.0
290
     0
  0
SCALE
  5
5A
102
{ACAD_REACTORS
330
47
102
}
330
47
100
AcDbScale
 70
     0
300
1/64" = 1'-0"
140
0.015625
141
12.0
290
     0
  0
SCALE
  5
5B
102
{ACAD_REACTORS
330
47
102
}
330
47
100
AcDbScale
 70
     0
300
1/32" = 1'-0"
140
0.03125
141
12.0
290
     0
  0
SCALE
  5
5C
102
{ACAD_REACTORS
330
47
102
}
330
47
100
AcDbScale
 70
     0
300
1/16" = 1'-0"
140
0.0625
141
12.0
290
     0
  0
SCALE
  5
5D
102
{ACAD_REACTORS
330
47
102
}
330
47
100
AcDbScale
 70
     0
300
3/32" = 1'-0"
140
0.09375
141
12.0
290
     0
  0
SCALE
  5
5E
102
{ACAD_REACTORS
330
47
102
}
330
47
100
AcDbScale
 70
     0
300
1/8" = 1'-0"
140
0.125
141
12.0
290
     0
  0
SCALE
  5
5F
102
{ACAD_REACTORS
330
47
102
}
330
47
100
AcDbScale
 70
     0
300
3/16" = 1'-0"
140
0.1875
141
12.0
290
     0
  0
SCALE
  5
60
102
{ACAD_REACTORS
330
47
102
}
330
47
100
AcDbScale
 70
     0
300
1/4" = 1'-0"
140
0.25
141
12.0
290
     0
  0
SCALE
  5
61
102
{ACAD_REACTORS
330
47
102
}
330
47
100
AcDbScale
 70
     0
300
3/8" = 1'-0"
140
0.375
141
12.0
290
     0
  0
SCALE
  5
62
102
{ACAD_REACTORS
330
47
102
}
330
47
100
AcDbScale
 70
     0
300
1/2" = 1'-0"
140
0.5
141
12.0
290
     0
  0
SCALE
  5
63
102
{ACAD_REACTORS
330
47
102
}
330
47
100
AcDbScale
 70
     0
300
3/4" = 1'-0"
140
0.75
141
12.0
290
     0
  0
SCALE
  5
64
102
{ACAD_REACTORS
330
47
102
}
330
47
100
AcDbScale
 70
     0
300
1" = 1'-0"
140
1.0
141
12.0
290
     0
  0
SCALE
  5
65
102
{ACAD_REACTORS
330
47
102
}
330
47
100
AcDbScale
 70
     0
300
1-1/2" = 1'-0"
140
1.5
141
12.0
290
     0
  0
SCALE
  5
66
102
{ACAD_REACTORS
330
47
102
}
330
47
100
AcDbScale
 70
     0
300
3" = 1'-0"
140
3.0
141
12.0
290
     0
  0
SCALE
  5
67
102
{ACAD_REACTORS
330
47
102
}
330
47
100
AcDbScale
 70
     0
300
6" = 1'-0"
140
6.0
141
12.0
290
     0
  0
SCALE
  5
68
102
{ACAD_REACTORS
330
47
102
}
330
47
100
AcDbScale
 70
     0
300
1'-0" = 1'-0"
140
12.0
141
12.0
290
     0
  0
ENDSEC
  0
EOF
