ISO-10303-21;
HEADER;
FILE_DESCRIPTION(('Designed by EasyEDA Pro'),'2;1');
FILE_NAME('Open CASCADE Shape Model','2025-01-13T17:23:13',('Author'),(
    'Open CASCADE'),'Open CASCADE STEP processor 7.8','Open CASCADE 7.8'
  ,'Unknown');
FILE_SCHEMA(('AUTOMOTIVE_DESIGN { 1 0 10303 214 1 1 1 1 }'));
ENDSEC;
DATA;
#1 = APPLICATION_PROTOCOL_DEFINITION('international standard',
  'automotive_design',2000,#2);
#2 = APPLICATION_CONTEXT(
  'core data for automotive mechanical design processes');
#3 = SHAPE_DEFINITION_REPRESENTATION(#4,#10);
#4 = PRODUCT_DEFINITION_SHAPE('','',#5);
#5 = PRODUCT_DEFINITION('design','',#6,#9);
#6 = PRODUCT_DEFINITION_FORMATION('','',#7);
#7 = PRODUCT('PCBModel','PCBModel','',(#8));
#8 = PRODUCT_CONTEXT('',#2,'mechanical');
#9 = PRODUCT_DEFINITION_CONTEXT('part definition',#2,'design');
#10 = SHAPE_REPRESENTATION('',(#11,#15,#19,#23),#27);
#11 = AXIS2_PLACEMENT_3D('',#12,#13,#14);
#12 = CARTESIAN_POINT('',(0.,0.,0.));
#13 = DIRECTION('',(0.,0.,1.));
#14 = DIRECTION('',(1.,0.,-0.));
#15 = AXIS2_PLACEMENT_3D('',#16,#17,#18);
#16 = CARTESIAN_POINT('',(0.,0.,1.610028244856));
#17 = DIRECTION('',(0.,0.,1.));
#18 = DIRECTION('',(1.,0.,-0.));
#19 = AXIS2_PLACEMENT_3D('',#20,#21,#22);
#20 = CARTESIAN_POINT('',(0.,0.,-1.E-02));
#21 = DIRECTION('',(0.,0.,1.));
#22 = DIRECTION('',(1.,0.,-0.));
#23 = AXIS2_PLACEMENT_3D('',#24,#25,#26);
#24 = CARTESIAN_POINT('',(0.,0.,0.));
#25 = DIRECTION('',(0.,0.,1.));
#26 = DIRECTION('',(1.,0.,-0.));
#27 = ( GEOMETRIC_REPRESENTATION_CONTEXT(3) 
GLOBAL_UNCERTAINTY_ASSIGNED_CONTEXT((#31)) GLOBAL_UNIT_ASSIGNED_CONTEXT(
(#28,#29,#30)) REPRESENTATION_CONTEXT('Context #1',
  '3D Context with UNIT and UNCERTAINTY') );
#28 = ( LENGTH_UNIT() NAMED_UNIT(*) SI_UNIT(.MILLI.,.METRE.) );
#29 = ( NAMED_UNIT(*) PLANE_ANGLE_UNIT() SI_UNIT($,.RADIAN.) );
#30 = ( NAMED_UNIT(*) SI_UNIT($,.STERADIAN.) SOLID_ANGLE_UNIT() );
#31 = UNCERTAINTY_MEASURE_WITH_UNIT(LENGTH_MEASURE(1.E-07),#28,
  'distance_accuracy_value','confusion accuracy');
#32 = PRODUCT_RELATED_PRODUCT_CATEGORY('part',$,(#7));
#33 = SHAPE_DEFINITION_REPRESENTATION(#34,#40);
#34 = PRODUCT_DEFINITION_SHAPE('','',#35);
#35 = PRODUCT_DEFINITION('design','',#36,#39);
#36 = PRODUCT_DEFINITION_FORMATION('','',#37);
#37 = PRODUCT('TopTrack','TopTrack','',(#38));
#38 = PRODUCT_CONTEXT('',#2,'mechanical');
#39 = PRODUCT_DEFINITION_CONTEXT('part definition',#2,'design');
#40 = SHAPE_REPRESENTATION('',(#11),#41);
#41 = ( GEOMETRIC_REPRESENTATION_CONTEXT(3) 
GLOBAL_UNCERTAINTY_ASSIGNED_CONTEXT((#45)) GLOBAL_UNIT_ASSIGNED_CONTEXT(
(#42,#43,#44)) REPRESENTATION_CONTEXT('Context #1',
  '3D Context with UNIT and UNCERTAINTY') );
#42 = ( LENGTH_UNIT() NAMED_UNIT(*) SI_UNIT(.MILLI.,.METRE.) );
#43 = ( NAMED_UNIT(*) PLANE_ANGLE_UNIT() SI_UNIT($,.RADIAN.) );
#44 = ( NAMED_UNIT(*) SI_UNIT($,.STERADIAN.) SOLID_ANGLE_UNIT() );
#45 = UNCERTAINTY_MEASURE_WITH_UNIT(LENGTH_MEASURE(1.E-07),#42,
  'distance_accuracy_value','confusion accuracy');
#46 = CONTEXT_DEPENDENT_SHAPE_REPRESENTATION(#47,#49);
#47 = ( REPRESENTATION_RELATIONSHIP('','',#40,#10) 
REPRESENTATION_RELATIONSHIP_WITH_TRANSFORMATION(#48) 
SHAPE_REPRESENTATION_RELATIONSHIP() );
#48 = ITEM_DEFINED_TRANSFORMATION('','',#11,#15);
#49 = PRODUCT_DEFINITION_SHAPE('Placement','Placement of an item',#50);
#50 = NEXT_ASSEMBLY_USAGE_OCCURRENCE('1','=>[0:1:1:2]','',#5,#35,$);
#51 = PRODUCT_RELATED_PRODUCT_CATEGORY('part',$,(#37));
#52 = SHAPE_DEFINITION_REPRESENTATION(#53,#59);
#53 = PRODUCT_DEFINITION_SHAPE('','',#54);
#54 = PRODUCT_DEFINITION('design','',#55,#58);
#55 = PRODUCT_DEFINITION_FORMATION('','',#56);
#56 = PRODUCT('BottomTrack','BottomTrack','',(#57));
#57 = PRODUCT_CONTEXT('',#2,'mechanical');
#58 = PRODUCT_DEFINITION_CONTEXT('part definition',#2,'design');
#59 = SHAPE_REPRESENTATION('',(#11),#60);
#60 = ( GEOMETRIC_REPRESENTATION_CONTEXT(3) 
GLOBAL_UNCERTAINTY_ASSIGNED_CONTEXT((#64)) GLOBAL_UNIT_ASSIGNED_CONTEXT(
(#61,#62,#63)) REPRESENTATION_CONTEXT('Context #1',
  '3D Context with UNIT and UNCERTAINTY') );
#61 = ( LENGTH_UNIT() NAMED_UNIT(*) SI_UNIT(.MILLI.,.METRE.) );
#62 = ( NAMED_UNIT(*) PLANE_ANGLE_UNIT() SI_UNIT($,.RADIAN.) );
#63 = ( NAMED_UNIT(*) SI_UNIT($,.STERADIAN.) SOLID_ANGLE_UNIT() );
#64 = UNCERTAINTY_MEASURE_WITH_UNIT(LENGTH_MEASURE(1.E-07),#61,
  'distance_accuracy_value','confusion accuracy');
#65 = CONTEXT_DEPENDENT_SHAPE_REPRESENTATION(#66,#68);
#66 = ( REPRESENTATION_RELATIONSHIP('','',#59,#10) 
REPRESENTATION_RELATIONSHIP_WITH_TRANSFORMATION(#67) 
SHAPE_REPRESENTATION_RELATIONSHIP() );
#67 = ITEM_DEFINED_TRANSFORMATION('','',#11,#19);
#68 = PRODUCT_DEFINITION_SHAPE('Placement','Placement of an item',#69);
#69 = NEXT_ASSEMBLY_USAGE_OCCURRENCE('2','=>[0:1:1:3]','',#5,#54,$);
#70 = PRODUCT_RELATED_PRODUCT_CATEGORY('part',$,(#56));
#71 = SHAPE_DEFINITION_REPRESENTATION(#72,#78);
#72 = PRODUCT_DEFINITION_SHAPE('','',#73);
#73 = PRODUCT_DEFINITION('design','',#74,#77);
#74 = PRODUCT_DEFINITION_FORMATION('','',#75);
#75 = PRODUCT('Board','Board','',(#76));
#76 = PRODUCT_CONTEXT('',#2,'mechanical');
#77 = PRODUCT_DEFINITION_CONTEXT('part definition',#2,'design');
#78 = ADVANCED_BREP_SHAPE_REPRESENTATION('',(#11,#79),#369);
#79 = MANIFOLD_SOLID_BREP('',#80);
#80 = CLOSED_SHELL('',(#81,#123,#154,#187,#218,#251,#282,#315,#337,#353)
  );
#81 = ADVANCED_FACE('',(#82),#118,.T.);
#82 = FACE_BOUND('',#83,.T.);
#83 = EDGE_LOOP('',(#84,#94,#103,#111));
#84 = ORIENTED_EDGE('',*,*,#85,.T.);
#85 = EDGE_CURVE('',#86,#88,#90,.T.);
#86 = VERTEX_POINT('',#87);
#87 = CARTESIAN_POINT('',(1.270002540005E-02,65.380132080264,0.));
#88 = VERTEX_POINT('',#89);
#89 = CARTESIAN_POINT('',(1.270002540005E-02,65.380132080264,
    1.600028244856));
#90 = LINE('',#91,#92);
#91 = CARTESIAN_POINT('',(1.270002540005E-02,65.380132080264,0.));
#92 = VECTOR('',#93,1.);
#93 = DIRECTION('',(0.,0.,1.));
#94 = ORIENTED_EDGE('',*,*,#95,.T.);
#95 = EDGE_CURVE('',#88,#96,#98,.T.);
#96 = VERTEX_POINT('',#97);
#97 = CARTESIAN_POINT('',(1.500002540005,66.867434594869,1.600028244856)
  );
#98 = CIRCLE('',#99,1.487302514605);
#99 = AXIS2_PLACEMENT_3D('',#100,#101,#102);
#100 = CARTESIAN_POINT('',(1.500002540005,65.380132080264,1.600028244856
    ));
#101 = DIRECTION('',(0.,0.,-1.));
#102 = DIRECTION('',(-1.,8.445315963717E-15,0.));
#103 = ORIENTED_EDGE('',*,*,#104,.F.);
#104 = EDGE_CURVE('',#105,#96,#107,.T.);
#105 = VERTEX_POINT('',#106);
#106 = CARTESIAN_POINT('',(1.500002540005,66.867434594869,0.));
#107 = LINE('',#108,#109);
#108 = CARTESIAN_POINT('',(1.500002540005,66.867434594869,0.));
#109 = VECTOR('',#110,1.);
#110 = DIRECTION('',(0.,0.,1.));
#111 = ORIENTED_EDGE('',*,*,#112,.F.);
#112 = EDGE_CURVE('',#86,#105,#113,.T.);
#113 = CIRCLE('',#114,1.487302514605);
#114 = AXIS2_PLACEMENT_3D('',#115,#116,#117);
#115 = CARTESIAN_POINT('',(1.500002540005,65.380132080264,0.));
#116 = DIRECTION('',(0.,0.,-1.));
#117 = DIRECTION('',(-1.,8.445315963717E-15,0.));
#118 = CYLINDRICAL_SURFACE('',#119,1.487302514605);
#119 = AXIS2_PLACEMENT_3D('',#120,#121,#122);
#120 = CARTESIAN_POINT('',(1.500002540005,65.380132080264,0.));
#121 = DIRECTION('',(0.,0.,-1.));
#122 = DIRECTION('',(-1.,8.445315963717E-15,0.));
#123 = ADVANCED_FACE('',(#124),#149,.T.);
#124 = FACE_BOUND('',#125,.T.);
#125 = EDGE_LOOP('',(#126,#127,#135,#143));
#126 = ORIENTED_EDGE('',*,*,#104,.T.);
#127 = ORIENTED_EDGE('',*,*,#128,.T.);
#128 = EDGE_CURVE('',#96,#129,#131,.T.);
#129 = VERTEX_POINT('',#130);
#130 = CARTESIAN_POINT('',(39.140078740157,66.867434594869,
    1.600028244856));
#131 = LINE('',#132,#133);
#132 = CARTESIAN_POINT('',(1.500002540005,66.867434594869,1.600028244856
    ));
#133 = VECTOR('',#134,1.);
#134 = DIRECTION('',(1.,7.550917080845E-16,0.));
#135 = ORIENTED_EDGE('',*,*,#136,.F.);
#136 = EDGE_CURVE('',#137,#129,#139,.T.);
#137 = VERTEX_POINT('',#138);
#138 = CARTESIAN_POINT('',(39.140078740157,66.867434594869,0.));
#139 = LINE('',#140,#141);
#140 = CARTESIAN_POINT('',(39.140078740157,66.867434594869,0.));
#141 = VECTOR('',#142,1.);
#142 = DIRECTION('',(0.,0.,1.));
#143 = ORIENTED_EDGE('',*,*,#144,.F.);
#144 = EDGE_CURVE('',#105,#137,#145,.T.);
#145 = LINE('',#146,#147);
#146 = CARTESIAN_POINT('',(1.500002540005,66.867434594869,0.));
#147 = VECTOR('',#148,1.);
#148 = DIRECTION('',(1.,7.550917080845E-16,0.));
#149 = PLANE('',#150);
#150 = AXIS2_PLACEMENT_3D('',#151,#152,#153);
#151 = CARTESIAN_POINT('',(1.500002540005,66.867434594869,0.));
#152 = DIRECTION('',(-7.550917080845E-16,1.,0.));
#153 = DIRECTION('',(1.,7.550917080845E-16,0.));
#154 = ADVANCED_FACE('',(#155),#182,.T.);
#155 = FACE_BOUND('',#156,.T.);
#156 = EDGE_LOOP('',(#157,#158,#167,#175));
#157 = ORIENTED_EDGE('',*,*,#136,.T.);
#158 = ORIENTED_EDGE('',*,*,#159,.T.);
#159 = EDGE_CURVE('',#129,#160,#162,.T.);
#160 = VERTEX_POINT('',#161);
#161 = CARTESIAN_POINT('',(40.627381254763,65.380132080264,
    1.600028244856));
#162 = CIRCLE('',#163,1.487302514605);
#163 = AXIS2_PLACEMENT_3D('',#164,#165,#166);
#164 = CARTESIAN_POINT('',(39.140078740157,65.380132080264,
    1.600028244856));
#165 = DIRECTION('',(0.,0.,-1.));
#166 = DIRECTION('',(1.097891075283E-14,1.,0.));
#167 = ORIENTED_EDGE('',*,*,#168,.F.);
#168 = EDGE_CURVE('',#169,#160,#171,.T.);
#169 = VERTEX_POINT('',#170);
#170 = CARTESIAN_POINT('',(40.627381254763,65.380132080264,0.));
#171 = LINE('',#172,#173);
#172 = CARTESIAN_POINT('',(40.627381254763,65.380132080264,0.));
#173 = VECTOR('',#174,1.);
#174 = DIRECTION('',(0.,0.,1.));
#175 = ORIENTED_EDGE('',*,*,#176,.F.);
#176 = EDGE_CURVE('',#137,#169,#177,.T.);
#177 = CIRCLE('',#178,1.487302514605);
#178 = AXIS2_PLACEMENT_3D('',#179,#180,#181);
#179 = CARTESIAN_POINT('',(39.140078740157,65.380132080264,0.));
#180 = DIRECTION('',(0.,0.,-1.));
#181 = DIRECTION('',(1.097891075283E-14,1.,0.));
#182 = CYLINDRICAL_SURFACE('',#183,1.487302514605);
#183 = AXIS2_PLACEMENT_3D('',#184,#185,#186);
#184 = CARTESIAN_POINT('',(39.140078740157,65.380132080264,0.));
#185 = DIRECTION('',(0.,0.,-1.));
#186 = DIRECTION('',(1.097891075283E-14,1.,0.));
#187 = ADVANCED_FACE('',(#188),#213,.T.);
#188 = FACE_BOUND('',#189,.T.);
#189 = EDGE_LOOP('',(#190,#191,#199,#207));
#190 = ORIENTED_EDGE('',*,*,#168,.T.);
#191 = ORIENTED_EDGE('',*,*,#192,.T.);
#192 = EDGE_CURVE('',#160,#193,#195,.T.);
#193 = VERTEX_POINT('',#194);
#194 = CARTESIAN_POINT('',(40.627381254763,1.500002540005,1.600028244856
    ));
#195 = LINE('',#196,#197);
#196 = CARTESIAN_POINT('',(40.627381254763,65.380132080264,
    1.600028244856));
#197 = VECTOR('',#198,1.);
#198 = DIRECTION('',(1.112306347645E-16,-1.,0.));
#199 = ORIENTED_EDGE('',*,*,#200,.F.);
#200 = EDGE_CURVE('',#201,#193,#203,.T.);
#201 = VERTEX_POINT('',#202);
#202 = CARTESIAN_POINT('',(40.627381254763,1.500002540005,0.));
#203 = LINE('',#204,#205);
#204 = CARTESIAN_POINT('',(40.627381254763,1.500002540005,0.));
#205 = VECTOR('',#206,1.);
#206 = DIRECTION('',(0.,0.,1.));
#207 = ORIENTED_EDGE('',*,*,#208,.F.);
#208 = EDGE_CURVE('',#169,#201,#209,.T.);
#209 = LINE('',#210,#211);
#210 = CARTESIAN_POINT('',(40.627381254763,65.380132080264,0.));
#211 = VECTOR('',#212,1.);
#212 = DIRECTION('',(1.112306347645E-16,-1.,0.));
#213 = PLANE('',#214);
#214 = AXIS2_PLACEMENT_3D('',#215,#216,#217);
#215 = CARTESIAN_POINT('',(40.627381254763,65.380132080264,0.));
#216 = DIRECTION('',(1.,1.112306347645E-16,-0.));
#217 = DIRECTION('',(1.112306347645E-16,-1.,0.));
#218 = ADVANCED_FACE('',(#219),#246,.T.);
#219 = FACE_BOUND('',#220,.T.);
#220 = EDGE_LOOP('',(#221,#222,#231,#239));
#221 = ORIENTED_EDGE('',*,*,#200,.T.);
#222 = ORIENTED_EDGE('',*,*,#223,.T.);
#223 = EDGE_CURVE('',#193,#224,#226,.T.);
#224 = VERTEX_POINT('',#225);
#225 = CARTESIAN_POINT('',(39.140078740157,1.270002540005E-02,
    1.600028244856));
#226 = CIRCLE('',#227,1.487302514605);
#227 = AXIS2_PLACEMENT_3D('',#228,#229,#230);
#228 = CARTESIAN_POINT('',(39.140078740157,1.500002540005,1.600028244856
    ));
#229 = DIRECTION('',(0.,0.,-1.));
#230 = DIRECTION('',(1.,-1.47793029365E-15,0.));
#231 = ORIENTED_EDGE('',*,*,#232,.F.);
#232 = EDGE_CURVE('',#233,#224,#235,.T.);
#233 = VERTEX_POINT('',#234);
#234 = CARTESIAN_POINT('',(39.140078740157,1.270002540005E-02,0.));
#235 = LINE('',#236,#237);
#236 = CARTESIAN_POINT('',(39.140078740157,1.270002540005E-02,0.));
#237 = VECTOR('',#238,1.);
#238 = DIRECTION('',(0.,0.,1.));
#239 = ORIENTED_EDGE('',*,*,#240,.F.);
#240 = EDGE_CURVE('',#201,#233,#241,.T.);
#241 = CIRCLE('',#242,1.487302514605);
#242 = AXIS2_PLACEMENT_3D('',#243,#244,#245);
#243 = CARTESIAN_POINT('',(39.140078740157,1.500002540005,0.));
#244 = DIRECTION('',(0.,0.,-1.));
#245 = DIRECTION('',(1.,-1.47793029365E-15,0.));
#246 = CYLINDRICAL_SURFACE('',#247,1.487302514605);
#247 = AXIS2_PLACEMENT_3D('',#248,#249,#250);
#248 = CARTESIAN_POINT('',(39.140078740157,1.500002540005,0.));
#249 = DIRECTION('',(0.,0.,-1.));
#250 = DIRECTION('',(1.,-1.47793029365E-15,0.));
#251 = ADVANCED_FACE('',(#252),#277,.T.);
#252 = FACE_BOUND('',#253,.T.);
#253 = EDGE_LOOP('',(#254,#255,#263,#271));
#254 = ORIENTED_EDGE('',*,*,#232,.T.);
#255 = ORIENTED_EDGE('',*,*,#256,.T.);
#256 = EDGE_CURVE('',#224,#257,#259,.T.);
#257 = VERTEX_POINT('',#258);
#258 = CARTESIAN_POINT('',(1.500002540005,1.270002540005E-02,
    1.600028244856));
#259 = LINE('',#260,#261);
#260 = CARTESIAN_POINT('',(39.140078740157,1.270002540005E-02,
    1.600028244856));
#261 = VECTOR('',#262,1.);
#262 = DIRECTION('',(-1.,-1.336527071194E-17,0.));
#263 = ORIENTED_EDGE('',*,*,#264,.F.);
#264 = EDGE_CURVE('',#265,#257,#267,.T.);
#265 = VERTEX_POINT('',#266);
#266 = CARTESIAN_POINT('',(1.500002540005,1.270002540005E-02,0.));
#267 = LINE('',#268,#269);
#268 = CARTESIAN_POINT('',(1.500002540005,1.270002540005E-02,0.));
#269 = VECTOR('',#270,1.);
#270 = DIRECTION('',(0.,0.,1.));
#271 = ORIENTED_EDGE('',*,*,#272,.F.);
#272 = EDGE_CURVE('',#233,#265,#273,.T.);
#273 = LINE('',#274,#275);
#274 = CARTESIAN_POINT('',(39.140078740157,1.270002540005E-02,0.));
#275 = VECTOR('',#276,1.);
#276 = DIRECTION('',(-1.,-1.336527071194E-17,0.));
#277 = PLANE('',#278);
#278 = AXIS2_PLACEMENT_3D('',#279,#280,#281);
#279 = CARTESIAN_POINT('',(39.140078740157,1.270002540005E-02,0.));
#280 = DIRECTION('',(1.336527071194E-17,-1.,0.));
#281 = DIRECTION('',(-1.,-1.336527071194E-17,0.));
#282 = ADVANCED_FACE('',(#283),#310,.T.);
#283 = FACE_BOUND('',#284,.T.);
#284 = EDGE_LOOP('',(#285,#286,#295,#303));
#285 = ORIENTED_EDGE('',*,*,#264,.T.);
#286 = ORIENTED_EDGE('',*,*,#287,.T.);
#287 = EDGE_CURVE('',#257,#288,#290,.T.);
#288 = VERTEX_POINT('',#289);
#289 = CARTESIAN_POINT('',(1.270002540005E-02,1.500002540005,
    1.600028244856));
#290 = CIRCLE('',#291,1.487302514605);
#291 = AXIS2_PLACEMENT_3D('',#292,#293,#294);
#292 = CARTESIAN_POINT('',(1.500002540005,1.500002540005,1.600028244856)
  );
#293 = DIRECTION('',(0.,0.,-1.));
#294 = DIRECTION('',(0.,-1.,-0.));
#295 = ORIENTED_EDGE('',*,*,#296,.F.);
#296 = EDGE_CURVE('',#297,#288,#299,.T.);
#297 = VERTEX_POINT('',#298);
#298 = CARTESIAN_POINT('',(1.270002540005E-02,1.500002540005,0.));
#299 = LINE('',#300,#301);
#300 = CARTESIAN_POINT('',(1.270002540005E-02,1.500002540005,0.));
#301 = VECTOR('',#302,1.);
#302 = DIRECTION('',(0.,0.,1.));
#303 = ORIENTED_EDGE('',*,*,#304,.F.);
#304 = EDGE_CURVE('',#265,#297,#305,.T.);
#305 = CIRCLE('',#306,1.487302514605);
#306 = AXIS2_PLACEMENT_3D('',#307,#308,#309);
#307 = CARTESIAN_POINT('',(1.500002540005,1.500002540005,0.));
#308 = DIRECTION('',(0.,0.,-1.));
#309 = DIRECTION('',(0.,-1.,-0.));
#310 = CYLINDRICAL_SURFACE('',#311,1.487302514605);
#311 = AXIS2_PLACEMENT_3D('',#312,#313,#314);
#312 = CARTESIAN_POINT('',(1.500002540005,1.500002540005,0.));
#313 = DIRECTION('',(0.,0.,-1.));
#314 = DIRECTION('',(0.,-1.,-0.));
#315 = ADVANCED_FACE('',(#316),#332,.T.);
#316 = FACE_BOUND('',#317,.T.);
#317 = EDGE_LOOP('',(#318,#319,#325,#326));
#318 = ORIENTED_EDGE('',*,*,#296,.T.);
#319 = ORIENTED_EDGE('',*,*,#320,.T.);
#320 = EDGE_CURVE('',#288,#88,#321,.T.);
#321 = LINE('',#322,#323);
#322 = CARTESIAN_POINT('',(1.270002540005E-02,1.500002540005,
    1.600028244856));
#323 = VECTOR('',#324,1.);
#324 = DIRECTION('',(-6.517420005732E-19,1.,0.));
#325 = ORIENTED_EDGE('',*,*,#85,.F.);
#326 = ORIENTED_EDGE('',*,*,#327,.F.);
#327 = EDGE_CURVE('',#297,#86,#328,.T.);
#328 = LINE('',#329,#330);
#329 = CARTESIAN_POINT('',(1.270002540005E-02,1.500002540005,0.));
#330 = VECTOR('',#331,1.);
#331 = DIRECTION('',(-6.517420005732E-19,1.,0.));
#332 = PLANE('',#333);
#333 = AXIS2_PLACEMENT_3D('',#334,#335,#336);
#334 = CARTESIAN_POINT('',(1.270002540005E-02,1.500002540005,0.));
#335 = DIRECTION('',(-1.,-6.517420005732E-19,0.));
#336 = DIRECTION('',(-6.517420005732E-19,1.,0.));
#337 = ADVANCED_FACE('',(#338),#348,.T.);
#338 = FACE_BOUND('',#339,.T.);
#339 = EDGE_LOOP('',(#340,#341,#342,#343,#344,#345,#346,#347));
#340 = ORIENTED_EDGE('',*,*,#112,.T.);
#341 = ORIENTED_EDGE('',*,*,#144,.T.);
#342 = ORIENTED_EDGE('',*,*,#176,.T.);
#343 = ORIENTED_EDGE('',*,*,#208,.T.);
#344 = ORIENTED_EDGE('',*,*,#240,.T.);
#345 = ORIENTED_EDGE('',*,*,#272,.T.);
#346 = ORIENTED_EDGE('',*,*,#304,.T.);
#347 = ORIENTED_EDGE('',*,*,#327,.T.);
#348 = PLANE('',#349);
#349 = AXIS2_PLACEMENT_3D('',#350,#351,#352);
#350 = CARTESIAN_POINT('',(20.320040640081,33.440067310135,0.));
#351 = DIRECTION('',(-0.,-0.,-1.));
#352 = DIRECTION('',(-1.,0.,0.));
#353 = ADVANCED_FACE('',(#354),#364,.F.);
#354 = FACE_BOUND('',#355,.F.);
#355 = EDGE_LOOP('',(#356,#357,#358,#359,#360,#361,#362,#363));
#356 = ORIENTED_EDGE('',*,*,#95,.T.);
#357 = ORIENTED_EDGE('',*,*,#128,.T.);
#358 = ORIENTED_EDGE('',*,*,#159,.T.);
#359 = ORIENTED_EDGE('',*,*,#192,.T.);
#360 = ORIENTED_EDGE('',*,*,#223,.T.);
#361 = ORIENTED_EDGE('',*,*,#256,.T.);
#362 = ORIENTED_EDGE('',*,*,#287,.T.);
#363 = ORIENTED_EDGE('',*,*,#320,.T.);
#364 = PLANE('',#365);
#365 = AXIS2_PLACEMENT_3D('',#366,#367,#368);
#366 = CARTESIAN_POINT('',(20.320040640081,33.440067310135,
    1.600028244856));
#367 = DIRECTION('',(-0.,-0.,-1.));
#368 = DIRECTION('',(-1.,0.,0.));
#369 = ( GEOMETRIC_REPRESENTATION_CONTEXT(3) 
GLOBAL_UNCERTAINTY_ASSIGNED_CONTEXT((#373)) GLOBAL_UNIT_ASSIGNED_CONTEXT
((#370,#371,#372)) REPRESENTATION_CONTEXT('Context #1',
  '3D Context with UNIT and UNCERTAINTY') );
#370 = ( LENGTH_UNIT() NAMED_UNIT(*) SI_UNIT(.MILLI.,.METRE.) );
#371 = ( NAMED_UNIT(*) PLANE_ANGLE_UNIT() SI_UNIT($,.RADIAN.) );
#372 = ( NAMED_UNIT(*) SI_UNIT($,.STERADIAN.) SOLID_ANGLE_UNIT() );
#373 = UNCERTAINTY_MEASURE_WITH_UNIT(LENGTH_MEASURE(1.E-07),#370,
  'distance_accuracy_value','confusion accuracy');
#374 = CONTEXT_DEPENDENT_SHAPE_REPRESENTATION(#375,#377);
#375 = ( REPRESENTATION_RELATIONSHIP('','',#78,#10) 
REPRESENTATION_RELATIONSHIP_WITH_TRANSFORMATION(#376) 
SHAPE_REPRESENTATION_RELATIONSHIP() );
#376 = ITEM_DEFINED_TRANSFORMATION('','',#11,#23);
#377 = PRODUCT_DEFINITION_SHAPE('Placement','Placement of an item',#378
  );
#378 = NEXT_ASSEMBLY_USAGE_OCCURRENCE('3','=>[0:1:1:4]','',#5,#73,$);
#379 = PRODUCT_RELATED_PRODUCT_CATEGORY('part',$,(#75));
#380 = MECHANICAL_DESIGN_GEOMETRIC_PRESENTATION_REPRESENTATION('',(#381,
    #391,#399,#406,#413,#420,#427,#434,#441),#369);
#381 = STYLED_ITEM('color',(#382),#79);
#382 = PRESENTATION_STYLE_ASSIGNMENT((#383,#389));
#383 = SURFACE_STYLE_USAGE(.BOTH.,#384);
#384 = SURFACE_SIDE_STYLE('',(#385));
#385 = SURFACE_STYLE_FILL_AREA(#386);
#386 = FILL_AREA_STYLE('',(#387));
#387 = FILL_AREA_STYLE_COLOUR('',#388);
#388 = COLOUR_RGB('',0.,0.377508427907,0.578582128266);
#389 = CURVE_STYLE('',#390,POSITIVE_LENGTH_MEASURE(0.1),#388);
#390 = DRAUGHTING_PRE_DEFINED_CURVE_FONT('continuous');
#391 = OVER_RIDING_STYLED_ITEM('overriding color',(#392),#81,#381);
#392 = PRESENTATION_STYLE_ASSIGNMENT((#393));
#393 = SURFACE_STYLE_USAGE(.BOTH.,#394);
#394 = SURFACE_SIDE_STYLE('',(#395));
#395 = SURFACE_STYLE_FILL_AREA(#396);
#396 = FILL_AREA_STYLE('',(#397));
#397 = FILL_AREA_STYLE_COLOUR('',#398);
#398 = COLOUR_RGB('',0.937179583391,0.9357410338,0.649182888601);
#399 = OVER_RIDING_STYLED_ITEM('overriding color',(#400),#123,#381);
#400 = PRESENTATION_STYLE_ASSIGNMENT((#401));
#401 = SURFACE_STYLE_USAGE(.BOTH.,#402);
#402 = SURFACE_SIDE_STYLE('',(#403));
#403 = SURFACE_STYLE_FILL_AREA(#404);
#404 = FILL_AREA_STYLE('',(#405));
#405 = FILL_AREA_STYLE_COLOUR('',#398);
#406 = OVER_RIDING_STYLED_ITEM('overriding color',(#407),#154,#381);
#407 = PRESENTATION_STYLE_ASSIGNMENT((#408));
#408 = SURFACE_STYLE_USAGE(.BOTH.,#409);
#409 = SURFACE_SIDE_STYLE('',(#410));
#410 = SURFACE_STYLE_FILL_AREA(#411);
#411 = FILL_AREA_STYLE('',(#412));
#412 = FILL_AREA_STYLE_COLOUR('',#398);
#413 = OVER_RIDING_STYLED_ITEM('overriding color',(#414),#187,#381);
#414 = PRESENTATION_STYLE_ASSIGNMENT((#415));
#415 = SURFACE_STYLE_USAGE(.BOTH.,#416);
#416 = SURFACE_SIDE_STYLE('',(#417));
#417 = SURFACE_STYLE_FILL_AREA(#418);
#418 = FILL_AREA_STYLE('',(#419));
#419 = FILL_AREA_STYLE_COLOUR('',#398);
#420 = OVER_RIDING_STYLED_ITEM('overriding color',(#421),#218,#381);
#421 = PRESENTATION_STYLE_ASSIGNMENT((#422));
#422 = SURFACE_STYLE_USAGE(.BOTH.,#423);
#423 = SURFACE_SIDE_STYLE('',(#424));
#424 = SURFACE_STYLE_FILL_AREA(#425);
#425 = FILL_AREA_STYLE('',(#426));
#426 = FILL_AREA_STYLE_COLOUR('',#398);
#427 = OVER_RIDING_STYLED_ITEM('overriding color',(#428),#251,#381);
#428 = PRESENTATION_STYLE_ASSIGNMENT((#429));
#429 = SURFACE_STYLE_USAGE(.BOTH.,#430);
#430 = SURFACE_SIDE_STYLE('',(#431));
#431 = SURFACE_STYLE_FILL_AREA(#432);
#432 = FILL_AREA_STYLE('',(#433));
#433 = FILL_AREA_STYLE_COLOUR('',#398);
#434 = OVER_RIDING_STYLED_ITEM('overriding color',(#435),#282,#381);
#435 = PRESENTATION_STYLE_ASSIGNMENT((#436));
#436 = SURFACE_STYLE_USAGE(.BOTH.,#437);
#437 = SURFACE_SIDE_STYLE('',(#438));
#438 = SURFACE_STYLE_FILL_AREA(#439);
#439 = FILL_AREA_STYLE('',(#440));
#440 = FILL_AREA_STYLE_COLOUR('',#398);
#441 = OVER_RIDING_STYLED_ITEM('overriding color',(#442),#315,#381);
#442 = PRESENTATION_STYLE_ASSIGNMENT((#443));
#443 = SURFACE_STYLE_USAGE(.BOTH.,#444);
#444 = SURFACE_SIDE_STYLE('',(#445));
#445 = SURFACE_STYLE_FILL_AREA(#446);
#446 = FILL_AREA_STYLE('',(#447));
#447 = FILL_AREA_STYLE_COLOUR('',#398);
ENDSEC;
END-ISO-10303-21;
