ISO-10303-21;
HEADER;
FILE_DESCRIPTION (( 'STEP AP214' ),
    '1' );
FILE_NAME ('25物流车1.0-抓取机构-cnc-yaw轴转接.STEP',
    '2024-10-16T10:43:04',
    ( '' ),
    ( '' ),
    'SwSTEP 2.0',
    'SolidWorks 2021',
    '' );
FILE_SCHEMA (( 'AUTOMOTIVE_DESIGN' ));
ENDSEC;

DATA;
#1 = DIRECTION ( 'NONE',  ( 0.000000000000000000, 0.000000000000000000, -1.000000000000000000 ) ) ;
#2 = AXIS2_PLACEMENT_3D ( 'NONE', #1314, #326, #29 ) ;
#3 = CARTESIAN_POINT ( 'NONE',  ( 36.47970943351467810, 3.000000000000000000, 10.02401115553650079 ) ) ;
#4 = EDGE_CURVE ( 'NONE', #200, #591, #635, .T. ) ;
#5 = EDGE_LOOP ( 'NONE', ( #1087, #1160 ) ) ;
#6 = CARTESIAN_POINT ( 'NONE',  ( 12.12435565298263462, 3.000000000000000000, -7.000000000000863309 ) ) ;
#7 = CARTESIAN_POINT ( 'NONE',  ( 1.984376143571862200E-12, 3.000000000000000000, 11.94999999999775397 ) ) ;
#8 = DIRECTION ( 'NONE',  ( -0.000000000000000000, -1.000000000000000000, -0.000000000000000000 ) ) ;
#9 = EDGE_CURVE ( 'NONE', #1287, #161, #285, .T. ) ;
#10 = CYLINDRICAL_SURFACE ( 'NONE', #495, 2.050000000002084821 ) ;
#11 = EDGE_LOOP ( 'NONE', ( #874, #505 ) ) ;
#12 = FACE_BOUND ( 'NONE', #99, .T. ) ;
#13 = DIRECTION ( 'NONE',  ( 0.000000000000000000, 0.000000000000000000, -1.000000000000000000 ) ) ;
#14 = CARTESIAN_POINT ( 'NONE',  ( -10.11150098899258865, 3.000000000000000000, -25.35266352377224663 ) ) ;
#15 = ORIENTED_EDGE ( 'NONE', *, *, #419, .F. ) ;
#16 = FACE_BOUND ( 'NONE', #1154, .T. ) ;
#17 = DIRECTION ( 'NONE',  ( 0.000000000000000000, 0.000000000000000000, 1.000000000000000000 ) ) ;
#18 = PRODUCT ( '25物流车1.0-抓取机构-cnc-yaw轴转接', '25物流车1.0-抓取机构-cnc-yaw轴转接', '', ( #1001 ) ) ;
#19 = AXIS2_PLACEMENT_3D ( 'NONE', #1242, #1069, #1184 ) ;
#20 = EDGE_CURVE ( 'NONE', #624, #1280, #1307, .T. ) ;
#21 = VECTOR ( 'NONE', #1291, 1000.000000000000000 ) ;
#22 = AXIS2_PLACEMENT_3D ( 'NONE', #533, #1369, #1269 ) ;
#23 = CYLINDRICAL_SURFACE ( 'NONE', #848, 2.050000000001210410 ) ;
#24 = ORIENTED_EDGE ( 'NONE', *, *, #63, .T. ) ;
#25 = DIRECTION ( 'NONE',  ( 0.000000000000000000, 1.000000000000000000, 0.000000000000000000 ) ) ;
#26 = ADVANCED_FACE ( 'NONE', ( #747 ), #718, .F. ) ;
#27 = DIRECTION ( 'NONE',  ( 0.000000000000000000, -1.000000000000000000, 0.000000000000000000 ) ) ;
#28 = CIRCLE ( 'NONE', #1196, 2.250000000000799805 ) ;
#29 = DIRECTION ( 'NONE',  ( 0.000000000000000000, 0.000000000000000000, 1.000000000000000000 ) ) ;
#30 = EDGE_CURVE ( 'NONE', #1036, #724, #832, .T. ) ;
#31 = EDGE_LOOP ( 'NONE', ( #1331, #1353 ) ) ;
#32 = AXIS2_PLACEMENT_3D ( 'NONE', #376, #809, #1239 ) ;
#33 = CYLINDRICAL_SURFACE ( 'NONE', #440, 7.000000000000000000 ) ;
#34 = ORIENTED_EDGE ( 'NONE', *, *, #988, .F. ) ;
#35 = DIRECTION ( 'NONE',  ( 0.000000000000000000, 0.000000000000000000, 1.000000000000000000 ) ) ;
#36 = DIRECTION ( 'NONE',  ( 0.000000000000000000, 0.000000000000000000, 1.000000000000000000 ) ) ;
#37 = DIRECTION ( 'NONE',  ( 0.000000000000000000, 1.000000000000000000, 0.000000000000000000 ) ) ;
#38 = EDGE_LOOP ( 'NONE', ( #826, #1146 ) ) ;
#39 = FACE_OUTER_BOUND ( 'NONE', #813, .T. ) ;
#40 = DIRECTION ( 'NONE',  ( 0.000000000000000000, 1.000000000000000000, 0.000000000000000000 ) ) ;
#41 = AXIS2_PLACEMENT_3D ( 'NONE', #1138, #168, #1351 ) ;
#42 = ADVANCED_FACE ( 'NONE', ( #1064, #1153 ), #315, .F. ) ;
#43 = CIRCLE ( 'NONE', #217, 2.250000000000536460 ) ;
#44 = DIRECTION ( 'NONE',  ( 0.000000000000000000, 0.000000000000000000, 1.000000000000000000 ) ) ;
#45 = EDGE_LOOP ( 'NONE', ( #1301, #236 ) ) ;
#46 = CARTESIAN_POINT ( 'NONE',  ( 0.000000000000000000, 0.000000000000000000, -14.00000000000000000 ) ) ;
#47 = ORIENTED_EDGE ( 'NONE', *, *, #187, .F. ) ;
#48 = DIRECTION ( 'NONE',  ( 0.000000000000000000, 0.000000000000000000, 1.000000000000000000 ) ) ;
#49 = EDGE_CURVE ( 'NONE', #1236, #174, #1151, .T. ) ;
#50 = LINE ( 'NONE', #382, #958 ) ;
#51 = ORIENTED_EDGE ( 'NONE', *, *, #709, .F. ) ;
#52 = CIRCLE ( 'NONE', #723, 3.150000000000784173 ) ;
#53 = FACE_BOUND ( 'NONE', #1059, .T. ) ;
#54 = ORIENTED_EDGE ( 'NONE', *, *, #709, .T. ) ;
#55 = DIRECTION ( 'NONE',  ( 0.000000000000000000, 0.000000000000000000, 1.000000000000000000 ) ) ;
#56 = CARTESIAN_POINT ( 'NONE',  ( 51.80956113419082243, 0.000000000000000000, 11.52255939808626728 ) ) ;
#57 = ORIENTED_EDGE ( 'NONE', *, *, #496, .F. ) ;
#58 = FACE_BOUND ( 'NONE', #1323, .T. ) ;
#59 = AXIS2_PLACEMENT_3D ( 'NONE', #154, #921, #572 ) ;
#60 = VERTEX_POINT ( 'NONE', #967 ) ;
#61 = CARTESIAN_POINT ( 'NONE',  ( 0.000000000000000000, 1.500000000000000000, 0.000000000000000000 ) ) ;
#62 = VECTOR ( 'NONE', #368, 1000.000000000000000 ) ;
#63 = EDGE_CURVE ( 'NONE', #1389, #591, #502, .T. ) ;
#64 = CARTESIAN_POINT ( 'NONE',  ( -12.12435565298220652, 3.000000000000000000, -4.949999999997841016 ) ) ;
#65 = AXIS2_PLACEMENT_3D ( 'NONE', #333, #878, #1 ) ;
#66 = ORIENTED_EDGE ( 'NONE', *, *, #309, .T. ) ;
#67 = VECTOR ( 'NONE', #543, 1000.000000000000000 ) ;
#68 = ORIENTED_EDGE ( 'NONE', *, *, #1108, .F. ) ;
#69 = LINE ( 'NONE', #75, #414 ) ;
#70 = CARTESIAN_POINT ( 'NONE',  ( -18.09283558217978083, 0.000000000000000000, -31.12313127878105590 ) ) ;
#71 = ADVANCED_FACE ( 'NONE', ( #722 ), #1387, .F. ) ;
#72 = ORIENTED_EDGE ( 'NONE', *, *, #969, .F. ) ;
#73 = ADVANCED_FACE ( 'NONE', ( #98 ), #1159, .F. ) ;
#74 = ORIENTED_EDGE ( 'NONE', *, *, #1191, .F. ) ;
#75 = CARTESIAN_POINT ( 'NONE',  ( 9.340456060245351466, 3.000000000000000000, -34.41068576263367618 ) ) ;
#76 = LINE ( 'NONE', #940, #558 ) ;
#77 = DIRECTION ( 'NONE',  ( 0.000000000000000000, 0.000000000000000000, 1.000000000000000000 ) ) ;
#78 = ORIENTED_EDGE ( 'NONE', *, *, #320, .F. ) ;
#79 = ORIENTED_EDGE ( 'NONE', *, *, #1294, .T. ) ;
#80 = ORIENTED_EDGE ( 'NONE', *, *, #378, .F. ) ;
#81 = DIRECTION ( 'NONE',  ( -0.000000000000000000, -1.000000000000000000, -0.000000000000000000 ) ) ;
#82 = DIRECTION ( 'NONE',  ( 0.000000000000000000, -1.000000000000000000, 0.000000000000000000 ) ) ;
#83 = AXIS2_PLACEMENT_3D ( 'NONE', #1359, #1149, #381 ) ;
#84 = CYLINDRICAL_SURFACE ( 'NONE', #762, 2.250000000000824230 ) ;
#85 = ADVANCED_FACE ( 'NONE', ( #1382 ), #512, .F. ) ;
#86 = ORIENTED_EDGE ( 'NONE', *, *, #172, .F. ) ;
#87 = ORIENTED_EDGE ( 'NONE', *, *, #453, .F. ) ;
#88 = AXIS2_PLACEMENT_3D ( 'NONE', #791, #889, #143 ) ;
#89 = EDGE_LOOP ( 'NONE', ( #1045, #951 ) ) ;
#90 = CIRCLE ( 'NONE', #1372, 6.150000000000814815 ) ;
#91 = CARTESIAN_POINT ( 'NONE',  ( 9.340456060245351466, 3.000000000000000000, -38.91068576263527490 ) ) ;
#92 = DIRECTION ( 'NONE',  ( 0.000000000000000000, 0.000000000000000000, 1.000000000000000000 ) ) ;
#93 = EDGE_CURVE ( 'NONE', #1389, #688, #1014, .T. ) ;
#94 = CARTESIAN_POINT ( 'NONE',  ( 9.340456060245351466, 3.000000000000000000, -38.91068576263527490 ) ) ;
#95 = ORIENTED_EDGE ( 'NONE', *, *, #496, .T. ) ;
#96 = VECTOR ( 'NONE', #1094, 1000.000000000000000 ) ;
#97 = EDGE_LOOP ( 'NONE', ( #425, #1388 ) ) ;
#98 = FACE_OUTER_BOUND ( 'NONE', #865, .T. ) ;
#99 = EDGE_LOOP ( 'NONE', ( #177, #629 ) ) ;
#100 = ORIENTED_EDGE ( 'NONE', *, *, #983, .F. ) ;
#101 = EDGE_LOOP ( 'NONE', ( #1043, #182, #1204, #100 ) ) ;
#102 = FACE_BOUND ( 'NONE', #833, .T. ) ;
#103 = DIRECTION ( 'NONE',  ( -0.000000000000000000, -1.000000000000000000, -0.000000000000000000 ) ) ;
#104 = EDGE_CURVE ( 'NONE', #1193, #317, #537, .T. ) ;
#105 = DIRECTION ( 'NONE',  ( 0.000000000000000000, 0.000000000000000000, -1.000000000000000000 ) ) ;
#106 = VECTOR ( 'NONE', #273, 1000.000000000000000 ) ;
#107 = ORIENTED_EDGE ( 'NONE', *, *, #608, .T. ) ;
#108 = ORIENTED_EDGE ( 'NONE', *, *, #728, .T. ) ;
#109 = DIRECTION ( 'NONE',  ( 0.000000000000000000, 0.000000000000000000, 1.000000000000000000 ) ) ;
#110 = EDGE_CURVE ( 'NONE', #702, #573, #612, .T. ) ;
#111 = CARTESIAN_POINT ( 'NONE',  ( 15.62388996983173151, 0.000000000000000000, -50.72370315947505759 ) ) ;
#112 = CONICAL_SURFACE ( 'NONE', #1375, 6.150000000000675371, 0.7853981633974533860 ) ;
#113 = DIRECTION ( 'NONE',  ( 0.000000000000000000, 0.000000000000000000, 1.000000000000000000 ) ) ;
#114 = ADVANCED_FACE ( 'NONE', ( #619 ), #84, .F. ) ;
#115 = ORIENTED_EDGE ( 'NONE', *, *, #93, .T. ) ;
#116 = CARTESIAN_POINT ( 'NONE',  ( 17.02775238427675575, 0.000000000000000000, 24.48203339439951876 ) ) ;
#117 = PLANE ( 'NONE',  #353 ) ;
#118 = VECTOR ( 'NONE', #1192, 1000.000000000000000 ) ;
#119 = DIRECTION ( 'NONE',  ( 0.000000000000000000, 1.000000000000000000, 0.000000000000000000 ) ) ;
#120 = SURFACE_STYLE_USAGE ( .BOTH. , #644 ) ;
#121 = ORIENTED_EDGE ( 'NONE', *, *, #363, .F. ) ;
#122 = FACE_BOUND ( 'NONE', #45, .T. ) ;
#123 = CARTESIAN_POINT ( 'NONE',  ( 17.02775238427675575, 3.000000000000000000, 21.33203339439873503 ) ) ;
#124 = CYLINDRICAL_SURFACE ( 'NONE', #645, 2.050000000000279154 ) ;
#125 = DIRECTION ( 'NONE',  ( 0.000000000000000000, 1.000000000000000000, 0.000000000000000000 ) ) ;
#126 = EDGE_CURVE ( 'NONE', #909, #841, #808, .T. ) ;
#127 = ORIENTED_EDGE ( 'NONE', *, *, #313, .T. ) ;
#128 = FACE_OUTER_BOUND ( 'NONE', #503, .T. ) ;
#129 = CIRCLE ( 'NONE', #689, 2.049999999999999822 ) ;
#130 = UNCERTAINTY_MEASURE_WITH_UNIT (LENGTH_MEASURE( 1.000000000000000082E-05 ), #454, 'distance_accuracy_value', 'NONE');
#131 = CARTESIAN_POINT ( 'NONE',  ( 17.02775238427675575, 3.000000000000000000, 27.48203339439955073 ) ) ;
#132 = AXIS2_PLACEMENT_3D ( 'NONE', #123, #444, #17 ) ;
#133 = EDGE_CURVE ( 'NONE', #630, #255, #467, .T. ) ;
#134 = AXIS2_PLACEMENT_3D ( 'NONE', #1185, #541, #974 ) ;
#135 = CYLINDRICAL_SURFACE ( 'NONE', #1259, 2.250000000000536460 ) ;
#136 = CARTESIAN_POINT ( 'NONE',  ( 0.000000000000000000, 3.000000000000000000, 0.000000000000000000 ) ) ;
#137 = EDGE_LOOP ( 'NONE', ( #696, #725 ) ) ;
#138 = CARTESIAN_POINT ( 'NONE',  ( -10.11150098899258865, 3.000000000000000000, -19.20266352377156949 ) ) ;
#139 = DIRECTION ( 'NONE',  ( 0.000000000000000000, 0.000000000000000000, 1.000000000000000000 ) ) ;
#140 = DIRECTION ( 'NONE',  ( 0.000000000000000000, 0.000000000000000000, 1.000000000000000000 ) ) ;
#141 = CARTESIAN_POINT ( 'NONE',  ( -12.12435565298065221, 3.000000000000000000, 7.000000000000865086 ) ) ;
#142 = ORIENTED_EDGE ( 'NONE', *, *, #935, .T. ) ;
#143 = DIRECTION ( 'NONE',  ( 0.000000000000000000, 0.000000000000000000, 1.000000000000000000 ) ) ;
#144 = DIRECTION ( 'NONE',  ( 0.000000000000000000, 1.000000000000000000, 0.000000000000000000 ) ) ;
#145 = ADVANCED_FACE ( 'NONE', ( #955 ), #112, .F. ) ;
#146 = CARTESIAN_POINT ( 'NONE',  ( 8.572527594031473190E-16, 0.000000000000000000, -7.000000000000000000 ) ) ;
#147 = VERTEX_POINT ( 'NONE', #282 ) ;
#148 = ADVANCED_FACE ( 'NONE', ( #717 ), #135, .F. ) ;
#149 = CARTESIAN_POINT ( 'NONE',  ( 0.000000000000000000, 3.000000000000000000, -6.000000000000000888 ) ) ;
#150 = AXIS2_PLACEMENT_3D ( 'NONE', #1115, #1134, #583 ) ;
#151 = ORIENTED_EDGE ( 'NONE', *, *, #1142, .T. ) ;
#152 = CARTESIAN_POINT ( 'NONE',  ( -44.89330973890818655, 3.000000000000000000, -15.54318952745941829 ) ) ;
#153 = VECTOR ( 'NONE', #289, 1000.000000000000000 ) ;
#154 = CARTESIAN_POINT ( 'NONE',  ( -12.12435565298065221, 3.000000000000000000, 7.000000000000865086 ) ) ;
#155 = VECTOR ( 'NONE', #1306, 1000.000000000000000 ) ;
#156 = ORIENTED_EDGE ( 'NONE', *, *, #751, .T. ) ;
#157 = CARTESIAN_POINT ( 'NONE',  ( 0.000000000000000000, 3.000000000000000000, 0.000000000000000000 ) ) ;
#158 = ORIENTED_EDGE ( 'NONE', *, *, #274, .T. ) ;
#159 = FACE_OUTER_BOUND ( 'NONE', #936, .T. ) ;
#160 = DIRECTION ( 'NONE',  ( 0.000000000000000000, 0.000000000000000000, 1.000000000000000000 ) ) ;
#161 = VERTEX_POINT ( 'NONE', #452 ) ;
#162 = DIRECTION ( 'NONE',  ( 0.000000000000000000, 0.000000000000000000, -1.000000000000000000 ) ) ;
#163 = ORIENTED_EDGE ( 'NONE', *, *, #1383, .T. ) ;
#164 = EDGE_CURVE ( 'NONE', #549, #1128, #994, .T. ) ;
#165 = LINE ( 'NONE', #779, #1097 ) ;
#166 =( LENGTH_UNIT ( ) NAMED_UNIT ( * ) SI_UNIT ( .MILLI., .METRE. ) );
#167 = VERTEX_POINT ( 'NONE', #656 ) ;
#168 = DIRECTION ( 'NONE',  ( -0.000000000000000000, -1.000000000000000000, -0.000000000000000000 ) ) ;
#169 = AXIS2_PLACEMENT_3D ( 'NONE', #788, #37, #461 ) ;
#170 = VERTEX_POINT ( 'NONE', #220 ) ;
#171 = CARTESIAN_POINT ( 'NONE',  ( 36.47970943351467810, 3.000000000000000000, 10.02401115553650079 ) ) ;
#172 = EDGE_CURVE ( 'NONE', #255, #630, #898, .T. ) ;
#173 = DIRECTION ( 'NONE',  ( -0.5025787661716548671, 0.000000000000000000, -0.8645314244105746226 ) ) ;
#174 = VERTEX_POINT ( 'NONE', #781 ) ;
#175 = ORIENTED_EDGE ( 'NONE', *, *, #30, .F. ) ;
#176 = VECTOR ( 'NONE', #953, 1000.000000000000000 ) ;
#177 = ORIENTED_EDGE ( 'NONE', *, *, #459, .T. ) ;
#178 = LINE ( 'NONE', #302, #106 ) ;
#179 = DIRECTION ( 'NONE',  ( 8.659560562354979697E-17, 0.7071067811865439090, -0.7071067811865512365 ) ) ;
#180 = CARTESIAN_POINT ( 'NONE',  ( 0.000000000000000000, 1.500000000000000000, 0.000000000000000000 ) ) ;
#181 = EDGE_LOOP ( 'NONE', ( #270, #234 ) ) ;
#182 = ORIENTED_EDGE ( 'NONE', *, *, #1012, .T. ) ;
#183 = FILL_AREA_STYLE ('',( #295 ) ) ;
#184 = EDGE_CURVE ( 'NONE', #186, #1262, #830, .T. ) ;
#185 = DIRECTION ( 'NONE',  ( 0.000000000000000000, 1.000000000000000000, 0.000000000000000000 ) ) ;
#186 = VERTEX_POINT ( 'NONE', #674 ) ;
#187 = EDGE_CURVE ( 'NONE', #1389, #372, #1093, .T. ) ;
#188 = ORIENTED_EDGE ( 'NONE', *, *, #507, .T. ) ;
#189 = CARTESIAN_POINT ( 'NONE',  ( 17.02775238427675575, 0.000000000000000000, 21.33203339439873503 ) ) ;
#190 = DIRECTION ( 'NONE',  ( -0.5025787661716545340, 0.000000000000000000, -0.8645314244105748447 ) ) ;
#191 = DIRECTION ( 'NONE',  ( 0.000000000000000000, 1.000000000000000000, 0.000000000000000000 ) ) ;
#192 = ADVANCED_BREP_SHAPE_REPRESENTATION ( '25物流车1.0-抓取机构-cnc-yaw轴转接', ( #1122, #269 ), #1019 ) ;
#193 = VERTEX_POINT ( 'NONE', #879 ) ;
#194 = CIRCLE ( 'NONE', #1328, 2.250000000000536460 ) ;
#195 = ORIENTED_EDGE ( 'NONE', *, *, #911, .F. ) ;
#196 = CIRCLE ( 'NONE', #990, 5.000000000000000000 ) ;
#197 = EDGE_CURVE ( 'NONE', #167, #1271, #651, .T. ) ;
#198 = CARTESIAN_POINT ( 'NONE',  ( -12.12435565298065221, 3.000000000000000000, 7.000000000000865086 ) ) ;
#199 = AXIS2_PLACEMENT_3D ( 'NONE', #1058, #402, #424 ) ;
#200 = VERTEX_POINT ( 'NONE', #1085 ) ;
#201 = COLOUR_RGB ( '',0.8980392156862745390, 0.9176470588235293713, 0.9294117647058823817 ) ;
#202 = VERTEX_POINT ( 'NONE', #664 ) ;
#203 = DIRECTION ( 'NONE',  ( 0.000000000000000000, 0.000000000000000000, 1.000000000000000000 ) ) ;
#204 = ADVANCED_FACE ( 'NONE', ( #342 ), #124, .F. ) ;
#205 = LINE ( 'NONE', #972, #713 ) ;
#206 = ORIENTED_EDGE ( 'NONE', *, *, #245, .F. ) ;
#207 = ADVANCED_FACE ( 'NONE', ( #225 ), #240, .F. ) ;
#208 = VERTEX_POINT ( 'NONE', #1101 ) ;
#209 = DIRECTION ( 'NONE',  ( 0.000000000000000000, 1.000000000000000000, 0.000000000000000000 ) ) ;
#210 = CARTESIAN_POINT ( 'NONE',  ( -19.78234362500693422, 0.000000000000000000, 27.65246608717109567 ) ) ;
#211 = DIRECTION ( 'NONE',  ( 0.000000000000000000, 0.000000000000000000, -1.000000000000000000 ) ) ;
#212 = EDGE_CURVE ( 'NONE', #442, #802, #1078, .T. ) ;
#213 = CIRCLE ( 'NONE', #508, 3.150000000000784173 ) ;
#214 = DIRECTION ( 'NONE',  ( 0.000000000000000000, 1.000000000000000000, 0.000000000000000000 ) ) ;
#215 = ORIENTED_EDGE ( 'NONE', *, *, #309, .F. ) ;
#216 = CARTESIAN_POINT ( 'NONE',  ( -19.78234362500693422, 0.000000000000000000, 27.65246608717109567 ) ) ;
#217 = AXIS2_PLACEMENT_3D ( 'NONE', #793, #247, #473 ) ;
#218 = DIRECTION ( 'NONE',  ( -0.5025787661716548671, 0.000000000000000000, -0.8645314244105746226 ) ) ;
#219 = DIRECTION ( 'NONE',  ( 1.000000000000000000, 0.000000000000000000, 0.000000000000000000 ) ) ;
#220 = CARTESIAN_POINT ( 'NONE',  ( 12.12435565298263462, 0.000000000000000000, -4.950000000000583711 ) ) ;
#221 = CARTESIAN_POINT ( 'NONE',  ( -12.12435565298220652, 3.000000000000000000, -6.999999999999052314 ) ) ;
#222 = VERTEX_POINT ( 'NONE', #864 ) ;
#223 = CARTESIAN_POINT ( 'NONE',  ( 2.510525938252073693E-16, 3.000000000000000000, -11.95000000000000107 ) ) ;
#224 = FACE_BOUND ( 'NONE', #497, .T. ) ;
#225 = FACE_OUTER_BOUND ( 'NONE', #754, .T. ) ;
#226 = DIRECTION ( 'NONE',  ( 0.000000000000000000, 0.000000000000000000, -1.000000000000000000 ) ) ;
#227 = APPLICATION_CONTEXT ( 'automotive_design' ) ;
#228 = ORIENTED_EDGE ( 'NONE', *, *, #1178, .T. ) ;
#229 = CARTESIAN_POINT ( 'NONE',  ( 0.000000000000000000, 3.000000000000000000, 0.000000000000000000 ) ) ;
#230 = EDGE_CURVE ( 'NONE', #769, #1166, #741, .T. ) ;
#231 = DIRECTION ( 'NONE',  ( -0.000000000000000000, -1.000000000000000000, -0.000000000000000000 ) ) ;
#232 = CARTESIAN_POINT ( 'NONE',  ( 0.000000000000000000, 3.000000000000000000, -14.00000000000000000 ) ) ;
#233 = DIRECTION ( 'NONE',  ( 0.000000000000000000, 1.000000000000000000, 0.000000000000000000 ) ) ;
#234 = ORIENTED_EDGE ( 'NONE', *, *, #507, .F. ) ;
#235 = PLANE ( 'NONE',  #465 ) ;
#236 = ORIENTED_EDGE ( 'NONE', *, *, #733, .T. ) ;
#237 = VECTOR ( 'NONE', #1017, 1000.000000000000000 ) ;
#238 = LINE ( 'NONE', #576, #62 ) ;
#239 = VECTOR ( 'NONE', #1273, 1000.000000000000000 ) ;
#240 = CYLINDRICAL_SURFACE ( 'NONE', #311, 6.000000000000000888 ) ;
#241 = CARTESIAN_POINT ( 'NONE',  ( -8.707638574549065424, 0.000000000000000000, 46.70307303010191191 ) ) ;
#242 = VERTEX_POINT ( 'NONE', #753 ) ;
#243 = CARTESIAN_POINT ( 'NONE',  ( 0.000000000000000000, -2.000000000000000000, 0.000000000000000000 ) ) ;
#244 = CARTESIAN_POINT ( 'NONE',  ( -44.89330973890818655, 0.000000000000000000, -15.54318952745941829 ) ) ;
#245 = EDGE_CURVE ( 'NONE', #549, #457, #396, .T. ) ;
#246 = APPLICATION_PROTOCOL_DEFINITION ( 'draft international standard', 'automotive_design', 1998, #640 ) ;
#247 = DIRECTION ( 'NONE',  ( 0.000000000000000000, -1.000000000000000000, 0.000000000000000000 ) ) ;
#248 = CIRCLE ( 'NONE', #427, 34.00000000000000000 ) ;
#249 = ORIENTED_EDGE ( 'NONE', *, *, #230, .F. ) ;
#250 = DIRECTION ( 'NONE',  ( 0.000000000000000000, 1.000000000000000000, 0.000000000000000000 ) ) ;
#251 = EDGE_CURVE ( 'NONE', #1098, #883, #196, .T. ) ;
#252 = DIRECTION ( 'NONE',  ( 0.000000000000000000, 0.000000000000000000, -1.000000000000000000 ) ) ;
#253 = ADVANCED_FACE ( 'NONE', ( #859 ), #547, .T. ) ;
#254 = FACE_OUTER_BOUND ( 'NONE', #916, .T. ) ;
#255 = VERTEX_POINT ( 'NONE', #1298 ) ;
#256 = DIRECTION ( 'NONE',  ( 0.000000000000000000, 1.000000000000000000, 0.000000000000000000 ) ) ;
#257 = VECTOR ( 'NONE', #499, 999.9999999999998863 ) ;
#258 = EDGE_LOOP ( 'NONE', ( #1363, #87, #1013, #54 ) ) ;
#259 = DIRECTION ( 'NONE',  ( 0.000000000000000000, 1.000000000000000000, 0.000000000000000000 ) ) ;
#260 = VECTOR ( 'NONE', #559, 1000.000000000000000 ) ;
#261 = AXIS2_PLACEMENT_3D ( 'NONE', #1177, #861, #109 ) ;
#262 = DIRECTION ( 'NONE',  ( 0.000000000000000000, -1.000000000000000000, 0.000000000000000000 ) ) ;
#263 = AXIS2_PLACEMENT_3D ( 'NONE', #180, #191, #634 ) ;
#264 = EDGE_CURVE ( 'NONE', #1287, #208, #981, .T. ) ;
#265 = ORIENTED_EDGE ( 'NONE', *, *, #501, .F. ) ;
#266 = CARTESIAN_POINT ( 'NONE',  ( 12.12435565298263462, 3.000000000000000000, -9.050000000001142908 ) ) ;
#267 = ORIENTED_EDGE ( 'NONE', *, *, #1089, .T. ) ;
#268 = CARTESIAN_POINT ( 'NONE',  ( -29.56345803823052520, 3.000000000000000000, -16.29464128491055064 ) ) ;
#269 = AXIS2_PLACEMENT_3D ( 'NONE', #765, #1092, #219 ) ;
#270 = ORIENTED_EDGE ( 'NONE', *, *, #281, .F. ) ;
#271 = FACE_OUTER_BOUND ( 'NONE', #1365, .T. ) ;
#272 = ORIENTED_EDGE ( 'NONE', *, *, #810, .F. ) ;
#273 = DIRECTION ( 'NONE',  ( 8.659560562354979697E-17, 0.7071067811865439090, -0.7071067811865512365 ) ) ;
#274 = EDGE_CURVE ( 'NONE', #609, #1072, #43, .T. ) ;
#275 = DIRECTION ( 'NONE',  ( 0.000000000000000000, 0.000000000000000000, -1.000000000000000000 ) ) ;
#276 = ORIENTED_EDGE ( 'NONE', *, *, #1084, .T. ) ;
#277 = VERTEX_POINT ( 'NONE', #386 ) ;
#278 = CARTESIAN_POINT ( 'NONE',  ( -26.80047415672839861, 0.000000000000000000, 15.57994175132163761 ) ) ;
#279 = AXIS2_PLACEMENT_3D ( 'NONE', #1120, #1340, #786 ) ;
#280 = CARTESIAN_POINT ( 'NONE',  ( 36.47970943351467810, 0.000000000000000000, 12.27401115553732502 ) ) ;
#281 = EDGE_CURVE ( 'NONE', #1292, #1264, #375, .T. ) ;
#282 = CARTESIAN_POINT ( 'NONE',  ( 12.12435565298363116, 0.000000000000000000, 9.050000000000610001 ) ) ;
#283 = CIRCLE ( 'NONE', #436, 2.250000000000799805 ) ;
#284 = ORIENTED_EDGE ( 'NONE', *, *, #391, .F. ) ;
#285 = CIRCLE ( 'NONE', #831, 7.000000000000000000 ) ;
#286 = EDGE_CURVE ( 'NONE', #742, #222, #412, .T. ) ;
#287 = ORIENTED_EDGE ( 'NONE', *, *, #983, .T. ) ;
#288 = DIRECTION ( 'NONE',  ( 0.000000000000000000, 0.000000000000000000, -1.000000000000000000 ) ) ;
#289 = DIRECTION ( 'NONE',  ( -0.000000000000000000, -1.000000000000000000, -0.000000000000000000 ) ) ;
#290 = DIRECTION ( 'NONE',  ( 0.000000000000000000, 0.000000000000000000, -1.000000000000000000 ) ) ;
#291 = EDGE_CURVE ( 'NONE', #242, #310, #933, .T. ) ;
#292 = VERTEX_POINT ( 'NONE', #1150 ) ;
#293 = ORIENTED_EDGE ( 'NONE', *, *, #969, .T. ) ;
#294 = AXIS2_PLACEMENT_3D ( 'NONE', #554, #1110, #437 ) ;
#295 = FILL_AREA_STYLE_COLOUR ( '', #201 ) ;
#296 = CARTESIAN_POINT ( 'NONE',  ( 12.12435565298363116, 0.000000000000000000, 6.999999999999138467 ) ) ;
#297 = DIRECTION ( 'NONE',  ( -0.000000000000000000, -1.000000000000000000, -0.000000000000000000 ) ) ;
#298 = ORIENTED_EDGE ( 'NONE', *, *, #408, .T. ) ;
#299 = ORIENTED_EDGE ( 'NONE', *, *, #9, .F. ) ;
#300 = AXIS2_PLACEMENT_3D ( 'NONE', #816, #468, #482 ) ;
#301 = ORIENTED_EDGE ( 'NONE', *, *, #4, .F. ) ;
#302 = CARTESIAN_POINT ( 'NONE',  ( -10.11150098899258865, 3.000000000000000000, -31.50266352377292023 ) ) ;
#303 = DIRECTION ( 'NONE',  ( -0.000000000000000000, -1.000000000000000000, -0.000000000000000000 ) ) ;
#304 = SURFACE_STYLE_FILL_AREA ( #1268 ) ;
#305 = CARTESIAN_POINT ( 'NONE',  ( 0.000000000000000000, 1.500000000000000000, 0.000000000000000000 ) ) ;
#306 = DIRECTION ( 'NONE',  ( 0.000000000000000000, 0.000000000000000000, -1.000000000000000000 ) ) ;
#307 = CIRCLE ( 'NONE', #88, 2.050000000001470646 ) ;
#308 = VECTOR ( 'NONE', #891, 1000.000000000000000 ) ;
#309 = EDGE_CURVE ( 'NONE', #292, #1193, #821, .T. ) ;
#310 = VERTEX_POINT ( 'NONE', #280 ) ;
#311 = AXIS2_PLACEMENT_3D ( 'NONE', #1202, #553, #1321 ) ;
#312 = DIRECTION ( 'NONE',  ( 0.000000000000000000, 0.000000000000000000, 1.000000000000000000 ) ) ;
#313 = EDGE_CURVE ( 'NONE', #202, #60, #518, .T. ) ;
#314 = CARTESIAN_POINT ( 'NONE',  ( 9.340456060245351466, 0.000000000000000000, -38.91068576263527490 ) ) ;
#315 = PLANE ( 'NONE',  #263 ) ;
#316 = ADVANCED_FACE ( 'NONE', ( #1251 ), #625, .T. ) ;
#317 = VERTEX_POINT ( 'NONE', #712 ) ;
#318 = ORIENTED_EDGE ( 'NONE', *, *, #126, .T. ) ;
#319 = DIRECTION ( 'NONE',  ( 0.000000000000000000, 1.000000000000000000, 0.000000000000000000 ) ) ;
#320 = EDGE_CURVE ( 'NONE', #1292, #841, #500, .T. ) ;
#321 = DIRECTION ( 'NONE',  ( -0.8645314244105746226, 0.000000000000000000, 0.5025787661716548671 ) ) ;
#322 = CARTESIAN_POINT ( 'NONE',  ( 12.12435565298263462, 3.000000000000000000, -7.000000000000863309 ) ) ;
#323 = VERTEX_POINT ( 'NONE', #705 ) ;
#324 = DIRECTION ( 'NONE',  ( -0.000000000000000000, -1.000000000000000000, -0.000000000000000000 ) ) ;
#325 = DIRECTION ( 'NONE',  ( 0.000000000000000000, -1.000000000000000000, 0.000000000000000000 ) ) ;
#326 = DIRECTION ( 'NONE',  ( 0.000000000000000000, 1.000000000000000000, 0.000000000000000000 ) ) ;
#327 = DIRECTION ( 'NONE',  ( -0.000000000000000000, -1.000000000000000000, -0.000000000000000000 ) ) ;
#328 = ORIENTED_EDGE ( 'NONE', *, *, #686, .T. ) ;
#329 = LINE ( 'NONE', #422, #67 ) ;
#330 = EDGE_CURVE ( 'NONE', #242, #442, #920, .T. ) ;
#331 = ORIENTED_EDGE ( 'NONE', *, *, #264, .F. ) ;
#332 = CIRCLE ( 'NONE', #261, 6.150000000000814815 ) ;
#333 = CARTESIAN_POINT ( 'NONE',  ( 0.000000000000000000, -2.000000000000000000, 0.000000000000000000 ) ) ;
#334 = CLOSED_SHELL ( 'NONE', ( #145, #794, #26, #1023, #896, #1325, #253, #659, #881, #1152, #643, #649, #447, #525, #434, #1174, #620, #207, #540, #85, #204, #941, #767, #1260, #1229, #42, #1044, #703, #584, #1063, #316, #759, #715, #1212, #73, #148, #114, #71, #1315, #835 ) ) ;
#335 = CARTESIAN_POINT ( 'NONE',  ( 0.000000000000000000, 3.000000000000000000, -16.05000000000000071 ) ) ;
#336 = EDGE_CURVE ( 'NONE', #420, #147, #1172, .T. ) ;
#337 = CYLINDRICAL_SURFACE ( 'NONE', #1337, 34.00000000000000000 ) ;
#338 = ORIENTED_EDGE ( 'NONE', *, *, #391, .T. ) ;
#339 = LINE ( 'NONE', #1293, #421 ) ;
#340 = ORIENTED_EDGE ( 'NONE', *, *, #459, .F. ) ;
#341 = DIRECTION ( 'NONE',  ( -0.8645314244105746226, 0.000000000000000000, 0.5025787661716547561 ) ) ;
#342 = FACE_OUTER_BOUND ( 'NONE', #761, .T. ) ;
#343 = CIRCLE ( 'NONE', #1136, 2.250000000000824230 ) ;
#344 = DIRECTION ( 'NONE',  ( -0.000000000000000000, -1.000000000000000000, -0.000000000000000000 ) ) ;
#345 = ORIENTED_EDGE ( 'NONE', *, *, #733, .F. ) ;
#346 = DIRECTION ( 'NONE',  ( 0.000000000000000000, -1.000000000000000000, 0.000000000000000000 ) ) ;
#347 = ORIENTED_EDGE ( 'NONE', *, *, #578, .T. ) ;
#348 = DIRECTION ( 'NONE',  ( 0.000000000000000000, -1.000000000000000000, 0.000000000000000000 ) ) ;
#349 = CARTESIAN_POINT ( 'NONE',  ( 36.47970943351467810, 3.000000000000000000, 7.774011155535677453 ) ) ;
#350 = FACE_OUTER_BOUND ( 'NONE', #903, .T. ) ;
#351 = EDGE_CURVE ( 'NONE', #202, #588, #76, .T. ) ;
#352 = DIRECTION ( 'NONE',  ( 0.000000000000000000, -0.000000000000000000, 1.000000000000000000 ) ) ;
#353 = AXIS2_PLACEMENT_3D ( 'NONE', #1188, #325, #869 ) ;
#354 = UNCERTAINTY_MEASURE_WITH_UNIT (LENGTH_MEASURE( 1.000000000000000082E-05 ), #1275, 'distance_accuracy_value', 'NONE');
#355 = FACE_OUTER_BOUND ( 'NONE', #389, .T. ) ;
#356 = CIRCLE ( 'NONE', #968, 2.050000000002084821 ) ;
#357 = VECTOR ( 'NONE', #828, 999.9999999999998863 ) ;
#358 = DIRECTION ( 'NONE',  ( -0.000000000000000000, 1.000000000000000000, -0.000000000000000000 ) ) ;
#359 = DIRECTION ( 'NONE',  ( 0.000000000000000000, 0.000000000000000000, -1.000000000000000000 ) ) ;
#360 = ORIENTED_EDGE ( 'NONE', *, *, #481, .T. ) ;
#361 = CARTESIAN_POINT ( 'NONE',  ( 0.000000000000000000, 3.000000000000000000, -16.05000000000000071 ) ) ;
#362 = CARTESIAN_POINT ( 'NONE',  ( -29.56345803823052520, 3.000000000000000000, -14.04464128491001595 ) ) ;
#363 = EDGE_CURVE ( 'NONE', #1220, #1243, #1047, .T. ) ;
#364 = LINE ( 'NONE', #56, #750 ) ;
#365 = ORIENTED_EDGE ( 'NONE', *, *, #133, .T. ) ;
#366 = FACE_BOUND ( 'NONE', #748, .T. ) ;
#367 = ORIENTED_EDGE ( 'NONE', *, *, #1356, .F. ) ;
#368 = DIRECTION ( 'NONE',  ( -0.000000000000000000, -1.000000000000000000, -0.000000000000000000 ) ) ;
#369 = CARTESIAN_POINT ( 'NONE',  ( 36.47970943351467810, 0.000000000000000000, 10.02401115553650079 ) ) ;
#370 = ORIENTED_EDGE ( 'NONE', *, *, #1012, .F. ) ;
#371 = DIRECTION ( 'NONE',  ( 0.000000000000000000, 1.000000000000000000, 0.000000000000000000 ) ) ;
#372 = VERTEX_POINT ( 'NONE', #401 ) ;
#373 = CARTESIAN_POINT ( 'NONE',  ( 9.340456060245351466, 0.000000000000000000, -36.66068576263447198 ) ) ;
#374 = EDGE_CURVE ( 'NONE', #60, #710, #1368, .T. ) ;
#375 = CIRCLE ( 'NONE', #489, 2.050000000001211298 ) ;
#376 = CARTESIAN_POINT ( 'NONE',  ( -2.424204664961177258, 0.000000000000000000, 32.64005563326096393 ) ) ;
#377 = ORIENTED_EDGE ( 'NONE', *, *, #751, .F. ) ;
#378 = EDGE_CURVE ( 'NONE', #222, #670, #90, .T. ) ;
#379 = DIRECTION ( 'NONE',  ( -0.000000000000000000, -1.000000000000000000, -0.000000000000000000 ) ) ;
#380 = ORIENTED_EDGE ( 'NONE', *, *, #1027, .T. ) ;
#381 = DIRECTION ( 'NONE',  ( 0.000000000000000000, 0.000000000000000000, 1.000000000000000000 ) ) ;
#382 = CARTESIAN_POINT ( 'NONE',  ( 17.02775238427675575, 3.000000000000000000, 27.48203339439955073 ) ) ;
#383 = ORIENTED_EDGE ( 'NONE', *, *, #1218, .F. ) ;
#384 = ORIENTED_EDGE ( 'NONE', *, *, #544, .F. ) ;
#385 = CARTESIAN_POINT ( 'NONE',  ( 18.09283558217933319, 0.000000000000000000, 31.12313127878027075 ) ) ;
#386 = CARTESIAN_POINT ( 'NONE',  ( -12.12435565298065221, 3.000000000000000000, 4.949999999998779820 ) ) ;
#387 =( NAMED_UNIT ( * ) PLANE_ANGLE_UNIT ( ) SI_UNIT ( $, .RADIAN. ) );
#388 = ORIENTED_EDGE ( 'NONE', *, *, #1135, .T. ) ;
#389 = EDGE_LOOP ( 'NONE', ( #1131, #984, #895, #78 ) ) ;
#390 = ORIENTED_EDGE ( 'NONE', *, *, #626, .T. ) ;
#391 = EDGE_CURVE ( 'NONE', #277, #317, #596, .T. ) ;
#392 = CARTESIAN_POINT ( 'NONE',  ( 6.123233995736766282E-16, 3.000000000000000000, -5.000000000000000000 ) ) ;
#393 = EDGE_CURVE ( 'NONE', #719, #658, #873, .T. ) ;
#394 = AXIS2_PLACEMENT_3D ( 'NONE', #485, #379, #701 ) ;
#395 = DIRECTION ( 'NONE',  ( -0.000000000000000000, -1.000000000000000000, -0.000000000000000000 ) ) ;
#396 = CIRCLE ( 'NONE', #807, 2.049999999999999822 ) ;
#397 = ORIENTED_EDGE ( 'NONE', *, *, #1135, .F. ) ;
#398 = VECTOR ( 'NONE', #409, 1000.000000000000000 ) ;
#399 = ORIENTED_EDGE ( 'NONE', *, *, #840, .F. ) ;
#400 = DIRECTION ( 'NONE',  ( -0.5025787661716548671, 0.000000000000000000, -0.8645314244105746226 ) ) ;
#401 = CARTESIAN_POINT ( 'NONE',  ( -33.81860468844985945, 3.000000000000000000, 3.507417415472175559 ) ) ;
#402 = DIRECTION ( 'NONE',  ( 0.000000000000000000, 1.000000000000000000, 0.000000000000000000 ) ) ;
#403 = CARTESIAN_POINT ( 'NONE',  ( -18.09283558217978083, 0.000000000000000000, -31.12313127878105590 ) ) ;
#404 = EDGE_LOOP ( 'NONE', ( #1182, #1317, #1247, #1111 ) ) ;
#405 = CARTESIAN_POINT ( 'NONE',  ( 0.000000000000000000, 0.000000000000000000, 0.000000000000000000 ) ) ;
#406 = DIRECTION ( 'NONE',  ( -0.8645314244105747337, 0.000000000000000000, 0.5025787661716547561 ) ) ;
#407 = PRESENTATION_LAYER_ASSIGNMENT (  '', '', ( #1267 ) ) ;
#408 = EDGE_CURVE ( 'NONE', #292, #277, #356, .T. ) ;
#409 = DIRECTION ( 'NONE',  ( 0.000000000000000000, 0.7071067811865439090, 0.7071067811865512365 ) ) ;
#410 = ORIENTED_EDGE ( 'NONE', *, *, #104, .T. ) ;
#411 = ORIENTED_EDGE ( 'NONE', *, *, #1297, .F. ) ;
#412 = LINE ( 'NONE', #611, #1190 ) ;
#413 = AXIS2_PLACEMENT_3D ( 'NONE', #912, #1223, #275 ) ;
#414 = VECTOR ( 'NONE', #1038, 1000.000000000000000 ) ;
#415 = CARTESIAN_POINT ( 'NONE',  ( 36.47970943351467810, 0.000000000000000000, 7.774011155535677453 ) ) ;
#416 =( NAMED_UNIT ( * ) SI_UNIT ( $, .STERADIAN. ) SOLID_ANGLE_UNIT ( ) );
#417 = EDGE_LOOP ( 'NONE', ( #622, #960, #340, #411 ) ) ;
#418 = AXIS2_PLACEMENT_3D ( 'NONE', #1119, #1235, #1226 ) ;
#419 = EDGE_CURVE ( 'NONE', #1264, #909, #637, .T. ) ;
#420 = VERTEX_POINT ( 'NONE', #971 ) ;
#421 = VECTOR ( 'NONE', #648, 1000.000000000000000 ) ;
#422 = CARTESIAN_POINT ( 'NONE',  ( 7.347880794884120722E-16, 3.000000000000000000, 6.000000000000000888 ) ) ;
#423 = FACE_OUTER_BOUND ( 'NONE', #498, .T. ) ;
#424 = DIRECTION ( 'NONE',  ( 0.000000000000000000, 0.000000000000000000, 1.000000000000000000 ) ) ;
#425 = ORIENTED_EDGE ( 'NONE', *, *, #954, .F. ) ;
#426 = DIRECTION ( 'NONE',  ( -0.000000000000000000, -1.000000000000000000, -0.000000000000000000 ) ) ;
#427 = AXIS2_PLACEMENT_3D ( 'NONE', #1308, #760, #1316 ) ;
#428 = CARTESIAN_POINT ( 'NONE',  ( 1.984627196165687267E-12, 0.000000000000000000, 16.05000000000224603 ) ) ;
#429 = CARTESIAN_POINT ( 'NONE',  ( -29.56345803823052520, 3.000000000000000000, -14.04464128491001595 ) ) ;
#430 = ORIENTED_EDGE ( 'NONE', *, *, #604, .T. ) ;
#431 = FACE_BOUND ( 'NONE', #5, .T. ) ;
#432 = ORIENTED_EDGE ( 'NONE', *, *, #954, .T. ) ;
#433 = CARTESIAN_POINT ( 'NONE',  ( -29.56345803823052520, 0.000000000000000000, -14.04464128491001595 ) ) ;
#434 = ADVANCED_FACE ( 'NONE', ( #1200 ), #992, .F. ) ;
#435 = CARTESIAN_POINT ( 'NONE',  ( 1.984376143571862200E-12, 0.000000000000000000, 14.00000000000000000 ) ) ;
#436 = AXIS2_PLACEMENT_3D ( 'NONE', #373, #451, #252 ) ;
#437 = DIRECTION ( 'NONE',  ( -0.5025787661716548671, 0.000000000000000000, -0.8645314244105746226 ) ) ;
#438 = CONICAL_SURFACE ( 'NONE', #962, 6.150000000000675371, 0.7853981633974533860 ) ;
#439 = ORIENTED_EDGE ( 'NONE', *, *, #820, .F. ) ;
#440 = AXIS2_PLACEMENT_3D ( 'NONE', #243, #687, #897 ) ;
#441 = CYLINDRICAL_SURFACE ( 'NONE', #1352, 2.050000000000279154 ) ;
#442 = VERTEX_POINT ( 'NONE', #1183 ) ;
#443 = AXIS2_PLACEMENT_3D ( 'NONE', #538, #25, #203 ) ;
#444 = DIRECTION ( 'NONE',  ( -0.000000000000000000, 1.000000000000000000, -0.000000000000000000 ) ) ;
#445 = VECTOR ( 'NONE', #1276, 999.9999999999998863 ) ;
#446 = DIRECTION ( 'NONE',  ( 0.000000000000000000, 0.000000000000000000, -1.000000000000000000 ) ) ;
#447 = ADVANCED_FACE ( 'NONE', ( #1187 ), #441, .F. ) ;
#448 = DIRECTION ( 'NONE',  ( -0.000000000000000000, -1.000000000000000000, -0.000000000000000000 ) ) ;
#449 = EDGE_LOOP ( 'NONE', ( #699, #890 ) ) ;
#450 = DIRECTION ( 'NONE',  ( -0.000000000000000000, -1.000000000000000000, -0.000000000000000000 ) ) ;
#451 = DIRECTION ( 'NONE',  ( 0.000000000000000000, -1.000000000000000000, 0.000000000000000000 ) ) ;
#452 = CARTESIAN_POINT ( 'NONE',  ( 8.572527594031473190E-16, -2.000000000000000000, -7.000000000000000000 ) ) ;
#453 = EDGE_CURVE ( 'NONE', #688, #710, #857, .T. ) ;
#454 =( LENGTH_UNIT ( ) NAMED_UNIT ( * ) SI_UNIT ( .MILLI., .METRE. ) );
#455 = VERTEX_POINT ( 'NONE', #1075 ) ;
#456 = FACE_BOUND ( 'NONE', #31, .T. ) ;
#457 = VERTEX_POINT ( 'NONE', #223 ) ;
#458 = DIRECTION ( 'NONE',  ( 0.000000000000000000, 0.000000000000000000, 1.000000000000000000 ) ) ;
#459 = EDGE_CURVE ( 'NONE', #670, #222, #332, .T. ) ;
#460 = AXIS2_PLACEMENT_3D ( 'NONE', #1006, #27, #792 ) ;
#461 = DIRECTION ( 'NONE',  ( 0.000000000000000000, 0.000000000000000000, 1.000000000000000000 ) ) ;
#462 = ORIENTED_EDGE ( 'NONE', *, *, #919, .T. ) ;
#463 = DIRECTION ( 'NONE',  ( 0.000000000000000000, 0.000000000000000000, 1.000000000000000000 ) ) ;
#464 = EDGE_CURVE ( 'NONE', #1262, #186, #1056, .T. ) ;
#465 = AXIS2_PLACEMENT_3D ( 'NONE', #157, #1126, #669 ) ;
#466 = CARTESIAN_POINT ( 'NONE',  ( 0.000000000000000000, 3.000000000000000000, 0.000000000000000000 ) ) ;
#467 = CIRCLE ( 'NONE', #716, 6.000000000000000888 ) ;
#468 = DIRECTION ( 'NONE',  ( -0.000000000000000000, -1.000000000000000000, -0.000000000000000000 ) ) ;
#469 = ORIENTED_EDGE ( 'NONE', *, *, #1113, .T. ) ;
#470 = CARTESIAN_POINT ( 'NONE',  ( -12.12435565298220652, 0.000000000000000000, -6.999999999999052314 ) ) ;
#471 = EDGE_LOOP ( 'NONE', ( #34, #922, #1270, #74 ) ) ;
#472 = LINE ( 'NONE', #1015, #308 ) ;
#473 = DIRECTION ( 'NONE',  ( 0.000000000000000000, 0.000000000000000000, -1.000000000000000000 ) ) ;
#474 = CARTESIAN_POINT ( 'NONE',  ( 17.02775238427675575, 3.000000000000000000, 21.33203339439873503 ) ) ;
#475 = EDGE_LOOP ( 'NONE', ( #528, #1074 ) ) ;
#476 = PLANE ( 'NONE',  #1232 ) ;
#477 = ORIENTED_EDGE ( 'NONE', *, *, #1279, .T. ) ;
#478 = UNCERTAINTY_MEASURE_WITH_UNIT (LENGTH_MEASURE( 1.000000000000000082E-05 ), #166, 'distance_accuracy_value', 'NONE');
#479 = DIRECTION ( 'NONE',  ( 0.000000000000000000, 1.000000000000000000, 0.000000000000000000 ) ) ;
#480 = CIRCLE ( 'NONE', #798, 2.050000000002246026 ) ;
#481 = EDGE_CURVE ( 'NONE', #1288, #208, #1285, .T. ) ;
#482 = DIRECTION ( 'NONE',  ( 0.000000000000000000, 0.000000000000000000, -1.000000000000000000 ) ) ;
#483 = ORIENTED_EDGE ( 'NONE', *, *, #1142, .F. ) ;
#484 = AXIS2_PLACEMENT_3D ( 'NONE', #1053, #815, #1046 ) ;
#485 = CARTESIAN_POINT ( 'NONE',  ( 12.12435565298363116, 3.000000000000000000, 6.999999999999138467 ) ) ;
#486 = ORIENTED_EDGE ( 'NONE', *, *, #1003, .F. ) ;
#487 = CARTESIAN_POINT ( 'NONE',  ( -2.424204664961177258, 3.000000000000000000, 32.64005563326096393 ) ) ;
#488 = CIRCLE ( 'NONE', #852, 2.050000000002084821 ) ;
#489 = AXIS2_PLACEMENT_3D ( 'NONE', #1062, #523, #1360 ) ;
#490 = CARTESIAN_POINT ( 'NONE',  ( 0.000000000000000000, -2.000000000000000000, 7.000000000000000000 ) ) ;
#491 = ORIENTED_EDGE ( 'NONE', *, *, #560, .F. ) ;
#492 = ORIENTED_EDGE ( 'NONE', *, *, #1234, .F. ) ;
#493 = CARTESIAN_POINT ( 'NONE',  ( 51.80956113419082243, 0.000000000000000000, 11.52255939808626728 ) ) ;
#494 = DIRECTION ( 'NONE',  ( 0.000000000000000000, 0.000000000000000000, 1.000000000000000000 ) ) ;
#495 = AXIS2_PLACEMENT_3D ( 'NONE', #141, #1203, #1330 ) ;
#496 = EDGE_CURVE ( 'NONE', #186, #255, #329, .T. ) ;
#497 = EDGE_LOOP ( 'NONE', ( #667, #86 ) ) ;
#498 = EDGE_LOOP ( 'NONE', ( #1148, #1168, #151, #249 ) ) ;
#499 = DIRECTION ( 'NONE',  ( -0.5025787661716548671, 0.000000000000000000, -0.8645314244105746226 ) ) ;
#500 = LINE ( 'NONE', #1039, #176 ) ;
#501 = EDGE_CURVE ( 'NONE', #174, #1098, #339, .T. ) ;
#502 = LINE ( 'NONE', #605, #445 ) ;
#503 = EDGE_LOOP ( 'NONE', ( #1233, #823, #514, #1255, #930, #367 ) ) ;
#504 = ORIENTED_EDGE ( 'NONE', *, *, #408, .F. ) ;
#505 = ORIENTED_EDGE ( 'NONE', *, *, #1342, .T. ) ;
#506 = FACE_OUTER_BOUND ( 'NONE', #952, .T. ) ;
#507 = EDGE_CURVE ( 'NONE', #1264, #1292, #1213, .T. ) ;
#508 = AXIS2_PLACEMENT_3D ( 'NONE', #189, #214, #595 ) ;
#509 = CARTESIAN_POINT ( 'NONE',  ( -12.12435565298065221, 3.000000000000000000, 9.050000000002949463 ) ) ;
#510 = FILL_AREA_STYLE_COLOUR ( '', #700 ) ;
#511 = AXIS2_PLACEMENT_3D ( 'NONE', #1310, #744, #985 ) ;
#512 = CYLINDRICAL_SURFACE ( 'NONE', #943, 2.050000000000001599 ) ;
#513 = AXIS2_PLACEMENT_3D ( 'NONE', #887, #766, #211 ) ;
#514 = ORIENTED_EDGE ( 'NONE', *, *, #313, .F. ) ;
#515 = VECTOR ( 'NONE', #839, 1000.000000000000000 ) ;
#516 = ORIENTED_EDGE ( 'NONE', *, *, #1116, .T. ) ;
#517 = DIRECTION ( 'NONE',  ( 0.000000000000000000, 0.000000000000000000, 1.000000000000000000 ) ) ;
#518 = LINE ( 'NONE', #603, #239 ) ;
#519 = EDGE_CURVE ( 'NONE', #1280, #624, #1171, .T. ) ;
#520 = AXIS2_PLACEMENT_3D ( 'NONE', #61, #1156, #517 ) ;
#521 = EDGE_LOOP ( 'NONE', ( #265, #901, #1067, #1335 ) ) ;
#522 = ORIENTED_EDGE ( 'NONE', *, *, #464, .T. ) ;
#523 = DIRECTION ( 'NONE',  ( 0.000000000000000000, 1.000000000000000000, 0.000000000000000000 ) ) ;
#524 = DIRECTION ( 'NONE',  ( 0.000000000000000000, 0.000000000000000000, -1.000000000000000000 ) ) ;
#525 = ADVANCED_FACE ( 'NONE', ( #770 ), #749, .F. ) ;
#526 = ORIENTED_EDGE ( 'NONE', *, *, #604, .F. ) ;
#527 = ORIENTED_EDGE ( 'NONE', *, *, #291, .T. ) ;
#528 = ORIENTED_EDGE ( 'NONE', *, *, #9, .T. ) ;
#529 = FACE_BOUND ( 'NONE', #11, .T. ) ;
#530 = VECTOR ( 'NONE', #679, 1000.000000000000000 ) ;
#531 = VECTOR ( 'NONE', #1129, 1000.000000000000000 ) ;
#532 = CARTESIAN_POINT ( 'NONE',  ( -29.56345803823052520, 3.000000000000000000, -14.04464128491001595 ) ) ;
#533 = CARTESIAN_POINT ( 'NONE',  ( -12.12435565298065221, 0.000000000000000000, 7.000000000000865086 ) ) ;
#534 = CARTESIAN_POINT ( 'NONE',  ( 12.12435565298263462, 3.000000000000000000, -7.000000000000863309 ) ) ;
#535 = AXIS2_PLACEMENT_3D ( 'NONE', #993, #218, #321 ) ;
#536 = VERTEX_POINT ( 'NONE', #116 ) ;
#537 = CIRCLE ( 'NONE', #22, 2.050000000002084821 ) ;
#538 = CARTESIAN_POINT ( 'NONE',  ( 0.000000000000000000, 1.500000000000000000, 0.000000000000000000 ) ) ;
#539 = CARTESIAN_POINT ( 'NONE',  ( 17.02775238427675575, 0.000000000000000000, 18.18203339439795130 ) ) ;
#540 = ADVANCED_FACE ( 'NONE', ( #12, #431, #529, #1088, #122, #876, #16, #660, #128, #557, #1282, #961, #1068, #102 ), #235, .T. ) ;
#541 = DIRECTION ( 'NONE',  ( -0.000000000000000000, 1.000000000000000000, -0.000000000000000000 ) ) ;
#542 = EDGE_LOOP ( 'NONE', ( #127, #51, #556, #707 ) ) ;
#543 = DIRECTION ( 'NONE',  ( -0.000000000000000000, -1.000000000000000000, -0.000000000000000000 ) ) ;
#544 = EDGE_CURVE ( 'NONE', #457, #549, #1008, .T. ) ;
#545 = CIRCLE ( 'NONE', #998, 6.150000000000675371 ) ;
#546 = CARTESIAN_POINT ( 'NONE',  ( 33.71672555201151056, 0.000000000000000000, -19.60057188069399814 ) ) ;
#547 = CYLINDRICAL_SURFACE ( 'NONE', #134, 7.000000000000000000 ) ;
#548 = CARTESIAN_POINT ( 'NONE',  ( 1.984376143571862200E-12, 0.000000000000000000, 11.94999999999775397 ) ) ;
#549 = VERTEX_POINT ( 'NONE', #361 ) ;
#550 = CONICAL_SURFACE ( 'NONE', #1224, 6.150000000000814815, 0.7853981633974533860 ) ;
#551 = EDGE_LOOP ( 'NONE', ( #345, #516, #1370, #1216 ) ) ;
#552 = DIRECTION ( 'NONE',  ( 0.000000000000000000, -1.000000000000000000, 0.000000000000000000 ) ) ;
#553 = DIRECTION ( 'NONE',  ( -0.000000000000000000, -1.000000000000000000, -0.000000000000000000 ) ) ;
#554 = CARTESIAN_POINT ( 'NONE',  ( -26.80047415672839861, 0.000000000000000000, 15.57994175132163761 ) ) ;
#555 = AXIS2_PLACEMENT_3D ( 'NONE', #1194, #1082, #654 ) ;
#556 = ORIENTED_EDGE ( 'NONE', *, *, #1071, .F. ) ;
#557 = FACE_BOUND ( 'NONE', #600, .T. ) ;
#558 = VECTOR ( 'NONE', #190, 1000.000000000000000 ) ;
#559 = DIRECTION ( 'NONE',  ( 0.000000000000000000, 1.000000000000000000, 0.000000000000000000 ) ) ;
#560 = EDGE_CURVE ( 'NONE', #771, #615, #666, .T. ) ;
#561 = LINE ( 'NONE', #1219, #118 ) ;
#562 = ORIENTED_EDGE ( 'NONE', *, *, #1041, .T. ) ;
#563 = DIRECTION ( 'NONE',  ( 0.000000000000000000, 0.000000000000000000, 1.000000000000000000 ) ) ;
#564 = DIRECTION ( 'NONE',  ( -0.000000000000000000, 1.000000000000000000, -0.000000000000000000 ) ) ;
#565 = DIRECTION ( 'NONE',  ( 0.000000000000000000, 1.000000000000000000, 0.000000000000000000 ) ) ;
#566 = EDGE_CURVE ( 'NONE', #1128, #1081, #129, .T. ) ;
#567 = LINE ( 'NONE', #1004, #1086 ) ;
#568 = ORIENTED_EDGE ( 'NONE', *, *, #544, .T. ) ;
#569 = CARTESIAN_POINT ( 'NONE',  ( 0.000000000000000000, 0.000000000000000000, 0.000000000000000000 ) ) ;
#570 = CARTESIAN_POINT ( 'NONE',  ( 0.000000000000000000, 0.000000000000000000, -14.00000000000000000 ) ) ;
#571 = CIRCLE ( 'NONE', #683, 2.050000000000279154 ) ;
#572 = DIRECTION ( 'NONE',  ( 0.000000000000000000, 0.000000000000000000, -1.000000000000000000 ) ) ;
#573 = VERTEX_POINT ( 'NONE', #138 ) ;
#574 = FACE_BOUND ( 'NONE', #38, .T. ) ;
#575 = ORIENTED_EDGE ( 'NONE', *, *, #935, .F. ) ;
#576 = CARTESIAN_POINT ( 'NONE',  ( 1.984627196165687267E-12, 3.000000000000000000, 16.05000000000224603 ) ) ;
#577 = AXIS2_PLACEMENT_3D ( 'NONE', #296, #850, #494 ) ;
#578 = EDGE_CURVE ( 'NONE', #615, #771, #307, .T. ) ;
#579 = DIRECTION ( 'NONE',  ( 0.000000000000000000, 1.000000000000000000, 0.000000000000000000 ) ) ;
#580 = ORIENTED_EDGE ( 'NONE', *, *, #330, .T. ) ;
#581 = FACE_BOUND ( 'NONE', #1225, .T. ) ;
#582 = ORIENTED_EDGE ( 'NONE', *, *, #481, .F. ) ;
#583 = DIRECTION ( 'NONE',  ( 0.000000000000000000, 0.000000000000000000, -1.000000000000000000 ) ) ;
#584 = ADVANCED_FACE ( 'NONE', ( #908 ), #33, .T. ) ;
#585 = CARTESIAN_POINT ( 'NONE',  ( 9.340456060245351466, 3.000000000000000000, -36.66068576263447198 ) ) ;
#586 = ORIENTED_EDGE ( 'NONE', *, *, #164, .T. ) ;
#587 = CARTESIAN_POINT ( 'NONE',  ( -29.56345803823052520, 0.000000000000000000, -16.29464128491055064 ) ) ;
#588 = VERTEX_POINT ( 'NONE', #1221 ) ;
#589 = CARTESIAN_POINT ( 'NONE',  ( -10.11150098899258865, 3.000000000000000000, -25.35266352377224663 ) ) ;
#590 = CIRCLE ( 'NONE', #780, 3.150000000000645173 ) ;
#591 = VERTEX_POINT ( 'NONE', #999 ) ;
#592 = VECTOR ( 'NONE', #806, 1000.000000000000000 ) ;
#593 = CYLINDRICAL_SURFACE ( 'NONE', #394, 2.050000000001470646 ) ;
#594 = ORIENTED_EDGE ( 'NONE', *, *, #923, .T. ) ;
#595 = DIRECTION ( 'NONE',  ( 0.000000000000000000, 0.000000000000000000, 1.000000000000000000 ) ) ;
#596 = LINE ( 'NONE', #1386, #153 ) ;
#597 = AXIS2_PLACEMENT_3D ( 'NONE', #695, #1005, #162 ) ;
#598 = EDGE_CURVE ( 'NONE', #841, #909, #915, .T. ) ;
#599 = CARTESIAN_POINT ( 'NONE',  ( 9.340456060245351466, 3.000000000000000000, -34.41068576263367618 ) ) ;
#600 = EDGE_LOOP ( 'NONE', ( #206, #384 ) ) ;
#601 = ORIENTED_EDGE ( 'NONE', *, *, #673, .F. ) ;
#602 = DIRECTION ( 'NONE',  ( 0.000000000000000000, 0.000000000000000000, 1.000000000000000000 ) ) ;
#603 = CARTESIAN_POINT ( 'NONE',  ( 18.09283558217933319, 3.000000000000000000, 31.12313127878027075 ) ) ;
#604 = EDGE_CURVE ( 'NONE', #1262, #630, #1338, .T. ) ;
#605 = CARTESIAN_POINT ( 'NONE',  ( -26.80047415672839861, 0.000000000000000000, 15.57994175132163761 ) ) ;
#606 = ORIENTED_EDGE ( 'NONE', *, *, #820, .T. ) ;
#607 = CARTESIAN_POINT ( 'NONE',  ( 9.340456060245351466, 3.000000000000000000, -36.66068576263447198 ) ) ;
#608 = EDGE_CURVE ( 'NONE', #167, #1220, #1281, .T. ) ;
#609 = VERTEX_POINT ( 'NONE', #587 ) ;
#610 = CARTESIAN_POINT ( 'NONE',  ( -29.56345803823052520, 0.000000000000000000, -11.79464128490947772 ) ) ;
#611 = CARTESIAN_POINT ( 'NONE',  ( 17.02775238427675575, 3.000000000000000000, 15.18203339439792110 ) ) ;
#612 = LINE ( 'NONE', #1048, #398 ) ;
#613 = ORIENTED_EDGE ( 'NONE', *, *, #63, .F. ) ;
#614 = ORIENTED_EDGE ( 'NONE', *, *, #1297, .T. ) ;
#615 = VERTEX_POINT ( 'NONE', #1024 ) ;
#616 = DIRECTION ( 'NONE',  ( 0.000000000000000000, -1.000000000000000000, 0.000000000000000000 ) ) ;
#617 = AXIS2_PLACEMENT_3D ( 'NONE', #932, #1373, #1366 ) ;
#618 = CARTESIAN_POINT ( 'NONE',  ( -26.80047415672839861, 3.000000000000000000, 15.57994175132163761 ) ) ;
#619 = FACE_OUTER_BOUND ( 'NONE', #404, .T. ) ;
#620 = ADVANCED_FACE ( 'NONE', ( #1345, #581, #53, #574, #1010, #803, #902, #784, #456, #1132, #1324, #366, #797, #58 ), #476, .F. ) ;
#621 = ORIENTED_EDGE ( 'NONE', *, *, #1003, .T. ) ;
#622 = ORIENTED_EDGE ( 'NONE', *, *, #1178, .F. ) ;
#623 = AXIS2_PLACEMENT_3D ( 'NONE', #628, #297, #1040 ) ;
#624 = VERTEX_POINT ( 'NONE', #266 ) ;
#625 = PLANE ( 'NONE',  #1034 ) ;
#626 = EDGE_CURVE ( 'NONE', #310, #802, #1210, .T. ) ;
#627 = VECTOR ( 'NONE', #1354, 1000.000000000000000 ) ;
#628 = CARTESIAN_POINT ( 'NONE',  ( 9.340456060245351466, 3.000000000000000000, -36.66068576263447198 ) ) ;
#629 = ORIENTED_EDGE ( 'NONE', *, *, #378, .T. ) ;
#630 = VERTEX_POINT ( 'NONE', #884 ) ;
#631 = DIRECTION ( 'NONE',  ( 0.000000000000000000, 0.000000000000000000, 1.000000000000000000 ) ) ;
#632 = CIRCLE ( 'NONE', #32, 2.250000000000556888 ) ;
#633 = PLANE ( 'NONE',  #894 ) ;
#634 = DIRECTION ( 'NONE',  ( 0.000000000000000000, -0.000000000000000000, 1.000000000000000000 ) ) ;
#635 = LINE ( 'NONE', #403, #647 ) ;
#636 = ORIENTED_EDGE ( 'NONE', *, *, #519, .T. ) ;
#637 = LINE ( 'NONE', #866, #714 ) ;
#638 = CIRCLE ( 'NONE', #1051, 2.050000000001470646 ) ;
#639 = CARTESIAN_POINT ( 'NONE',  ( -10.11150098899258865, 0.000000000000000000, -22.20266352377160146 ) ) ;
#640 = APPLICATION_CONTEXT ( 'automotive_design' ) ;
#641 = EDGE_CURVE ( 'NONE', #849, #323, #1391, .T. ) ;
#642 = DIRECTION ( 'NONE',  ( -0.000000000000000000, -1.000000000000000000, -0.000000000000000000 ) ) ;
#643 = ADVANCED_FACE ( 'NONE', ( #39 ), #1206, .F. ) ;
#644 = SURFACE_SIDE_STYLE ('',( #727 ) ) ;
#645 = AXIS2_PLACEMENT_3D ( 'NONE', #322, #642, #1109 ) ;
#646 = ORIENTED_EDGE ( 'NONE', *, *, #501, .T. ) ;
#647 = VECTOR ( 'NONE', #842, 1000.000000000000114 ) ;
#648 = DIRECTION ( 'NONE',  ( 0.000000000000000000, 1.000000000000000000, 0.000000000000000000 ) ) ;
#649 = ADVANCED_FACE ( 'NONE', ( #914 ), #593, .F. ) ;
#650 = CARTESIAN_POINT ( 'NONE',  ( 12.12435565298263462, 0.000000000000000000, -7.000000000000863309 ) ) ;
#651 = LINE ( 'NONE', #758, #1256 ) ;
#652 = DIRECTION ( 'NONE',  ( 0.000000000000000000, 0.000000000000000000, -1.000000000000000000 ) ) ;
#653 = ORIENTED_EDGE ( 'NONE', *, *, #1108, .T. ) ;
#654 = DIRECTION ( 'NONE',  ( 0.000000000000000000, 0.000000000000000000, -1.000000000000000000 ) ) ;
#655 = FACE_OUTER_BOUND ( 'NONE', #417, .T. ) ;
#656 = CARTESIAN_POINT ( 'NONE',  ( -2.424204664961176814, 3.000000000000000000, 34.89005563326152526 ) ) ;
#657 = DIRECTION ( 'NONE',  ( 0.000000000000000000, 0.000000000000000000, 1.000000000000000000 ) ) ;
#658 = VERTEX_POINT ( 'NONE', #1031 ) ;
#659 = ADVANCED_FACE ( 'NONE', ( #271 ), #812, .F. ) ;
#660 = FACE_BOUND ( 'NONE', #1161, .T. ) ;
#661 = CARTESIAN_POINT ( 'NONE',  ( -12.12435565298065221, 0.000000000000000000, 7.000000000000865086 ) ) ;
#662 = CIRCLE ( 'NONE', #169, 2.050000000002246026 ) ;
#663 = CIRCLE ( 'NONE', #1121, 7.000000000000000000 ) ;
#664 = CARTESIAN_POINT ( 'NONE',  ( 51.80956113419082243, 3.000000000000000000, 11.52255939808626728 ) ) ;
#665 =( NAMED_UNIT ( * ) PLANE_ANGLE_UNIT ( ) SI_UNIT ( $, .RADIAN. ) );
#666 = CIRCLE ( 'NONE', #1055, 2.050000000001470646 ) ;
#667 = ORIENTED_EDGE ( 'NONE', *, *, #133, .F. ) ;
#668 = CIRCLE ( 'NONE', #65, 7.000000000000000000 ) ;
#669 = DIRECTION ( 'NONE',  ( 0.000000000000000000, -0.000000000000000000, 1.000000000000000000 ) ) ;
#670 = VERTEX_POINT ( 'NONE', #131 ) ;
#671 = AXIS2_PLACEMENT_3D ( 'NONE', #1302, #450, #631 ) ;
#672 = CARTESIAN_POINT ( 'NONE',  ( -12.12435565298220652, 0.000000000000000000, -4.949999999997841016 ) ) ;
#673 = EDGE_CURVE ( 'NONE', #588, #836, #752, .T. ) ;
#674 = CARTESIAN_POINT ( 'NONE',  ( 7.347880794884120722E-16, 1.500000000000000000, 6.000000000000000888 ) ) ;
#675 = PLANE ( 'NONE',  #294 ) ;
#676 = EDGE_LOOP ( 'NONE', ( #1155, #318 ) ) ;
#677 = DIRECTION ( 'NONE',  ( 0.000000000000000000, 0.000000000000000000, 1.000000000000000000 ) ) ;
#678 = CYLINDRICAL_SURFACE ( 'NONE', #150, 2.050000000001470646 ) ;
#679 = DIRECTION ( 'NONE',  ( -0.5025787661716545340, 0.000000000000000000, -0.8645314244105748447 ) ) ;
#680 = ORIENTED_EDGE ( 'NONE', *, *, #686, .F. ) ;
#681 = DIRECTION ( 'NONE',  ( 0.000000000000000000, 1.000000000000000000, 0.000000000000000000 ) ) ;
#682 = FACE_OUTER_BOUND ( 'NONE', #471, .T. ) ;
#683 = AXIS2_PLACEMENT_3D ( 'NONE', #1222, #479, #35 ) ;
#684 = CARTESIAN_POINT ( 'NONE',  ( -2.424204664961176814, 0.000000000000000000, 34.89005563326152526 ) ) ;
#685 = ORIENTED_EDGE ( 'NONE', *, *, #363, .T. ) ;
#686 = EDGE_CURVE ( 'NONE', #200, #588, #1295, .T. ) ;
#687 = DIRECTION ( 'NONE',  ( -0.000000000000000000, 1.000000000000000000, -0.000000000000000000 ) ) ;
#688 = VERTEX_POINT ( 'NONE', #210 ) ;
#689 = AXIS2_PLACEMENT_3D ( 'NONE', #46, #250, #563 ) ;
#690 = LINE ( 'NONE', #244, #531 ) ;
#691 = VECTOR ( 'NONE', #303, 1000.000000000000000 ) ;
#692 = AXIS2_PLACEMENT_3D ( 'NONE', #305, #1376, #77 ) ;
#693 = CARTESIAN_POINT ( 'NONE',  ( -2.424204664961177258, 0.000000000000000000, 30.39005563326040971 ) ) ;
#694 = ORIENTED_EDGE ( 'NONE', *, *, #1089, .F. ) ;
#695 = CARTESIAN_POINT ( 'NONE',  ( 36.47970943351467810, 0.000000000000000000, 10.02401115553650079 ) ) ;
#696 = ORIENTED_EDGE ( 'NONE', *, *, #20, .F. ) ;
#697 = LINE ( 'NONE', #1327, #592 ) ;
#698 = DIRECTION ( 'NONE',  ( 0.000000000000000000, 1.000000000000000000, 0.000000000000000000 ) ) ;
#699 = ORIENTED_EDGE ( 'NONE', *, *, #464, .F. ) ;
#700 = COLOUR_RGB ( '',0.8980392156862745390, 0.9176470588235293713, 0.9294117647058823817 ) ;
#701 = DIRECTION ( 'NONE',  ( 0.000000000000000000, 0.000000000000000000, -1.000000000000000000 ) ) ;
#702 = VERTEX_POINT ( 'NONE', #639 ) ;
#703 = ADVANCED_FACE ( 'NONE', ( #1284, #224 ), #117, .T. ) ;
#704 = LINE ( 'NONE', #844, #1277 ) ;
#705 = CARTESIAN_POINT ( 'NONE',  ( -29.56345803823052520, 3.000000000000000000, -11.79464128490947772 ) ) ;
#706 = CARTESIAN_POINT ( 'NONE',  ( 1.984376143571862200E-12, 3.000000000000000000, 14.00000000000000000 ) ) ;
#707 = ORIENTED_EDGE ( 'NONE', *, *, #1361, .T. ) ;
#708 = AXIS2_PLACEMENT_3D ( 'NONE', #910, #348, #1347 ) ;
#709 = EDGE_CURVE ( 'NONE', #1145, #60, #1304, .T. ) ;
#710 = VERTEX_POINT ( 'NONE', #1076 ) ;
#711 = DIRECTION ( 'NONE',  ( -0.000000000000000000, -1.000000000000000000, -0.000000000000000000 ) ) ;
#712 = CARTESIAN_POINT ( 'NONE',  ( -12.12435565298065221, 0.000000000000000000, 4.949999999998779820 ) ) ;
#713 = VECTOR ( 'NONE', #231, 1000.000000000000000 ) ;
#714 = VECTOR ( 'NONE', #324, 1000.000000000000000 ) ;
#715 = ADVANCED_FACE ( 'NONE', ( #757 ), #772, .F. ) ;
#716 = AXIS2_PLACEMENT_3D ( 'NONE', #1173, #846, #524 ) ;
#717 = FACE_OUTER_BOUND ( 'NONE', #1214, .T. ) ;
#718 = CYLINDRICAL_SURFACE ( 'NONE', #1237, 2.250000000000799805 ) ;
#719 = VERTEX_POINT ( 'NONE', #7 ) ;
#720 = LINE ( 'NONE', #1380, #1240 ) ;
#721 = CARTESIAN_POINT ( 'NONE',  ( 1.984376143571862200E-12, 3.000000000000000000, 14.00000000000000000 ) ) ;
#722 = FACE_OUTER_BOUND ( 'NONE', #1050, .T. ) ;
#723 = AXIS2_PLACEMENT_3D ( 'NONE', #1198, #125, #982 ) ;
#724 = VERTEX_POINT ( 'NONE', #314 ) ;
#725 = ORIENTED_EDGE ( 'NONE', *, *, #519, .F. ) ;
#726 = ORIENTED_EDGE ( 'NONE', *, *, #264, .T. ) ;
#727 = SURFACE_STYLE_FILL_AREA ( #183 ) ;
#728 = EDGE_CURVE ( 'NONE', #193, #170, #805, .T. ) ;
#729 = SURFACE_SIDE_STYLE ('',( #304 ) ) ;
#730 = CARTESIAN_POINT ( 'NONE',  ( 0.000000000000000000, 0.000000000000000000, 0.000000000000000000 ) ) ;
#731 = DIRECTION ( 'NONE',  ( 0.000000000000000000, 1.000000000000000000, 0.000000000000000000 ) ) ;
#732 = CIRCLE ( 'NONE', #413, 2.250000000000824230 ) ;
#733 = EDGE_CURVE ( 'NONE', #323, #849, #194, .T. ) ;
#734 = ORIENTED_EDGE ( 'NONE', *, *, #1113, .F. ) ;
#735 = DIRECTION ( 'NONE',  ( 0.8645314244105746226, 0.000000000000000000, -0.5025787661716548671 ) ) ;
#736 = CARTESIAN_POINT ( 'NONE',  ( -2.424204664961177258, 3.000000000000000000, 30.39005563326040971 ) ) ;
#737 = AXIS2_PLACEMENT_3D ( 'NONE', #1105, #1112, #1332 ) ;
#738 = CIRCLE ( 'NONE', #917, 6.150000000000675371 ) ;
#739 = CARTESIAN_POINT ( 'NONE',  ( 0.000000000000000000, 3.000000000000000000, -14.00000000000000000 ) ) ;
#740 = ORIENTED_EDGE ( 'NONE', *, *, #963, .T. ) ;
#741 = CIRCLE ( 'NONE', #1077, 2.050000000002246026 ) ;
#742 = VERTEX_POINT ( 'NONE', #539 ) ;
#743 = ORIENTED_EDGE ( 'NONE', *, *, #1071, .T. ) ;
#744 = DIRECTION ( 'NONE',  ( 0.000000000000000000, 1.000000000000000000, 0.000000000000000000 ) ) ;
#745 = DIRECTION ( 'NONE',  ( 0.000000000000000000, 0.000000000000000000, -1.000000000000000000 ) ) ;
#746 = DIRECTION ( 'NONE',  ( 0.000000000000000000, 0.000000000000000000, -1.000000000000000000 ) ) ;
#747 = FACE_OUTER_BOUND ( 'NONE', #1176, .T. ) ;
#748 = EDGE_LOOP ( 'NONE', ( #1125, #594 ) ) ;
#749 = CYLINDRICAL_SURFACE ( 'NONE', #555, 2.050000000000001599 ) ;
#750 = VECTOR ( 'NONE', #698, 1000.000000000000000 ) ;
#751 = EDGE_CURVE ( 'NONE', #1280, #170, #205, .T. ) ;
#752 = LINE ( 'NONE', #863, #965 ) ;
#753 = CARTESIAN_POINT ( 'NONE',  ( 36.47970943351467810, 3.000000000000000000, 12.27401115553732502 ) ) ;
#754 = EDGE_LOOP ( 'NONE', ( #57, #783, #430, #365 ) ) ;
#755 = DIRECTION ( 'NONE',  ( 0.000000000000000000, 0.000000000000000000, -1.000000000000000000 ) ) ;
#756 = AXIS2_PLACEMENT_3D ( 'NONE', #362, #1320, #1000 ) ;
#757 = FACE_OUTER_BOUND ( 'NONE', #542, .T. ) ;
#758 = CARTESIAN_POINT ( 'NONE',  ( -2.424204664961176814, 3.000000000000000000, 34.89005563326152526 ) ) ;
#759 = ADVANCED_FACE ( 'NONE', ( #1312 ), #633, .T. ) ;
#760 = DIRECTION ( 'NONE',  ( 0.000000000000000000, 1.000000000000000000, 0.000000000000000000 ) ) ;
#761 = EDGE_LOOP ( 'NONE', ( #377, #636, #606, #195 ) ) ;
#762 = AXIS2_PLACEMENT_3D ( 'NONE', #3, #395, #746 ) ;
#763 = DIRECTION ( 'NONE',  ( 0.000000000000000000, 0.000000000000000000, 1.000000000000000000 ) ) ;
#764 = DIRECTION ( 'NONE',  ( 0.000000000000000000, 0.000000000000000000, 1.000000000000000000 ) ) ;
#765 = CARTESIAN_POINT ( 'NONE',  ( 0.000000000000000000, 0.000000000000000000, 0.000000000000000000 ) ) ;
#766 = DIRECTION ( 'NONE',  ( 0.000000000000000000, -1.000000000000000000, 0.000000000000000000 ) ) ;
#767 = ADVANCED_FACE ( 'NONE', ( #423 ), #1290, .F. ) ;
#768 = AXIS2_PLACEMENT_3D ( 'NONE', #487, #872, #226 ) ;
#769 = VERTEX_POINT ( 'NONE', #428 ) ;
#770 = FACE_OUTER_BOUND ( 'NONE', #1032, .T. ) ;
#771 = VERTEX_POINT ( 'NONE', #987 ) ;
#772 = PLANE ( 'NONE',  #535 ) ;
#773 = EDGE_CURVE ( 'NONE', #1072, #609, #829, .T. ) ;
#774 = DIRECTION ( 'NONE',  ( 0.000000000000000000, 1.000000000000000000, 0.000000000000000000 ) ) ;
#775 = FACE_OUTER_BOUND ( 'NONE', #1371, .T. ) ;
#776 = EDGE_LOOP ( 'NONE', ( #811, #24, #301, #1227, #743, #276 ) ) ;
#777 = DIRECTION ( 'NONE',  ( 0.000000000000000000, 0.000000000000000000, -1.000000000000000000 ) ) ;
#778 = EDGE_CURVE ( 'NONE', #161, #1287, #668, .T. ) ;
#779 = CARTESIAN_POINT ( 'NONE',  ( 12.12435565298363116, 3.000000000000000000, 4.949999999997667821 ) ) ;
#780 = AXIS2_PLACEMENT_3D ( 'NONE', #1144, #579, #1007 ) ;
#781 = CARTESIAN_POINT ( 'NONE',  ( 6.123233995736766282E-16, 1.500000000000000000, -5.000000000000000000 ) ) ;
#782 = CARTESIAN_POINT ( 'NONE',  ( -12.12435565298065221, 0.000000000000000000, 9.050000000002949463 ) ) ;
#783 = ORIENTED_EDGE ( 'NONE', *, *, #184, .T. ) ;
#784 = FACE_BOUND ( 'NONE', #1016, .T. ) ;
#785 = AXIS2_PLACEMENT_3D ( 'NONE', #1258, #82, #838 ) ;
#786 = DIRECTION ( 'NONE',  ( 0.000000000000000000, 0.000000000000000000, -1.000000000000000000 ) ) ;
#787 = SHAPE_DEFINITION_REPRESENTATION ( #1318, #192 ) ;
#788 = CARTESIAN_POINT ( 'NONE',  ( 1.984376143571862200E-12, 0.000000000000000000, 14.00000000000000000 ) ) ;
#789 = ORIENTED_EDGE ( 'NONE', *, *, #855, .T. ) ;
#790 = EDGE_CURVE ( 'NONE', #317, #1193, #488, .T. ) ;
#791 = CARTESIAN_POINT ( 'NONE',  ( 12.12435565298363116, 3.000000000000000000, 6.999999999999138467 ) ) ;
#792 = DIRECTION ( 'NONE',  ( 0.000000000000000000, 0.000000000000000000, -1.000000000000000000 ) ) ;
#793 = CARTESIAN_POINT ( 'NONE',  ( -29.56345803823052520, 0.000000000000000000, -14.04464128491001595 ) ) ;
#794 = ADVANCED_FACE ( 'NONE', ( #655 ), #1349, .F. ) ;
#795 = DIRECTION ( 'NONE',  ( 0.000000000000000000, 0.000000000000000000, -1.000000000000000000 ) ) ;
#796 = EDGE_LOOP ( 'NONE', ( #522, #95, #1022, #526 ) ) ;
#797 = FACE_OUTER_BOUND ( 'NONE', #776, .T. ) ;
#798 = AXIS2_PLACEMENT_3D ( 'NONE', #706, #1334, #160 ) ;
#799 = ORIENTED_EDGE ( 'NONE', *, *, #1356, .T. ) ;
#800 = CYLINDRICAL_SURFACE ( 'NONE', #756, 2.250000000000536460 ) ;
#801 = CARTESIAN_POINT ( 'NONE',  ( 0.000000000000000000, 1.500000000000000000, -6.000000000000000888 ) ) ;
#802 = VERTEX_POINT ( 'NONE', #415 ) ;
#803 = FACE_BOUND ( 'NONE', #97, .T. ) ;
#804 = ORIENTED_EDGE ( 'NONE', *, *, #245, .T. ) ;
#805 = CIRCLE ( 'NONE', #1189, 2.050000000000279154 ) ;
#806 = DIRECTION ( 'NONE',  ( -0.000000000000000000, 1.000000000000000000, -0.000000000000000000 ) ) ;
#807 = AXIS2_PLACEMENT_3D ( 'NONE', #232, #870, #140 ) ;
#808 = CIRCLE ( 'NONE', #199, 2.050000000001211298 ) ;
#809 = DIRECTION ( 'NONE',  ( 0.000000000000000000, -1.000000000000000000, 0.000000000000000000 ) ) ;
#810 = EDGE_CURVE ( 'NONE', #573, #945, #738, .T. ) ;
#811 = ORIENTED_EDGE ( 'NONE', *, *, #93, .F. ) ;
#812 = CYLINDRICAL_SURFACE ( 'NONE', #19, 5.000000000000000000 ) ;
#813 = EDGE_LOOP ( 'NONE', ( #1061, #462, #492, #483 ) ) ;
#814 =( GEOMETRIC_REPRESENTATION_CONTEXT ( 3 ) GLOBAL_UNCERTAINTY_ASSIGNED_CONTEXT ( ( #130 ) ) GLOBAL_UNIT_ASSIGNED_CONTEXT ( ( #454, #665, #1299 ) ) REPRESENTATION_CONTEXT ( 'NONE', 'WORKASPACE' ) );
#815 = DIRECTION ( 'NONE',  ( 0.000000000000000000, 1.000000000000000000, 0.000000000000000000 ) ) ;
#816 = CARTESIAN_POINT ( 'NONE',  ( -2.424204664961177258, 3.000000000000000000, 32.64005563326096393 ) ) ;
#817 = ORIENTED_EDGE ( 'NONE', *, *, #790, .T. ) ;
#818 = ORIENTED_EDGE ( 'NONE', *, *, #126, .F. ) ;
#819 = CARTESIAN_POINT ( 'NONE',  ( 9.340456060245351466, 0.000000000000000000, -34.41068576263367618 ) ) ;
#820 = EDGE_CURVE ( 'NONE', #624, #193, #472, .T. ) ;
#821 = LINE ( 'NONE', #509, #1011 ) ;
#822 = CYLINDRICAL_SURFACE ( 'NONE', #59, 2.050000000002084821 ) ;
#823 = ORIENTED_EDGE ( 'NONE', *, *, #374, .F. ) ;
#824 = EDGE_LOOP ( 'NONE', ( #1344, #469 ) ) ;
#825 = AXIS2_PLACEMENT_3D ( 'NONE', #171, #827, #1272 ) ;
#826 = ORIENTED_EDGE ( 'NONE', *, *, #1367, .F. ) ;
#827 = DIRECTION ( 'NONE',  ( -0.000000000000000000, -1.000000000000000000, -0.000000000000000000 ) ) ;
#828 = DIRECTION ( 'NONE',  ( -0.5025787661716548671, 0.000000000000000000, -0.8645314244105746226 ) ) ;
#829 = CIRCLE ( 'NONE', #1102, 2.250000000000536460 ) ;
#830 = CIRCLE ( 'NONE', #2, 6.000000000000000888 ) ;
#831 = AXIS2_PLACEMENT_3D ( 'NONE', #1278, #854, #306 ) ;
#832 = LINE ( 'NONE', #94, #515 ) ;
#833 = EDGE_LOOP ( 'NONE', ( #913, #1346 ) ) ;
#834 = ORIENTED_EDGE ( 'NONE', *, *, #336, .T. ) ;
#835 = ADVANCED_FACE ( 'NONE', ( #682 ), #438, .F. ) ;
#836 = VERTEX_POINT ( 'NONE', #152 ) ;
#837 = LINE ( 'NONE', #1265, #627 ) ;
#838 = DIRECTION ( 'NONE',  ( 0.000000000000000000, 0.000000000000000000, -1.000000000000000000 ) ) ;
#839 = DIRECTION ( 'NONE',  ( -0.000000000000000000, -1.000000000000000000, -0.000000000000000000 ) ) ;
#840 = EDGE_CURVE ( 'NONE', #724, #1009, #283, .T. ) ;
#841 = VERTEX_POINT ( 'NONE', #1333 ) ;
#842 = DIRECTION ( 'NONE',  ( -0.8645314244105746226, 0.000000000000000000, 0.5025787661716547561 ) ) ;
#843 = ORIENTED_EDGE ( 'NONE', *, *, #773, .F. ) ;
#844 = CARTESIAN_POINT ( 'NONE',  ( 12.12435565298363116, 3.000000000000000000, 9.050000000000610001 ) ) ;
#845 = PRESENTATION_STYLE_ASSIGNMENT (( #1163 ) ) ;
#846 = DIRECTION ( 'NONE',  ( 0.000000000000000000, -1.000000000000000000, 0.000000000000000000 ) ) ;
#847 = ORIENTED_EDGE ( 'NONE', *, *, #330, .F. ) ;
#848 = AXIS2_PLACEMENT_3D ( 'NONE', #221, #448, #652 ) ;
#849 = VERTEX_POINT ( 'NONE', #268 ) ;
#850 = DIRECTION ( 'NONE',  ( 0.000000000000000000, 1.000000000000000000, 0.000000000000000000 ) ) ;
#851 = CARTESIAN_POINT ( 'NONE',  ( -8.707638574549065424, 0.000000000000000000, 46.70307303010191191 ) ) ;
#852 = AXIS2_PLACEMENT_3D ( 'NONE', #661, #858, #764 ) ;
#853 = CARTESIAN_POINT ( 'NONE',  ( -10.11150098899258865, 3.000000000000000000, -25.35266352377224663 ) ) ;
#854 = DIRECTION ( 'NONE',  ( 0.000000000000000000, -1.000000000000000000, 0.000000000000000000 ) ) ;
#855 = EDGE_CURVE ( 'NONE', #161, #1288, #697, .T. ) ;
#856 = ORIENTED_EDGE ( 'NONE', *, *, #212, .F. ) ;
#857 = LINE ( 'NONE', #216, #1103 ) ;
#858 = DIRECTION ( 'NONE',  ( 0.000000000000000000, 1.000000000000000000, 0.000000000000000000 ) ) ;
#859 = FACE_OUTER_BOUND ( 'NONE', #1104, .T. ) ;
#860 = ORIENTED_EDGE ( 'NONE', *, *, #320, .T. ) ;
#861 = DIRECTION ( 'NONE',  ( -0.000000000000000000, -1.000000000000000000, -0.000000000000000000 ) ) ;
#862 = EDGE_CURVE ( 'NONE', #883, #1098, #892, .T. ) ;
#863 = CARTESIAN_POINT ( 'NONE',  ( -18.09283558217978083, 3.000000000000000000, -31.12313127878105590 ) ) ;
#864 = CARTESIAN_POINT ( 'NONE',  ( 17.02775238427675575, 3.000000000000000000, 15.18203339439792110 ) ) ;
#865 = EDGE_LOOP ( 'NONE', ( #938, #397, #685, #432 ) ) ;
#866 = CARTESIAN_POINT ( 'NONE',  ( -12.12435565298220652, 3.000000000000000000, -4.949999999997841016 ) ) ;
#867 = ORIENTED_EDGE ( 'NONE', *, *, #1361, .F. ) ;
#868 = CIRCLE ( 'NONE', #708, 2.250000000000799805 ) ;
#869 = DIRECTION ( 'NONE',  ( 0.000000000000000000, -0.000000000000000000, -1.000000000000000000 ) ) ;
#870 = DIRECTION ( 'NONE',  ( 0.000000000000000000, 1.000000000000000000, 0.000000000000000000 ) ) ;
#871 = AXIS2_PLACEMENT_3D ( 'NONE', #470, #681, #677 ) ;
#872 = DIRECTION ( 'NONE',  ( 0.000000000000000000, -1.000000000000000000, 0.000000000000000000 ) ) ;
#873 = CIRCLE ( 'NONE', #942, 2.050000000002246026 ) ;
#874 = ORIENTED_EDGE ( 'NONE', *, *, #1099, .T. ) ;
#875 = AXIS2_PLACEMENT_3D ( 'NONE', #534, #731, #1065 ) ;
#876 = FACE_BOUND ( 'NONE', #1118, .T. ) ;
#877 = ORIENTED_EDGE ( 'NONE', *, *, #164, .F. ) ;
#878 = DIRECTION ( 'NONE',  ( 0.000000000000000000, -1.000000000000000000, 0.000000000000000000 ) ) ;
#879 = CARTESIAN_POINT ( 'NONE',  ( 12.12435565298263462, 0.000000000000000000, -9.050000000001142908 ) ) ;
#880 = PRESENTATION_LAYER_ASSIGNMENT (  '', '', ( #1313 ) ) ;
#881 = ADVANCED_FACE ( 'NONE', ( #355 ), #904, .F. ) ;
#882 = LINE ( 'NONE', #1322, #96 ) ;
#883 = VERTEX_POINT ( 'NONE', #1217 ) ;
#884 = CARTESIAN_POINT ( 'NONE',  ( 0.000000000000000000, -2.000000000000000000, -6.000000000000000888 ) ) ;
#885 = ORIENTED_EDGE ( 'NONE', *, *, #351, .F. ) ;
#886 = CARTESIAN_POINT ( 'NONE',  ( -10.11150098899258865, 3.000000000000000000, -31.50266352377292023 ) ) ;
#887 = CARTESIAN_POINT ( 'NONE',  ( 0.000000000000000000, -2.000000000000000000, 0.000000000000000000 ) ) ;
#888 = ORIENTED_EDGE ( 'NONE', *, *, #274, .F. ) ;
#889 = DIRECTION ( 'NONE',  ( 0.000000000000000000, 1.000000000000000000, 0.000000000000000000 ) ) ;
#890 = ORIENTED_EDGE ( 'NONE', *, *, #184, .F. ) ;
#891 = DIRECTION ( 'NONE',  ( -0.000000000000000000, -1.000000000000000000, -0.000000000000000000 ) ) ;
#892 = CIRCLE ( 'NONE', #959, 5.000000000000000000 ) ;
#893 = PRESENTATION_STYLE_ASSIGNMENT (( #120 ) ) ;
#894 = AXIS2_PLACEMENT_3D ( 'NONE', #546, #979, #964 ) ;
#895 = ORIENTED_EDGE ( 'NONE', *, *, #598, .F. ) ;
#896 = ADVANCED_FACE ( 'NONE', ( #899 ), #800, .F. ) ;
#897 = DIRECTION ( 'NONE',  ( 0.000000000000000000, 0.000000000000000000, 1.000000000000000000 ) ) ;
#898 = CIRCLE ( 'NONE', #513, 6.000000000000000888 ) ;
#899 = FACE_OUTER_BOUND ( 'NONE', #551, .T. ) ;
#900 = CARTESIAN_POINT ( 'NONE',  ( 12.12435565298263462, 3.000000000000000000, -4.950000000000583711 ) ) ;
#901 = ORIENTED_EDGE ( 'NONE', *, *, #49, .F. ) ;
#902 = FACE_BOUND ( 'NONE', #676, .T. ) ;
#903 = EDGE_LOOP ( 'NONE', ( #621, #66, #1253, #284 ) ) ;
#904 = CYLINDRICAL_SURFACE ( 'NONE', #279, 2.050000000001210410 ) ;
#905 = MECHANICAL_DESIGN_GEOMETRIC_PRESENTATION_REPRESENTATION (  '', ( #1267 ), #1021 ) ;
#906 = CYLINDRICAL_SURFACE ( 'NONE', #300, 2.250000000000556888 ) ;
#907 = EDGE_LOOP ( 'NONE', ( #694, #1175, #272, #1390 ) ) ;
#908 = FACE_OUTER_BOUND ( 'NONE', #1311, .T. ) ;
#909 = VERTEX_POINT ( 'NONE', #672 ) ;
#910 = CARTESIAN_POINT ( 'NONE',  ( 9.340456060245351466, 0.000000000000000000, -36.66068576263447198 ) ) ;
#911 = EDGE_CURVE ( 'NONE', #170, #193, #571, .T. ) ;
#912 = CARTESIAN_POINT ( 'NONE',  ( 36.47970943351467810, 3.000000000000000000, 10.02401115553650079 ) ) ;
#913 = ORIENTED_EDGE ( 'NONE', *, *, #862, .F. ) ;
#914 = FACE_OUTER_BOUND ( 'NONE', #101, .T. ) ;
#915 = CIRCLE ( 'NONE', #871, 2.050000000001211298 ) ;
#916 = EDGE_LOOP ( 'NONE', ( #1049, #946, #163, #121 ) ) ;
#917 = AXIS2_PLACEMENT_3D ( 'NONE', #589, #1107, #458 ) ;
#918 = CARTESIAN_POINT ( 'NONE',  ( 2.510525938252073693E-16, 0.000000000000000000, -11.95000000000000107 ) ) ;
#919 = EDGE_CURVE ( 'NONE', #658, #769, #238, .T. ) ;
#920 = CIRCLE ( 'NONE', #785, 2.250000000000824230 ) ;
#921 = DIRECTION ( 'NONE',  ( -0.000000000000000000, -1.000000000000000000, -0.000000000000000000 ) ) ;
#922 = ORIENTED_EDGE ( 'NONE', *, *, #1294, .F. ) ;
#923 = EDGE_CURVE ( 'NONE', #1081, #1128, #1073, .T. ) ;
#924 = ORIENTED_EDGE ( 'NONE', *, *, #728, .F. ) ;
#925 = CARTESIAN_POINT ( 'NONE',  ( -26.80047415672839861, 0.000000000000000000, 15.57994175132163761 ) ) ;
#926 = CARTESIAN_POINT ( 'NONE',  ( 36.47970943351467810, 3.000000000000000000, 12.27401115553732502 ) ) ;
#927 = DIRECTION ( 'NONE',  ( -0.000000000000000000, 1.000000000000000000, -0.000000000000000000 ) ) ;
#928 = AXIS2_PLACEMENT_3D ( 'NONE', #585, #262, #1362 ) ;
#929 = EDGE_LOOP ( 'NONE', ( #562, #228 ) ) ;
#930 = ORIENTED_EDGE ( 'NONE', *, *, #673, .T. ) ;
#931 = ORIENTED_EDGE ( 'NONE', *, *, #1167, .F. ) ;
#932 = CARTESIAN_POINT ( 'NONE',  ( -10.11150098899258865, 0.000000000000000000, -25.35266352377224663 ) ) ;
#933 = LINE ( 'NONE', #926, #691 ) ;
#934 = CARTESIAN_POINT ( 'NONE',  ( -2.424204664961177258, 3.000000000000000000, 32.64005563326096393 ) ) ;
#935 = EDGE_CURVE ( 'NONE', #591, #836, #690, .T. ) ;
#936 = EDGE_LOOP ( 'NONE', ( #370, #347, #287, #997 ) ) ;
#937 = CIRCLE ( 'NONE', #484, 2.050000000002084821 ) ;
#938 = ORIENTED_EDGE ( 'NONE', *, *, #197, .F. ) ;
#939 = PLANE ( 'NONE',  #1207 ) ;
#940 = CARTESIAN_POINT ( 'NONE',  ( 33.71672555201151056, 3.000000000000000000, -19.60057188069399814 ) ) ;
#941 = ADVANCED_FACE ( 'NONE', ( #159 ), #678, .F. ) ;
#942 = AXIS2_PLACEMENT_3D ( 'NONE', #721, #1157, #1170 ) ;
#943 = AXIS2_PLACEMENT_3D ( 'NONE', #739, #1070, #105 ) ;
#944 = DIRECTION ( 'NONE',  ( 0.000000000000000000, 0.000000000000000000, 1.000000000000000000 ) ) ;
#945 = VERTEX_POINT ( 'NONE', #886 ) ;
#946 = ORIENTED_EDGE ( 'NONE', *, *, #197, .T. ) ;
#947 = CYLINDRICAL_SURFACE ( 'NONE', #83, 5.000000000000000000 ) ;
#948 = MECHANICAL_DESIGN_GEOMETRIC_PRESENTATION_REPRESENTATION (  '', ( #1313 ), #814 ) ;
#949 = DIRECTION ( 'NONE',  ( 0.000000000000000000, 0.000000000000000000, -1.000000000000000000 ) ) ;
#950 = EDGE_LOOP ( 'NONE', ( #15, #188, #860, #818 ) ) ;
#951 = ORIENTED_EDGE ( 'NONE', *, *, #1336, .F. ) ;
#952 = EDGE_LOOP ( 'NONE', ( #799, #575, #613, #957 ) ) ;
#953 = DIRECTION ( 'NONE',  ( -0.000000000000000000, -1.000000000000000000, -0.000000000000000000 ) ) ;
#954 = EDGE_CURVE ( 'NONE', #1243, #1271, #1028, .T. ) ;
#955 = FACE_OUTER_BOUND ( 'NONE', #907, .T. ) ;
#956 = ORIENTED_EDGE ( 'NONE', *, *, #286, .F. ) ;
#957 = ORIENTED_EDGE ( 'NONE', *, *, #187, .T. ) ;
#958 = VECTOR ( 'NONE', #1029, 1000.000000000000000 ) ;
#959 = AXIS2_PLACEMENT_3D ( 'NONE', #466, #259, #48 ) ;
#960 = ORIENTED_EDGE ( 'NONE', *, *, #286, .T. ) ;
#961 = FACE_BOUND ( 'NONE', #89, .T. ) ;
#962 = AXIS2_PLACEMENT_3D ( 'NONE', #1238, #564, #139 ) ;
#963 = EDGE_CURVE ( 'NONE', #147, #420, #638, .T. ) ;
#964 = DIRECTION ( 'NONE',  ( -0.5025787661716546451, 0.000000000000000000, -0.8645314244105747337 ) ) ;
#965 = VECTOR ( 'NONE', #341, 1000.000000000000114 ) ;
#966 = VECTOR ( 'NONE', #358, 1000.000000000000000 ) ;
#967 = CARTESIAN_POINT ( 'NONE',  ( -8.707638574549065424, 3.000000000000000000, 46.70307303010191191 ) ) ;
#968 = AXIS2_PLACEMENT_3D ( 'NONE', #198, #209, #763 ) ;
#969 = EDGE_CURVE ( 'NONE', #1009, #724, #868, .T. ) ;
#970 = ORIENTED_EDGE ( 'NONE', *, *, #30, .T. ) ;
#971 = CARTESIAN_POINT ( 'NONE',  ( 12.12435565298363116, 0.000000000000000000, 4.949999999997667821 ) ) ;
#972 = CARTESIAN_POINT ( 'NONE',  ( 12.12435565298263462, 3.000000000000000000, -4.950000000000583711 ) ) ;
#973 =( NAMED_UNIT ( * ) PLANE_ANGLE_UNIT ( ) SI_UNIT ( $, .RADIAN. ) );
#974 = DIRECTION ( 'NONE',  ( 0.000000000000000000, 0.000000000000000000, 1.000000000000000000 ) ) ;
#975 = CARTESIAN_POINT ( 'NONE',  ( 0.000000000000000000, 0.000000000000000000, -16.05000000000000071 ) ) ;
#976 = ORIENTED_EDGE ( 'NONE', *, *, #1027, .F. ) ;
#977 = DIRECTION ( 'NONE',  ( -0.000000000000000000, -1.000000000000000000, -0.000000000000000000 ) ) ;
#978 = PRODUCT_DEFINITION_FORMATION_WITH_SPECIFIED_SOURCE ( '任何', '', #18, .NOT_KNOWN. ) ;
#979 = DIRECTION ( 'NONE',  ( 0.8645314244105747337, 0.000000000000000000, -0.5025787661716546451 ) ) ;
#980 =( NAMED_UNIT ( * ) SI_UNIT ( $, .STERADIAN. ) SOLID_ANGLE_UNIT ( ) );
#981 = LINE ( 'NONE', #1341, #966 ) ;
#982 = DIRECTION ( 'NONE',  ( 0.000000000000000000, 0.000000000000000000, 1.000000000000000000 ) ) ;
#983 = EDGE_CURVE ( 'NONE', #771, #420, #165, .T. ) ;
#984 = ORIENTED_EDGE ( 'NONE', *, *, #419, .T. ) ;
#985 = DIRECTION ( 'NONE',  ( 0.000000000000000000, 0.000000000000000000, 1.000000000000000000 ) ) ;
#986 = VERTEX_POINT ( 'NONE', #493 ) ;
#987 = CARTESIAN_POINT ( 'NONE',  ( 12.12435565298363116, 3.000000000000000000, 4.949999999997667821 ) ) ;
#988 = EDGE_CURVE ( 'NONE', #455, #945, #178, .T. ) ;
#989 = FACE_OUTER_BOUND ( 'NONE', #950, .T. ) ;
#990 = AXIS2_PLACEMENT_3D ( 'NONE', #1002, #119, #36 ) ;
#991 = ORIENTED_EDGE ( 'NONE', *, *, #20, .T. ) ;
#992 = CYLINDRICAL_SURFACE ( 'NONE', #1127, 6.000000000000000888 ) ;
#993 = CARTESIAN_POINT ( 'NONE',  ( 18.09283558217933319, 0.000000000000000000, 31.12313127878027075 ) ) ;
#994 = LINE ( 'NONE', #335, #155 ) ;
#995 = CIRCLE ( 'NONE', #768, 2.250000000000556888 ) ;
#996 = CARTESIAN_POINT ( 'NONE',  ( -2.424204664961177258, 3.000000000000000000, 30.39005563326040971 ) ) ;
#997 = ORIENTED_EDGE ( 'NONE', *, *, #963, .F. ) ;
#998 = AXIS2_PLACEMENT_3D ( 'NONE', #14, #327, #657 ) ;
#999 = CARTESIAN_POINT ( 'NONE',  ( -44.89330973890818655, 0.000000000000000000, -15.54318952745941829 ) ) ;
#1000 = DIRECTION ( 'NONE',  ( 0.000000000000000000, 0.000000000000000000, -1.000000000000000000 ) ) ;
#1001 = PRODUCT_CONTEXT ( 'NONE', #227, 'mechanical' ) ;
#1002 = CARTESIAN_POINT ( 'NONE',  ( 0.000000000000000000, 3.000000000000000000, 0.000000000000000000 ) ) ;
#1003 = EDGE_CURVE ( 'NONE', #277, #292, #937, .T. ) ;
#1004 = CARTESIAN_POINT ( 'NONE',  ( 0.000000000000000000, 1.500000000000000000, 5.000000000000000000 ) ) ;
#1005 = DIRECTION ( 'NONE',  ( 0.000000000000000000, -1.000000000000000000, 0.000000000000000000 ) ) ;
#1006 = CARTESIAN_POINT ( 'NONE',  ( -2.424204664961177258, 0.000000000000000000, 32.64005563326096393 ) ) ;
#1007 = DIRECTION ( 'NONE',  ( 0.000000000000000000, 0.000000000000000000, 1.000000000000000000 ) ) ;
#1008 = CIRCLE ( 'NONE', #737, 2.049999999999999822 ) ;
#1009 = VERTEX_POINT ( 'NONE', #819 ) ;
#1010 = FACE_BOUND ( 'NONE', #1106, .T. ) ;
#1011 = VECTOR ( 'NONE', #1141, 1000.000000000000000 ) ;
#1012 = EDGE_CURVE ( 'NONE', #615, #147, #704, .T. ) ;
#1013 = ORIENTED_EDGE ( 'NONE', *, *, #1084, .F. ) ;
#1014 = CIRCLE ( 'NONE', #1057, 34.00000000000000000 ) ;
#1015 = CARTESIAN_POINT ( 'NONE',  ( 12.12435565298263462, 3.000000000000000000, -9.050000000001142908 ) ) ;
#1016 = EDGE_LOOP ( 'NONE', ( #817, #410 ) ) ;
#1017 = DIRECTION ( 'NONE',  ( -0.000000000000000000, -1.000000000000000000, -0.000000000000000000 ) ) ;
#1018 = ORIENTED_EDGE ( 'NONE', *, *, #1342, .F. ) ;
#1019 =( GEOMETRIC_REPRESENTATION_CONTEXT ( 3 ) GLOBAL_UNCERTAINTY_ASSIGNED_CONTEXT ( ( #478 ) ) GLOBAL_UNIT_ASSIGNED_CONTEXT ( ( #166, #387, #416 ) ) REPRESENTATION_CONTEXT ( 'NONE', 'WORKASPACE' ) );
#1020 = CARTESIAN_POINT ( 'NONE',  ( 12.12435565298363116, 0.000000000000000000, 6.999999999999138467 ) ) ;
#1021 =( GEOMETRIC_REPRESENTATION_CONTEXT ( 3 ) GLOBAL_UNCERTAINTY_ASSIGNED_CONTEXT ( ( #354 ) ) GLOBAL_UNIT_ASSIGNED_CONTEXT ( ( #1275, #973, #980 ) ) REPRESENTATION_CONTEXT ( 'NONE', 'WORKASPACE' ) );
#1022 = ORIENTED_EDGE ( 'NONE', *, *, #172, .T. ) ;
#1023 = ADVANCED_FACE ( 'NONE', ( #1140 ), #1244, .F. ) ;
#1024 = CARTESIAN_POINT ( 'NONE',  ( 12.12435565298363116, 3.000000000000000000, 9.050000000000610001 ) ) ;
#1025 = ORIENTED_EDGE ( 'NONE', *, *, #911, .T. ) ;
#1026 = DIRECTION ( 'NONE',  ( -0.000000000000000000, -1.000000000000000000, -0.000000000000000000 ) ) ;
#1027 = EDGE_CURVE ( 'NONE', #208, #1288, #663, .T. ) ;
#1028 = CIRCLE ( 'NONE', #460, 2.250000000000556888 ) ;
#1029 = DIRECTION ( 'NONE',  ( 0.000000000000000000, 0.7071067811865439090, 0.7071067811865512365 ) ) ;
#1030 = ORIENTED_EDGE ( 'NONE', *, *, #566, .F. ) ;
#1031 = CARTESIAN_POINT ( 'NONE',  ( 1.984627196165687267E-12, 3.000000000000000000, 16.05000000000224603 ) ) ;
#1032 = EDGE_LOOP ( 'NONE', ( #804, #653, #1030, #877 ) ) ;
#1033 = FACE_OUTER_BOUND ( 'NONE', #521, .T. ) ;
#1034 = AXIS2_PLACEMENT_3D ( 'NONE', #70, #1381, #406 ) ;
#1035 = CARTESIAN_POINT ( 'NONE',  ( -33.81860468844985235, 0.000000000000000000, 3.507417415472174671 ) ) ;
#1036 = VERTEX_POINT ( 'NONE', #91 ) ;
#1037 = ORIENTED_EDGE ( 'NONE', *, *, #578, .F. ) ;
#1038 = DIRECTION ( 'NONE',  ( -0.000000000000000000, -1.000000000000000000, -0.000000000000000000 ) ) ;
#1039 = CARTESIAN_POINT ( 'NONE',  ( -12.12435565298220652, 3.000000000000000000, -9.050000000000261835 ) ) ;
#1040 = DIRECTION ( 'NONE',  ( 0.000000000000000000, 0.000000000000000000, -1.000000000000000000 ) ) ;
#1041 = EDGE_CURVE ( 'NONE', #536, #742, #213, .T. ) ;
#1042 = ORIENTED_EDGE ( 'NONE', *, *, #453, .T. ) ;
#1043 = ORIENTED_EDGE ( 'NONE', *, *, #560, .T. ) ;
#1044 = ADVANCED_FACE ( 'NONE', ( #1033 ), #947, .F. ) ;
#1045 = ORIENTED_EDGE ( 'NONE', *, *, #393, .F. ) ;
#1046 = DIRECTION ( 'NONE',  ( 0.000000000000000000, 0.000000000000000000, 1.000000000000000000 ) ) ;
#1047 = LINE ( 'NONE', #736, #1329 ) ;
#1048 = CARTESIAN_POINT ( 'NONE',  ( -10.11150098899258865, 3.000000000000000000, -19.20266352377156949 ) ) ;
#1049 = ORIENTED_EDGE ( 'NONE', *, *, #608, .F. ) ;
#1050 = EDGE_LOOP ( 'NONE', ( #1303, #1263, #970, #1350 ) ) ;
#1051 = AXIS2_PLACEMENT_3D ( 'NONE', #1020, #40, #55 ) ;
#1052 = EDGE_LOOP ( 'NONE', ( #601, #680, #1133, #142 ) ) ;
#1053 = CARTESIAN_POINT ( 'NONE',  ( -12.12435565298065221, 3.000000000000000000, 7.000000000000865086 ) ) ;
#1054 = CARTESIAN_POINT ( 'NONE',  ( 17.02775238427675575, 3.000000000000000000, 21.33203339439873503 ) ) ;
#1055 = AXIS2_PLACEMENT_3D ( 'NONE', #1215, #256, #463 ) ;
#1056 = CIRCLE ( 'NONE', #443, 6.000000000000000888 ) ;
#1057 = AXIS2_PLACEMENT_3D ( 'NONE', #730, #185, #944 ) ;
#1058 = CARTESIAN_POINT ( 'NONE',  ( -12.12435565298220652, 0.000000000000000000, -6.999999999999052314 ) ) ;
#1059 = EDGE_LOOP ( 'NONE', ( #399, #72 ) ) ;
#1060 = EDGE_LOOP ( 'NONE', ( #991, #156, #924, #439 ) ) ;
#1061 = ORIENTED_EDGE ( 'NONE', *, *, #393, .T. ) ;
#1062 = CARTESIAN_POINT ( 'NONE',  ( -12.12435565298220652, 3.000000000000000000, -6.999999999999052314 ) ) ;
#1063 = ADVANCED_FACE ( 'NONE', ( #506 ), #939, .F. ) ;
#1064 = FACE_BOUND ( 'NONE', #824, .T. ) ;
#1065 = DIRECTION ( 'NONE',  ( 0.000000000000000000, 0.000000000000000000, 1.000000000000000000 ) ) ;
#1066 = EDGE_CURVE ( 'NONE', #1364, #1009, #69, .T. ) ;
#1067 = ORIENTED_EDGE ( 'NONE', *, *, #1218, .T. ) ;
#1068 = FACE_BOUND ( 'NONE', #181, .T. ) ;
#1069 = DIRECTION ( 'NONE',  ( 0.000000000000000000, 1.000000000000000000, 0.000000000000000000 ) ) ;
#1070 = DIRECTION ( 'NONE',  ( -0.000000000000000000, -1.000000000000000000, -0.000000000000000000 ) ) ;
#1071 = EDGE_CURVE ( 'NONE', #986, #1145, #1257, .T. ) ;
#1072 = VERTEX_POINT ( 'NONE', #610 ) ;
#1073 = CIRCLE ( 'NONE', #1143, 2.049999999999999822 ) ;
#1074 = ORIENTED_EDGE ( 'NONE', *, *, #778, .T. ) ;
#1075 = CARTESIAN_POINT ( 'NONE',  ( -10.11150098899258865, 0.000000000000000000, -28.50266352377289181 ) ) ;
#1076 = CARTESIAN_POINT ( 'NONE',  ( -19.78234362500693422, 3.000000000000000000, 27.65246608717109567 ) ) ;
#1077 = AXIS2_PLACEMENT_3D ( 'NONE', #435, #774, #113 ) ;
#1078 = LINE ( 'NONE', #349, #21 ) ;
#1079 = AXIS2_PLACEMENT_3D ( 'NONE', #934, #1180, #949 ) ;
#1080 = CARTESIAN_POINT ( 'NONE',  ( 0.000000000000000000, 1.500000000000000000, 5.000000000000000000 ) ) ;
#1081 = VERTEX_POINT ( 'NONE', #918 ) ;
#1082 = DIRECTION ( 'NONE',  ( -0.000000000000000000, -1.000000000000000000, -0.000000000000000000 ) ) ;
#1083 = DIRECTION ( 'NONE',  ( 0.000000000000000000, -1.000000000000000000, 0.000000000000000000 ) ) ;
#1084 = EDGE_CURVE ( 'NONE', #1145, #688, #1250, .T. ) ;
#1085 = CARTESIAN_POINT ( 'NONE',  ( 15.62388996983173151, 0.000000000000000000, -50.72370315947505759 ) ) ;
#1086 = VECTOR ( 'NONE', #233, 1000.000000000000000 ) ;
#1087 = ORIENTED_EDGE ( 'NONE', *, *, #810, .T. ) ;
#1088 = FACE_BOUND ( 'NONE', #1326, .T. ) ;
#1089 = EDGE_CURVE ( 'NONE', #455, #702, #1230, .T. ) ;
#1090 = PRODUCT_DEFINITION_CONTEXT ( 'detailed design', #640, 'design' ) ;
#1091 = CARTESIAN_POINT ( 'NONE',  ( 1.984376143571862200E-12, 3.000000000000000000, 14.00000000000000000 ) ) ;
#1092 = DIRECTION ( 'NONE',  ( 0.000000000000000000, 0.000000000000000000, 1.000000000000000000 ) ) ;
#1093 = LINE ( 'NONE', #1197, #1305 ) ;
#1094 = DIRECTION ( 'NONE',  ( -0.000000000000000000, -1.000000000000000000, -0.000000000000000000 ) ) ;
#1095 = EDGE_LOOP ( 'NONE', ( #834, #740 ) ) ;
#1096 = DIRECTION ( 'NONE',  ( 0.000000000000000000, 0.000000000000000000, -1.000000000000000000 ) ) ;
#1097 = VECTOR ( 'NONE', #1208, 1000.000000000000000 ) ;
#1098 = VERTEX_POINT ( 'NONE', #392 ) ;
#1099 = EDGE_CURVE ( 'NONE', #1036, #1364, #28, .T. ) ;
#1100 = DIRECTION ( 'NONE',  ( 0.000000000000000000, 1.000000000000000000, 0.000000000000000000 ) ) ;
#1101 = CARTESIAN_POINT ( 'NONE',  ( 0.000000000000000000, 0.000000000000000000, 7.000000000000000000 ) ) ;
#1102 = AXIS2_PLACEMENT_3D ( 'NONE', #433, #552, #1195 ) ;
#1103 = VECTOR ( 'NONE', #1392, 1000.000000000000000 ) ;
#1104 = EDGE_LOOP ( 'NONE', ( #1309, #789, #360, #331 ) ) ;
#1105 = CARTESIAN_POINT ( 'NONE',  ( 0.000000000000000000, 3.000000000000000000, -14.00000000000000000 ) ) ;
#1106 = EDGE_LOOP ( 'NONE', ( #888, #843 ) ) ;
#1107 = DIRECTION ( 'NONE',  ( -0.000000000000000000, -1.000000000000000000, -0.000000000000000000 ) ) ;
#1108 = EDGE_CURVE ( 'NONE', #457, #1081, #720, .T. ) ;
#1109 = DIRECTION ( 'NONE',  ( 0.000000000000000000, 0.000000000000000000, -1.000000000000000000 ) ) ;
#1110 = DIRECTION ( 'NONE',  ( 0.8645314244105746226, 0.000000000000000000, -0.5025787661716548671 ) ) ;
#1111 = ORIENTED_EDGE ( 'NONE', *, *, #1367, .T. ) ;
#1112 = DIRECTION ( 'NONE',  ( 0.000000000000000000, 1.000000000000000000, 0.000000000000000000 ) ) ;
#1113 = EDGE_CURVE ( 'NONE', #174, #1236, #1378, .T. ) ;
#1114 = EDGE_LOOP ( 'NONE', ( #108, #1025 ) ) ;
#1115 = CARTESIAN_POINT ( 'NONE',  ( 12.12435565298363116, 3.000000000000000000, 6.999999999999138467 ) ) ;
#1116 = EDGE_CURVE ( 'NONE', #323, #1072, #837, .T. ) ;
#1117 = CARTESIAN_POINT ( 'NONE',  ( -26.80047415672839861, 3.000000000000000000, 15.57994175132163761 ) ) ;
#1118 = EDGE_LOOP ( 'NONE', ( #388, #107 ) ) ;
#1119 = CARTESIAN_POINT ( 'NONE',  ( -2.424204664961177258, 3.000000000000000000, 32.64005563326096393 ) ) ;
#1120 = CARTESIAN_POINT ( 'NONE',  ( -12.12435565298220652, 3.000000000000000000, -6.999999999999052314 ) ) ;
#1121 = AXIS2_PLACEMENT_3D ( 'NONE', #405, #711, #602 ) ;
#1122 = MANIFOLD_SOLID_BREP ( '倒角2', #334 ) ;
#1123 = FACE_OUTER_BOUND ( 'NONE', #1241, .T. ) ;
#1124 = AXIS2_PLACEMENT_3D ( 'NONE', #1289, #319, #312 ) ;
#1125 = ORIENTED_EDGE ( 'NONE', *, *, #566, .T. ) ;
#1126 = DIRECTION ( 'NONE',  ( 0.000000000000000000, 1.000000000000000000, 0.000000000000000000 ) ) ;
#1127 = AXIS2_PLACEMENT_3D ( 'NONE', #229, #977, #755 ) ;
#1128 = VERTEX_POINT ( 'NONE', #975 ) ;
#1129 = DIRECTION ( 'NONE',  ( 0.000000000000000000, 1.000000000000000000, 0.000000000000000000 ) ) ;
#1130 = LINE ( 'NONE', #1343, #530 ) ;
#1131 = ORIENTED_EDGE ( 'NONE', *, *, #281, .T. ) ;
#1132 = FACE_BOUND ( 'NONE', #1095, .T. ) ;
#1133 = ORIENTED_EDGE ( 'NONE', *, *, #4, .T. ) ;
#1134 = DIRECTION ( 'NONE',  ( -0.000000000000000000, -1.000000000000000000, -0.000000000000000000 ) ) ;
#1135 = EDGE_CURVE ( 'NONE', #1220, #167, #995, .T. ) ;
#1136 = AXIS2_PLACEMENT_3D ( 'NONE', #369, #1348, #795 ) ;
#1137 = ORIENTED_EDGE ( 'NONE', *, *, #1249, .T. ) ;
#1138 = CARTESIAN_POINT ( 'NONE',  ( 1.984376143571862200E-12, 3.000000000000000000, 14.00000000000000000 ) ) ;
#1139 = ORIENTED_EDGE ( 'NONE', *, *, #1066, .T. ) ;
#1140 = FACE_OUTER_BOUND ( 'NONE', #1199, .T. ) ;
#1141 = DIRECTION ( 'NONE',  ( -0.000000000000000000, -1.000000000000000000, -0.000000000000000000 ) ) ;
#1142 = EDGE_CURVE ( 'NONE', #719, #1166, #882, .T. ) ;
#1143 = AXIS2_PLACEMENT_3D ( 'NONE', #570, #144, #1228 ) ;
#1144 = CARTESIAN_POINT ( 'NONE',  ( -10.11150098899258865, 0.000000000000000000, -25.35266352377224663 ) ) ;
#1145 = VERTEX_POINT ( 'NONE', #241 ) ;
#1146 = ORIENTED_EDGE ( 'NONE', *, *, #626, .F. ) ;
#1147 = VECTOR ( 'NONE', #1100, 1000.000000000000000 ) ;
#1148 = ORIENTED_EDGE ( 'NONE', *, *, #919, .F. ) ;
#1149 = DIRECTION ( 'NONE',  ( 0.000000000000000000, 1.000000000000000000, 0.000000000000000000 ) ) ;
#1150 = CARTESIAN_POINT ( 'NONE',  ( -12.12435565298065221, 3.000000000000000000, 9.050000000002949463 ) ) ;
#1151 = CIRCLE ( 'NONE', #692, 5.000000000000000000 ) ;
#1152 = ADVANCED_FACE ( 'NONE', ( #350 ), #10, .F. ) ;
#1153 = FACE_OUTER_BOUND ( 'NONE', #449, .T. ) ;
#1154 = EDGE_LOOP ( 'NONE', ( #486, #504 ) ) ;
#1155 = ORIENTED_EDGE ( 'NONE', *, *, #598, .T. ) ;
#1156 = DIRECTION ( 'NONE',  ( 0.000000000000000000, 1.000000000000000000, 0.000000000000000000 ) ) ;
#1157 = DIRECTION ( 'NONE',  ( 0.000000000000000000, 1.000000000000000000, 0.000000000000000000 ) ) ;
#1158 = PRODUCT_RELATED_PRODUCT_CATEGORY ( 'part', '', ( #18 ) ) ;
#1159 = CYLINDRICAL_SURFACE ( 'NONE', #1079, 2.250000000000556888 ) ;
#1160 = ORIENTED_EDGE ( 'NONE', *, *, #1191, .T. ) ;
#1161 = EDGE_LOOP ( 'NONE', ( #491, #1037 ) ) ;
#1162 = CARTESIAN_POINT ( 'NONE',  ( 9.340456060245351466, 3.000000000000000000, -36.66068576263447198 ) ) ;
#1163 = SURFACE_STYLE_USAGE ( .BOTH. , #729 ) ;
#1164 = DIRECTION ( 'NONE',  ( -0.000000000000000000, -1.000000000000000000, -0.000000000000000000 ) ) ;
#1165 = ORIENTED_EDGE ( 'NONE', *, *, #1116, .F. ) ;
#1166 = VERTEX_POINT ( 'NONE', #548 ) ;
#1167 = EDGE_CURVE ( 'NONE', #372, #710, #248, .T. ) ;
#1168 = ORIENTED_EDGE ( 'NONE', *, *, #1336, .T. ) ;
#1169 = DIRECTION ( 'NONE',  ( -0.8645314244105746226, 0.000000000000000000, 0.5025787661716548671 ) ) ;
#1170 = DIRECTION ( 'NONE',  ( 0.000000000000000000, 0.000000000000000000, 1.000000000000000000 ) ) ;
#1171 = CIRCLE ( 'NONE', #511, 2.050000000000279154 ) ;
#1172 = CIRCLE ( 'NONE', #577, 2.050000000001470646 ) ;
#1173 = CARTESIAN_POINT ( 'NONE',  ( 0.000000000000000000, -2.000000000000000000, 0.000000000000000000 ) ) ;
#1174 = ADVANCED_FACE ( 'NONE', ( #775 ), #337, .T. ) ;
#1175 = ORIENTED_EDGE ( 'NONE', *, *, #988, .T. ) ;
#1176 = EDGE_LOOP ( 'NONE', ( #1018, #1139, #293, #175 ) ) ;
#1177 = CARTESIAN_POINT ( 'NONE',  ( 17.02775238427675575, 3.000000000000000000, 21.33203339439873503 ) ) ;
#1178 = EDGE_CURVE ( 'NONE', #742, #536, #52, .T. ) ;
#1179 = DIRECTION ( 'NONE',  ( 0.000000000000000000, 1.000000000000000000, 0.000000000000000000 ) ) ;
#1180 = DIRECTION ( 'NONE',  ( -0.000000000000000000, -1.000000000000000000, -0.000000000000000000 ) ) ;
#1181 = ORIENTED_EDGE ( 'NONE', *, *, #1205, .T. ) ;
#1182 = ORIENTED_EDGE ( 'NONE', *, *, #291, .F. ) ;
#1183 = CARTESIAN_POINT ( 'NONE',  ( 36.47970943351467810, 3.000000000000000000, 7.774011155535677453 ) ) ;
#1184 = DIRECTION ( 'NONE',  ( 0.000000000000000000, 0.000000000000000000, 1.000000000000000000 ) ) ;
#1185 = CARTESIAN_POINT ( 'NONE',  ( 0.000000000000000000, -2.000000000000000000, 0.000000000000000000 ) ) ;
#1186 = ORIENTED_EDGE ( 'NONE', *, *, #641, .F. ) ;
#1187 = FACE_OUTER_BOUND ( 'NONE', #1060, .T. ) ;
#1188 = CARTESIAN_POINT ( 'NONE',  ( 0.000000000000000000, -2.000000000000000000, 0.000000000000000000 ) ) ;
#1189 = AXIS2_PLACEMENT_3D ( 'NONE', #650, #1179, #1201 ) ;
#1190 = VECTOR ( 'NONE', #179, 1000.000000000000000 ) ;
#1191 = EDGE_CURVE ( 'NONE', #945, #573, #545, .T. ) ;
#1192 = DIRECTION ( 'NONE',  ( -0.000000000000000000, -1.000000000000000000, -0.000000000000000000 ) ) ;
#1193 = VERTEX_POINT ( 'NONE', #782 ) ;
#1194 = CARTESIAN_POINT ( 'NONE',  ( 0.000000000000000000, 3.000000000000000000, -14.00000000000000000 ) ) ;
#1195 = DIRECTION ( 'NONE',  ( 0.000000000000000000, 0.000000000000000000, -1.000000000000000000 ) ) ;
#1196 = AXIS2_PLACEMENT_3D ( 'NONE', #1162, #616, #288 ) ;
#1197 = CARTESIAN_POINT ( 'NONE',  ( -33.81860468844985235, 0.000000000000000000, 3.507417415472174671 ) ) ;
#1198 = CARTESIAN_POINT ( 'NONE',  ( 17.02775238427675575, 0.000000000000000000, 21.33203339439873503 ) ) ;
#1199 = EDGE_LOOP ( 'NONE', ( #847, #527, #390, #856 ) ) ;
#1200 = FACE_OUTER_BOUND ( 'NONE', #796, .T. ) ;
#1201 = DIRECTION ( 'NONE',  ( 0.000000000000000000, 0.000000000000000000, 1.000000000000000000 ) ) ;
#1202 = CARTESIAN_POINT ( 'NONE',  ( 0.000000000000000000, 3.000000000000000000, 0.000000000000000000 ) ) ;
#1203 = DIRECTION ( 'NONE',  ( -0.000000000000000000, -1.000000000000000000, -0.000000000000000000 ) ) ;
#1204 = ORIENTED_EDGE ( 'NONE', *, *, #336, .F. ) ;
#1205 = EDGE_CURVE ( 'NONE', #849, #609, #561, .T. ) ;
#1206 = CYLINDRICAL_SURFACE ( 'NONE', #41, 2.050000000002246026 ) ;
#1207 = AXIS2_PLACEMENT_3D ( 'NONE', #925, #735, #400 ) ;
#1208 = DIRECTION ( 'NONE',  ( -0.000000000000000000, -1.000000000000000000, -0.000000000000000000 ) ) ;
#1209 = DIRECTION ( 'NONE',  ( -0.000000000000000000, -1.000000000000000000, -0.000000000000000000 ) ) ;
#1210 = CIRCLE ( 'NONE', #597, 2.250000000000824230 ) ;
#1211 = FACE_OUTER_BOUND ( 'NONE', #258, .T. ) ;
#1212 = ADVANCED_FACE ( 'NONE', ( #1211 ), #675, .F. ) ;
#1213 = CIRCLE ( 'NONE', #1124, 2.050000000001211298 ) ;
#1214 = EDGE_LOOP ( 'NONE', ( #1165, #1186, #1181, #158 ) ) ;
#1215 = CARTESIAN_POINT ( 'NONE',  ( 12.12435565298363116, 3.000000000000000000, 6.999999999999138467 ) ) ;
#1216 = ORIENTED_EDGE ( 'NONE', *, *, #1205, .F. ) ;
#1217 = CARTESIAN_POINT ( 'NONE',  ( 0.000000000000000000, 3.000000000000000000, 5.000000000000000000 ) ) ;
#1218 = EDGE_CURVE ( 'NONE', #1236, #883, #567, .T. ) ;
#1219 = CARTESIAN_POINT ( 'NONE',  ( -29.56345803823052520, 3.000000000000000000, -16.29464128491055064 ) ) ;
#1220 = VERTEX_POINT ( 'NONE', #996 ) ;
#1221 = CARTESIAN_POINT ( 'NONE',  ( 15.62388996983173151, 3.000000000000000000, -50.72370315947505759 ) ) ;
#1222 = CARTESIAN_POINT ( 'NONE',  ( 12.12435565298263462, 0.000000000000000000, -7.000000000000863309 ) ) ;
#1223 = DIRECTION ( 'NONE',  ( 0.000000000000000000, -1.000000000000000000, 0.000000000000000000 ) ) ;
#1224 = AXIS2_PLACEMENT_3D ( 'NONE', #474, #927, #44 ) ;
#1225 = EDGE_LOOP ( 'NONE', ( #79, #267 ) ) ;
#1226 = DIRECTION ( 'NONE',  ( 0.000000000000000000, 0.000000000000000000, -1.000000000000000000 ) ) ;
#1227 = ORIENTED_EDGE ( 'NONE', *, *, #1249, .F. ) ;
#1228 = DIRECTION ( 'NONE',  ( 0.000000000000000000, 0.000000000000000000, 1.000000000000000000 ) ) ;
#1229 = ADVANCED_FACE ( 'NONE', ( #989 ), #23, .F. ) ;
#1230 = CIRCLE ( 'NONE', #617, 3.150000000000645173 ) ;
#1231 = LINE ( 'NONE', #1117, #1245 ) ;
#1232 = AXIS2_PLACEMENT_3D ( 'NONE', #569, #371, #352 ) ;
#1233 = ORIENTED_EDGE ( 'NONE', *, *, #1167, .T. ) ;
#1234 = EDGE_CURVE ( 'NONE', #1166, #769, #662, .T. ) ;
#1235 = DIRECTION ( 'NONE',  ( 0.000000000000000000, -1.000000000000000000, 0.000000000000000000 ) ) ;
#1236 = VERTEX_POINT ( 'NONE', #1080 ) ;
#1237 = AXIS2_PLACEMENT_3D ( 'NONE', #607, #1164, #290 ) ;
#1238 = CARTESIAN_POINT ( 'NONE',  ( -10.11150098899258865, 3.000000000000000000, -25.35266352377224663 ) ) ;
#1239 = DIRECTION ( 'NONE',  ( 0.000000000000000000, 0.000000000000000000, -1.000000000000000000 ) ) ;
#1240 = VECTOR ( 'NONE', #1026, 1000.000000000000000 ) ;
#1241 = EDGE_LOOP ( 'NONE', ( #215, #298, #338, #1339 ) ) ;
#1242 = CARTESIAN_POINT ( 'NONE',  ( 0.000000000000000000, 1.500000000000000000, 0.000000000000000000 ) ) ;
#1243 = VERTEX_POINT ( 'NONE', #693 ) ;
#1244 = CYLINDRICAL_SURFACE ( 'NONE', #825, 2.250000000000824230 ) ;
#1245 = VECTOR ( 'NONE', #173, 999.9999999999998863 ) ;
#1246 = FACE_OUTER_BOUND ( 'NONE', #1358, .T. ) ;
#1247 = ORIENTED_EDGE ( 'NONE', *, *, #212, .T. ) ;
#1248 = ORIENTED_EDGE ( 'NONE', *, *, #1041, .F. ) ;
#1249 = EDGE_CURVE ( 'NONE', #986, #200, #1130, .T. ) ;
#1250 = LINE ( 'NONE', #278, #257 ) ;
#1251 = FACE_OUTER_BOUND ( 'NONE', #1052, .T. ) ;
#1252 = DIRECTION ( 'NONE',  ( 0.000000000000000000, 0.000000000000000000, 1.000000000000000000 ) ) ;
#1253 = ORIENTED_EDGE ( 'NONE', *, *, #790, .F. ) ;
#1254 = AXIS2_PLACEMENT_3D ( 'NONE', #1319, #346, #777 ) ;
#1255 = ORIENTED_EDGE ( 'NONE', *, *, #351, .T. ) ;
#1256 = VECTOR ( 'NONE', #1209, 1000.000000000000000 ) ;
#1257 = LINE ( 'NONE', #385, #1300 ) ;
#1258 = CARTESIAN_POINT ( 'NONE',  ( 36.47970943351467810, 3.000000000000000000, 10.02401115553650079 ) ) ;
#1259 = AXIS2_PLACEMENT_3D ( 'NONE', #429, #8, #446 ) ;
#1260 = ADVANCED_FACE ( 'NONE', ( #1123 ), #822, .F. ) ;
#1261 = APPLICATION_PROTOCOL_DEFINITION ( 'draft international standard', 'automotive_design', 1998, #227 ) ;
#1262 = VERTEX_POINT ( 'NONE', #801 ) ;
#1263 = ORIENTED_EDGE ( 'NONE', *, *, #1099, .F. ) ;
#1264 = VERTEX_POINT ( 'NONE', #64 ) ;
#1265 = CARTESIAN_POINT ( 'NONE',  ( -29.56345803823052520, 3.000000000000000000, -11.79464128490947772 ) ) ;
#1266 = DIRECTION ( 'NONE',  ( -0.000000000000000000, -1.000000000000000000, -0.000000000000000000 ) ) ;
#1267 = STYLED_ITEM ( 'NONE', ( #845 ), #192 ) ;
#1268 = FILL_AREA_STYLE ('',( #510 ) ) ;
#1269 = DIRECTION ( 'NONE',  ( 0.000000000000000000, 0.000000000000000000, 1.000000000000000000 ) ) ;
#1270 = ORIENTED_EDGE ( 'NONE', *, *, #110, .T. ) ;
#1271 = VERTEX_POINT ( 'NONE', #684 ) ;
#1272 = DIRECTION ( 'NONE',  ( 0.000000000000000000, 0.000000000000000000, -1.000000000000000000 ) ) ;
#1273 = DIRECTION ( 'NONE',  ( -0.8645314244105746226, 0.000000000000000000, 0.5025787661716548671 ) ) ;
#1274 = PRODUCT_DEFINITION ( '未知', '', #978, #1090 ) ;
#1275 =( LENGTH_UNIT ( ) NAMED_UNIT ( * ) SI_UNIT ( .MILLI., .METRE. ) );
#1276 = DIRECTION ( 'NONE',  ( -0.5025787661716548671, 0.000000000000000000, -0.8645314244105746226 ) ) ;
#1277 = VECTOR ( 'NONE', #81, 1000.000000000000000 ) ;
#1278 = CARTESIAN_POINT ( 'NONE',  ( 0.000000000000000000, -2.000000000000000000, 0.000000000000000000 ) ) ;
#1279 = EDGE_CURVE ( 'NONE', #442, #242, #732, .T. ) ;
#1280 = VERTEX_POINT ( 'NONE', #900 ) ;
#1281 = CIRCLE ( 'NONE', #418, 2.250000000000556888 ) ;
#1282 = FACE_BOUND ( 'NONE', #137, .T. ) ;
#1283 = AXIS2_PLACEMENT_3D ( 'NONE', #1091, #103, #13 ) ;
#1284 = FACE_OUTER_BOUND ( 'NONE', #475, .T. ) ;
#1285 = CIRCLE ( 'NONE', #671, 7.000000000000000000 ) ;
#1286 = DIRECTION ( 'NONE',  ( -0.000000000000000000, 1.000000000000000000, -0.000000000000000000 ) ) ;
#1287 = VERTEX_POINT ( 'NONE', #490 ) ;
#1288 = VERTEX_POINT ( 'NONE', #146 ) ;
#1289 = CARTESIAN_POINT ( 'NONE',  ( -12.12435565298220652, 3.000000000000000000, -6.999999999999052314 ) ) ;
#1290 = CYLINDRICAL_SURFACE ( 'NONE', #1283, 2.050000000002246026 ) ;
#1291 = DIRECTION ( 'NONE',  ( -0.000000000000000000, -1.000000000000000000, -0.000000000000000000 ) ) ;
#1292 = VERTEX_POINT ( 'NONE', #1355 ) ;
#1293 = CARTESIAN_POINT ( 'NONE',  ( 6.123233995736766282E-16, 1.500000000000000000, -5.000000000000000000 ) ) ;
#1294 = EDGE_CURVE ( 'NONE', #702, #455, #590, .T. ) ;
#1295 = LINE ( 'NONE', #111, #1147 ) ;
#1296 = CIRCLE ( 'NONE', #928, 2.250000000000799805 ) ;
#1297 = EDGE_CURVE ( 'NONE', #536, #670, #50, .T. ) ;
#1298 = CARTESIAN_POINT ( 'NONE',  ( 7.347880794884120722E-16, -2.000000000000000000, 6.000000000000000888 ) ) ;
#1299 =( NAMED_UNIT ( * ) SI_UNIT ( $, .STERADIAN. ) SOLID_ANGLE_UNIT ( ) );
#1300 = VECTOR ( 'NONE', #1169, 1000.000000000000000 ) ;
#1301 = ORIENTED_EDGE ( 'NONE', *, *, #641, .T. ) ;
#1302 = CARTESIAN_POINT ( 'NONE',  ( 0.000000000000000000, 0.000000000000000000, 0.000000000000000000 ) ) ;
#1303 = ORIENTED_EDGE ( 'NONE', *, *, #1066, .F. ) ;
#1304 = LINE ( 'NONE', #851, #260 ) ;
#1305 = VECTOR ( 'NONE', #565, 1000.000000000000000 ) ;
#1306 = DIRECTION ( 'NONE',  ( -0.000000000000000000, -1.000000000000000000, -0.000000000000000000 ) ) ;
#1307 = CIRCLE ( 'NONE', #875, 2.050000000000279154 ) ;
#1308 = CARTESIAN_POINT ( 'NONE',  ( 0.000000000000000000, 3.000000000000000000, 0.000000000000000000 ) ) ;
#1309 = ORIENTED_EDGE ( 'NONE', *, *, #778, .F. ) ;
#1310 = CARTESIAN_POINT ( 'NONE',  ( 12.12435565298263462, 3.000000000000000000, -7.000000000000863309 ) ) ;
#1311 = EDGE_LOOP ( 'NONE', ( #1385, #299, #726, #380 ) ) ;
#1312 = FACE_OUTER_BOUND ( 'NONE', #1377, .T. ) ;
#1313 = STYLED_ITEM ( 'NONE', ( #893 ), #1122 ) ;
#1314 = CARTESIAN_POINT ( 'NONE',  ( 0.000000000000000000, 1.500000000000000000, 0.000000000000000000 ) ) ;
#1315 = ADVANCED_FACE ( 'NONE', ( #1246 ), #550, .F. ) ;
#1316 = DIRECTION ( 'NONE',  ( 0.000000000000000000, 0.000000000000000000, 1.000000000000000000 ) ) ;
#1317 = ORIENTED_EDGE ( 'NONE', *, *, #1279, .F. ) ;
#1318 = PRODUCT_DEFINITION_SHAPE ( 'NONE', 'NONE',  #1274 ) ;
#1319 = CARTESIAN_POINT ( 'NONE',  ( -29.56345803823052520, 3.000000000000000000, -14.04464128491001595 ) ) ;
#1320 = DIRECTION ( 'NONE',  ( -0.000000000000000000, -1.000000000000000000, -0.000000000000000000 ) ) ;
#1321 = DIRECTION ( 'NONE',  ( 0.000000000000000000, 0.000000000000000000, -1.000000000000000000 ) ) ;
#1322 = CARTESIAN_POINT ( 'NONE',  ( 1.984376143571862200E-12, 3.000000000000000000, 11.94999999999775397 ) ) ;
#1323 = EDGE_LOOP ( 'NONE', ( #976, #582 ) ) ;
#1324 = FACE_BOUND ( 'NONE', #1114, .T. ) ;
#1325 = ADVANCED_FACE ( 'NONE', ( #254 ), #906, .F. ) ;
#1326 = EDGE_LOOP ( 'NONE', ( #477, #580 ) ) ;
#1327 = CARTESIAN_POINT ( 'NONE',  ( 8.572527594031473190E-16, -2.000000000000000000, -7.000000000000000000 ) ) ;
#1328 = AXIS2_PLACEMENT_3D ( 'NONE', #532, #1083, #745 ) ;
#1329 = VECTOR ( 'NONE', #1374, 1000.000000000000000 ) ;
#1330 = DIRECTION ( 'NONE',  ( 0.000000000000000000, 0.000000000000000000, -1.000000000000000000 ) ) ;
#1331 = ORIENTED_EDGE ( 'NONE', *, *, #1234, .T. ) ;
#1332 = DIRECTION ( 'NONE',  ( 0.000000000000000000, 0.000000000000000000, 1.000000000000000000 ) ) ;
#1333 = CARTESIAN_POINT ( 'NONE',  ( -12.12435565298220652, 0.000000000000000000, -9.050000000000261835 ) ) ;
#1334 = DIRECTION ( 'NONE',  ( 0.000000000000000000, 1.000000000000000000, 0.000000000000000000 ) ) ;
#1335 = ORIENTED_EDGE ( 'NONE', *, *, #862, .T. ) ;
#1336 = EDGE_CURVE ( 'NONE', #658, #719, #480, .T. ) ;
#1337 = AXIS2_PLACEMENT_3D ( 'NONE', #136, #344, #359 ) ;
#1338 = LINE ( 'NONE', #149, #237 ) ;
#1339 = ORIENTED_EDGE ( 'NONE', *, *, #104, .F. ) ;
#1340 = DIRECTION ( 'NONE',  ( -0.000000000000000000, -1.000000000000000000, -0.000000000000000000 ) ) ;
#1341 = CARTESIAN_POINT ( 'NONE',  ( 0.000000000000000000, -2.000000000000000000, 7.000000000000000000 ) ) ;
#1342 = EDGE_CURVE ( 'NONE', #1364, #1036, #1296, .T. ) ;
#1343 = CARTESIAN_POINT ( 'NONE',  ( 33.71672555201151056, 0.000000000000000000, -19.60057188069399814 ) ) ;
#1344 = ORIENTED_EDGE ( 'NONE', *, *, #49, .T. ) ;
#1345 = FACE_BOUND ( 'NONE', #929, .T. ) ;
#1346 = ORIENTED_EDGE ( 'NONE', *, *, #251, .F. ) ;
#1347 = DIRECTION ( 'NONE',  ( 0.000000000000000000, 0.000000000000000000, -1.000000000000000000 ) ) ;
#1348 = DIRECTION ( 'NONE',  ( 0.000000000000000000, -1.000000000000000000, 0.000000000000000000 ) ) ;
#1349 = CONICAL_SURFACE ( 'NONE', #132, 6.150000000000814815, 0.7853981633974533860 ) ;
#1350 = ORIENTED_EDGE ( 'NONE', *, *, #840, .T. ) ;
#1351 = DIRECTION ( 'NONE',  ( 0.000000000000000000, 0.000000000000000000, -1.000000000000000000 ) ) ;
#1352 = AXIS2_PLACEMENT_3D ( 'NONE', #6, #426, #1096 ) ;
#1353 = ORIENTED_EDGE ( 'NONE', *, *, #230, .T. ) ;
#1354 = DIRECTION ( 'NONE',  ( -0.000000000000000000, -1.000000000000000000, -0.000000000000000000 ) ) ;
#1355 = CARTESIAN_POINT ( 'NONE',  ( -12.12435565298220652, 3.000000000000000000, -9.050000000000261835 ) ) ;
#1356 = EDGE_CURVE ( 'NONE', #372, #836, #1231, .T. ) ;
#1357 = ORIENTED_EDGE ( 'NONE', *, *, #251, .T. ) ;
#1358 = EDGE_LOOP ( 'NONE', ( #956, #1248, #614, #80 ) ) ;
#1359 = CARTESIAN_POINT ( 'NONE',  ( 0.000000000000000000, 1.500000000000000000, 0.000000000000000000 ) ) ;
#1360 = DIRECTION ( 'NONE',  ( 0.000000000000000000, 0.000000000000000000, 1.000000000000000000 ) ) ;
#1361 = EDGE_CURVE ( 'NONE', #986, #202, #364, .T. ) ;
#1362 = DIRECTION ( 'NONE',  ( 0.000000000000000000, 0.000000000000000000, -1.000000000000000000 ) ) ;
#1363 = ORIENTED_EDGE ( 'NONE', *, *, #374, .T. ) ;
#1364 = VERTEX_POINT ( 'NONE', #599 ) ;
#1365 = EDGE_LOOP ( 'NONE', ( #734, #646, #1357, #383 ) ) ;
#1366 = DIRECTION ( 'NONE',  ( 0.000000000000000000, 0.000000000000000000, 1.000000000000000000 ) ) ;
#1367 = EDGE_CURVE ( 'NONE', #802, #310, #343, .T. ) ;
#1368 = LINE ( 'NONE', #618, #357 ) ;
#1369 = DIRECTION ( 'NONE',  ( 0.000000000000000000, 1.000000000000000000, 0.000000000000000000 ) ) ;
#1370 = ORIENTED_EDGE ( 'NONE', *, *, #773, .T. ) ;
#1371 = EDGE_LOOP ( 'NONE', ( #47, #115, #1042, #931 ) ) ;
#1372 = AXIS2_PLACEMENT_3D ( 'NONE', #1054, #1266, #92 ) ;
#1373 = DIRECTION ( 'NONE',  ( 0.000000000000000000, 1.000000000000000000, 0.000000000000000000 ) ) ;
#1374 = DIRECTION ( 'NONE',  ( -0.000000000000000000, -1.000000000000000000, -0.000000000000000000 ) ) ;
#1375 = AXIS2_PLACEMENT_3D ( 'NONE', #853, #1286, #1252 ) ;
#1376 = DIRECTION ( 'NONE',  ( 0.000000000000000000, 1.000000000000000000, 0.000000000000000000 ) ) ;
#1377 = EDGE_LOOP ( 'NONE', ( #885, #867, #1137, #328 ) ) ;
#1378 = CIRCLE ( 'NONE', #520, 5.000000000000000000 ) ;
#1379 = EDGE_LOOP ( 'NONE', ( #68, #568, #586, #1384 ) ) ;
#1380 = CARTESIAN_POINT ( 'NONE',  ( 2.510525938252073693E-16, 3.000000000000000000, -11.95000000000000107 ) ) ;
#1381 = DIRECTION ( 'NONE',  ( -0.5025787661716547561, 0.000000000000000000, -0.8645314244105747337 ) ) ;
#1382 = FACE_OUTER_BOUND ( 'NONE', #1379, .T. ) ;
#1383 = EDGE_CURVE ( 'NONE', #1271, #1243, #632, .T. ) ;
#1384 = ORIENTED_EDGE ( 'NONE', *, *, #923, .F. ) ;
#1385 = ORIENTED_EDGE ( 'NONE', *, *, #855, .F. ) ;
#1386 = CARTESIAN_POINT ( 'NONE',  ( -12.12435565298065221, 3.000000000000000000, 4.949999999998779820 ) ) ;
#1387 = CYLINDRICAL_SURFACE ( 'NONE', #623, 2.250000000000799805 ) ;
#1388 = ORIENTED_EDGE ( 'NONE', *, *, #1383, .F. ) ;
#1389 = VERTEX_POINT ( 'NONE', #1035 ) ;
#1390 = ORIENTED_EDGE ( 'NONE', *, *, #110, .F. ) ;
#1391 = CIRCLE ( 'NONE', #1254, 2.250000000000536460 ) ;
#1392 = DIRECTION ( 'NONE',  ( 0.000000000000000000, 1.000000000000000000, 0.000000000000000000 ) ) ;
ENDSEC;
END-ISO-10303-21;
